<svg xmlns="http://www.w3.org/2000/svg" width="1536" height="602"><path fill="#FED088" d="M1193 72v2h3c12 2 23 9 33 16l6 3v2h2l9 5 14 7v2l3 1 8 4v2h2a33 33 0 0 1 8 4l2 1v2l3 1 11 5 25 13 2 1v2l3 1 11 5 6 4 6 5 3 2 3 2v2h2c4 2 7 4 10 8 6 5 13 7 20 9l5 2h2l4 3 4 2a601 601 0 0 0 24 13c10 6 17 12 24 21l7 7c4 3 6 6 8 11l3 4 5 8 7 12c7 12 10 25 12 38v2a176 176 0 0 1-29 142c-6 8-13 16-21 22l-2 2c-6 6-12 11-19 15l-14 7-10 5-21 14c-7 6-7 6-11 6v2l-5 3-3 1-4 1v2l-6 3-3 1-5 1v2l-6 3-4 1-5 1v2l-7 3h-2l-10 2v2l-2 1-8 2-3 1-14 4-15 3-17 3-12 2h-2l-20 2-6 1h-15l-9-1h-3c-46-2-46-2-49-5l-5-1c-17-2-33-6-49-12v-2h-3c-8-1-16-5-24-9l-8-3v-2h-2l-2-1-2-1-5-2c-6-5-11-5-19-5h-26a4573 4573 0 0 0-153 0h-3a298745 298745 0 0 1-597-3h-6l-3-1h-9l3 1a2873 2873 0 0 1 19 10l3 2c3 2 5 4 6 7v7c-3 3-5 5-9 6-5 0-9-2-13-5l-3-1a1226 1226 0 0 1-14-8l-3-1a906 906 0 0 0-15-8c-11-8-23-6-36-6-25 0-49-8-70-22l-3-2c-7-5-7-5-7-8 0-4 1-7 3-10l7-1h3l2-1h9l-3-1c-24-5-44-15-58-36l-4-8 2-5 1-2c2-2 3-3 6-3h7a125 125 0 0 1 8 0c-17-6-33-16-41-33-3-6-4-13-3-20 2-3 3-3 6-5 7-1 14 2 20 5l3 2 1-2-3-1c-12-4-23-16-29-28-5-12-8-27-3-39 3-3 5-4 10-4 5 1 9 4 13 7l2 1 8 9 2 1c-1-4-3-6-6-9a62 62 0 0 1-20-42c0-9 2-17 7-24 4-2 7-2 11-2 9 4 16 14 20 22v-7l-2-3c-9-14-14-29-10-46 2-8 6-17 13-21l9 1c9 7 12 16 14 27 4-5 4-5 5-10l-2-7c-3-14-3-28 3-42 5-7 12-14 20-18 3 0 5 0 8 2l3 4 2 13 1-2c7-10 16-15 28-18l3-1 9 1c3 2 4 3 5 6 0 11-5 21-11 29h9l6 3c5 2 11 0 16-1l6-2h3l23-4 2-1a2635 2635 0 0 1 20-2h2c17-2 34-2 51-2h11a20223 20223 0 0 1 163 0h18a8759899 8759899 0 0 1 84 0h4a236631 236631 0 0 1 223 0h2a37539 37539 0 0 1 168 0c6-1 9-1 14-5l4-3 2-1 4-1v-2l5-2 3-2 4-1v-2l3-1 27-15 3-1 3-2 5-1v-2l4-2 3-2 4-1v-2l5-2 3-2 4-1v-2l12-5v-2l3-1 3-2 2-1 12-7 4-1v-2l6-2 3-2 5-1v-2a1126 1126 0 0 1 18-5v-2l5-1 3-1c17-4 37-3 54 2Z"/><path fill="#FAEEDE" d="M1193 72v2h3c12 2 23 9 33 16l6 3v2h2l9 5 14 7v2l3 1 8 4v2h2a33 33 0 0 1 8 4l2 1v2l3 1 11 5 25 13 2 1v2l3 1 11 5 6 4 6 5 3 2 3 2v2h2c4 2 7 4 10 8 6 5 13 7 20 9l5 2h2l4 3 4 2a601 601 0 0 0 24 13c10 6 17 12 24 21l7 7c4 3 6 6 8 11l3 4 5 8 7 12c7 12 10 25 12 38v2a176 176 0 0 1-29 142c-6 8-13 16-21 22l-2 2c-6 6-12 11-19 15l-14 7-10 5-21 14c-7 6-7 6-11 6v2l-5 3-3 1-4 1v2l-6 3-3 1-5 1v2l-6 3-4 1-5 1v2l-7 3h-2l-10 2v2l-2 1-8 2-3 1-14 4-15 3-17 3-12 2h-2l-20 2-6 1h-15l-9-1h-3c-46-2-46-2-49-5l-5-1c-17-2-33-6-49-12v-2h-3c-8-1-16-5-24-9l-8-3v-2h-2l-2-1-2-1-5-2c-6-5-11-5-19-5h-26a4573 4573 0 0 0-153 0h-3a298745 298745 0 0 1-597-3h-6l-3-1h-9l3 1a2873 2873 0 0 1 19 10l3 2c3 2 5 4 6 7v7c-3 3-5 5-9 6-5 0-9-2-13-5l-3-1a1226 1226 0 0 1-14-8l-3-1a906 906 0 0 0-15-8c-11-8-23-6-36-6-25 0-49-8-70-22l-3-2c-7-5-7-5-7-8 0-4 1-7 3-10l7-1h3l2-1h9l-3-1c-24-5-44-15-58-36l-4-8 2-5 1-2c2-2 3-3 6-3h7a125 125 0 0 1 8 0c-17-6-33-16-41-33-3-6-4-13-3-20 2-3 3-3 6-5 7-1 14 2 20 5l3 2 1-2-3-1c-12-4-23-16-29-28-5-12-8-27-3-39 3-3 5-4 10-4 5 1 9 4 13 7l2 1 8 9 2 1c-1-4-3-6-6-9a62 62 0 0 1-20-42c0-9 2-17 7-24 4-2 7-2 11-2 9 4 16 14 20 22v-7l-2-3c-9-14-14-29-10-46 2-8 6-17 13-21l9 1c9 7 12 16 14 27 4-5 4-5 5-10l-2-7c-3-14-3-28 3-42 5-7 12-14 20-18 3 0 5 0 8 2l3 4 2 13 1-2c7-10 16-15 28-18l3-1 9 1c3 2 4 3 5 6 0 11-5 21-11 29h9l6 3c5 2 11 0 16-1l6-2h3l23-4 2-1a2635 2635 0 0 1 20-2h2c17-2 34-2 51-2h11a20223 20223 0 0 1 163 0h18a8759899 8759899 0 0 1 84 0h4a236631 236631 0 0 1 223 0h2a37539 37539 0 0 1 168 0c6-1 9-1 14-5l4-3 2-1 4-1v-2l5-2 3-2 4-1v-2l3-1 27-15 3-1 3-2 5-1v-2l4-2 3-2 4-1v-2l5-2 3-2 4-1v-2l12-5v-2l3-1 3-2 2-1 12-7 4-1v-2l6-2 3-2 5-1v-2a1126 1126 0 0 1 18-5v-2l5-1 3-1c17-4 37-3 54 2ZM124 152c-5 6-7 14-8 21l-4 5v-3a2642 2642 0 0 0 0-24v-8l-2-2c-7 0-12 4-17 9-8 8-10 16-10 28v2c0 7 1 14 3 20v8l-5 8-1 3-4 5v-2c-3-18-3-18-14-32l-5-1c-7 4-10 12-13 20-3 15 3 30 11 43l2 2c2 4 1 9 0 14l-2 7-1-2c-4-9-8-17-15-24l-2-2c-4-2-6-3-10-3-7 9-8 19-7 30 3 14 10 24 20 34l2 2 6 6h2v22l-4-6c-7-12-16-24-30-29l-5 1c-2 5-2 9-2 15v2c0 15 6 26 16 37 6 6 14 11 22 13 6 3 11 5 14 11l6 15c-2 0-4-2-5-4-12-10-27-23-44-23l-3 3c-1 10 3 18 8 26a87 87 0 0 0 53 28c5 1 7 2 9 6l4 5 1 2 4 6-9-4c-8-5-16-8-25-11l-3-1-11-1h-4l-6 2c0 7 4 11 8 17l2 2a80 80 0 0 0 48 26l15 2c8 0 13 0 19 6a167 167 0 0 1 7 8c-29-9-29-9-59-7l-1 6c22 18 46 30 75 29 22-1 36 1 54 13l14 8 4 2 2 1 6 3c3 2 5 3 9 2 3-1 3-1 4-4v-6l-2-1-12-6-2-1-30-17-3-2-2-1-6-2v-2c4-17 4-34-5-49-4-6-9-13-16-16-3 0-5 1-7 3-6 9-6 19-4 30a227 227 0 0 0 2 12l-2-2-17-16 1-2c6-17 11-35 3-53l-6-8-2-2-5-3c-5 2-9 5-12 10-4 7-5 13-5 21v12l-5-6-1-2-7-9 4-8c9-16 17-33 12-51l-7-15-7 1c-9 8-16 18-17 30v10h-2l-1-4-7-16 2-1c15-8 26-23 32-39 2-8 2-15 1-23-2-2-2-2-5-2-10 0-18 6-25 13-5 6-9 13-12 20l-1-8-1-7 1-10 13-8c15-8 27-22 36-37-2 14-15 25-26 33l-20 13-2 5 2 8 7-8c5-7 13-14 22-16h9l3 3h2l-1 10v3c-1 8-3 16-7 24l-1 2-1 2 4 1c3 0 5 1 7 4 6 12 7 25 4 38-3 10-8 20-14 29v4c1 3 3 6 6 8v-3c1-8 2-15 6-22l2-3c3-4 6-7 10-7l7-1v2l2 2c9 9 12 18 12 30l-2 16v3l-4 10v8l5 4 2 2 3 2v-14c0-7 1-13 4-19l3-3v-2c6-1 9 0 14 3 9 9 16 20 18 32v16l-1 16c12 6 26 7 39 8a1108 1108 0 0 1 39 1v2h748c-4-4-6-6-11-8a1616 1616 0 0 1-8-7 148 148 0 0 1-21-18 156 156 0 0 1-15-13l-15-15-4-4c-8-8-17-18-24-29l-2-3h-2l-1-2-4-9-6-11-1-2-6-12-1-2c-3-6-4-12-5-18l-2-5c-10-21-6-59 0-80l2-5 3-10 5-13 3-6c2-6 6-12 9-17l2-3 13-18 1-2c11-13 22-25 36-35l2-1v-2H267v2h-3a246 246 0 0 0-34 2l-15 2h-4l-28 4-3 1c-5 1-5 1-9 4l-3 6c-10 12-28 17-42 21h-3l-16 3c-3 1-5 3-7 6l2 1 6-2c6-3 11-4 18-4l3-1 6 3c3 4 2 6 1 10-6 16-22 23-37 30l-17 6-5 2c-2 4-2 6-1 10l2-2c5-5 10-8 16-11l-9 8-14 13v-3l3-17h2c19-5 44-15 56-32 2-4 3-7 3-11l-2-3c-15-2-27 4-40 12 1-4 4-8 7-12l1-5h2c22-2 48-8 64-24l3-7-4-4c-13-4-25 1-37 5l3-2c14-7 21-12 26-27l1-11c-2-2-2-2-5-2-12 1-22 5-30 13Z"/><path fill="#030302" d="M1193 72v2h3c12 2 23 9 33 16l6 3v2h2l9 5 14 7v2l3 1 8 4v2h2a33 33 0 0 1 8 4l2 1v2l3 1 11 5 25 13 2 1v2l3 1 11 5 6 4 6 5 3 2 3 2v2h2c4 2 7 4 10 8 6 5 13 7 20 9l5 2h2l4 3 4 2a601 601 0 0 0 24 13c10 6 17 12 24 21l7 7c4 3 6 6 8 11l3 4 5 8 7 12c7 12 10 25 12 38v2a176 176 0 0 1-29 142c-6 8-13 16-21 22l-2 2c-6 6-12 11-19 15l-14 7-10 5-21 14c-7 6-7 6-11 6v2l-5 3-3 1-4 1v2l-6 3-3 1-5 1v2l-6 3-4 1-5 1v2l-7 3h-2l-10 2v2l-2 1-8 2-3 1-14 4-15 3-17 3-12 2h-2l-20 2-6 1h-15l-9-1h-3c-46-2-46-2-49-5l-5-1c-17-2-33-6-49-12v-2h-3c-8-1-16-5-24-9l-8-3v-2h-2l-2-1-2-1-5-2c-6-5-11-5-19-5h-26a4573 4573 0 0 0-153 0h-3a298745 298745 0 0 1-597-3h-6l-3-1h-9l3 1a2873 2873 0 0 1 19 10l3 2c3 2 5 4 6 7v7c-3 3-5 5-9 6-5 0-9-2-13-5l-3-1a1226 1226 0 0 1-14-8l-3-1a906 906 0 0 0-15-8c-11-8-23-6-36-6-25 0-49-8-70-22l-3-2c-7-5-7-5-7-8 0-4 1-7 3-10l7-1h3l2-1h9l-3-1c-24-5-44-15-58-36l-4-8 2-5 1-2c2-2 3-3 6-3h7a125 125 0 0 1 8 0c-17-6-33-16-41-33-3-6-4-13-3-20 2-3 3-3 6-5 7-1 14 2 20 5l3 2 1-2-3-1c-12-4-23-16-29-28-5-12-8-27-3-39 3-3 5-4 10-4 5 1 9 4 13 7l2 1 8 9 2 1c-1-4-3-6-6-9a62 62 0 0 1-20-42c0-9 2-17 7-24 4-2 7-2 11-2 9 4 16 14 20 22v-7l-2-3c-9-14-14-29-10-46 2-8 6-17 13-21l9 1c9 7 12 16 14 27 4-5 4-5 5-10l-2-7c-3-14-3-28 3-42 5-7 12-14 20-18 3 0 5 0 8 2l3 4 2 13 1-2c7-10 16-15 28-18l3-1 9 1c3 2 4 3 5 6 0 11-5 21-11 29h9l6 3c5 2 11 0 16-1l6-2h3l23-4 2-1a2635 2635 0 0 1 20-2h2c17-2 34-2 51-2h11a20223 20223 0 0 1 163 0h18a8759899 8759899 0 0 1 84 0h4a236631 236631 0 0 1 223 0h2a37539 37539 0 0 1 168 0c6-1 9-1 14-5l4-3 2-1 4-1v-2l5-2 3-2 4-1v-2l3-1 27-15 3-1 3-2 5-1v-2l4-2 3-2 4-1v-2l5-2 3-2 4-1v-2l12-5v-2l3-1 3-2 2-1 12-7 4-1v-2l6-2 3-2 5-1v-2a1126 1126 0 0 1 18-5v-2l5-1 3-1c17-4 37-3 54 2Zm-56 18v2l-3 1c-11 2-20 8-29 13a490 490 0 0 1-22 12v2l-3 1-9 4v2l-2 1c-5 1-9 4-13 6l-5 3-2 1-2 1v2l-2 1c-5 1-9 4-14 6l-3 2-6 3v2h-2l-11 5v2l-2 1c-8 2-8 2-13 7l-3 2c-20 9-43 31-55 49l-1 3a720 720 0 0 1-8 9l-1 3-4 9h-2l-11 25-1 2-1 10h-2l-1 7-1 4c-5 24-3 51 4 74h2v3c1 6 4 11 6 16l1 3 5 10h2l1 3 3 7h2l1 2c6 14 20 27 31 37l6 6 12 9 2 2c6 5 6 5 13 7v2l3 2 4 2 2 1 12 7 15 7 7 3c7 3 14 6 21 6v2l2 1 6 1 3 1 7 1 3 1a571 571 0 0 1 26 6h3l25 2v2a6617 6617 0 0 0 63-2l8-1h2l6-1 26-4v-2h2a112 112 0 0 0 45-13l10-5 6-2v-2h2l12-5v-2l3-1 11-5 2-2 5-3v-2l2-1c4-1 6-3 10-6l1-1a230 230 0 0 0 48-51l7-13 1-3 9-20 1-3c10-25 10-57 4-84h-2v-2c-3-18-11-33-20-48h-2l-1-3-5-8-2-2-2-3a11843 11843 0 0 1-17-18l-4-4-8-8-2-2a1048 1048 0 0 0-9-6 230 230 0 0 0-50-30l-3-2-5-1v-2l-2-1-27-15-7-3v-2l-5-2-3-2-4-1v-2l-3-1-3-2-4-2-6-4-9-5-3-2-3-1-3-2-5-1v-2l-5-2-3-1-6-1v-2l-3-1h-2c-14-4-30-3-44 1ZM124 152c-5 6-7 14-8 21l-4 5v-3a2642 2642 0 0 0 0-24v-8l-2-2c-7 0-12 4-17 9-8 8-10 16-10 28v2c0 7 1 14 3 20v8l-5 8-1 3-4 5v-2c-3-18-3-18-14-32l-5-1c-7 4-10 12-13 20-3 15 3 30 11 43l2 2c2 4 1 9 0 14l-2 7-1-2c-4-9-8-17-15-24l-2-2c-4-2-6-3-10-3-7 9-8 19-7 30 3 14 10 24 20 34l2 2 6 6h2v22l-4-6c-7-12-16-24-30-29l-5 1c-2 5-2 9-2 15v2c0 15 6 26 16 37 6 6 14 11 22 13 6 3 11 5 14 11l6 15c-2 0-4-2-5-4-12-10-27-23-44-23l-3 3c-1 10 3 18 8 26a87 87 0 0 0 53 28c5 1 7 2 9 6l4 5 1 2 4 6-9-4c-8-5-16-8-25-11l-3-1-11-1h-4l-6 2c0 7 4 11 8 17l2 2a80 80 0 0 0 48 26l15 2c8 0 13 0 19 6a167 167 0 0 1 7 8c-29-9-29-9-59-7l-1 6c22 18 46 30 75 29 22-1 36 1 54 13l14 8 4 2 2 1 6 3c3 2 5 3 9 2 3-1 3-1 4-4v-6l-2-1-12-6-2-1-30-17-3-2-2-1-6-2v-2c4-17 4-34-5-49-4-6-9-13-16-16-3 0-5 1-7 3-6 9-6 19-4 30a227 227 0 0 0 2 12l-2-2-17-16 1-2c6-17 11-35 3-53l-6-8-2-2-5-3c-5 2-9 5-12 10-4 7-5 13-5 21v12l-5-6-1-2-7-9 4-8c9-16 17-33 12-51l-7-15-7 1c-9 8-16 18-17 30v10h-2l-1-4-7-16 2-1c15-8 26-23 32-39 2-8 2-15 1-23-2-2-2-2-5-2-10 0-18 6-25 13-5 6-9 13-12 20l-1-8-1-7 1-10 13-8c15-8 27-22 36-37-2 14-15 25-26 33l-20 13-2 5 2 8 7-8c5-7 13-14 22-16h9l3 3h2l-1 10v3c-1 8-3 16-7 24l-1 2-1 2 4 1c3 0 5 1 7 4 6 12 7 25 4 38-3 10-8 20-14 29v4c1 3 3 6 6 8v-3c1-8 2-15 6-22l2-3c3-4 6-7 10-7l7-1v2l2 2c9 9 12 18 12 30l-2 16v3l-4 10v8l5 4 2 2 3 2v-14c0-7 1-13 4-19l3-3v-2c6-1 9 0 14 3 9 9 16 20 18 32v16l-1 16c12 6 26 7 39 8a1108 1108 0 0 1 39 1v2h748c-4-4-6-6-11-8a1616 1616 0 0 1-8-7 148 148 0 0 1-21-18 156 156 0 0 1-15-13l-15-15-4-4c-8-8-17-18-24-29l-2-3h-2l-1-2-4-9-6-11-1-2-6-12-1-2c-3-6-4-12-5-18l-2-5c-10-21-6-59 0-80l2-5 3-10 5-13 3-6c2-6 6-12 9-17l2-3 13-18 1-2c11-13 22-25 36-35l2-1v-2H267v2h-3a246 246 0 0 0-34 2l-15 2h-4l-28 4-3 1c-5 1-5 1-9 4l-3 6c-10 12-28 17-42 21h-3l-16 3c-3 1-5 3-7 6l2 1 6-2c6-3 11-4 18-4l3-1 6 3c3 4 2 6 1 10-6 16-22 23-37 30l-17 6-5 2c-2 4-2 6-1 10l2-2c5-5 10-8 16-11l-9 8-14 13v-3l3-17h2c19-5 44-15 56-32 2-4 3-7 3-11l-2-3c-15-2-27 4-40 12 1-4 4-8 7-12l1-5h2c22-2 48-8 64-24l3-7-4-4c-13-4-25 1-37 5l3-2c14-7 21-12 26-27l1-11c-2-2-2-2-5-2-12 1-22 5-30 13Z"/><path fill="#FEFEFD" d="M267 168h696v2l-4 3a261 261 0 0 0-27 26l-8 8a60 60 0 0 1-12 0h-11a2653 2653 0 0 0-92 0h-44a105489 105489 0 0 0-131 0H496a257761 257761 0 0 0-150 0 560 560 0 0 0-141 10v2h-6v2l-10 2-12 5-8 2-1 3-4 2c-3 0-5 1-8 3l-1 3-4 3a193 193 0 0 0-20 14l-9 10c-1 2-3 4-6 5v-2l1-4v-3c0-3 0-3-2-5-3-3-5-2-9-2h-7c3-3 6-4 10-6 11-5 23-13 27-25l1-7c-1-3-1-3-4-5-9-2-18 0-26 4l-7 2c1-4 3-4 6-6l9-2c20-4 43-10 56-27l1-2 3-3h2l3-1 3-1h3a203 203 0 0 1 35-5c15-3 31-3 46-3v-2ZM187 462l22 4c18 5 37 8 56 10v2h19l37 1h8a18477 18477 0 0 0 254 0h3a92613 92613 0 0 0 212 0h3a17434 17434 0 0 0 157 0h3c5 0 8 1 12 5l4 4 15 13 2 1 9 6 3 3a153 153 0 0 0 9 6v1H267v-2h-3a365 365 0 0 1-64-5h-2l-9-4v-3c2-13 2-29-2-42Z"/><path fill="#FDFDFC" d="M157 139c2 2 2 2 2 5l-3 12v2c-4 10-11 15-20 20l-3 1a484 484 0 0 1-4 2c11-5 24-9 37-5l4 4c0 4-1 5-3 7-15 16-40 22-61 24h-5l-1 2-5 10-1 2-2 4 2-1c9-7 19-12 32-12h7c2 3 2 4 2 8-5 13-17 20-28 26-25 12-25 12-33 12a4047 4047 0 0 0-2 11v2l-1 2v5l2-2c10-10 21-21 35-21 5 0 5 0 7 2-1 16-12 27-23 38-8 7-17 13-27 18l1 25 1-2c3-7 7-12 12-18l2-2c5-6 12-10 19-11h6c2 2 2 4 2 7 0 18-7 33-19 46-12 12-12 12-16 12l1 2 3 7 1 2 1 3 1 2 1 4h2v-2c0-13 4-25 13-34 5-5 5-5 9-5h2a1875 1875 0 0 1 4 9c6 11 5 24 1 35-2 9-7 16-11 24l-3 6 13 17v-15c0-9 2-16 8-23 3-2 5-4 9-5 6 2 9 6 12 11 9 17 5 34-1 51l-2 6 8 8 3 2 2 2 2 2 5 4-1-2v-3l-1-2c-3-10-4-22 1-32l5-6c7 0 11 5 16 10 9 11 11 22 11 35v3c0 7 0 13-2 19l3 1 11 5a3400 3400 0 0 0 7 4l19 10 17 10c0 4 0 5-2 8-3 3-4 2-8 2l-10-5-7-4-3-1-15-8-6-3-2-2-6-3c-4-2-8-3-13-3h-10c-21 0-21 0-31-2h-2c-20-5-37-14-53-27l1-6c13-4 29-1 41 2l3 1 18 5a3499 3499 0 0 0-8-7l-3-3-2-2c-4-3-6-2-10-2-25-1-49-9-67-26-6-6-11-13-12-22 4-2 5-2 10-2h3l11 2 3 1c9 3 17 7 24 11l7 3c-6-12-6-12-17-19l-12-3c-17-3-34-14-44-28-4-7-7-15-6-23 2-2 3-3 6-3 19 4 33 16 47 29a4860 4860 0 0 0-6-13l-1-2-1-3c-2-5-5-6-10-8-16-7-30-16-37-32l-1-2c-3-6-3-13-3-20v-2c0-5 0-9 2-13 5-1 8 0 12 2 12 8 20 20 27 32v-22l-4-2c-13-12-24-25-26-44-1-9 1-16 5-24l2-2c6 0 10 2 14 6 6 7 11 16 14 25 2-6 5-15 2-21l-2-3c-9-11-12-27-11-40 2-8 6-16 12-22 3 0 5 0 8 3 8 9 10 20 12 32l6-8 1-2c3-4 4-6 4-11l-2-6c-4-11-4-28 1-38 4-7 11-15 19-18h5c2 2 2 2 2 5v7a1294 1294 0 0 1 0 25c3-3 4-6 5-10 2-10 6-17 15-22 7-5 16-8 25-7Z"/><path fill="#F2DBCB" d="m1416 283 1 2h2c6 28 6 60-5 87l-1 3a293 293 0 0 1-13 27l-1 2-1 2-4 5-4 5a289 289 0 0 1-28 32l-3 3c-19 16-19 16-23 16v2l-4 3-3 1-2 2-3 1-9 4-1 3-5 2-3 1-5 1v2l-2 1-12 5-18 7-2 1-15 4-2 1-12 1v2c-12 3-25 4-37 6h-2l-6 1-5 1h-16a6445 6445 0 0 1-39 0v-2h-3a260 260 0 0 1-72-13v-2h-2a110 110 0 0 1-37-15l-15-8-10-5v-2l-2-1-8-4 4-1 2 1 2 1 7 3c15 6 29 12 45 15l10 2c17 4 34 7 52 8h4c32 3 65 1 97-5h2c33-7 65-17 94-33l3-1c18-11 34-24 49-38l2-2 10-12 6-6 12-20 4-6c16-24 23-56 26-85l1-5Z"/><path fill="#937E11" d="m159 137 4 6c-1 10-4 21-11 28h2c13 1 13 1 16 3 2 3 3 5 3 8-2 8-10 13-17 17-15 9-32 12-49 15l-6 3 1 2 2-1 4-1 3-2c7-3 14-3 22-2 3 2 3 3 5 6 0 8-4 14-9 19-14 14-33 21-52 27l-1 8 2-2c9-8 9-8 15-11l2 1-10 9-14 13v-12l1-2c0-3 1-6 4-8l4-2 3-1h3c17-6 37-14 46-30l2-9-1-2c-16-1-27 4-40 12l-2 1 1-2 2-6c2-5 3-8 7-11l20-4c17-2 35-9 47-22v-7a48 48 0 0 0-38 4l-2 1-2-1 2-1 8-4 2-1c9-5 15-12 18-21l1-4 1-10-3-1c-13 1-23 4-32 14-3 5-4 11-6 18l-6 8v-3a5969 5969 0 0 0 0-26v-8l-1-1c-7 0-12 4-17 9-7 8-9 16-9 27v2c0 7 1 14 3 20 1 4 1 7-1 10l-1 2-2 2-1 3-2 2-4 6h-1v-2a851 851 0 0 0-2-11c-2-8-4-15-10-20l-5-2c-6 2-8 8-10 13-5 12-3 24 1 36 2 5 5 11 9 15l1 8-1 3-2 13-4-9-8-13-2-4c-1-3-3-3-5-4l-2-2-8-1-2 4-1 2c-5 10-4 22 0 33 4 9 10 17 17 24l2 2 7 6 1 23-7-9c-7-11-15-22-28-26l-5 1-1 14v2c0 15 6 26 16 36 6 6 13 11 21 13 8 3 12 6 16 14a148 148 0 0 1 5 11l1 3-1 2-2-2c-12-11-28-25-44-27-4 0-4 0-6 2-1 11 4 20 10 29 12 12 28 18 44 23h2l4 2c7 1 10 5 14 11l1 2 5 8-11-5c-8-5-16-8-25-11l-3-1-11-1h-4l-5 1c0 7 4 11 8 17l1 2a78 78 0 0 0 48 25l15 2c8 0 13 0 19 6a272 272 0 0 1 9 8l2 2h-7l-3-1-6-2c-12-4-22-5-35-5H76v6l6 5 2 2c20 13 42 21 66 21 22-1 36 1 54 13l14 8 4 2 2 1 6 3c3 2 5 3 9 2l3-3 1-6-2-1-15-7-3-2-26-14-2-1-3-2-6-3v-2c2-19 3-38-9-54-3-4-7-8-12-10l-5 1c-7 8-7 17-6 27a155 155 0 0 0 4 18l-15-13-2-2-5-5 1-2c6-17 11-35 3-53l-6-8-2-2-4-2c-5 1-7 3-10 7-5 8-6 15-6 24v12l-10-12-2-2-3-4 4-8c9-16 17-33 12-51l-5-11-1-4c-9 2-13 8-17 15a45 45 0 0 0-6 21l-1 5h-2l-4-9-1-2-1-3-1-2-1-4 6-4c14-11 25-25 28-43v-16l-4-1c-9 0-16 5-22 10l-11 16-1 2-3 5h-1l-1-8-1-8 1-10c4-4 10-7 15-10 13-8 25-19 33-33l3-3c-2 14-14 25-24 33-8 5-15 11-23 15l1 11 1-2 10-11 2-1c6-6 13-11 22-11l7 5c3 14-2 28-9 40h3c5 2 6 4 9 8 5 12 6 26 2 38-3 10-7 19-13 27v5l4 6v-3c1-8 2-14 6-21l2-3c3-4 6-8 11-8h7v2l2 1c6 3 10 12 12 19 2 10 1 19-1 28v3l-4 10v8l4 4 2 2 2 1v-13c0-9 2-15 6-22l8-4c8 2 14 9 18 15 7 11 9 21 9 35v3c0 6 0 11-2 16l5 1 3 1 27 4h4l12 1 8 1 19 1v2h214a364730237 364730237 0 0 1 105 0h3a198861070 198861070 0 0 0 236-1h3a43746566 43746566 0 0 0 174 0h15l1 3H798a1195616 1195616 0 0 1-104 0h-4a272967 272967 0 0 0-406 0 593 593 0 0 1-76-3l25 13 3 1c8 5 8 5 10 9l-1 8c-3 4-6 5-11 5l-10-5-3-1a1226 1226 0 0 1-14-8l-3-1a906 906 0 0 0-15-8c-11-8-23-6-36-6a125 125 0 0 1-73-24c-7-5-7-5-7-8 0-4 1-7 3-10l7-1h3l2-1h9l-3-1c-24-5-44-15-58-36l-4-8 2-5 1-2c2-2 3-3 6-3h7l11 1-3-1c-17-6-33-16-41-33-3-6-4-13-3-20 2-3 3-3 6-5 7-1 14 2 20 5l3 2 1-2-3-1c-12-4-23-16-29-28-5-12-8-27-3-39 3-3 5-4 10-4 5 1 9 4 13 7l2 1 8 9 2 1c-1-4-3-6-6-9a62 62 0 0 1-20-42c0-9 2-17 7-24 4-2 7-2 11-2 9 4 16 14 20 22v-7l-2-3c-9-14-14-29-10-46 2-8 6-17 13-21l9 1c9 7 12 16 14 27 4-5 4-5 5-10l-2-7c-3-14-3-28 3-42 5-7 12-14 20-18 3 0 5 0 8 2l3 4 2 13 1-2c8-11 19-16 32-19 4 0 6 0 9 2Z"/><path fill="#FAFAF7" d="m1386 191 7 2 8 2 4 3 2 1 5 3 5 3c3 1 5 2 7 5l3 2a599 599 0 0 0 10 7c5 1 8 6 11 10 2 3 4 5 8 7l13 19 2 3 3 7v3l1 2h2l5 13 4 11c9 22 6 55 3 78h-2v2c0 6-1 11-3 16l-2 10h-2v3l-1 3-1 4c-1 7-6 13-10 20l-2 5c-3 6-7 11-11 15h-2v2l-5 5-2 2-3 1-1 2c-2 6-8 10-13 13l-2 2-17 10-2 1c0-4 3-6 6-9a149 149 0 0 0 21-25c9-11 15-23 21-36l1-2c3-5 4-10 6-16l1-5v-2l2-4c9-19 6-58 0-78l-1-3-1-4c-2-9-5-17-9-25l-7-16h-2l-1-3-2-3-2-4-6-8-2-3-15-18-2-2-10-9-7-7-8-8-5-5v-2Z"/><path fill="#0B0606" d="M1122 363h3a962 962 0 0 1 68 0h12c4 0 7 1 11 3l3 6c-2 12-8 25-17 33l-3 4c-7 7-17 13-27 14v2l-7 1h-3c-14 0-27-8-36-17-10-10-10-10-12-17h-2a358 358 0 0 1-4-9c-2-5-3-10-1-15 4-5 9-5 15-5Z"/><path fill="#040404" d="M1092 270c10 7 16 15 19 26 1 11 0 22-7 31-7 8-15 14-25 16h-11c-11 0-18-3-27-10-11-14-11-14-12-23v-3c-1-12 2-22 10-31 14-13 36-16 53-6ZM1277 270c8 6 15 13 18 23 1 11 1 21-4 31h-2l-1 2-5 7-3 2c-3 3-6 4-10 4v2c-11 3-25 4-35-1l-14-13v-2h-2l-2-4-1-2c-4-10-3-22 1-31 5-10 12-18 23-22 12-3 26-3 37 4Z"/><path fill="#FFFEFD" d="m501 268 3 4 1 2 2 3 1 2 6 12-4 3 5 3a146 146 0 0 1-32 80 80 80 0 0 1-15 14c-12 11-30 21-46 25-5-1-7-4-10-7l-1-2-4-4 4-3 4-1c20-6 36-15 51-30l2-2c15-16 23-39 27-60H393v-16l107 1-10-17v-5l4-2 2-1 5 1Z"/><path fill="#232100" d="M311 162a7544 7544 0 0 0 123 1h3a302425 302425 0 0 0 227 0h3a943636 943636 0 0 0 304 0l-2 3h-2l-1 3-3 1v-2H267v2h-3a5776 5776 0 0 0-46 5l-13 1-23 4-10 1-2-5 15-4a1895534147 1895534147 0 0 1 12-2c37-8 75-8 114-8Z"/><path fill="#F7F6F3" d="M1162 87h3c4 0 7 0 11 2v1l-3 1c-13 2-25 6-37 11l-8 2v2l-5 3-3 1-5 1-1 3-5 2-11 6-6 3v2l-4 3-3 1-4 1v2l-11 5v2c-33 19-33 19-42 19v2l-4 2-3 1-5 1-1 3-4 2-25 17-4 1-1 3-4 3-2 2-4 4-7 7-8 10c-7 8-7 8-12 17h-2l-1 2-3 7-1 2-3 3a145 145 0 0 0-5 11l-1 2-3 7-3 6h-2v2l-4 10v2l-2 5h-2v3l-5 17h-2v4l-3 8c-1-32-1-32 3-44h2v-3a74 74 0 0 1 4-14c2-7 5-13 9-20h2l1-3a52 52 0 0 1 7-12l5-6a941 941 0 0 0 10-13l1-2 5-5 1-2a193 193 0 0 1 42-32l1-1 7-5 3-1 4-1v-2l13-5v-2l9-5 3-1c4-3 8-5 13-6v-2l9-5 3-2 4-2 3-2 5-1v-2l5-2 3-2 4-1v-2a746 746 0 0 1 28-15c19-11 19-11 26-11v-2c8-2 16-3 25-3Z"/><path fill="#FEE3BA" d="m185 458 17 4a150 150 0 0 0 27 6l12 2h2a1468 1468 0 0 0 17 2h2a556 556 0 0 0 10 1l36 1h11a18754 18754 0 0 0 157 0h15a2425903 2425903 0 0 1 84 0h3a164626 164626 0 0 0 214 0h3a28047 28047 0 0 0 158 0h3c7 0 7 0 11 4l1 2H773a1404781 1404781 0 0 1-92 0h-3a320868 320868 0 0 0-212 0h-3a70391 70391 0 0 0-145 0c-18 0-35 0-53-2v-2h-3l-25-3h-4l-19-4-11-2-17-5-1-4Z"/><path fill="#FEE4B8" d="M320 206a11828 11828 0 0 0 151 0 199807 199807 0 0 1 274 0h180l-2 3h-4a211568557 211568557 0 0 1-9 0h-11a8026 8026 0 0 0-135 0l-3 1a319061 319061 0 0 0-131 0H491a786838 786838 0 0 0-189 0h-3a112 112 0 0 0-20 1 306 306 0 0 0-74 11l-2 1h-3l-3 1-8 2v2l-10 2v2l-3 1-5 2-2 1-10 6h-3l-3 1-1 2-4 4c-16 7-30 27-37 43l-2 6-2 8h-4c-10 1-18 6-25 13a144 144 0 0 0-9 12h-1c-1-4-2-8-1-12l7-5 4-2 2-2c14-8 27-20 34-35v-3l-2 1 1-4v-9c-7 0-13 0-19 3l-1-2-18 13 1-9a1587 1587 0 0 1 27-9h2c5 0 7 0 11 2 3 5 2 9 1 14 3-2 4-2 6-6 3-6 8-9 14-13a287 287 0 0 0 12-9l2-2 4-1v-2c2-3 5-5 8-6a525 525 0 0 1 6-2c3-3 5-3 9-5l7-3a100 100 0 0 1 7-2h7v-2h6v-2h2l20-3c31-6 62-8 93-8Z"/><path fill="#FCBACF" d="m1035 325 7 7c9 8 17 10 28 10h2c6 0 11 0 16-2l1 2 3 4c2 4 1 8 1 13l-1 2h-2l-1 2c-4 8-14 11-22 14-15 3-35 3-49-5-5-4-9-7-11-13-1-6-1-12 3-17 7-7 16-11 26-13l-1-4ZM1288 326v2l3 3 3 1 14 5 2 1c4 2 6 6 7 10 2 5 2 9-1 14a25 25 0 0 1-20 12v2c-15 4-31 3-46-1v-2h-2c-7-2-10-5-14-11l-2-2c-1-4-2-7-1-11l7-9 3 1 12 1h3l14-1v-2l2-1c6-2 13-6 16-12Z"/><path fill="#FFFEFC" d="m697 310 7 9 2 3v5c-14 27-37 49-63 64l-2 1c-17 10-36 18-55 21l-3 1c-3-1-4-3-6-6l-1-2-2-3-3-6h2a184 184 0 0 0 42-12c20-8 37-20 53-35l2-2 11-12 1-2 15-24Z"/><path fill="#171700" d="M204 514a853 853 0 0 1 19 2c20 3 41 3 62 3h12a11405 11405 0 0 0 208 0h82a576202 576202 0 0 0 188 0h3a287231 287231 0 0 1 229 0h9c4 0 5 1 8 3v1H800a1243636 1243636 0 0 1-355 0h-3a62430 62430 0 0 0-167 0 347 347 0 0 1-68-5l-2-2-1-1v-1Z"/><path fill="#CFC88A" d="m189 503 1 3h2l9 1 3 1h6l5 1c38 7 77 5 115 5a13546 13546 0 0 1 126 1h4a542272 542272 0 0 1 233 0h4a1692962 1692962 0 0 1 101 0h211l1-2 5 5H267v-2h-3a365 365 0 0 1-64-5h-2l-9-4v-4Z"/><path fill="#CFC889" d="M267 168h696v2c-3 2-5 2-9 2h-30a9411 9411 0 0 1-189 0h-74a451096 451096 0 0 1-97 0h-76a235207 235207 0 0 0-165 0c-40-1-40-1-81 1l-2 1c-23 1-46 6-68 11l1-4a232 232 0 0 1 48-8c15-3 31-3 46-3v-2Z"/><path fill="#111000" d="m1382 187 21 5v2l3 1 7 3v2l3 1 9 5 4 2 8 5 2 1 2 2v2h2v2l2 1c2 1 3 2 4 5l4 2v2h2v4l3 1a242936230 242936230 0 0 0 17 19l6 12a127 127 0 0 1 12 40 176 176 0 0 1-29 142c-6 8-13 16-21 22l-2 2c-6 6-12 11-20 15l-5 3c-7 4-12 6-20 7v-2l4-3 2-1 2-2 2-2 4-1c8-4 15-8 21-13l2-2 6-6h2l1-2c1-4 3-5 6-7l2-2 1-2h2v-2l3-3c6-4 9-10 11-17l5-8c4-7 6-14 8-22h2v-3l2-11c2-4 2-9 3-14h2l1-20v-2a258 258 0 0 0-1-36c-1-10-3-21-8-31l-4-13h-2l-1-3c-3-8-7-14-12-21l-2-3-8-9c-4-3-7-6-9-10v-2l-6-3-10-7-4-2v-2l-2-1h-2l-3-1-2-1-1-3-7-3-5-3-4-1-8-3-6-1-1-4Z"/><path fill="#AC961F" d="M114 271v6c-10 19-28 32-46 42l1 11 1-2 10-11 2-1c6-6 13-11 22-11l7 5c3 14-2 28-9 40h3c5 2 6 4 9 8 5 12 6 26 2 38-3 10-7 19-13 27v5l4 6v-3c1-8 2-14 6-21l2-3c3-4 6-8 11-8h7v2l2 1c6 3 10 12 12 19 2 10 1 19-1 28v3l-4 10v8l4 4 2 2 2 1v-13c0-9 2-15 6-22l8-4c8 2 14 9 18 15 7 11 9 22 9 35v9l-2 6h-2v-2c1-27 1-27-12-50-5-6-5-6-12-8-4 2-6 5-8 9-3 11-1 22 2 32l1 5a379 379 0 0 1-22-20l1-2c6-17 11-35 3-53l-6-8-2-2-4-2c-5 1-7 3-10 7-5 8-6 15-6 24v12l-10-12-2-2-3-4 4-8c9-16 17-33 12-51l-5-11-1-4c-9 2-13 8-17 15a45 45 0 0 0-6 21l-1 5h-2l-4-9-1-2-1-3-1-2-1-4 6-4c14-11 25-25 28-43v-16l-4-1c-9 0-16 5-22 10l-11 16-1 2-3 5h-1l-1-8-1-8 1-10c4-4 10-7 15-10 14-8 25-19 33-33l2-3Z"/><path fill="#695F05" d="M318 166a12105 12105 0 0 0 120 0h3a485874 485874 0 0 0 224 0h3a1515285 1515285 0 0 0 298 0l-2 4-1-2H267v2h-3a5776 5776 0 0 0-46 5l-13 1-23 4-9 1 2-1v-2l10-2v-2h2l10-2h3l4-1 3-1 4-1a185 185 0 0 1 10-1c32-3 64-2 97-2Z"/><path fill="#6A6005" d="m200 512 67 4v2h322a198861071 198861071 0 0 0 413-1h15l1 3H798a1195616 1195616 0 0 1-104 0h-4a272967 272967 0 0 0-453-1l-2-1c-8 0-16-1-23-3h-6l-5-1-1-2Z"/><path fill="#937F10" d="m37 426 4 1-3 1c-1 4-2 7 0 11l6 8 2 2c10 14 28 21 44 25l4 1 15 2c8 0 13 0 19 6a272 272 0 0 1 9 8l2 2h-7l-3-1-6-2c-12-4-22-5-35-5H76v6l6 5 2 2c20 13 42 21 66 21 22-1 36 1 54 13l14 8 4 2 2 1 6 3c3 2 5 3 9 2l3-3 1-6-2-1-15-7-3-2-26-14-2-1-3-2-6-3v-6l3-1v5l22 5v1h-10l3 1a864 864 0 0 1 30 16l4 2 3 2c2 1 4 3 5 6v7c-3 3-5 5-9 6-5 0-9-2-13-5l-3-1a1226 1226 0 0 1-14-8l-3-1a906 906 0 0 0-15-8c-11-8-23-6-36-6-25 0-49-8-70-22l-3-2c-7-5-7-5-7-8 0-4 1-7 3-10l7-1h3l2-1h9l-3-1c-24-5-44-15-58-36l-4-8 2-5 2-2 1-2Z"/><path fill="#988415" d="m9 304 2 1v2l-1 12v2c0 15 6 26 16 36 6 6 13 11 21 13 8 3 12 6 16 14a148 148 0 0 1 5 11l1 3-1 2-2-2c-12-11-28-25-44-27-4 0-4 0-6 2-1 11 4 20 10 29 12 12 28 18 44 23h2l4 2c7 1 10 5 14 11l1 2 5 8-11-5c-8-5-16-8-25-11l-3-1-12-1h-8l1-3h3v-2h7l11 1-3-1c-17-6-33-16-41-33-3-6-4-13-3-20 2-3 3-3 6-5 7-1 14 2 20 5l3 2 1-2-3-1c-12-4-23-16-29-28-5-11-7-24-4-36l3-3Z"/><path fill="#AD1220" d="M1115 372h95l-4 13h-2l-1 3-3 6-9-5c-11-7-23-9-36-8-9 2-18 7-25 14l-4 1c-4-5-4-5-4-8h-2l-2-6-2-4-1-6Z"/><path fill="#CEC1A9" d="M1178 98h3v2h3l10 4v2l3 1c13 5 26 19 32 32 2 4 4 9 4 14h2c2 12 2 24-1 36l-5 1c-2-3-1-7-2-10v-8h-2l-1-4a6789 6789 0 0 0-8-19l-2-5c-1-4-3-7-6-10l-1-2-4-5-6-6c-5-6-11-11-18-15l-3-4 2-4Z"/><path fill="#CFC1AA" d="m1118 112 5 1c-1 9-2 17-7 24l-2 3c-7 14-19 30-35 35h-3v2a644 644 0 0 1-13 4c-8 3-16 2-25 2l1-5 4-2 3-1 3-1c32-12 53-33 69-62Z"/><path fill="#CEC1A9" d="M1158 100c7 1 11 8 15 13 12 17 18 35 16 55l-5 19h-2v2l-5 10-1 2-3 4h-3c0-5 0-9 2-14l1-27v-2c0-8 0-15-2-23v-6h-2l-1-4-10-22v-7Z"/><path fill="#D3CB85" d="m1386 191 7 2 8 2 4 3 2 1 5 3 5 3c3 1 5 2 7 5l3 2a599 599 0 0 0 10 7c5 1 8 6 11 10 2 3 4 5 8 7l13 19 2 3 3 7v3l1 2h2l5 13 4 11c9 22 6 55 3 78h-2v2c0 6-1 11-3 16l-2 10h-2v3l-1 3-1 4c-1 7-6 13-10 20l-2 5c-3 6-7 11-11 15h-2v2l-5 5-2 2-3 1-1 2c-2 6-8 10-13 13l-2 2-17 10-2 1c0-4 3-6 6-9l5-5 4-4 1 2c4-2 8-4 11-8h2l1-2c1-3 4-5 6-7l2-2 3-1 1-2 4-6 4-7 1-2h2l2-1 1-2 7-15c3-5 5-9 6-15h2v-3l3-12 4-21v-3a180 180 0 0 0-7-74v-3l-1-6h-2l-1-2-8-17a26 26 0 0 1-4-9l-2-1c-3-1-3-1-4-4l-1-2-6-8-1-3-2-1c-3-1-4-3-6-6l-2-2-2-1v-2l-2-1-8-5-3-3-3-2-2-2-2-1v-2h-2c-7-2-11-3-16-8l-7-2-1 2-5-5v-2Z"/><path fill="#CEC0A9" d="m1140 102 5 1c6 18 6 42-3 59l-1 2c-3 6-7 10-11 15l-2 2-10 8-2 2-8 5-4 1-7 1v-4l5-4c4-3 7-6 9-10h2l1-2 7-10 4-8h2v-2l4-10 1-3 1-3h2l4-27v-4l1-9Z"/><path fill="#F65C60" d="M1164 388h3c8 0 13 2 20 7l3 1 5 4c-11 10-22 17-37 16-10-1-17-5-24-12 1-4 2-5 5-8l2-2 6-2v-2c6-2 11-2 17-2Z"/><path fill="#AB951E" d="M159 149h1c1 9-3 15-8 22h2c13 1 13 1 16 3 2 3 3 5 3 8-2 8-10 13-17 17-15 9-32 12-49 15l-6 3 1 2 2-1 4-1 3-2c7-3 14-3 22-2 3 2 3 3 5 6 0 8-4 14-9 19-14 14-33 21-52 27l-1 8 2-2c9-8 9-8 15-11l2 1-10 9-14 13v-12l1-2c0-3 1-6 4-8l4-2 3-1h3c17-6 37-14 46-30l2-9-1-2c-16-1-27 4-40 12l-2 1 1-2 2-6c2-5 3-8 7-11l20-4c17-2 35-9 47-22v-7c-12-4-25-2-36 3l-2 1-2 1-2-1 2-1 8-4 2-1c9-5 14-11 18-20l3-7Z"/><path fill="#FFFEFC" d="m587 284 12 7 3 2a349 349 0 0 1 23 19l2 2 3 2 1 4-5 7-2 3-4 1-5-4-2-1-2-2c-10-10-22-19-34-28 2-3 3-6 6-8l2-2 2-2Z"/><path fill="#3E3600" d="M204 514a853 853 0 0 1 19 2c20 3 41 3 62 3h12a11447 11447 0 0 0 153 0h3a844678 844678 0 0 1 241 0h3a2643431 2643431 0 0 1 105 0h217l1 2H791a3880447 3880447 0 0 1-361 0h-3a195380 195380 0 0 0-171 0c-44 0-44 0-52-6v-1Z"/><path fill="#F9EBD1" d="M191 226h-2v2l-10 2v2l-3 1-5 2-2 1-10 6h-3l-3 1-1 2-4 4c-16 7-30 27-37 43l-2 6-2 8h-4c-10 1-18 6-25 13l-7 10-2 2h-1c-1-4-2-8-1-12l7-5 4-2 2-2c14-8 27-20 34-35v-3l-2 1 1-4v-9c-7 0-13 0-19 3l-1-2-18 13 1-9a1587 1587 0 0 1 27-9h2c5 0 7 0 11 2 3 5 2 9 1 14 3-2 4-2 6-6 3-6 8-9 14-13l4-3 25-16 3-1 13-6 3-1h6Z"/><path fill="#857C2E" d="m219 513 48 3v2h749v1a641763 641763 0 0 1-558 0h-3a57826 57826 0 0 0-127 0c-75 0-75 0-109-4v-2Z"/><path fill="#80772B" d="M278 167h24a19262 19262 0 0 1 141 0h3a1416699 1416699 0 0 0 220 0h3a4440633 4440633 0 0 0 96 0h199l-1 3v-2H267v2h-3a5776 5776 0 0 0-60 6h-9l12-3 3-1 41-4h3l24-1Z"/><path fill="#F6F6F6" d="M1063 278c4 2 7 3 9 7 1 4 2 9 0 13s-5 7-9 8c-11 1-11 1-16-2-4-5-4-9-4-15 0-5 3-8 6-11 5-2 9-2 14 0Z"/><path fill="#F8F8F7" d="M1249 278c4 3 7 5 8 9 1 5 1 8-2 12l-5 6-1 1c-5 1-11 1-15-1-4-3-6-6-7-10 0-5 1-10 4-15 6-4 12-4 18-2Z"/><path fill="#D5CE8B" d="m1386 191 7 2 8 2 4 3 2 1 5 3 5 3c3 1 5 2 7 5l3 2a599 599 0 0 0 10 7c5 1 8 6 11 10 2 3 4 5 8 7l13 19 2 3 3 7v3l1 2h2l5 13 4 11c2 4 2 8 2 13v7h-1v-2l-5-20-3-12h-3l-1-2-8-17a26 26 0 0 1-4-9l-2-1c-3-1-3-1-4-4l-1-2-6-8-1-3-2-1c-3-1-4-3-6-6l-2-2-2-1v-2l-2-1-8-5-3-3-3-2-2-2-2-1v-2h-2c-7-2-11-3-16-8l-7-2-1 2-5-5v-2Z"/><path fill="#7A701C" d="M1465 248c4 1 6 4 8 8l3 9 3 7h2l4 16h2l1 5 1 3a123 123 0 0 1 4 38v3c0 14-1 29-3 43h-2v2c-3 27-3 27-11 34-2-3 0-6 1-9l1-2 1-5h2v-3l2-11c2-4 2-9 3-14h2l1-20v-2a258 258 0 0 0-1-36c-1-10-3-21-8-31l-4-13h-2l-1-3-2-4-1-1c-1-5-3-8-6-12v-2Z"/><path fill="#5F5605" d="m1382 187 21 5v2l3 1 7 3v2l3 1 9 5 4 2 8 5 2 1 2 2v2h2v2l2 1c2 1 3 2 4 5l4 2v2h2v4l3 1c3 1 5 2 7 5v8l-7-9-9-7c-6-7-6-7-6-10l-6-3-10-7-4-2v-2l-2-1h-2l-3-1-2-1-1-3-7-3-5-3-4-1-8-3-6-1-1-4Z"/><path fill="#FBF9F2" d="m110 286-1 2-1 7c-2 8-2 8-5 11l-8 2c-11 4-18 11-24 21l-2 2h-1c-1-4-2-8-1-12l7-5a940 940 0 0 0 6-4c9-5 17-12 24-20 4-4 4-4 6-4Z"/><path fill="#FFFDFB" d="m522 264 5 6 2 2 1 3 2 3 4 9-4 2-3 1h-5l-2-4-2-2-1-2-3-5-1-2-3-4-1-2c1-3 1-3 4-5h7Z"/><path fill="#0A0A00" d="M1465 242c4 3 7 6 9 11l2 4 1 2 4 8c7 11 10 24 12 37v2c3 13 3 25 3 38v11l-1 13h-1v-3c-1-24-1-48-6-71l-1-6h-2l-4-16h-2c-4-4-5-9-7-14-1-5-3-7-7-10v-6Z"/><path fill="#171600" d="m1376 182 3 1 13 2c3 0 5 1 7 3l4 2a601 601 0 0 0 24 13c10 6 17 12 24 21a282 282 0 0 0 9 9l2 2 1 1-1 2-7-4v-4h-2l-3-4-7-6v-2h-2v-2l-2-1-5-3c-3-3-5-4-9-5l-7-5-5-2v-2l-3-1-7-3v-2h-2c-7-1-13-2-19-5l-1 2-5-5v-2Z"/><path fill="#675D03" d="M1475 416h1c0 8-3 16-8 22l-4 2-1 2c-1 3-3 6-6 8l-2 6h-2l-2 4h-2l-1 2c-1 2-2 3-5 4v2h-2v2l-2 1-12 8c-8 6-16 11-25 14 1-3 3-5 6-7h2c8-4 15-8 21-13l2-2 6-6h2l1-2c1-4 3-5 6-7l2-2 1-2h2v-2l3-3c6-4 9-10 11-17l5-8 3-6Z"/><path fill="#D4CD89" d="m1465 434 1 2-3 5-2 2-6 7h-2v2l-5 5-2 2-3 1-1 2c-2 6-8 10-13 13l-2 2-17 10-2 1c0-4 3-6 6-9l5-5 4-4 1 2c4-2 8-4 11-8h2l1-2c2-5 7-8 11-11 5-4 9-8 12-14l4-3Z"/><path fill="#998514" d="M189 502v5l22 5v1h-10l3 1a864 864 0 0 1 30 16l4 2 3 2 4 4v6l-2 1v-6l-2-1-15-7-3-2-26-14-2-1-3-2-6-3v-6l3-1Z"/><path fill="#AA9F38" d="m1453 234 13 16 1 2 2 3 2 3 3 7v3l1 2h2l5 13 4 11c2 4 2 8 2 13v7h-1v-2l-5-20-3-12h-3l-1-2-8-17-4-8-7-11c-2-3-3-5-3-8Z"/><path fill="#FBF9F2" d="m148 441 5 3-2 9v25l-1-1-2-2-2-2-6-4 3-12 3-12 2-4Z"/><path fill="#857209" d="m159 137 4 6-2 10c-2-2-3-2-3-5v-7l-3-1c-12 1-22 4-30 12l-4 6-1 2h-4l-1 3v-17h1l1 10 3-4c8-10 18-15 30-17 4 0 6 0 9 2Z"/><path fill="#9B871A" d="M159 149h1c1 9-3 15-8 22h2c12 1 12 1 16 3l1 4h-2c-14-4-27-2-39 4l-2 1-2-1 2-1 8-4 2-1c9-5 14-11 18-20l3-7Z"/><path fill="#292400" d="M1492 320h1a190 190 0 0 1 1 35c1 16-1 30-5 45h-2v2h-2l-1 2 4-24h2v-3l1-11c2-15 1-31 1-46Z"/><path fill="#DCD69E" d="M267 170c-3 3-6 2-10 3h-7c-15 1-30 2-44 5h-3l-31 7 1-4a232 232 0 0 1 48-8c15-3 31-3 46-3Z"/><path fill="#FFE6BF" d="M227 215v2h-2l-9 2-4 1-17 5-4 1c-11 2-22 8-32 13l-4 1c1-3 2-4 5-6l6-1 3-2c3-3 5-3 9-5l7-3 5-1 2-1h7v-2h6v-2l22-2Z"/><path fill="#D0C98A" d="m1478 280 3 6 1 2 1 3v2l2 7 1 2 1 12h2c2 20 2 38 0 58h-1v-3a262 262 0 0 0-10-89Z"/><path fill="#AE9825" d="M105 256c5 0 7 0 11 2 3 4 2 6 1 11-2 3-2 3-5 4l1-4v-9c-7 0-13 0-19 3l-1-2-18 13 1-9a1587 1587 0 0 1 14-6l15-3Z"/><path fill="#726809" d="M1465 248c4 1 6 4 8 8l3 9 3 7h2l4 16h2c5 21 5 21 5 32h-1v-2l-3-11v-4l-7-20-4-13h-2l-1-3-2-4-1-1c-1-5-3-8-6-12v-2Z"/><path fill="#817711" d="m1382 187 21 5v2l3 1 7 3v2l3 1c5 2 8 5 12 9l-1 2-4-2v-2l-2-1h-2l-3-1-2-1-1-3-7-3-5-3-4-1-8-3-6-1-1-4Z"/><path fill="#A58F17" d="M110 140h4l1 6v3l1 2v9l3-1-1 7v2l-1 3v2c-1 3-4 5-6 7v-3a5852 5852 0 0 0 0-26v-2l-1-9Z"/><path fill="#AE9825" d="m82 367 2 1-2 3 3-2-3 12h2l-1 13h-2l-4-9-1-2-1-3-1-2-1-4 5-4 2-2 2-1Z"/><path fill="#FFDCA3" d="M191 226h-2v2l-10 2v2l-3 1-5 2-2 1-10 6h-3l-3 1-1 2c-1 3-4 3-7 5-4 2-8 6-11 10l-6 4c7-18 36-29 52-36l2-1c3-2 6-3 9-1Z"/><path fill="#9A861B" d="M81 171h2v2l1 9v3c0 6 1 11 3 16v7l-6 4v-2l1-2 1-2-1-8c-2-6-2-11-2-17v-3l1-7Z"/><path fill="#1C1900" d="M1465 242c4 3 7 6 9 11l2 4 1 2 4 8c4 7 5 13 5 21-3-3-3-5-4-8v-3l-1-5h-2c-4-4-5-9-7-14-1-5-3-7-7-10v-6Z"/><path fill="#FBFAF5" d="m114 402 3 3-2 3c-5 8-6 18-7 27-6-6-6-6-7-10l4-7a1689 1689 0 0 0 6-12l3-4Z"/><path fill="#817611" d="M1487 372h1c0 12-1 23-5 35l-1 2c-1 4-2 5-6 7l4-16h2v-3l2-11c2-4 2-9 3-14Z"/><path fill="#B3A94C" d="M267 169v1h-3a5776 5776 0 0 0-60 6h-2a1307 1307 0 0 1 1-3h5l3-1a1255 1255 0 0 1 12-2c15-2 29-1 44-1Z"/><path fill="#1D1A00" d="M204 514c7 0 15 1 22 3l15 1v3h-14c-9 0-16-1-23-6v-1Z"/><path fill="#D6CF8F" d="m189 503 1 3h2l30 5 11 1 4 2c-38-1-38-1-48-7v-4Z"/><path fill="#181600" d="m1427 478 2 1-2 3h-2l-1 2-5 5-8 4c-5 3-10 3-15 4v-2a567 567 0 0 1 28-16l3-1Z"/><path fill="#0B0B00" d="M1425 203c7 1 13 8 18 13a344 344 0 0 0 12 12l8 8-1 2-7-4v-4h-2l-3-4-7-6v-2h-2v-2l-2-1-7-5-3-2-2-2v-2l-2-1Z"/><path fill="#DDD79F" d="M1488 354h1a111 111 0 0 1-6 38l-1 5v3h-2v3l-4 7 1-8h2v-3l3-11 4-25v-3l1-3 1-3Z"/><path fill="#FFF1DA" d="M187 223h6c-3 3-6 3-9 5l-21 9-8 3c1-3 2-4 5-6l6-1 3-2c3-3 5-3 9-5l9-3Z"/><path fill="#7F6D0D" d="m132 143 2 1-7 6-7 10h-4l-1 3v-17h1l1 10 1-2c9-11 9-11 14-11Z"/><path fill="#1F1C00" d="m1376 182 3 1 13 2c3 0 5 1 7 3v2h2v2l-19-5-1 2-5-5v-2Z"/><path fill="#D5CE8B" d="m207 175-2 1v2h-2l-31 7 1-4 11-2 3-1c6-2 13-3 20-3Z"/><path fill="#151300" d="m1449 460 4 1-10 9-2 2-8 7-3 3-2 1-3-1h2l1-2c2-5 5-7 10-9l3-1v-2h2v-2l5-4 1-2Z"/><path fill="#DCD69D" d="m1437 222 7 5 7 5c3 2 3 5 5 8l7 9 1 2-1 3v-2l-2-1c-4-1-4-3-5-6l-6-8-1-3-2-1c-3-1-4-3-6-6l-2-2-2-1v-2Z"/><path fill="#AD9721" d="m114 394 2 1-7 18-1 2-3 5-4 1 6-14 4-9 3-4Z"/><path fill="#F4F1E2" d="m99 258-2 1c-8 4-15 9-21 15-1-4-1-6 1-10l9-4 3-1c7-2 7-2 10-1Z"/><path fill="#FFE5BD" d="m117 278 1 2-3 4c-4 7-6 14-8 22h-6l2-1c3-4 3-6 4-11l2-6h2l1-3c1-3 2-5 5-7Z"/><path fill="#B2A849" d="m1453 234 13 16 1 2 2 3 2 3 1 4-1 2c-3-3-3-4-3-8l-2-1-4-5c-2-3-3-6-6-8-2-3-3-5-3-8Z"/><path fill="#B3AD77" d="m1419 474 1 3 3 1 2-4 4 1-21 13c0-4 3-6 6-9l3-3 2-2Z"/><path fill="#323232" d="M1392 199c13 9 13 9 13 13 1 4 3 6 6 9l2 6h-2l-3-5-9-12-1-4-3-1c-3-3-3-3-3-6Z"/><path fill="#353001" d="M1488 380h2v10l-1 10h-2v2h-2l-1 2 4-24Z"/><path fill="#FFF1DC" d="m155 241-2 1a255 255 0 0 0-22 16c1-5 4-7 7-9l2-2 7-3v-2c3-2 5-2 8-1Z"/><path fill="#F1EEDB" d="M131 212v1h-2c-7 0-13 1-20 4l-9 3c1-4 3-4 6-6s6-2 10-3h2c5-1 8-1 13 1Z"/><path fill="#1E1B17" d="m954 466 11 7v2h3v2l2 1c4 1 6 3 8 6l-4-1-1 2-2-2-13-12-4-5Z"/><path fill="#D7D091" d="m1464 254 4 2 3 7 3 3c2 3 2 4 2 8h2v6h-2l-1-2-8-17-3-7Z"/><path fill="#D5CF9B" d="m1386 191 7 2 6 2 4 1 2 4 4 1v2c-5 0-7-2-10-5l-7-2-1 2-5-5v-2Z"/><path fill="#544C01" d="m1454 452 1 4h-2l-2 4h-2l-1 2c-1 2-2 3-5 4v2h-2v2l-4 2c1-4 2-5 5-8l2-2 2-2 2-3 6-5Z"/><path fill="#A69C3E" d="M227 171v2c-11 2-21 3-32 3l8-3h3l3-1h2l16-1Z"/><path fill="#2A2500" d="M221 166h34v1l-12 1h-4l-18 1v-3Z"/><path fill="#D8D4AA" d="M1435 464h2c-3 6-7 9-13 12l-1 2-4-1c1-4 2-5 5-7v2c4-2 8-4 11-8Z"/><path fill="#4E4502" d="M1486 288c3 3 3 7 4 12l1 2 1 18h-1l-2-11-1-4-2-17Z"/><path fill="#FFE3B6" d="M129 258h2l-1 2-2 5c-3 6-6 9-10 13 2-8 5-14 11-20Z"/><path fill="#FFD692" d="m143 250 2 1-1 1-7 7-3 2-11 13c0-7 8-13 12-17l8-7Z"/><path fill="#2A2600" d="m1456 234 4 2 2 1 3 3v8l-9-10v-4Z"/><path fill="#060600" d="M263 163v1h-8v2h-26v-1l34-2Z"/><path fill="#8F7C17" d="m147 137 4 3-6 1-4 1-3 1-3 1h-2l-2-2 4-2 2-1c3-2 6-2 10-2Z"/><path fill="#F1EDD9" d="M69 429c5 0 8 0 12 3l5 7-10-4-3-2-4-4Z"/><path fill="#ABA148" d="M1382 187c15 3 15 3 19 8-5 0-8-1-12-3l-6-1-1-4Z"/><path fill="#857B16" d="m195 176-10 4h-3l-9 1 2-1v-2c7-3 13-3 20-2Z"/><path fill="#F5F2E4" d="m49 376 7 2 4 8-1 2-4-3-3-2c-2-2-3-4-3-7Z"/><path fill="#171717" d="M1392 442c0 4-2 5-4 8l-2 2-12 11-2-1 20-20Z"/><path fill="#907D13" d="M159 149h1c0 6 0 10-3 15h-4c3-11 3-11 6-15Z"/><path fill="#A79D47" d="M1487 372h1v11l-1 7-2 1-2 5c-1-4 0-6 1-10 2-4 2-9 3-14ZM1482 290l2 1 1 4 2 1 1 11v7h-1v-2c-1-8-1-8-4-14l-1-8Z"/><path fill="#524A01" d="M209 171v1h-6v2c-6 2-11 2-18 1 7-4 16-4 24-4Z"/><path fill="#827816" d="M1475 416h1c1 5-1 8-4 12-1 3-4 4-6 6 1-5 3-8 6-12l3-6Z"/><path fill="#AE9620" d="m107 333 2 1c-3 10-3 10-6 13l-3 1 5-14 2-1Z"/><path fill="#8F7B0F" d="m111 139-3 3h-2l-10 5c1-3 1-5 3-7 5-3 7-3 12-1Z"/><path fill="#D5CD8C" d="m189 503 1 3h3l4 1h2l6 1 2 3c-13-1-13-1-18-4v-4Z"/><path fill="#0D0D00" d="M1465 242c6 3 9 9 11 15l-1 3v-2h-2l-2-4-6-6v-6Z"/><path fill="#B19C2D" d="m143 203-1 3-6 2h-3l-3 1-1-2 3-3 3-1 3-1 5 1Z"/><path fill="#FFEBCE" d="m185 458 10 2v2h2v2l2 1-13-3-1-4Z"/><path fill="#AAA043" d="m1465 434 1 2c-7 11-7 11-12 14l5-10 2-3 4-3Z"/><path fill="#090900" d="M1487 400c1 3 1 5-1 8l-1 3-1 2-1 3-3 6-2-3 2-3 5-14h2v-2Z"/><path fill="#595002" d="M1465 248c4 2 6 4 8 8l2 8-7-9-2-3-1-4Z"/><path fill="#2B2700" d="m1413 198 5 1h3l3 3 1 2h2l2 4c-5-1-7-3-11-6l-5-2v-2Z"/><path fill="#2D2900" d="M174 175h11c-3 3-6 3-10 3v2l-3 1-2-5 4-1Z"/><path fill="#191919" d="M1343 485v2l-6 3-3 2-3 2-4 2-5 2v-2l2-1 15-9 4-1Z"/><path fill="#2A2500" d="m1427 478 2 1-2 3h-2l-1 2-3 3h-3l-3 1h-2l7-6a74 74 0 0 0 7-4Z"/><path fill="#E0DBA8" d="m1463 432 1 3-5 7-1 2-4 4-2-1 2-3 4-7 1-2 4-1v-2Z"/><path fill="#F2EEDC" d="M84 369v5l-1 3-1 3-1 2h-2l-2-7 7-6Z"/><path fill="#75650D" d="m83 163 2 1-2 7-2 1-1 7v7h-1v-9c0-4 0-8 2-12l2-2Z"/><path fill="#FFE2B1" d="m145 247 2 1-2 2-16 14c0-4 1-5 4-8l6-5 2-1 4-3Z"/><path fill="#181818" d="m1362 470 2 1-17 13-2-1a55 55 0 0 1 11-9l6-4Z"/><path fill="#0D0D00" d="M1373 180c7 0 12 1 18 4v1c-5 0-9 0-14-2h-3l-1-3Z"/><path fill="#403900" d="M1483 404c2 5 0 7-2 12l-5 6v-6l2-1c3-1 3-3 4-6v-3l1-2Z"/><path fill="#FADBA3" d="M109 292h1c0 5-1 9-3 14h-6l2-1c3-4 4-8 6-13Z"/><path fill="#72680D" d="m200 512 19 1v2l2 1h-14l-2-1c-2 0-2 0-5-3Z"/><path fill="#B2A743" d="M1442 460c0 4-1 4-3 7l-2 2-6 5-2-1c3-5 8-8 12-12l1-1Z"/><path fill="#887D19" d="m1455 449 2 1-14 14-2-1 2-2 6-6 2-3h2v-2l2-1Z"/><path fill="#191713" d="m1413 414 1 2-5 7-1 2-2 2-1 1-4 4c1-4 4-7 7-11l2-4 3-3Z"/><path fill="#F8ECD5" d="m114 402 3 3a259 259 0 0 1-4 6l-1 2h-3l1-4 1-3 3-4Z"/><path fill="#352F00" d="M204 514h6l4 1 7 2h-10l-1 2-6-4v-1Z"/><path fill="#A2982F" d="M1480 400h2v3l-1 5-1 6-4 2 4-16Z"/><path fill="#B09C2C" d="m122 214 5 1h4v1l-18 1 1-3h8Z"/><path fill="#7A680A" d="m245 543 1 4-6 5-3-1 8-8Z"/><path fill="#B3A847" d="M1437 218c5 3 8 7 12 12l-1 2-4-4-3-3-4-7Z"/><path fill="#CDC475" d="M1405 199c4 0 6 2 9 5l6 2 1 2-5-1-3-1c-2-1-3-2-4-5l-4-2Z"/><path fill="#D4CC89" d="M111 214c-3 3-6 5-11 6 1-3 1-4 4-5l2-1h5Z"/><path fill="#373531" d="M1230 273c-1 3-3 6-6 8l-2 2-2 2c0-4 1-5 4-8l2-2 4-2Z"/><path fill="#2D2D2D" d="M1403 213h2l4 5 1 2c2 3 3 4 3 7h-2l-4-5-1-3-3-6Z"/><path fill="#6C5C06" d="m129 143 2 1-11 11c0-4 2-6 5-9l4-3Z"/><path fill="#221F00" d="m1459 448 1 2-3 5-2 3-1 2-3-1 2-3h2v-3c1-3 1-3 4-5Z"/><path fill="#2F2A01" d="m42 314 3 2v8l-5-5 2-1v-4Z"/><path fill="#1B1B1B" d="m1017 506 13 4v2l-13-5v-1Z"/><path fill="#665D08" d="m1410 486 3 1c-3 3-7 4-11 6 3-7 3-7 8-7Z"/><path fill="#FBDEB0" d="m148 438 7 4-1 6-1-2c-1-3-3-3-6-4l1-4Z"/><path fill="#2E2900" d="m1482 276 1 2h3v10c-3-3-3-5-4-8v-4Z"/><path fill="#FBF0DB" d="m121 270-2 6-5 1 1-5 6-2Z"/><path fill="#131313" d="M1421 241c3 3 5 6 6 10v3h-2l-2-5-1-3-1-5Z"/><path fill="#2D2900" d="m1405 491 2 1-4 4h-3l-2 1h-2v-2l9-4Z"/><path fill="#2C2602" d="M114 481v2l-9-1h-7v-1h16Z"/><path fill="#1D1D1D" d="M1414 229h2l3 5 1 3 1 4h-2l-2-5-2-3-1-4Z"/><path fill="#483C2A" d="m954 466 11 7-1 3-4-3-2-2-4-5Z"/><path fill="#181511" d="M1420 401v5l-1 2-1 2-4 3c1-5 3-8 6-12Z"/><path fill="#696004" d="M1456 236c3 1 5 3 7 6l1 2 1 2-1 2-3-4-2-3-3-5Z"/><path fill="#7F6D0B" d="m55 187 2 1-9 7c3-8 3-8 7-8Z"/><path fill="#5B5202" d="m1385 187 10 1v2l2 1-12-3v-1Z"/><path fill="#514907" d="m1376 182 7 2v2l2 1h-3l-1 2-5-5v-2Z"/><path fill="#CDC57A" d="m191 178-2 1v2h-10c4-4 7-3 12-3Z"/><path fill="#0B0A00" d="m1405 496-5 2-3 1h-5c4-4 8-5 13-3Z"/><path fill="#978E31" d="m1415 481 4 1-4 2-3 2-4 2 1-4 5-2 1-1Z"/><path fill="#D7CF8E" d="M1435 464h2l-7 9h-3l4-4 2-3 2-2Z"/><path fill="#070700" d="M1462 446h2c-1 5-4 7-8 10l6-10Z"/><path fill="#696004" d="m1464 438 1 2-6 9-3-1 2-3 6-7Z"/><path fill="#E3DEB2" d="m49 376 5 1v6l-4-2-1-5Z"/><path fill="#E3DFB2" d="m1399 197 10 4v2c-4 0-6-1-8-4l-2-2Z"/><path fill="#0F0F00" d="M211 517h10v2l-9 1-1-3Z"/><path fill="#CFC67B" d="m206 509 1 2-12-1v-1h11Z"/><path fill="#6C6003" d="m114 481 7 2v2l-9-1 2-1v-2Z"/><path fill="#A59A31" d="m1425 474 4 1-8 6-2-1 2-1c2-1 3-2 4-5Z"/><path fill="#C4BA61" d="M1485 384h1c0 5-1 8-3 12v-8l1-2 1-2ZM1482 290l3 3 1 9c-3-3-3-5-4-8v-4Z"/><path fill="#FFF0D9" d="M129 258h2c-1 3-3 6-6 8l-1-2 5-6Z"/><path fill="#CFC67B" d="m207 175-2 1v2l-10-1v-1l12-1Z"/><path fill="#FCDFB1" d="m185 458 10 3-9 1-1-4Z"/><path fill="#262200" d="M1464 440h2l-1 6-5 2 4-8Z"/><path fill="#483F03" d="m59 425 6 2 1 3-9-2 2-3Z"/><path fill="#A99115" d="M124 399h6v2l-8 3 2-5Z"/><path fill="#AF9A27" d="M101 306h5l1 4-7-1 1-3Z"/><path fill="#A7911A" d="M57 259h2l-1 9-3-2 2-7Z"/><path fill="#85720C" d="M20 249h3l-1 6-4 1 2-7Z"/><path fill="#9C912C" d="m1453 234 8 8-1 2c-6-4-6-4-7-8v-2Z"/><path fill="#4D4D4D" d="m1392 199 8 6-2 2-6-8Z"/><path fill="#212121" d="m969 479 2 1 7 3-2 1-2-1-1 2-4-4v-2Z"/><path fill="#AD9722" d="m134 227 1 4-6 3 5-7Z"/><path fill="#181818" d="M1371 463v3l-5 4-2-1 7-6Z"/><path fill="#A1962C" d="m1419 205 9 5-1 2-4-2v-2l-4-2v-1Z"/><path fill="#A19524" d="M1393 191c4 0 6 1 8 4h-6l-2-4Z"/><path fill="#877308" d="M83 158h3l-1 5-4 2 2-7Z"/><path fill="#A08A13" d="m89 152 1 2-3 5h-3v-3l5-4Z"/><path fill="#080800" d="M1407 491h6l-8 4 2-4Z"/><path fill="#050500" d="m1429 478 4 1-5 4-3-1h2l2-4Z"/><path fill="#A99218" d="M145 442h1v8l-3-1 2-7Z"/><path fill="#CDC57A" d="m1477 408 1 4-3 4v-6h2v-2Z"/><path fill="#A4992E" d="M1429 212c4 1 6 3 8 6-6-1-6-1-7-4l-1-2Z"/><path fill="#716705" d="m1424 206 6 3 1 3c-3 0-3 0-5-2l-2-4Z"/><path fill="#090900" d="M1399 189c6 1 6 1 8 3h-6v-2l-2-1Z"/></svg>