<svg xmlns="http://www.w3.org/2000/svg" width="1536" height="602"><path fill="#95D3FB" d="M1284 47c5 4 7 8 8 15 1 9-2 16-6 25l4 1c17 3 34 11 48 21l3 2a61 61 0 0 1 16 15l17 23h2c16-4 29-1 43 8 15 11 25 27 28 46v11c0 4 1 6 3 9l3 2c5 5 10 10 13 17l3 4 5 8 7 12c7 12 10 25 12 38v2a176 176 0 0 1-29 142c-5 7-11 14-19 20l-6 7 1 3 2 3 2 4c2 6 3 12 1 19-3 6-3 6-7 9-5 1-9 0-14-2l-16-14c1 15 1 15 8 27l8 2h2c14 2 28 2 41 2h35v8l-19 1h-4a3504 3504 0 0 1-18 0c-44 0-44 0-54-9l-4-8h-2l-2-8-1-3v-2l-1-2v-5l-30 12a231 231 0 0 1-51 17l-6 1v2c2 9 3 17-1 24-3 4-5 6-10 6-4 1-7 0-11-1-6-5-8-11-11-18l-1-3-1-3h-2c-28 1-57 0-84-8-17-5-34-5-51-5h-14a6500 6500 0 0 0-183 0h-3a425465 425465 0 0 1-188 0h-2a222773 222773 0 0 1-515-3h-6l-3-1h-9l3 1a2873 2873 0 0 1 22 12c3 2 5 4 6 7v7c-3 3-5 5-9 6-5 0-9-2-13-5l-3-1a1226 1226 0 0 1-14-8l-3-1a906 906 0 0 0-15-8c-11-8-23-6-36-6-25 0-49-8-70-22l-3-2c-7-5-7-5-7-8 0-4 1-7 3-10l7-1h3l2-1h9l-3-1c-24-5-44-15-58-36l-4-8 2-5 1-2c2-2 3-3 6-3h7a125 125 0 0 1 8 0c-17-6-33-16-41-33-3-6-4-13-3-20 2-3 3-3 6-5 7-1 14 2 20 5l3 2 1-2-3-1c-12-4-23-16-29-28-5-12-8-27-3-39 3-3 5-4 10-4 5 1 9 4 13 7l2 1 8 9 2 1c-1-4-3-6-6-9a62 62 0 0 1-20-42c0-9 2-17 7-24 4-2 7-2 11-2 9 4 16 14 20 22v-7l-2-3c-9-14-14-29-10-46 2-8 6-17 13-21l9 1c9 7 12 16 14 27 4-5 4-5 5-10l-2-7c-3-14-3-28 3-42 5-7 12-14 20-18 3 0 5 0 8 2l3 4 2 13 1-2c7-10 16-15 28-18l3-1 9 1c3 2 4 3 5 6 0 11-5 21-11 29h9l6 3c5 2 11 0 16-1l6-2h3l23-4 2-1a2635 2635 0 0 1 20-2h2c18-2 35-2 53-2h11a23434 23434 0 0 1 154 0h3a1723894 1723894 0 0 0 348-1h218l-2-2-2-3-3-2c-6-8-5-19-4-29 0-5 3-8 7-11l2-2 2-2c6-6 20-8 29-7 17 2 29 8 41 21l12-7c8-6 16-10 25-15l3-2 23-9 4-1 21-6 2-1c10-2 20-2 30-2h11v-4c0-8 4-13 9-19 12-11 32-20 48-11Z"/><path fill="#93D0F7" d="M1284 47c5 4 7 8 8 15 1 9-2 16-6 25l4 1c17 3 34 11 48 21l3 2a61 61 0 0 1 16 15l17 23h2c16-4 29-1 43 8 15 11 25 27 28 46v11c0 4 1 6 3 9l3 2c5 5 10 10 13 17l3 4 5 8 7 12c7 12 10 25 12 38v2a176 176 0 0 1-29 142c-5 7-11 14-19 20l-6 7 1 3 2 3 2 4c2 6 3 12 1 19-3 6-3 6-7 9-5 1-9 0-14-2l-16-14c1 15 1 15 8 27l8 2h2c14 2 28 2 41 2h35v8l-19 1h-4a3504 3504 0 0 1-18 0c-44 0-44 0-54-9l-4-8h-2l-2-8-1-3v-2l-1-2v-5l-30 12a231 231 0 0 1-51 17l-6 1v2c2 9 3 17-1 24-3 4-5 6-10 6-4 1-7 0-11-1-6-5-8-11-11-18l-1-3-1-3h-2c-28 1-57 0-84-8-17-5-34-5-51-5h-14a6500 6500 0 0 0-183 0h-3a425465 425465 0 0 1-188 0h-2a222773 222773 0 0 1-515-3h-6l-3-1h-9l3 1a2873 2873 0 0 1 22 12c3 2 5 4 6 7v7c-3 3-5 5-9 6-5 0-9-2-13-5l-3-1a1226 1226 0 0 1-14-8l-3-1a906 906 0 0 0-15-8c-11-8-23-6-36-6-25 0-49-8-70-22l-3-2c-7-5-7-5-7-8 0-4 1-7 3-10l7-1h3l2-1h9l-3-1c-24-5-44-15-58-36l-4-8 2-5 1-2c2-2 3-3 6-3h7a125 125 0 0 1 8 0c-17-6-33-16-41-33-3-6-4-13-3-20 2-3 3-3 6-5 7-1 14 2 20 5l3 2 1-2-3-1c-12-4-23-16-29-28-5-12-8-27-3-39 3-3 5-4 10-4 5 1 9 4 13 7l2 1 8 9 2 1c-1-4-3-6-6-9a62 62 0 0 1-20-42c0-9 2-17 7-24 4-2 7-2 11-2 9 4 16 14 20 22v-7l-2-3c-9-14-14-29-10-46 2-8 6-17 13-21l9 1c9 7 12 16 14 27 4-5 4-5 5-10l-2-7c-3-14-3-28 3-42 5-7 12-14 20-18 3 0 5 0 8 2l3 4 2 13 1-2c7-10 16-15 28-18l3-1 9 1c3 2 4 3 5 6 0 11-5 21-11 29h9l6 3c5 2 11 0 16-1l6-2h3l23-4 2-1a2635 2635 0 0 1 20-2h2c18-2 35-2 53-2h11a23434 23434 0 0 1 154 0h3a1723894 1723894 0 0 0 348-1h218l-2-2-2-3-3-2c-6-8-5-19-4-29 0-5 3-8 7-11l2-2 2-2c6-6 20-8 29-7 17 2 29 8 41 21l12-7c8-6 16-10 25-15l3-2 23-9 4-1 21-6 2-1c10-2 20-2 30-2h11v-4c0-8 4-13 9-19 12-11 32-20 48-11Zm-242 120h-35a9412069 9412069 0 0 0-157 0h-3a695698916 695698916 0 0 1-247 1H267v2h-3a246 246 0 0 0-34 2l-15 2h-4a232 232 0 0 0-31 5c-5 1-5 1-9 4l-3 6c-10 12-28 17-42 21h-3l-16 3c-3 1-5 3-7 6l2 1 6-2c6-3 11-4 18-4l3-1 6 3c3 4 2 6 1 10-6 16-23 23-37 30l9 1c3 0 5 0 8 2 2 3 1 6 0 10-2 7-6 13-11 19l-2 5-4 2-5 5a124 124 0 0 1-24 17l-4 4 1 2v2l2 6 1-2c7-9 16-19 27-22h9l3 3h2l-1 10v3c-1 8-3 16-7 24l-1 2-1 2h4c4 1 5 3 7 7 6 10 7 24 4 36-3 10-8 20-14 29v4c1 3 3 6 6 8v-3c1-8 2-15 6-22l2-3c3-4 6-7 10-7l7-1v2l2 2c8 8 12 17 13 29-1 10-2 21-7 30v8l5 4 2 2 3 2v-14c0-7 1-13 4-19l3-3v-2c6-1 9 0 14 3 9 8 16 20 18 32a282 282 0 0 1 0 31c37 7 73 9 111 9h13a10060 10060 0 0 0 176 0h4a744215 744215 0 0 1 400 0h250l-10-8-20-16-2-2c-17-15-28-37-39-56l-2-3a145 145 0 0 1-8-18c-4-7-6-14-8-21l-1-4c-5-18-8-36-10-54v-2l-1-14v-3a389 389 0 0 1 19-142l-6-2-4-2-10-1Z"/><path fill="#FDFEFE" d="m1062 172-4 14h-2l-2 8v2l-1 3-1 2-1 8H831a3629963 3629963 0 0 0-104 0h-4a833033 833033 0 0 1-419 1h-4a117 117 0 0 0-21 1 306 306 0 0 0-70 10l-4 1-2 1h-3l-3 1-8 2v2l-10 2v2l-3 1-5 2-2 1-10 6h-3l-3 1-1 2-4 4c-16 7-29 26-36 41l-3 3-1 5c-2 6-2 6-5 7l-8 3c-9 4-16 9-22 17l-5 6c-1-4-2-8-1-12l7-5a826 826 0 0 0 15-10l2-2 8-7 2-2h2l1-2 4-6c5-7 10-16 9-24l-4-4H99c3-3 6-4 10-6 11-5 23-13 27-25l1-7c-1-3-1-3-4-5-9-2-18 0-26 4l-7 2c1-4 3-4 6-6l9-2c20-4 43-10 56-27l1-2 3-3h2l3-1 3-1h3a203 203 0 0 1 35-5c15-3 31-3 46-3v-2h226a1254960 1254960 0 0 1 107-1h3a287896 287896 0 0 0 246 0h4a63291 63291 0 0 0 184 0c9 0 17 1 25 5ZM187 461c4 1 8 1 11 3l19 4 8 2a113 113 0 0 0 15 3 2959 2959 0 0 0 25 3v2h20a328 328 0 0 0 38 1h13a26686 26686 0 0 0 69 0h3a127682 127682 0 0 0 231 0h4a84485 84485 0 0 0 255 0h3a16764 16764 0 0 0 174-1c27 0 27 0 33 6l5 8 7 5 7 5 13 9 4 4a881090 881090 0 0 1-373 0h-4a362129 362129 0 0 0-277 0h-3a79419 79419 0 0 0-243-1l-3-1c-37-2-37-2-51-7v-3a1413 1413 0 0 0-2-37l-1-5Z"/><path fill="#FCFDFE" d="M157 139c2 2 2 2 2 5l-3 12v2c-4 10-11 15-20 20l-3 1a484 484 0 0 1-4 2c11-5 24-9 37-5l4 4c0 4-1 5-3 7-15 16-40 22-61 24h-5l-1 2-5 10-1 2-2 4 2-1c9-7 19-12 32-12h7c2 3 2 4 2 8-5 13-17 20-28 26-25 12-25 12-33 12a4047 4047 0 0 0-2 11v2l-1 2v5l2-2c5-6 11-11 17-15l2-1c5-3 10-5 16-5h3l4 2c-1 16-12 27-23 38-8 7-17 13-27 18l1 25 1-2c3-7 7-12 12-18l2-2c5-6 12-10 19-11h6c2 2 2 4 2 7 0 18-7 33-19 46-12 12-12 12-16 12l1 2 3 6 1 3 1 2 1 2 1 5h2v-2c0-13 4-25 13-34 5-5 5-5 9-5h2a1875 1875 0 0 1 4 9c6 11 5 24 1 35-2 9-7 16-11 24l-3 6 13 17v-15c0-9 2-16 8-23 3-2 5-4 9-5 6 2 9 6 12 11 9 17 5 34-1 51l-2 6 8 8 3 2 2 2 2 2 5 4-1-2v-3l-1-2c-3-10-4-22 1-32l5-6c7 0 11 5 16 10 9 11 11 22 11 35v3c0 7 0 13-2 19l3 1 11 5a3400 3400 0 0 0 7 4l19 10 17 10c0 4 0 5-2 8-3 3-4 2-8 2l-10-5-7-4-3-1-15-8-6-3-2-2-6-3c-4-2-8-3-13-3h-10c-21 0-21 0-31-2h-2c-20-5-37-14-53-27l1-6c13-4 29-1 41 2l3 1 18 5a3499 3499 0 0 0-8-7l-3-3-2-2c-4-3-6-2-10-2-25-1-49-9-67-26-6-6-11-13-12-22 4-2 5-2 10-2h3l11 2 3 1c9 3 17 7 24 11l7 3c-6-12-6-12-17-19l-12-3c-17-3-34-14-44-28-4-7-7-15-6-23 2-2 3-3 6-3 19 4 33 16 47 29a4860 4860 0 0 0-6-13l-1-2-1-3c-2-5-5-6-10-8-16-7-30-16-37-32l-1-2c-3-6-3-13-3-20v-2c0-5 0-9 2-13 5-1 8 0 12 2 12 8 20 20 27 32v-22l-4-2c-13-12-24-25-26-44-1-9 1-16 5-24l2-2c6 0 10 2 14 6 6 7 11 16 14 25 2-6 5-15 2-21l-2-3c-9-11-12-27-11-40 2-8 6-16 12-22 3 0 5 0 8 3 8 9 10 20 12 32l6-8 1-2c3-4 4-6 4-11l-2-6c-3-10-4-25 0-35l1-2 1-2c4-8 10-13 18-17h5c2 2 2 2 2 5v7a1294 1294 0 0 1 0 25c3-3 4-6 5-10 2-10 6-17 14-22s17-9 26-7Z"/><path fill="#384D5F" d="M1284 47c5 4 8 9 8 15 0 7-1 12-4 19h-1l-1-12c0-6 0-10-4-16-5-3-11-4-17-3-11 2-22 7-29 16-3 6-4 12-5 18l3 1-1 1 9 1v1h-3c-35 0-35 0-68 8-7 3-13 5-20 6v2l-3 1c-15 6-30 15-43 25l-2 1c-3 2-4 3-5 6h-3l-1-2c-5-11-12-17-23-22-11-4-23-5-34-1-6 3-12 7-16 13-2 6-2 13 0 19l5 7 1 2c2 4 6 4 10 6l14 5 2 1 9 3 7 2h5v3h-7l-1 4-3 9-6 24-1 3-2 11-1 3v7l-1 3a400 400 0 0 0 1 123l10 36 3 8 7 16 4 7c10 22 24 41 41 58l2 2c4 5 9 8 14 12l2 1a194 194 0 0 0 110 30 3357 3357 0 0 0 28-2l-3-6-2-3-1-2-1-2-1-5h3l1 2c2 5 5 10 9 14 4 6 6 12 9 19l3 7h7l5-4c3-8 1-16-3-24a445 445 0 0 0-11-21c4 0 5 1 8 4l5 10 3 6c7 0 13-2 20-4l11-2 1 6-11 4-3 1h-4l-2 1-7 1v2c2 9 3 17-1 24-3 4-5 6-10 6-4 1-7 0-11-1-6-5-8-11-11-18l-1-3-1-3h-2c-28 1-57 0-84-8-17-5-34-5-51-5h-14a6500 6500 0 0 0-183 0h-3a425465 425465 0 0 1-188 0h-2a222773 222773 0 0 1-515-3h-6l-3-1h-9l3 1a2873 2873 0 0 1 22 12c3 2 5 4 6 7v7c-3 3-5 5-9 6-5 0-9-2-13-5l-3-1a1226 1226 0 0 1-14-8l-3-1a906 906 0 0 0-15-8c-11-8-23-6-36-6-25 0-49-8-70-22l-3-2c-7-5-7-5-7-8 0-4 1-7 3-10l7-1h3l2-1h9l-3-1c-24-5-44-15-58-36l-4-8 2-5 1-2c2-2 3-3 6-3h7a125 125 0 0 1 8 0c-17-6-33-16-41-33-3-6-4-13-3-20 2-3 3-3 6-5 7-1 14 2 20 5l3 2 1-2-3-1c-12-4-23-16-29-28-5-12-8-27-3-39 3-3 5-4 10-4 5 1 9 4 13 7l2 1 8 9 2 1c-1-4-3-6-6-9a62 62 0 0 1-20-42c0-9 2-17 7-24 4-2 7-2 11-2 9 4 16 14 20 22v-7l-2-3c-9-14-14-29-10-46 2-8 6-17 13-21l9 1c9 7 12 16 14 27 4-5 4-5 5-10l-2-7c-3-14-3-28 3-42 5-7 12-14 20-18 3 0 5 0 8 2l3 4 2 13 1-2c7-10 16-15 28-18l3-1 9 1c3 2 4 3 5 6 0 11-5 21-11 29h9l6 3c5 2 11 0 16-1l6-2h3l23-4 2-1a2635 2635 0 0 1 20-2h2c18-2 35-2 53-2h11a23434 23434 0 0 1 154 0h3a1723894 1723894 0 0 0 348-1h218l-2-2-2-3-3-2c-6-8-5-19-4-29 0-5 3-8 7-11l2-2 2-2c6-6 20-8 29-7 17 2 29 8 41 21l12-7c8-6 16-10 25-15l3-2 23-9 4-1 21-6 2-1c10-2 20-2 30-2h11v-4c0-8 4-13 9-19 12-11 32-20 48-11ZM123 153c-4 6-6 12-7 19l-4 6v-3a2642 2642 0 0 0 0-24v-8l-2-2c-7 0-12 4-17 9-8 8-10 16-10 28v2c0 7 1 14 3 20v8l-5 8-1 3-4 5v-2c-3-18-3-18-14-32l-5-1c-7 4-10 12-13 20-3 16 4 30 11 43l2 2c2 4 1 10 0 14l-2 7-1-2c-4-9-8-17-15-24l-2-2c-4-2-6-3-10-3-7 9-8 19-7 30 3 14 10 24 20 34l2 2 6 6h2v22l-4-6c-7-12-16-24-30-29l-5 1c-2 5-2 9-2 15v2c0 15 6 26 16 37 6 6 14 11 22 13 6 3 11 5 14 11l6 15c-2 0-4-2-5-4-12-10-27-23-44-23l-3 3c-1 10 3 18 8 26a87 87 0 0 0 53 28c5 1 7 2 9 6l4 5 1 2 4 6-9-4c-8-5-16-8-25-11l-3-1-11-1h-4l-6 2c0 7 4 11 8 17l2 2a80 80 0 0 0 48 26l15 2c8 0 13 0 19 6a167 167 0 0 1 7 8c-29-9-29-9-59-7l-1 6c22 18 46 30 75 29 22-1 36 1 54 13l14 8 4 2 2 1 6 3c3 2 5 3 9 2 3-1 3-1 4-4v-6l-2-1-12-6-2-1-30-17-3-2-2-1-6-2v-2c4-17 4-34-5-49-4-6-9-13-16-16-3 0-5 1-7 3-6 9-6 19-4 30a227 227 0 0 0 2 12l-2-2-17-16 1-2c6-17 11-35 3-53l-6-8-2-2-5-3c-5 2-9 5-12 10-4 7-5 13-5 21v12l-5-6-1-2-7-9 4-8c9-16 17-33 12-51l-7-15-7 1c-9 8-16 18-17 30v10h-2v-2l-5-11-1-2-2-5 2-1c15-8 26-23 32-39 2-8 2-15 1-23-2-2-2-2-5-2-10 0-18 6-25 13-5 6-9 13-12 20l-1-8-1-7 1-10 13-8c16-9 31-24 36-41v-8c-2-2-3-1-5-1-15 0-26 11-36 21l-2 2v-3l3-17h2c19-5 44-15 56-32 2-4 3-7 3-11l-2-3c-15-2-27 4-40 12 1-4 4-8 7-12l1-5h2c23-2 49-8 65-25l2-5c-1-3-1-3-4-5-13-4-25 1-37 5l3-2c14-7 21-12 26-27l1-11c-2-2-3-2-6-2-12 0-22 6-30 14Zm919 14h-35a9412069 9412069 0 0 0-157 0h-3a695698916 695698916 0 0 1-247 1H267v2h-3a246 246 0 0 0-34 2l-15 2h-4a232 232 0 0 0-31 5c-5 1-5 1-9 4l-3 6c-10 12-28 17-42 21h-3l-16 3c-3 1-5 3-7 6l2 1 6-2c6-3 11-4 18-4l3-1 6 3c3 4 2 6 1 10-6 16-23 23-37 30l9 1c3 0 5 0 8 2 2 3 1 6 0 10-2 7-6 13-11 19l-2 5-4 2-5 5a124 124 0 0 1-24 17l-4 4 1 2v2l2 6 1-2c7-9 16-19 27-22h9l3 3h2l-1 10v3c-1 8-3 16-7 24l-1 2-1 2h4c4 1 5 3 7 7 6 10 7 24 4 36-3 10-8 20-14 29v4c1 3 3 6 6 8v-3c1-8 2-15 6-22l2-3c3-4 6-7 10-7l7-1v2l2 2c8 8 12 17 13 29-1 10-2 21-7 30v8l5 4 2 2 3 2v-14c0-7 1-13 4-19l3-3v-2c6-1 9 0 14 3 9 8 16 20 18 32a282 282 0 0 1 0 31c37 7 73 9 111 9h13a10060 10060 0 0 0 176 0h4a744215 744215 0 0 1 400 0h250l-10-8-20-16-2-2c-17-15-28-37-39-56l-2-3a145 145 0 0 1-8-18c-4-7-6-14-8-21l-1-4c-5-18-8-36-10-54v-2l-1-14v-3a389 389 0 0 1 19-142l-6-2-4-2-10-1Z"/><path fill="#DEE1E7" d="M1443 232c7 1 10 7 14 12l1 4 1 2 2 1c3 2 4 5 6 8a3175 3175 0 0 0 10 25h2a168 168 0 0 1 8 39 180 180 0 0 1-7 74l-1 5h-2v2c-1 7-4 12-7 17l-3 5-1 2-2 4-3 3c-3 1-3 3-4 6-3 6-8 11-13 15l-8 8-6 3-6-7 2-10c2-22-1-44-9-64l-2 1 5 17c3 9 3 18 3 27v7c1 11-2 19-9 28l-1 2-9 10h-2v-2c-3-43-3-43-25-78l-6-4-3-2-1-8v-9c1-17 1-17-6-32-3-4-7-5-12-5l1 3 3 1c4 3 6 5 8 9a91 91 0 0 1 2 32v11a6409 6409 0 0 1-28 8l-3 1-4 1-3 4-1 4-5 4-1 2-3 1v5l-10 3c-4-1-4-1-7 1l-17 1-6 1v-4h-6v-2h-2v-2h-2l-3-5-2-1c-2-3-2-6-2-10l2-1 3-2 3-1 4-6c1-4 1-9-1-13l-10-7-1-3c1-8 3-14 9-20 5-4 5-4 8-4v-2c16-5 32-10 49-10v-2l19-4 20-4 17-3 5-1 2-4v-3l1-3 1-3 8-31 1-4 5-1 9-4h3l1-3 4-2c12-6 19-21 23-33Z"/><path fill="#FBFBFB" d="M1196 161h6c9-1 16 1 24 4l3 1a79 79 0 0 1 50 74v3c0 21-8 39-22 55a77 77 0 0 1-59 20 89 89 0 0 1-66-39l-1-2a88 88 0 0 1-13-64c5-18 21-33 37-43 13-7 26-10 41-9Z"/><path fill="#394856" d="M1281 52c4 3 5 5 6 10v8l-1 17 4 1c17 3 34 11 48 21l3 2 14 13 2 2 17 23h2c16-4 29-1 43 8 15 11 25 27 28 46v11c0 4 1 6 3 9l3 2c5 5 10 10 13 17l3 4 5 8 7 12c7 12 10 25 12 38v2a176 176 0 0 1-29 142c-5 7-11 14-19 20l-6 7 1 3 2 3 2 4c2 6 3 12 1 19-3 6-3 6-7 9-5 1-9 0-14-2l-16-14c1 15 1 15 8 27l8 2h2c14 2 28 2 41 2h35v8l-19 1h-4a3504 3504 0 0 1-18 0c-44 0-44 0-54-9l-4-8h-2l-2-8-1-3v-2l-1-2v-5l-30 12c-20 9-20 9-30 10v-2l-1-3-2-1 4-2 3-1 7-2 2-1a13938 13938 0 0 1 23-11l2-1 16-10 7-4c-2-44-2-44-23-82l-8-5c-3-1-3-1-4-4a186 186 0 0 1 0-18c-1-15-1-15-6-29l-8-5v-3c4-1 6-1 9 1 6 5 8 11 10 18v11a370 370 0 0 1 1 24c3 3 6 4 10 6 14 10 18 31 20 47l3 33c5-4 9-8 12-13l2-2c6-10 7-18 6-29v-2a87 87 0 0 0-6-37l-1-3v-6h3a78 78 0 0 1 7 23c2 9 2 19 2 29v9l-2 8c-1 3 0 4 1 7l4 4 7-2 1-2c1-3 4-5 6-7l2-2 3-1 1-2 4-6 4-7 1-2h2l2-1 1-2 7-15c3-5 5-9 6-15h2v-3l3-12 4-21v-3c3-22 1-45-5-67l-2-12h-2l-1-4-9-18-1-2-1-2-1-4-1-2-2-1c-3-1-3-1-4-4l-1-2-6-8-1-3-6-2v2c-3 9-8 18-14 25h-2l-1 2c-2 3-3 4-7 6l-4 3-6 3-3 1-8 1v2c-3 16-7 31-12 46h-3l3-12c3-12 5-23 6-35h-2c-11-1-19-5-26-13a95 95 0 0 1-16-71c2-12 8-27 18-35l1-3c-1-4-3-6-5-9l-2-2c-25-32-59-48-100-52l-21-2v-1l-7-1 1-2-2-1c-1-8 2-15 7-21 10-11 29-19 43-11Z"/><path fill="#0A6EB0" d="m159 137 4 6c-1 10-4 21-11 28h2c12 1 12 1 16 3l1 3h10l15-2a200 200 0 0 1 27-5c24-2 48-3 73-3h11a11770 11770 0 0 1 176 0 301330 301330 0 0 1 227 0h4a2718572 2718572 0 0 0 326 0v-2l7 1v2H267v2h-3a5776 5776 0 0 0-56 6 196 196 0 0 0-28 4c-5 1-5 1-9 5l-1 3c-13 18-42 23-63 26l-6 3 1 2 2-1 4-1 3-2c7-3 14-3 22-2 3 2 3 3 5 6 0 8-4 14-9 19-8 8-18 13-28 18h2c9-1 9-1 13 2 2 3 2 5 2 9-4 11-9 20-18 28l-1 2-15 12-2 1-14 9v6l1 5 1-2 10-11 2-1c6-6 13-11 22-11l7 5c3 14-2 28-9 40h3c5 2 6 4 9 8 5 12 6 26 2 38-3 10-7 19-13 27v5l4 6v-3c1-8 2-14 6-21l2-3c3-4 6-8 11-8h7v2l2 1c7 4 10 13 12 20 3 13 1 28-5 40v8l4 4 2 2 2 1v-13c0-9 2-15 6-22 2-2 4-3 8-3 7 1 13 8 17 13 8 12 10 22 10 36v3l-1 15h2l9 1 3 1h6l5 1 28 4h3l55 1h13a10039 10039 0 0 0 176 0h4a742972 742972 0 0 1 661 3v1H267v-2h-3l-27-1-36-2 3 1a864 864 0 0 1 30 16l4 2 3 2c2 1 4 3 5 6v7c-3 3-5 5-9 6-5 0-9-2-13-5l-3-1a1226 1226 0 0 1-14-8l-3-1a906 906 0 0 0-15-8c-11-8-23-6-36-6a125 125 0 0 1-73-24c-7-5-7-5-7-8 0-4 1-7 3-10l7-1h3l2-1h9l-3-1c-24-5-44-15-58-36l-4-8 2-5 1-2c2-2 3-3 6-3h7l11 1-3-1c-17-6-33-16-41-33-3-6-4-13-3-20 2-3 3-3 6-5 7-1 14 2 20 5l3 2 1-2-3-1c-12-4-23-16-29-28-5-12-8-27-3-39 3-3 5-4 10-4 5 1 9 4 13 7l2 1 8 9 2 1c-1-4-3-6-6-9a62 62 0 0 1-20-42c0-9 2-17 7-24 4-2 7-2 11-2 9 4 16 14 20 22v-7l-2-3c-9-14-14-29-10-46 2-8 6-17 13-21l9 1c9 7 12 16 14 27 4-5 4-5 5-10l-2-7c-3-14-3-28 3-42 5-7 12-14 20-18 3 0 5 0 8 2l3 4 2 13 1-2c8-11 19-16 32-19 4 0 6 0 9 2Zm-36 16c-4 6-6 12-7 19l-4 6v-3a2642 2642 0 0 0 0-24v-8l-2-2c-7 0-12 4-17 9-8 8-10 16-10 28v2c0 7 1 14 3 20v8l-5 8-1 3-4 5v-2c-3-18-3-18-14-32l-5-1c-7 4-10 12-13 20-3 16 4 30 11 43l2 2c2 4 1 10 0 14l-2 7-1-2c-4-9-8-17-15-24l-2-2c-4-2-6-3-10-3-7 9-8 19-7 30 3 14 10 24 20 34l2 2 6 6h2v22l-4-6c-7-12-16-24-30-29l-5 1c-2 5-2 9-2 15v2c0 15 6 26 16 37 6 6 14 11 22 13 6 3 11 5 14 11l6 15c-2 0-4-2-5-4-12-10-27-23-44-23l-3 3c-1 10 3 18 8 26 12 15 29 22 47 27h2l4 1c5 1 7 2 9 6l4 5 1 2 4 6-9-4c-8-5-16-8-25-11l-3-1-11-1h-4l-6 2c0 7 4 11 8 17l2 2a80 80 0 0 0 48 26l15 2c8 0 13 0 19 6a167 167 0 0 1 7 8c-29-9-29-9-59-7l-1 6c22 18 46 30 75 29 22-1 36 1 54 13l14 8 4 2 2 1 6 3c3 2 5 3 9 2 3-1 3-1 4-4v-6l-2-1-12-6-2-1-30-17-3-2-2-1-6-2v-2c4-17 4-34-5-49-4-6-9-13-16-16-3 0-5 1-7 3-6 9-6 19-4 30a227 227 0 0 0 2 12l-2-2-17-16 1-2c6-17 11-35 3-53l-6-8-2-2-5-3c-5 2-9 5-12 10-4 7-5 13-5 21v12l-5-6-1-2-7-9 4-8c9-16 17-33 12-51l-7-15-7 1c-9 8-16 18-17 30v10h-2v-2l-5-11-1-2a1176 1176 0 0 0 0-6c15-8 26-23 32-39 2-8 2-15 1-23-2-2-2-2-5-2-10 0-18 6-25 13-5 6-9 13-12 20l-1-8-1-7 1-10 13-8c16-9 31-24 36-41v-8c-2-2-3-1-5-1-15 0-26 11-36 21l-2 2v-3l3-17h2c19-5 44-15 56-32 2-4 3-7 3-11l-2-3c-15-2-27 4-40 12 1-4 4-8 7-12l1-5h2c23-2 49-8 65-25l2-5c-1-3-1-3-4-5-13-4-25 1-37 5l3-2c14-7 21-12 26-27l1-11c-2-2-3-2-6-2-12 0-22 6-30 14Z"/><path fill="#FDFDFE" d="M1443 232c7 1 10 7 14 12l1 4 1 2 2 1c3 2 4 5 6 8a3175 3175 0 0 0 10 25h2a168 168 0 0 1 8 39 180 180 0 0 1-7 74l-1 5h-2v2c-1 7-4 12-7 17l-3 5-1 2-2 4-3 3c-3 1-3 3-4 6-3 6-8 11-13 15l-8 8-6 3c-6-6-6-6-6-10v-2l2-1c2-5 1-11 1-17v-4c0-7 0-14-2-21-1-11 1-18 5-28 4-9 5-18 7-28v-3c1-8 2-17-1-25v-5l-4-15v-2l-7-17v-2l-8-11-2-5 4-3 5-5 2-2c8-8 13-18 17-29Z"/><path fill="#FCFCFC" d="M1417 163c7 6 13 12 17 21v3h2c7 14 8 31 4 46-7 17-18 29-34 37-9 4-17 3-26-1l-11-7-2-2a77 77 0 0 1-18-55c0-10 3-20 8-29l1-3c3-8 10-15 17-18 15-6 29-1 42 8Z"/><path fill="#DEE2E7" d="M1394 325h7l-11 4h-2a1856 1856 0 0 1-16 3l-2 1-19 4-1 4 3 1c4 3 6 5 8 9a91 91 0 0 1 2 32v11a6409 6409 0 0 1-31 9l-4 1-3 4-1 4-5 4-1 2-3 1v5l-10 3c-4-1-4-1-7 1l-17 1-6 1v-4h-6v-2h-2v-2h-2l-3-5-2-1c-2-3-2-6-2-10l2-1 3-2 3-1 4-6c1-4 1-9-1-13l-10-7-1-3c1-8 3-14 9-20 5-4 5-4 8-4v-2c16-5 32-10 49-10v-2c7-2 13-4 21-4l3-1a1919 1919 0 0 1 24-2c7-1 14-3 22-3Z"/><path fill="#1783CB" d="m143 203-1 3-8 2-2 1a322 322 0 0 1-31 8l1 2 2-1 4-1 3-2c7-3 14-3 22-2 3 2 3 3 5 6 0 8-4 14-9 19-8 8-18 13-28 18h2c9-1 9-1 13 2 2 3 2 5 2 9-4 11-9 20-18 28l-1 2-15 12-2 1-14 9v6l1 5 1-2 10-11 2-1c6-6 13-11 22-11l7 5c3 14-2 28-9 40h3c5 2 6 4 9 8 5 12 6 26 2 38-3 10-7 19-13 27v5l4 6v-3c1-8 2-14 6-21l2-3c3-4 6-8 11-8h7v2l2 1c7 4 10 13 12 20 3 13 1 28-5 40v8l4 4 2 2 2 1v-13c0-9 2-15 6-22 2-2 4-3 8-3 7 1 13 8 17 13 8 12 10 22 10 36v3l-1 15h2l9 1 3 1h6l5 1 28 4h3l55 1h13a10039 10039 0 0 0 176 0h4a742972 742972 0 0 1 661 3v1H267v-2h-3a365 365 0 0 1-64-5h-2c-8-2-8-2-10-6l-1-8v-7c0-16-2-29-14-41-4-4-4-4-10-6-4 2-6 5-8 9-3 11-1 22 2 32l1 5-15-13-2-2-5-5 1-2c6-17 11-35 3-53l-6-8-2-2-4-2c-5 1-7 3-10 7-5 8-6 15-6 24v12l-10-12-2-2-3-4 4-8c9-16 17-33 12-51l-5-11-1-4c-9 2-13 8-17 15a45 45 0 0 0-6 21l-1 5h-2l-4-9-1-2-1-3-1-2-1-4 6-4c14-11 25-25 28-43v-16l-4-1c-9 0-16 5-22 10l-11 16-1 2-3 5h-1l-1-8-1-8 1-10c4-4 10-7 15-10 15-9 29-22 34-39v-8c-13-1-22 5-32 13l-10 10v-12l1-2c0-3 1-6 4-8l4-2 3-1h3c17-6 37-14 46-30l2-9-1-2c-16-1-27 4-40 12l-2 1 1-2 2-6c2-5 3-8 7-11 8-3 16-3 24-4l13-4h5Z"/><path fill="#FDFEFE" d="m915 268 5 7 1 2a337 337 0 0 1 6 15l-9 3v2l2 1 5 2a157 157 0 0 1-95 114c-5 2-5 2-9 1l-6-5-5-4v-3l13-6a133 133 0 0 0 44-27c19-15 29-38 36-60a926 926 0 0 0-31-1c-15-2-15-2-28 4l-7 11-3 4-2 1-1 2-2 1-19 16-2 2-4 1-7-5-2-2-2-1 1-4 6-5c7-4 14-10 20-16l3-3c11-11 25-29 27-45l17 4 1 3-10 18 57-1-11-19-1-5c8-4 8-4 12-2ZM273 291l117 1v119h-17v-10l-102 1v-17l102 1v-79l-100 1v-17Z"/><path fill="#000B13" d="M204 514a853 853 0 0 1 19 2c22 4 44 3 67 3h14a16188 16188 0 0 0 181 0h4a904391 904391 0 0 1 680 2v2l3 1H909a5000948 5000948 0 0 1-224 0h-2a4463527 4463527 0 0 0-189 0h-4a258358 258358 0 0 0-213 0 364 364 0 0 1-70-6l-2-2-1-1v-1Z"/><path fill="#FCFEFE" d="M450 315a9166 9166 0 0 1 105-1h3c8 0 13 3 19 7l-1 2-4 13c-6 17-14 30-26 43l-2 2c-13 15-35 25-54 30-3 0-4-1-6-3l-3-3-2-3c-2-2-2-2-2-5l2-1c7-1 14-3 20-6l2-1c25-10 41-26 52-51l2-7H450v-16Z"/><path fill="#323F4A" d="M1281 52c4 3 5 5 6 10v8l-1 17 4 1c17 3 34 11 48 21l3 2 14 13 2 2 17 23h2c16-4 29-1 43 8 14 11 23 25 27 42v4h-5l-5-16h-2l-1-2c-5-10-12-18-21-24l-2-2c-8-5-17-6-27-5l-15 6v-3c0-4-2-7-5-11l-2-2-16-18-2-2c-27-26-68-33-104-35v-1l-7-1 1-2-2-1c-1-8 2-15 7-21 10-11 29-19 43-11Z"/><path fill="#001422" d="m1015 142 1 2c5 9 10 16 20 20v2h-2a728962 728962 0 0 0-336 0h-4a300988 300988 0 0 1-250 0h-3a66048 66048 0 0 1-171 1c-22 0-45 0-67 5l-11 1h-2l-5 1v2l-8 2h-6v-3l11-2 4-1 3-1h3l3-1h2l18-3 2-1a2635 2635 0 0 1 20-2h2c18-2 35-2 53-2h11a23434 23434 0 0 1 154 0h3a1723894 1723894 0 0 0 241-1h3a5403276 5403276 0 0 0 104 0h218l-2-2-2-3-3-2c-3-4-4-7-4-12Z"/><path fill="#C5E6FB" d="M323 206h12a11256 11256 0 0 1 152 0h3a831088 831088 0 0 0 345 0h216v3H831a3629963 3629963 0 0 0-104 0h-4a833033 833033 0 0 1-240 1h-3a183164 183164 0 0 1-176 0h-4a117 117 0 0 0-21 1 306 306 0 0 0-74 11l-2 1h-3l-3 1-8 2v2l-10 2v2l-3 1-5 2-2 1-10 6h-3l-3 1-1 2-4 4c-16 7-29 26-36 41l-3 3-1 5c-2 6-2 6-5 7l-8 3c-9 4-16 9-22 17l-5 6c-1-4-2-8-1-12l7-5 4-2 2-2 9-6 2-2 8-7 2-2h2l1-2 4-7 6-9c1-3 1-3 4-4l3-1 2-4c3-6 8-9 14-13l4-3 2-2a650 650 0 0 0 6-4l2-2 4-1v-2c2-3 5-5 8-6l5-1 1-1c3-3 5-3 9-5l7-3a100 100 0 0 1 7-2h7v-2l16-1v-2c11-3 23-5 35-6l3-1c23-3 46-3 70-3Z"/><path fill="#8ABCDD" d="m189 503 1 3h2l9 1 3 1h6l5 1 28 4h3l55 1h13a10039 10039 0 0 0 176 0h4a742972 742972 0 0 1 659 2l2 1v1H267v-2h-3a365 365 0 0 1-64-5h-2l-9-4v-4Z"/><path fill="#C5E8FD" d="m186 459 18 3 18 5 7 1 12 2h2a1468 1468 0 0 0 40 4v2h237a259803 259803 0 0 1 112 0h3a59551 59551 0 0 0 258-1h4a13086 13086 0 0 0 176 0c26 0 26 0 33 6 4 3 7 7 10 12-3 0-3 0-5-2l-3-2-2-3-4-5h-5a549348263 549348263 0 0 0-23 0h-13a8585 8585 0 0 0-183 0l-34-1h-90a4438219 4438219 0 0 0-199 0h-4a559077 559077 0 0 1-286-2v-2h-3l-25-3h-4l-22-5-4-1-12-4-9-1v-3Z"/><path fill="#95D0F7" d="m1419 265 2 1-2 3h-3c1 5 3 8 6 13 9 12 14 30 15 45l1 5c7 15-3 42-8 56l-2 6c-3 7-2 14-1 21l1 22v11l-2 7-1-2 1-3c2-22-1-45-10-66h2c3-6 4-11 4-18v-10h2l-1-6 1-1 2-1 2-2 4-4v-8c-1-3-2-4-5-6h-8l-10-1v-2l-4-1v-2h-19a1303 1303 0 0 1 12-47l2-1h3l3-1 6-3h3l1-3 3-2Z"/><path fill="#3B4D5C" d="M1196 155h3c25 0 44 10 62 26 7 8 12 17 16 26l1 2c4 10 5 21 5 32v3c0 22-8 42-23 58a80 80 0 0 1-77 18l-3-1c-15-4-27-12-39-22l-2-2c-8-8-16-18-20-28v-2h-2l-2-9-1-2c-5-19-4-39 5-56a100 100 0 0 1 11-14l1-2h2l1-2c8-13 29-20 43-24l19-1Zm-62 31a62 62 0 0 0-16 48c0 11 1 21 6 31l1 3c12 22 31 39 56 47 7 2 14 3 22 3h3c21 0 37-7 52-22a81 81 0 0 0 17-82l-1-3a78 78 0 0 0-54-48l-3-1-10-1h-2a523 523 0 0 0-9 0c-24 0-45 7-62 25Z"/><path fill="#FDFEFE" d="M752 305c4 1 5 4 7 7l2 3v8l-4 7-1 2c-6 9-14 17-21 25l-2 2c-23 25-60 44-94 49-3-1-3-1-5-4l-2-3-1-2c-2-3-3-5-3-8h3a165 165 0 0 0 121-86Z"/><path fill="#8ABCDD" d="m1062 172-4 14h-1c0-5 1-9 3-13l-10-1h-7a6467 6467 0 0 1-15 0h-12a27251 27251 0 0 0-296 0h-4a220329 220329 0 0 1-248 0h-3a68236 68236 0 0 1-134 0c-54 0-106 0-159 13l1-4a232 232 0 0 1 48-8c15-3 31-3 46-3v-2h226a1254960 1254960 0 0 1 107-1h3a287896 287896 0 0 0 246 0h4a63291 63291 0 0 0 184 0c9 0 17 1 25 5Z"/><path fill="#384757" d="m1353 257 6 7 8 10c2 2 1 3 1 6 0 4 0 7-3 10l-11 7-3 1-7 1v11l-2 5c-4 3-8 2-12 2h-3l-7-1 1-19-3-1c-6-1-10-5-14-9-2-4-2-8 0-12 4-5 10-9 16-11l12-7c6-3 14-3 21 0Z"/><path fill="#30414D" d="M1284 47c5 4 8 9 8 15 0 7-1 12-4 19h-1l-1-12c0-6 0-10-4-16-5-3-11-4-17-3-11 2-22 7-29 16-3 6-4 12-5 18l3 1-1 1 9 1v1h-3c-35 0-35 0-68 8-7 3-13 5-20 6v2l-3 1c-15 6-30 15-43 25l-2 1c-3 2-4 3-5 6h-3l-1-2c-5-11-12-17-23-22-13-5-28-3-41-1v2l-4 1v2h-3l-4 11h-2l1 4-2 1-1-11c2-4 6-7 9-10l2-2c7-6 20-8 29-7 17 2 29 8 41 21l12-7c8-6 16-10 25-15l3-2 23-9 4-1 21-6 2-1c10-2 20-2 30-2h11v-4c0-8 4-13 9-19 12-11 32-20 48-11Z"/><path fill="#92CEF3" d="M1413 388c2 2 3 3 3 6l1 2 1 3 1 2a94 94 0 0 1 4 37c1 11-2 19-9 28l-1 2-9 10h-2v-2c-3-42-3-42-23-77l-4-3-2-2h4v2h4a125 125 0 0 1 24-1v-2l8-3v-2Z"/><path fill="#3C4F5C" d="M1368 154v5l-7 10c-4 5-6 12-8 18v1c-6 19-3 40 5 57 7 13 14 20 27 25a37 37 0 0 0 35-10l2-2c12-11 18-25 19-41v-14h6v4a2933 2933 0 0 0 0 7c0 4 1 5 3 9l3 2c5 5 10 10 13 17l3 4 5 8 7 12a127 127 0 0 1 12 40 176 176 0 0 1-29 142c-5 7-11 14-19 20l-6 7 1 2 1 5c-3-2-4-4-5-7v-3l5-2v-2h2v-2l5-4a101 101 0 0 0 5-6h2v-3c1-4 3-5 6-8l2-3 1-2h2l1-2 3-5 4-7c0-3 1-4 3-6 5-6 7-14 8-22h2v-2l1-9v-7l1-3 1-7 1-16a3579330793 3579330793 0 0 0 0-23c1-14-1-27-4-41v-2h-2l-4-14c-2-5-3-8-7-12l-3-8c-1-3-3-5-6-6-4-2-5-5-7-8-3-4-5-6-9-8l-5-5v2c-2 10-7 22-15 30h-2l-1 2c-2 3-3 4-7 6l-4 3-6 3-3 1-8 1v2c-3 16-7 31-12 46h-3l3-12c3-12 5-23 6-35h-2c-11-1-19-5-26-13a95 95 0 0 1-16-71c2-12 8-27 18-35l2-3Z"/><path fill="#086DB0" d="m37 426 4 1-3 1c-1 4-2 7 0 11l6 8 2 2c10 14 28 21 44 25l4 1 15 2c8 0 13 0 19 6a272 272 0 0 1 9 8l2 2h-7l-3-1-6-2c-12-4-22-5-35-5H76v6l6 5 2 2c20 13 42 21 66 21 22-1 36 1 54 13l14 8 4 2 2 1 6 3c3 2 5 3 9 2l3-3 1-6-2-1-15-7-3-2-26-14-2-1-3-2-6-3v-6l3-1v5l22 5v1h-10l3 1a864 864 0 0 1 30 16l4 2 3 2c2 1 4 3 5 6v7c-3 3-5 5-9 6-5 0-9-2-13-5l-3-1a1226 1226 0 0 1-14-8l-3-1a906 906 0 0 0-15-8c-11-8-23-6-36-6-25 0-49-8-70-22l-3-2c-7-5-7-5-7-8 0-4 1-7 3-10l7-1h3l2-1h9l-3-1c-24-5-44-15-58-36l-4-8 2-5 2-2 1-2Z"/><path fill="#97D5FA" d="M1281 52c4 3 5 6 6 11l-3 12-4 12-18-1-30-3c-1-7 0-12 4-18 11-12 30-22 45-13Z"/><path fill="#334350" d="M1289 503c4 0 5 1 8 4l5 10 3 6c7 0 13-2 20-4l11-2 1 6-11 4-3 1h-4l-2 1-7 1v2c2 9 3 17-1 24-3 4-5 6-10 6-4 1-7 0-11-1-6-5-8-11-11-18l-1-3-1-3h-2c-35 1-68-4-101-12v-3c7-1 13 0 20 1a360 360 0 0 0 52 7h2a3357 3357 0 0 0 28-2l-3-6-2-3-1-2-1-2-1-5h3l1 2c2 5 5 10 9 14 4 6 6 12 9 19l3 7h7l5-4c3-8 1-16-3-24a445 445 0 0 0-11-21Z"/><path fill="#FCFDFE" d="M465 276h99v16h-99v-16Z"/><path fill="#DED3B9" d="m1208 369 8 2h2l11 4c6 2 12 2 19 2 6 1 11 1 16 6 2 4 2 9 1 14-2 3-5 5-8 6a66 66 0 0 1-32-3l-5-1-2-1-6-2-1-3-4-1c-2-2-1-7-1-10v-7l2-6Z"/><path fill="#3D4656" d="M1206 209h6c0 3 0 3-2 5l-2 2c-2 3-1 6-1 9 1 3 2 4 5 6 4 1 7 2 11 0 3-1 4-4 6-6 2 2 1 4 1 7 0 7-1 12-6 17-6 5-12 6-20 6s-12-4-17-10c-4-6-4-12-3-20 2-7 8-11 14-15l8-1Z"/><path fill="#0C70B3" d="m13 300 2 1-2 2c-4 4-3 10-3 16v2c0 15 6 26 16 36 6 6 13 11 21 13 8 3 12 6 16 14a148 148 0 0 1 5 11l1 3-1 2-2-2c-12-11-28-25-44-27-4 0-4 0-6 2-1 11 4 20 10 29 12 12 28 18 44 23h2l4 2c7 1 10 5 14 11l1 2 5 8-11-5c-8-5-16-8-25-11l-3-1-12-1h-8l1-3h3v-2h7l11 1-3-1c-17-6-33-16-41-33-3-6-4-13-3-20 2-3 3-3 6-5 7-1 14 2 20 5l3 2 1-2-3-1c-12-4-23-16-29-28-5-12-7-24-4-37l7-6Z"/><path fill="#3E3E3E" d="m1401 484 2 1v8h3c4 0 5 2 8 5l4 7-10-8c1 15 1 15 8 27l8 2h2c14 2 28 2 41 2h35v8l-19 1h-4a3504 3504 0 0 1-18 0c-44 0-44 0-54-9l-4-8h-2l-2-8-1-3v-2l-1-2v-5l-2 1-7 2-2 1-3 1-2 1-4-1 7-4 1-1c5-3 8-4 13-4v6h2v-6h1l1-7h-2v5h-1v-6h2v-4Z"/><path fill="#DED4BA" d="M1288 502v3l2 1c3 1 3 3 5 6l1 2 2 3 1 3c4 8 7 16 6 25-1 4-2 5-5 7l-9 1c-3-3-4-7-6-12-2-6-4-11-8-16l-5-7-2-3-2-7 3-5c6-2 11-3 17-1Z"/><path fill="#002C4B" d="M204 514a853 853 0 0 1 19 2c22 4 44 3 67 3h14a16256 16256 0 0 0 181 0h4a1198081 1198081 0 0 1 186 1h2a453802 453802 0 0 1 481 0v1H889a5224028 5224028 0 0 1-228 0h-2a4663342 4663342 0 0 0-131 0h-2a1160493 1160493 0 0 1-61 0h-4a269902 269902 0 0 0-241 0l-4-1c-4 0-8-2-12-5v-1Z"/><path fill="#054F7F" d="m200 512 19 1v2h3a5607 5607 0 0 1 78 3h13a15904 15904 0 0 0 180 0h4a1172823 1172823 0 0 1 407 1h254v1H897a1636094 1636094 0 0 1-221 0h-2a1451909 1451909 0 0 0-438-1l-2-1c-7 0-15-1-22-3h-6c-3 0-3 0-6-3Z"/><path fill="#F6F9FA" d="M1394 325h7l-11 4h-2a1916 1916 0 0 1-36 7l-17 5a85 85 0 0 1-6 1h-3c-12 1-12 1-22 6l-6 1c-9 1-18 5-23 13l-4 5-1 2-3 5-2 3h-5l-2-4c1-8 3-14 9-20 5-4 5-4 8-4v-2c16-5 32-10 49-10v-2c7-2 13-4 21-4l3-1a1919 1919 0 0 1 24-2c7-1 14-3 22-3Z"/><path fill="#2E6C95" d="m219 513 48 3v2h257a4900502 4900502 0 0 0 217 0h2a4281943 4281943 0 0 1 403-1h3l5-1 5 2 2 2a929861 929861 0 0 1-478 0h-2a1446185 1446185 0 0 0-383-1c-26 0-53-1-79-4v-2Z"/><path fill="#91C2E3" d="m1444 227 5 4 4 3c10 7 17 22 22 32l1 3c3 4 5 9 6 14l4 11a172 172 0 0 1 3 81c-2 11-3 21-8 31l-1 4-3 6h-2l-1 2c-1 5-2 8-6 12l-2 4c-5 12-15 22-24 30l-4 4-7 1v-2c3-3 3-3 6-3l1-2c1-3 4-5 6-7l2-2 3-1a395020387 395020387 0 0 0 9-15l1-2h2l2-1 1-2 7-15c3-5 5-9 6-15h2v-3l3-12 4-21v-3c3-22 1-45-5-67l-2-12h-2l-1-4-9-18-1-2-1-2-1-4-1-2-2-1c-3-1-3-1-4-4l-1-2-6-8-1-3-6-2 1-5Z"/><path fill="#065080" d="M273 166h12a8336 8336 0 0 1 181 0 213414 213414 0 0 1 234 0h4a1925643 1925643 0 0 0 336 0v1H817a1252498 1252498 0 0 0-106 0h-4a285756 285756 0 0 1-243 0h-3a62653 62653 0 0 1-132 1c-51-1-51-1-102 3h-4l-31 5-9 1 2-1v-2h2l10-2h3l4-1 3-1 4-1c20-3 41-3 62-3Z"/><path fill="#FDFEFE" d="M642 278c5 2 9 4 13 8l2 1 30 26c-1 3-3 6-6 8l-2 2-1 2c-4-1-6-1-9-4l-12-12-8-6-16-12c1-4 2-6 5-9l2-2 2-2Z"/><path fill="#CDE9FB" d="M265 209v1l-3 1-5 2a220 220 0 0 1-20 3c-9 1-19 2-28 5l-4 1-2 1h-3l-3 1-8 2v2l-10 2v2l-3 1-5 2-2 1-10 6h-3l-3 1-1 2-4 4c-16 7-29 26-36 41l-3 3-1 5c-2 6-2 6-5 7l-8 3c-9 4-16 9-22 17l-5 6c-1-4-2-8-1-12l7-5a826 826 0 0 0 15-10l2-2 8-7 2-2h2l1-2 4-7 6-9c1-3 1-3 4-4l3-1 2-4c3-6 8-9 14-13l4-3 2-2 4-3 2-1 2-2 4-1v-2c2-3 5-5 8-6l5-1 1-1c3-3 5-3 9-5l7-3 5-1 2-1h7v-2l16-1v-2l31-6h2l17-1Z"/><path fill="#DCCECA" d="m1324 269 5 4c7 4 15 4 23 3l5-4 4 1c2 4 3 7 2 11-2 5-5 7-9 9-8 3-19 3-28 1-6-2-11-6-14-11v-6l5-5 2-2 5-1Z"/><path fill="#95C8EA" d="m1431 324 8 10c1 20-3 41-11 60-3 7-2 14-1 21l1 22v11l-2 7-1-2 1-3c2-22-1-45-10-66h2c3-6 4-11 4-18v-10h2l-1-6 1-1 2-1 2-2 4-4v-8c-1-3-2-4-5-6h-15l-2-3c6-3 15-4 21-1Z"/><path fill="#01111C" d="M1446 203h1v4a2933 2933 0 0 0 0 7c0 4 1 5 3 9l3 2c5 5 10 10 13 17l3 4 5 8 7 12c7 12 10 25 12 38v2a176 176 0 0 1-29 142c-5 7-11 14-19 20l-6 7 1 2 1 5c-3-2-4-4-5-7v-3l5-2v-2h2v-2l5-4 3-3 2-3h2v-3c1-4 3-5 6-8l2-3 1-2h2l1-2 3-5 4-7c0-3 1-4 3-6 5-6 7-14 8-22h2v-2l1-9v-7l1-3 1-7 1-16a3579330793 3579330793 0 0 0 0-23c1-14-1-27-4-41v-2h-2l-4-14c-2-5-3-8-7-12l-2-5c-2-5-3-6-7-9l-3-7-7-7v-4h-2l-4-4-1-2c-4-5-3-12-2-19v-2Z"/><path fill="#2B6891" d="m1040 165 7 1v2l-796 1v-1a326 326 0 0 1 43-1h12a23695 23695 0 0 1 156 0h3a1741813 1741813 0 0 0 354 0h221v-2Z"/><path fill="#DED4BB" d="M1421 463c8 7 18 20 19 30l-1 10c-4 2-6 3-10 3l-11-8-2-2c-4-3-7-7-9-12 0-4 2-6 5-9l9-12Z"/><path fill="#3E4D56" d="M1349 338c4-1 6-1 9 1 6 5 8 11 10 18v11a370 370 0 0 1 1 24c3 3 6 4 10 6 14 10 18 31 20 48l2 20-5 1v-2a2770 2770 0 0 0-2-16c-3-16-6-35-19-47l-8-5c-3-1-3-1-4-4a186 186 0 0 1 0-18c-1-15-1-15-6-29l-8-5v-3Z"/><path fill="#C4C9D3" d="M1327 394v7l13-1c-3 3-5 3-8 4h-3l-3 1-1 3c-1 4-2 6-6 8l-1 2-3 1v5l-10 3c-4-1-4-1-7 1l-17 1-6 1v-4h-6v-2h-2v-2h-2l-3-5-2-1c-2-3-2-6-2-10l10-5 1 5 4 2 4 7 6 4v2h22v-2l5-1v-2l6-4 1-2h2l6-13 2-3Z"/><path fill="#1582CA" d="m143 203-1 3-8 2-2 1a322 322 0 0 1-31 8l1 2 2-1 4-1 3-2c7-3 14-3 22-2 3 2 3 3 5 6 0 8-4 14-9 19-6 6-20 18-30 18v2l-2 1c-8 4-13 8-19 13-2 2-2 2-6 2v-8l4-5 4-2 3-1h3c17-6 37-14 46-30l2-9-1-2c-16-1-27 4-40 12l-2 1 1-2 2-6c2-5 3-8 7-11 8-3 16-3 24-4l13-4h5Z"/><path fill="#0B5587" d="M1465 248c4 2 6 4 8 8l1 4 1 4 3 1c4 7 6 15 7 23h2l1 5 1 3 1 4 1 2 1 21v4a1990 1990 0 0 1 0 26v4c0 6 0 11-2 17v8c-1 6-1 11-3 16h-2v3c-1 8-3 15-8 21h-2v2c-2 6-4 11-9 16h-2l-1 2c-1 3-3 6-6 8l-2 6h-2l-2 4h-2l-1 2c-1 2-2 3-5 4v2h-2v2l-6 3 4-8h2l1-3 8-7c7-6 14-15 17-23 1-4 1-4 3-5l2-1 1-6 2-4h2l4-13 3-6c2-4 2-8 3-13v-3l1-9v-3a248 248 0 0 0 1-55c-1-12-4-23-9-34l-1-4-6-12-1-2-5-9-2-5Z"/><path fill="#343C41" d="m1082 111 14 13 13-7 12-9 2-1 2-1 2 1v1l2 1c-5 4-5 4-9 4-6 1-10 5-15 9-4 3-8 5-14 5l-4-3a51 51 0 0 0-38-14l-19 2v2l-4 1v2h-3l-4 11h-2l1 4-2 1-1-11c2-4 6-7 9-10l2-2c14-12 41-8 56 1Z"/><path fill="#4F5456" d="m1424 460 7 9 6-1-1 2c0 4 2 7 4 11l2 2c4 4 4 8 4 13 0 6-2 10-5 15-4 3-7 3-12 2-7-3-11-7-15-13-2-3-4-6-8-7h-3v-7l1 2 4 1 2-2 2 3c3 5 9 11 15 14 4 1 8 1 11-1 2-6 2-10 0-15l-10-16-7-10h3v-2Z"/><path fill="#424B58" d="m1211 368 19 3 18 3c8 1 14 2 21 8 3 4 3 9 2 14-2 4-4 6-8 8-15 7-33 2-48-2-3-1-4-2-6-5v-3l19 6c6 2 12 2 18 2h2c6 0 10-1 14-3 3-3 3-4 3-8l-3-9c-4-3-7-3-11-3-10-1-20-2-30-6l-10-2v-3Z"/><path fill="#384755" d="m1048 237 3 1-1 15a502 502 0 0 0-2 77v11l1 3v17h-1c-3-9-4-18-5-28v-4c-2-20-1-41 0-62l1-2c2-26 2-26 4-28Z"/><path fill="#394858" d="m1173 92 2 1v2l-3 1a31842 31842 0 0 0-16 5l-5 1v2l-3 1c-15 6-30 15-43 25l-2 1c-3 2-4 3-5 6h-3l-4-10 6-2 13-8c4-3 7-5 13-5l4-3-2-1 7-4 10-5 13-5 1 2c6 0 12-4 17-4Z"/><path fill="#3F4855" d="m1427 193 5 2-2 1c-3 1-3 1-5 4v8c2 2 2 2 5 2 4 0 5-1 7-4h2c0 6-2 10-6 14-5 3-11 3-16 2l-5-5-2-2c-1-4-2-8-1-12 4-8 9-11 18-10Z"/><path fill="#1380C9" d="M159 149h1c1 9-3 15-8 22h2c12 1 12 1 16 3l1 3h10l18-3 20-3h2c15-2 31-2 46-2v1h-3a5776 5776 0 0 0-56 6 196 196 0 0 0-28 4c-5 1-5 1-9 5l-1 3a42 42 0 0 1-16 12c-4 3-8 4-12 5l1-4 8-4c7-3 13-7 18-14l-1-5c-12-4-25-2-36 3l-2 1-2 1-2-1 2-1 8-4 2-1c9-5 14-11 18-20l3-7Z"/><path fill="#C4CDD4" d="M1375 347h1v4a10714 10714 0 0 0 0 7c1 12 3 23 12 31v3l10 2h7c-3 2-6 2-10 2h-18v-2h-3l-6-2v-26h2v-4c2-12 2-12 5-15Z"/><path fill="#3C4B5C" d="m1329 259 2 2c-1 3-2 4-4 5l-2 1v2l-10 4c-2 3-3 6-2 10 3 5 7 7 13 10l3 3v2h-5l-1 16h16l3-14h2v10l-2 5c-4 3-8 2-12 2h-3l-7-1 1-19-3-1c-6-1-10-5-14-9-2-4-2-8 0-12 4-5 10-9 16-11l9-5Z"/><path fill="#45494E" d="M1395 149c11-1 20 5 28 11 13 11 21 26 23 43h-5l-5-16h-2l-1-2c-5-10-12-18-21-24l-2-2c-8-5-17-6-26-6v-1h11v-3Z"/><path fill="#0E7FC9" d="m107 308 4 2c1 15-2 27-9 40l5 1-5 4c-9 4-14 14-17 23l-2 16h-2l-4-9-1-2-1-3-1-2-1-4 6-4c14-11 25-26 28-43v-19Z"/><path fill="#405462" d="M1196 155h4a79 79 0 0 1 31 6l7 4v3h2v2h2l2 4-8-4c-10-5-20-8-30-8h-3a2864 2864 0 0 0-26 0v-4l-3-1c7-2 14-2 22-2Z"/><path fill="#2C2E31" d="m1401 484 2 1v8h3c4 0 5 2 8 5l4 7-10-8c1 15 1 15 8 27l8 2h2c14 2 28 2 41 2h35l1 3h-2l-21-1h-3a3315 3315 0 0 0-25 0h-9l-5 1h-9v-1l5-1h-2l-7-1h-3c-6-1-6-1-9-5l-2-2h-3l1-7h-2l-1 2v-3c0-4 0-4-2-6v-8l-2-1v-9h-2v5h-1v-6h2v-4Zm-3 12v6h2v-6l2 5-1 3c0 5 0 8 2 13v3h-2l-2-8-1-3v-2l-1-2v-5l-2 1-7 2-2 1-3 1-2 1-4-1a813 813 0 0 1 8-5c5-2 8-4 13-4Z"/><path fill="#3A4E5E" d="M1285 71h1c1 6 1 11-1 17l6 1v1l-9-1v3h-12l-19-2h-4l-8-1v-1l-7-1 1-2-2-1v-7h1v6h3c15-1 30 2 45 4v-4c1-3 1-6 3-8l1-3 1-1Z"/><path fill="#F2F8FC" d="m108 286 1 4-1 2-1 7-2 5-10 4c-9 4-16 9-22 17l-5 6c-1-4-2-8-1-12l7-5a826 826 0 0 0 15-10l2-2 8-7 2-2h2l1-2 4-5Z"/><path fill="#FBFDFE" d="m374 262 3 4 1 2 2 3 2 5 2 2 3 5-1 5-10 3-2-3-9-16-2-6 4-2 3-1 4-1Z"/><path fill="#FCFDFE" d="m397 259 3 4 2 3 1 3 2 3c4 7 4 7 4 10l-4 2-3 1-4 1-3-4-1-3-1-2-3-6-2-2-3-4v-4c7-4 7-4 12-2Z"/><path fill="#FBFDFE" d="M931 259c4 3 6 7 9 12l6 10v4l-10 4-6-10-2-2-1-3-2-3-3-7 9-5Z"/><path fill="#333B43" d="M1286 81v6l4 1c14 3 31 9 43 18h-3l-1 2-6-1v-3h-5l-3-1c-3 0-3 0-5-2l-4-1h-2l-3-1-21-5v-2h2v-3h6l-3-1 1-7Z"/><path fill="#4793C5" d="m1444 227 5 4 4 3c10 7 17 22 22 32l1 3c3 4 5 9 6 14l4 11c2 4 2 8 2 13v7h-1v-2a141 141 0 0 0-9-32l-1-2v-2h-2a8181 8181 0 0 1-8-14l-1-3-2-3-1-4-2-1c-4-1-4-3-5-6l-6-8-1-3-6-2 1-5Z"/><path fill="#425563" d="M1074 170v3h-7l-1 4-3 9-6 24-1 2-3 16v3l-1 8-5-1 6-36 1-3c4-20 4-20 9-26l1-2c3-2 6-1 10-1Z"/><path fill="#414950" d="M1267 534h8l2 2h3l5 1 3 7 3 8h11l-1 2-1 3 1 2h-3v2l2-1 2-1 2-1 2-1 2 1c-5 4-8 5-14 4-5 0-7-2-10-6s-5-8-6-13l-5-7-6-1v-1Z"/><path fill="#6DAED9" d="M1480 400h2c-1 6-2 11-5 16h-2l-1 2c-1 5-2 8-6 12l-2 4c-5 12-15 22-24 30l-4 4-7 1v-2c3-3 3-3 6-3l1-2c1-3 4-5 6-7l2-2 3-1 1-2 4-6 4-7 1-2h2l2-1 1-2c1-5 4-9 6-13l2-3 3-6h2l3-10Z"/><path fill="#D5E6F2" d="m1356 331-10 2-3 1h-3l-3 1h-5v2l-3 1a414 414 0 0 0-57 16h-2l-1 2a411 411 0 0 1-7 21l-4-2c0-9 3-16 9-22 5-4 5-4 8-4v-2c16-5 32-10 49-10v-2l19-4 3-1 10 1Z"/><path fill="#C7E7FB" d="M265 209v1l-3 1-5 2a220 220 0 0 1-20 3 200 200 0 0 0-34 7h-3l-6 2c-12 2-24 8-35 14l-4 1c1-3 2-4 5-6l6-1 3-2c3-3 5-3 9-5l7-3 5-1 2-1h7v-2l16-1v-2l31-6h2l17-1Z"/><path fill="#F3F3F4" d="m1324 298 17 2c0 10 0 10-2 14l-9 1h-4l-4-1c0-6 0-10 2-16Z"/><path fill="#B5CEE0" d="M1327 394v7l13-1c-3 3-5 3-8 4h-3l-3 1-1 3c-1 4-2 6-6 8l-1 2-3 1v5l-10 3c-4-1-4-1-7 1l-17 1-6 1v-4h8l2-1c4 1 4 1 7-1l5-1h5v-1h5v-2h3v-4l6-4 1-2h2l6-13 2-3Z"/><path fill="#405B67" d="m1211 368 19 3 18 3c8 1 14 2 21 8 3 4 2 9 2 14l-2-1-3 1c-2-2-1-4-1-6l-3-8c-4-3-7-3-11-3-10-1-20-2-30-6l-10-2v-3Z"/><path fill="#DCD4BE" d="M1427 327c4 2 5 3 6 7 0 4 1 7-1 10s-5 5-9 6c-2-4-2-8-2-13h-2v-2h-2v-3h-2v-3l-3-1c5-2 10-2 15-1Z"/><path fill="#ECEFF1" d="M1435 187c7 7 6 18 6 27v3c0 9 0 9-2 12v-10l-1-8 1-5h-2l-1 2-3 3-8-1c-2-3-2-6-1-10 3-4 6-5 10-6l1-7Z"/><path fill="#0C72B6" d="M189 502v5l22 5v1h-10l3 1a864 864 0 0 1 30 16l4 2 3 2 4 4v6l-2 1v-6l-2-1-15-7-3-2-26-14-2-1-3-2-6-3v-6l3-1Z"/><path fill="#414A56" d="M1360 271h5c3 3 3 5 3 9s0 7-3 10c-4 4-8 5-13 7l-2 1-8 2-1 4v-4h-2l-12-1 1-5h2a603 603 0 0 0 10 0c8 0 15-2 21-7 2-6 2-11-1-16Z"/><path fill="#F1F8FC" d="m148 441 5 3-2 9v25l-1-1-2-2-2-2-6-4 3-12 3-12 2-4Z"/><path fill="#454C53" d="M1431 324c4 3 7 6 7 11 1 4 1 7-2 11l-3 2-2 2-8 4 1-5 6-4c2-3 2-4 2-8v-3c-1-3-2-4-5-6h-15l-2-3c6-3 15-4 21-1Z"/><path fill="#8FC5E7" d="m1303 277 1 5c1 5 2 6 6 9l11 6v19l18 1v1h-15v2h-4v-2l-4 1 2-3-2-2 2-13-12-5-5-4c-1-5-2-10 0-14l2-1Z"/><path fill="#0463A2" d="m159 137 4 6-2 10c-2-2-3-2-3-5v-7c-2-2-3-1-5-1-10 0-19 4-26 10l-6 8-1 2h-4l-1 3v-17h1l1 10 3-4c8-10 18-15 30-17 4 0 6 0 9 2Z"/><path fill="#515457" d="M1349 338c4-1 6-1 9 1 6 5 8 11 10 18a153 153 0 0 1 0 21v10h-1l-1-19h-1l-1 24h-1a565449697 565449697 0 0 1 0-17c-1-16-1-16-6-30l-8-5v-3Z"/><path fill="#0B7DC9" d="M105 352c3 0 5 1 7 3 7 12 8 25 5 39-3 8-7 18-12 26l-4 1 4-10c7-14 12-28 8-43l-5-11-1-4-2-1Z"/><path fill="#1175B8" d="M159 149h1c1 9-3 15-8 22h2c12 1 12 1 16 3l1 4h-2c-14-4-27-2-39 4l-2 1-2-1 2-1 8-4 2-1c9-5 14-11 18-20l3-7Z"/><path fill="#384A58" d="m1373 499 2 1c-2 5-6 7-11 9h-5l-2 3h2v2l-7 3-2 1-10 2v2h-3v-2l-1-3-2-1 4-2 3-1 7-2 2-1 5-3c8-2 8-2 15-6l3-2Z"/><path fill="#8DC3E2" d="m1101 464 8 5v2h2l1 4 4 1-1 3 6-1-3 5h6v2h2v2h2l2 6 3-2v2l3 1 1 4 2 2-1 3a222 222 0 0 1-22-18l-10-11-6-7 1-3Z"/><path fill="#013E67" d="M265 166v2h-3c-35 2-35 2-70 8l-9 1 2-1v-2h2l10-2h3l4-1 3-1 4-1 14-2h2l38-1Z"/><path fill="#42505B" d="M1112 217h1v19l1 8 2-1 1-23h1v2a94 94 0 0 0 7 43c-1 3-3 3-5 4l-1-4h-2l-2-9-1-2-3-21v-3l1-13Z"/><path fill="#00070D" d="M263 163v1h-8v2h-3a39257 39257 0 0 0-16 2l-21 2h-2l-7 1-21 3v2l-8 2h-6v-3l11-2 4-1 3-1h3l3-1h2l18-3 2-1a2449 2449 0 0 1 46-3Z"/><path fill="#374B54" d="M1266 510h3l1 2 10 17 4 7c-4 1-7 1-11-1v1h-8v-2h-6v-2h-17v-1l33-1-6-11-1-2-1-2-1-5Z"/><path fill="#3B495B" d="M1403 272v3h-5v2c-3 16-7 31-12 46h-3l3-15a161 161 0 0 0 7-34l-2-1h4l3-1h5Z"/><path fill="#9ECAE8" d="M267 170c-3 3-6 2-10 3h-7c-15 1-30 2-44 5h-3l-31 7 1-4a232 232 0 0 1 48-8c15-3 31-3 46-3Z"/><path fill="#7EAAC7" d="M1050 247h1c2 26 2 26 0 37l-2 2v10a1220 1220 0 0 0 0 24h3l-1 25h-1l-1-9v-3l-2-36v-2l3-48Z"/><path fill="#8FC1E1" d="m1139 109 1 3c-4 5-4 5-8 5h-3v2c-1 3-3 4-6 5l-6 1-5 3v4h-3l-6 3-1 3-3 3h-3l-2-5 1-2v3h3v-2c1-4 5-5 8-7l2-2 22-13 2-1 7-3Z"/><path fill="#3A3A3A" d="M1502 534v2l-19 1h-4a3846 3846 0 0 1-26 0h-3l-22-1v-1a199 199 0 0 1 36-2 3461 3461 0 0 0 24 0h7l7 1Z"/><path fill="#1B85CC" d="m98 255-1 2 2 1-2 1c-8 4-13 8-19 13-2 2-2 2-6 2v-8l4-5 10-4 2-1 3-1 2-1 5 1Z"/><path fill="#92C3DE" d="M1388 424c6 6 6 20 7 28l1 4 2 28-4 2-1-3h2l-1-15-4-1 1-33h-2l-1-10Z"/><path fill="#121212" d="M1406 496h1l1 3c1 14 1 14 8 25 17 4 34 4 51 4h35l1 3h-2l-21-1h-3a3315 3315 0 0 0-25 0h-9l-5 1h-9v-1l5-1h-2l-7-1h-3c-6-1-6-1-9-5l-2-2h-3l1-7h-2l-1 2v-20Z"/><path fill="#C5CCD2" d="m1270 406 7 8c2 3 3 4 6 5v2h22v-2l5-1v2h-3v2l-9 3c-4-1-4-1-7 1a210 210 0 0 1-16 0v-4h-4v-2h4c0-5-1-8-5-12v-2Z"/><path fill="#034876" d="M1465 248c4 2 6 4 8 8l1 4 1 4 3 1c4 7 6 15 7 23h2c5 21 5 21 5 32h-1v-2l-3-11v-4a110 110 0 0 0-10-27l-5-12-1-2-5-9-2-5Z"/><path fill="#27282D" d="M1402 150c13 2 23 11 31 20 7 9 13 22 13 33h-5a415 415 0 0 1-3-7v-12l-2-1 1-2c-7-15-20-24-35-30v-1Z"/><path fill="#394955" d="M1388 494v3l-6 4v2l-2 1-3 2-7 5-4 1-3 2-3 1c-14 6-14 6-20 6l11-5 3-1 5-1v-2h-2l1-4 2 1c4 0 8-3 12-5l2-3 1-2h7v-2l1-2 5-1Z"/><path fill="#36495A" d="M1301 99h7v2l3-1 3 2 5 1 2 1h2v3l8-1c4 0 6 2 9 4 2 2 2 2 2 5l-3 1-2 1c-3 0-6-2-9-4-6-4-13-8-21-11l-6-3Z"/><path fill="#A4C8DF" d="m1413 388 2 2-1 4-4 2c-3 0-3 0-5 2a352 352 0 0 1-14 3l-4-1v6l2 1-2 2-1-3-9-8-4-4h4v2h4a125 125 0 0 1 24-1v-2l8-3v-2Z"/><path fill="#408EC2" d="m1464 254 4 2 3 7 2 1v2h2c3 6 6 11 7 17l4 11c2 4 2 8 2 13v7h-1v-2a141 141 0 0 0-9-32l-1-2v-2h-2l-1-2-2-3-1-3-6-10-1-4Z"/><path fill="#96CFED" d="M1279 68v2l-2 1-7 5 3 1c4 1 4 1 5 4l1 3-1 1 2 2-21-2v-2l5-1v-2c2-5 6-9 10-11l5-1Z"/><path fill="#90BEDC" d="M1280 499h7v2l-7 1-11 3v5h-3l2 3 2 5 1 2 1 2 1 2 2 6-17 1v-2l10-2v-5l-1-2v-4h-2v-11h2v-2h2v-2l6-1 5-1Z"/><path fill="#0D7BC4" d="M110 140h4l1 6v3l1 2v9l3-1-1 7v2l-1 3v2c-1 3-4 5-6 7v-3a5852 5852 0 0 0 0-26v-2l-1-9Z"/><path fill="#3A4D5B" d="M1188 155h19l8 2-3 3h-9a623 623 0 0 1-21 0v-2l-3-1c4-2 5-2 9-2Z"/><path fill="#1984CB" d="m82 367 2 1-2 3 3-2-2 8h1l-1 17h-2l-4-9-1-2-1-3-1-2-1-4 5-4 2-2 2-1Z"/><path fill="#393E44" d="M1445 491h1c1 8-1 14-5 20-4 3-7 3-12 2l-9-5 2-1v-2l6 2v-1l13-2 1-5 3 1v-9Z"/><path fill="#3C4A55" d="M1340 113c7 1 11 5 15 10l3 4 6 8-4 2c-3-2-4-4-5-7l-2-1c-4-1-4-3-6-6v-2l-10-2v-3l4-1-1-2Z"/><path fill="#B5E0FC" d="M1438 347c-1 17-5 33-11 49l-2 8c-2-3-2-4-2-7l3-9c5-11 7-23 8-35 0-3 1-6 4-6Z"/><path fill="#454D54" d="m1306 526 3 1 1 11h-2v12h2c-1 6-1 6-4 8-2 2-5 3-8 3l1-4v-3l3-4 2-8 2-9v-5l-2-1 2-1Z"/><path fill="#385063" d="m1338 119 9 2 1 4 2 1 1 2 5 2v3l3 1 1 2h4l1 4h-2l2 2a35 35 0 0 1 2 6l1 5-8-9c-6-9-13-17-22-24v-1Z"/><path fill="#9FCBE9" d="m1463 432 1 3-4 6c-4 4-5 7-7 12l-3 3-10 11c-3 2-6 2-9 2v-2c3-3 3-3 6-3l1-2c1-3 4-5 6-7l2-2 3-1 1-2 4-6 4-7 1-2 4-1v-2Z"/><path fill="#20638F" d="M1488 306h1c3 11 3 22 3 34a961 961 0 0 0 0 16v2l-2 16v4l-1 2v10h-3l2-17c3-17 3-35 1-52l-1-15Z"/><path fill="#B2DEFA" d="M191 226h-2v2l-10 2v2l-3 1-5 2-2 1-10 6h-3l-3 1-1 2c-1 3-4 3-7 5-4 2-8 6-11 10l-6 4c7-18 36-29 52-36l2-1c3-2 6-3 9-1Z"/><path fill="#258ACE" d="m103 419 1 3-1 2v5l4 5 1-9 3-1 1 3v18a95 95 0 0 1-15-18l6-8Z"/><path fill="#8BB9DB" d="M1298 509c5 1 6 3 9 7v2l2 1h-3v2l2-1 7-1 2-1 9-1 3-2h6l-3 3-3 1-3 1-4 1-3 1-14 2-3-5-2-2-2-8Z"/><path fill="#364552" d="M1119 212v3l-2 18v11h-2l-2 2c-2-10-3-24 2-32l4-2Z"/><path fill="#DDEFFB" d="m1430 298 1 2h2c4 9 5 18 6 28l1 5v23l-1 8h-2l-1 4 1-15c1-9 2-17-1-25v-4l-4-16-2-10Z"/><path fill="#98CEE9" d="m1356 250 5 7 11 13h-2v2h-3l-1 2c-4-4-7-8-9-13l-7-5v-1h6v-5Z"/><path fill="#20272D" d="m1279 46 7 2c5 7 6 12 6 20 0 5-2 9-4 13h-1c-2-6-1-12-1-18l-1-12-6-4v-1Z"/><path fill="#38576E" d="m1391 488 2 3h-3l-1 4 3-2 10-4v7l-2 6h-2l-1-5c-6 1-6 1-11 4l-2 1-3-1 7-4v-3l-5 2-1 3h-6l9-7 6-4Z"/><path fill="#32383E" d="M1244 532h15v2h6v2h8v1h-17l-24-1 4-4h8Z"/><path fill="#F5F9FC" d="m114 402 3 3-2 3c-5 8-6 18-7 27-6-6-6-6-7-10l4-7a1689 1689 0 0 0 6-12l3-4Z"/><path fill="#9EC9E6" d="M1305 335h9l3 1h7v1h-2a203 203 0 0 0-47 10v2l-6 3v-3h2v-2l7-3 1-1c5-2 8-2 12-2v-3h2l3-1h3l6-2Z"/><path fill="#1B1D20" d="m1125 106 2 1v1l2 1c-5 4-5 4-9 4-6 1-10 5-15 9-4 3-8 5-14 5l-6-6 1-2v-2l-4-3 1-2 13 12 13-7 12-9 2-1 2-1Z"/><path fill="#445666" d="m1369 262 2 1c9 6 18 8 29 9v1l-7 1v5l-1-3h-4c-8-1-15-4-21-10l2-1v-3Z"/><path fill="#282C30" d="M1174 88h-2v3l-3 1-4 4-5 1h-4l-1-3-22 11h-6a156 156 0 0 1 36-15l3-1 3-1h5Z"/><path fill="#C6CFD9" d="M1327 394v7l13-1c-3 3-5 3-8 4h-3l-3 1-1 3c-1 4-2 6-6 8l-1 2h-8v-2l6-4 1-2h2l6-13 2-3Z"/><path fill="#5C5C5C" d="M1459 529h2a2162 2162 0 0 1 15 0c18 0 18 0 27 2v3h-9v-3h-52v-1l17-1Z"/><path fill="#484A51" d="m1424 460 7 9 6-1-1 2c0 4 1 5 3 8l-1 2-4 1-5-7-1-2-7-10h3v-2Z"/><path fill="#F2F2F4" d="m1251 302-10 7-3 2-4 1 1-5-11-1h-4a25766 25766 0 0 0-18 0v-1h2c20 0 20 0 39-3h8Z"/><path fill="#3E596D" d="m1062 395 4 8c2 7 5 12 8 18l1 5h-4l-1-6-4 1-5-12h2l-1-14Z"/><path fill="#1F262D" d="m1033 107 2 1h-3v2l7-1v2l-9 1v2l-4 1v2h-3l-4 11h-2l1 4-2 1-1-11c2-4 5-7 9-10l2-2c4-3 4-3 7-3Z"/><path fill="#2C3136" d="M1227 73c2 3 2 5 2 9l-7 1-3 1-4 1-3 1h-13v-3h-6v-1a171 171 0 0 1 34-1v-8Z"/><path fill="#435A6B" d="M1368 154v5l-5 8-7 12a17278 17278 0 0 1-4 11h-2l-1 3c1-15 9-28 19-39Z"/><path fill="#001523" d="M204 514c7 0 15 1 22 3l15 1v3h-14c-9 0-16-1-23-6v-1Z"/><path fill="#464D55" d="M1251 375c7 0 12 2 18 7 3 4 2 9 2 14l-2-1-3 1c-2-2-1-3-1-6-1-4-2-7-5-11l-9-3v-1Z"/><path fill="#8EB8D8" d="M1250 55v3l-3 1c-4 2-4 4-6 8v2l-3 4c-3 2-3 2-4 5v2h8v3h-10c0-7 0-12 4-18 10-10 10-10 14-10Z"/><path fill="#8FC2E4" d="m189 503 1 3h2l30 5 11 1 4 2c-38-1-38-1-48-7v-4Z"/><path fill="#34495D" d="m1173 92 2 1v2l-3 1-5 1-2 1-9 3-5 1v2l-3 1-5 2-2 1-2 1-2 1-6 3-1-2h3v-2l4-2 2-1 6-1v-2l4-1 1-4 4-1 5-1h2l3-1h2c3-1 4-3 7-3Z"/><path fill="#CBE1F0" d="M1390 322h15v2h-3l-1 2h-11l-7 1-16 2h-3a1647 1647 0 0 1 0-2h4l6-1 4-1h3c3-1 5-3 9-3Z"/><path fill="#EFEDEC" d="m1140 284 2 2 5 4v2l4-1 1-2 1 7h2c3 1 3 1 5 4l1 5c-9-3-17-11-23-18v-2l2-1Z"/><path fill="#33414E" d="M1044 280h3v31h-1l-1-7-3 4v-14c0-5 0-9 2-14Z"/><path fill="#355D72" d="M1052 134c8 1 17 6 23 11v2l-7-4c-4 0-6 2-8 5l-4 4h-2l7-9 1-3-16-2 6-4Z"/><path fill="#8DC4E0" d="m1028 116 2 2-2 1v5l-5 1-1 6 2 1-1 9 3 1-2 1 1 3-3 1c-4-6-4-11-3-18 1-6 5-9 9-13Z"/><path fill="#35475B" d="M1111 123v3l-6 4c-5 3-5 3-7 7h-3l-4-10 4-2 4 2 2-1 10-3Z"/><path fill="#1A85CB" d="m143 203-1 3-8 3h-3l-21 4 1-3 5-1 18-5c6-2 6-2 9-1Z"/><path fill="#E9E9EB" d="M1154 171c0 4 0 4-3 6l-1 2-4 4c-2 2-3 3-3 6l-4 1v-2l-7 2c6-8 13-14 22-19Z"/><path fill="#42525F" d="M1384 404c7 6 10 16 11 24l-3-1v-2l-3 1-2-6-2-4c-2-5-2-7-1-12Z"/><path fill="#434A4F" d="m1403 486 1 2 4 1 2-2 2 3 5 6 3 3-1 4 3 1v3l-4-1-4-6c-2-3-4-6-8-7h-3v-7Z"/><path fill="#9ECAE8" d="m1476 276 5 8v3l1 3 1 2c4 14 6 28 6 42-2-2-2-3-2-6l-1-2v-3c-1-9-2-18-5-27l-2-12h-2l-1-8Z"/><path fill="#4B95C7" d="M267 169v1h-3a5776 5776 0 0 0-19 2l-28 3h-10l4-1v-2c19-3 37-3 56-3Z"/><path fill="#2D3037" d="M1267 534h8l2 2h7l-2 4h-3l2 1 3 7 1 2 1 5 2 1h-2l-1 2-7-15-5-7-6-1v-1Z"/><path fill="#78B0D5" d="M1488 314h1c2 20 2 38 0 58h-1v-58Z"/><path fill="#9FD4F3" d="M1324 110c6 2 10 5 15 9l1 2 10 10h-6v-5h-2l1 3h-3l-1-6-2 1h-2l-2-2v-5l-9-2v-5Z"/><path fill="#3E5365" d="m1390 290 3 3c1 7-1 13-3 19l-2 3-2 8h-3l4-15 3-18Z"/><path fill="#91C4E4" d="M1081 435h2l2 6 7 2v2h-2v2h2l4 5v7l3 1 1 5a37334 37334 0 0 0-14-20l-2-2-3-5v-3Zm18 24 2 1Z"/><path fill="#4A4A4A" d="M1404 496h1v7h1l1 16-2-1-2 2c-3-7-4-12-2-19l3-5Z"/><path fill="#C6CCD0" d="M1349 341c8 3 8 3 10 6l-1 2-5 1-2 1h-7v-7l5-1v-2Z"/><path fill="#424C56" d="m1442 202 4 1c1 18 1 18-3 26-2-3-2-6-2-9v-9l1-9Z"/><path fill="#384551" d="M1311 95c8 2 15 6 22 10l-3 1-1 2-6-1v-3l-11-1 2-1v-4h-2l-1-3Z"/><path fill="#2C3135" d="M1312 526h3v2l3 1-8 1v2c3 17 3 17-1 23l-1 2 2-7h-2l-1 2 1-11-2-1 1-5 1 3h2v-2l-1-3-1-3v-3l4-1Z"/><path fill="#E1F2FD" d="M187 223h6c-3 3-6 3-9 5l-21 9-8 3c1-3 2-4 5-6l6-1 3-2c3-3 5-3 9-5l9-3Z"/><path fill="#8ECAF0" d="M1244 70v12l-7 1-2-1h-2c0-6 0-6 2-9 3-2 5-3 9-3Z"/><path fill="#065E98" d="m132 143 2 1-7 6-7 10h-4l-1 3v-17h1l1 10 1-2c9-11 9-11 14-11Z"/><path fill="#06090C" d="m1398 496 1 3v5l1 2c0 4 1 7 3 11v3h-2l-2-8-1-3v-2l-1-2v-5l-2 1-7 2-2 1-3 1-2 1-4-1a813 813 0 0 1 8-5c5-2 8-4 13-4Z"/><path fill="#0767A6" d="m109 138 2 1-1 2-4 1c-5 2-9 5-13 9l-6 4-2 1c3-8 10-14 18-18h6Z"/><path fill="#E0EFFA" d="M1435 368h1c1 9-2 16-5 24h-2c-2 9-2 16-1 25-4-6-4-12-3-19l4-12 6-18Z"/><path fill="#616264" d="M1366 354c2 4 2 6 2 10v2a999 999 0 0 1 0 22h-1l-1-19h-1l-1 24h-1l-1-36h3l1-3Z"/><path fill="#8AC1E6" d="m1303 277 1 5c1 5 3 6 6 9l3 3h-3l1 3c-4-1-8-2-10-6s-1-9 0-13l2-1Z"/><path fill="#B4E0FC" d="M1426 292c3 2 4 5 5 9l1 2 5 23-2 1-5-15-3-11-1-9Z"/><path fill="#8AC0E4" d="m207 175-2 1v2h-2l-31 7 1-4 11-2 3-1c6-2 13-3 20-3Z"/><path fill="#CCD2D8" d="M1350 194h1v20l2 1-1 7 4 1v4l-1 3-2 5-1-5-1-2c-2-6-2-12-2-18v-3l1-13Z"/><path fill="#39596E" d="m1037 111-6 4-2 2-2 1c-5 5-7 9-7 15v3l-1 5h-4v-13l2 4v-4h2v-2c0-4 2-6 4-9h3v-2l4-1v-2l7-1Z"/><path fill="#313F4D" d="m1336 517 1 6a528 528 0 0 1-10 3h-8v-2l2-1h2l2-1 3-4 8-1Z"/><path fill="#374B5C" d="m1075 427 5 7 2 3 1 2 2 3 3 6-2 3h-4l-3-6h2c-1-5-1-5-4-9-2-3-2-6-2-9Z"/><path fill="#575B63" d="m1425 258-1 5-2 1-5 5-6 3-3 1-5 1v-2l-3-1 2-1c7-2 12-5 17-9l6-3Z"/><path fill="#454B4F" d="M1428 170h3l4 5a469860788 469860788 0 0 1 4 12l-3 2v-2h-2l-2-5-2-2-3-8 1-2Z"/><path fill="#034A78" d="M1486 390h2l-1 8h-2v3c-1 8-3 14-8 21h-1l1-8c2-2 3-5 3-8l6-16Z"/><path fill="#1884CB" d="m114 394 2 1-7 18-1 2-3 5-4 1 6-14 4-9 3-4Z"/><path fill="#1F373F" d="M1342 300h2v10l-2 5c-4 3-8 2-12 2h-3l-7-1a196 196 0 0 1 1-5l2 3a210 210 0 0 0 16 0l3-14Z"/><path fill="#647A89" d="M1112 217h1v19l1 8 2-1 1-23h1l1 31h-2l-1-4h-4l-1-14v-3l1-13Z"/><path fill="#084975" d="m1446 222 3 2v2l4 2v2h2v4l2 1c3 1 4 2 6 5l2 8-7-9-9-7c-2-3-2-6-3-10Z"/><path fill="#344C60" d="m1328 520-2 3-7 1v2h2v2h-6v-2h-10v-3h4l13-3h6Z"/><path fill="#3B4854" d="m1181 521 1 2 3 1v2h11l1 4-25-5v-3l9-1Z"/><path fill="#5C636A" d="m1432 246 2 1 3-1-8 13h-2l-1 2c-1 2-2 3-5 4l4-6-5 2 3-3 9-12Z"/><path fill="#9DD2F0" d="m1269 190 6 2v6l3 1-1 6 4 1v9h-2l-1-3a19325 19325 0 0 0-8-16l-1-6Z"/><path fill="#03436D" d="m1454 452 1 4h-2l-2 4h-2l-1 2c-1 2-2 3-5 4v2h-2v2l-6 3 4-8h2l1-3 4-3 8-7Z"/><path fill="#36434D" d="m1316 291 12 3 1 4h-5v4l-2 11c-2-4-2-6-2-10l1-4v-2l-3-1-2-5Z"/><path fill="#E7F2F9" d="m99 258-2 1c-8 4-15 9-21 15-1-4-1-6 1-10l9-4 3-1c7-2 7-2 10-1Z"/><path fill="#3F4C59" d="m1329 259 2 2c-1 3-2 4-4 5l-2 1v2l-8 3-3-3-2-1 11-6 6-3Z"/><path fill="#A0CBE8" d="M1444 227c6 3 10 8 13 14l6 8 1 2-1 3v-2l-2-1c-4-1-4-3-5-6l-6-8-1-3-6-2 1-5Z"/><path fill="#334959" d="m1373 499 2 1c-2 5-6 7-11 9h-5l-2 3-8-1 9-4 13-7 2-1Z"/><path fill="#474F5C" d="m1328 294 17 1-1 5h-2l-1 4v-4h-2l-12-1 1-5Z"/><path fill="#8BBBDD" d="m1152 503-1 4h2l1 2h7v2l3 1-1 3c-5-1-9-2-13-5l-2-1-5-3 9-3Z"/><path fill="#A5CAE2" d="M1259 412h6v6h6v4h4v4h-6v-2h-2v-2h-2l-3-5-2-2-1-1v-2Z"/><path fill="#3F576C" d="M1231 77h1v6h4l23 1v1l-11 1v1h-16l1-2-2-1v-7Z"/><path fill="#99C7E4" d="m1363 393 2 2 5 4-4 1h-2l-1-3-6-1-1 4h-4l-3 1-3 1h-8c3-2 5-4 9-5h3l3-1 3-1 7-2Z"/><path fill="#2378B1" d="M211 173c-3 2-6 3-10 3l-3 1-4 1-7 1h-3l-5 2h-7l-1-3 9-1 20-3 11-1Z"/><path fill="#2A3039" d="m1301 558-3 1v2l2-1 2-1 2-1 2-1 2 1c-5 4-8 5-14 4-4 0-6-1-8-3l5-2v-2c4-2 7 0 10 3Z"/><path fill="#93C4E5" d="m1362 503 4 1-17 7-2 1-7 2 1-5c4-2 5-2 9-2h6v-3l6 1v-2Z"/><path fill="#3E3F40" d="M1366 361h1l1 28-4 2v-24l2-6Z"/><path fill="#333940" d="m1399 148-4 1v3l-16 1 2-4-3-1h21Z"/><path fill="#607784" d="m1209 394 7 2 3 1 8 2 2 1-7 1 5 2c-5 2-9 0-14-2l-4-4v-3Z"/><path fill="#1F2426" d="M1342 113c8 2 12 9 16 15l6 7-4 2c-4-4-7-8-9-13l-7-9-2-1v-1Z"/><path fill="#8FC2E3" d="M1402 461h1v10h2l2-4h6l-3 4-1 2-5 5h-2l-1-7v-4l1-6Z"/><path fill="#AAD4E8" d="M1206 369h2v2l-1 6v8c-1 4-1 4 1 7v5h-2v-5h-2l-1-10v-4l1-7h2v-2Z"/><path fill="#3D5361" d="m1231 313 2 1v1l4 2c-12 5-12 5-17 3v-1l-6-1v-1h2l4-1h3l6-2 2-1Z"/><path fill="#83B4D2" d="M1034 155h3l1 4h8l1-2 1 3h2c3 0 3 0 5 3l2 3a2023 2023 0 0 1-20-6l-5-3h2v-2Z"/><path fill="#395263" d="m1180 522 22 3 3 1 7 1v1l-10 1v1l-8-1 2-1v-2h-11v-2l-5-1v-1Z"/><path fill="#B8B4A6" d="M1235 377h13c5 1 9 1 14 4l2 4-13-2 1-3h-6l-4-1-7-2Z"/><path fill="#9AC7E5" d="M1356 326h13v1c-11 3-22 5-33 5l1-2h3l1-2 3 1h4l1-1h7v-2Z"/><path fill="#99C9E5" d="M1385 304h3l-5 19 2 1h-9l3-2c2-3 2-4 2-8l2-5 1-3 1-2Z"/><path fill="#385468" d="M1301 99h7v2l3-1 3 2 5 1 2 1h2v3h2l3 3 1 2-16-7-12-5v-1Z"/><path fill="#2C3439" d="M1286 81v6l10 2v2h2v2l-10-1-1 2-7-1 2-1v-3h6l-3-1 1-7Z"/><path fill="#9BCAE4" d="m1356 250 8 12-3 2-2 3-1-3c-2-4-4-6-8-8v-1h6v-5Z"/><path fill="#A3D4F0" d="M1047 133h19l1 3 3 1 1 3-10-2-11-3h-2l-1-2Z"/><path fill="#394C5D" d="M1156 516h5v2l2-1c5 0 9 1 14 3-3 3-4 3-8 3l-4-1-7-1 1-2-3-3Z"/><path fill="#373A3D" d="M1437 479c4 2 6 4 8 9l-1 3-2-1v7l-5-10-1-3-1-3h2v-2Z"/><path fill="#E2F2FD" d="m155 241-2 1a255 255 0 0 0-22 16c1-5 4-7 7-9l2-2 7-3v-2c3-2 5-2 8-1Z"/><path fill="#DAEBF6" d="M131 212v1h-2c-7 0-13 1-20 4l-9 3c1-4 3-4 6-6s6-2 10-3h2c5-1 8-1 13 1Z"/><path fill="#3B5A71" d="m1120 197 2 3-2 1-1 7h2v-4l2 1-3 9-1-2-6 5c0-7 4-13 7-20Z"/><path fill="#3B4955" d="M1184 85h2l1 4c-3 2-4 2-7 2-4 0-7 1-10 3h-5l7-3v-3h2v-2h7l1 2 2-2v-1Z"/><path fill="#8BB8D5" d="m1190 523 20 1v2h4l10 2v1l-21-2-4-1-9-2v-1Z"/><path fill="#8BB6D6" d="M1048 308h1v12h3l-1 25h-1l-2-37Z"/><path fill="#001421" d="M1491 366h1v12l-1 10-2 12h-2v2h-2l-1 2 1-6h2v-2l1-9v-4l3-17Z"/><path fill="#DED6C1" d="m1260 384 5 1v9c0 3 0 3-2 5l-2 1v-7h-2l1-9Z"/><path fill="#3D5565" d="M1358 249h2l4 5 2 3c2 3 3 5 3 8-3 0-4-1-6-3l-2-3-2-2-1-8Z"/><path fill="#2C435A" d="m1280 229 3 2v15c0 6 0 11-2 17l-2-1 1-3v-9a1869 1869 0 0 0 0-21Z"/><path fill="#9EC7DC" d="M1280 499h7v2l-7 1-11 3-1 4h-2l-1-4h2v-2h2v-2l6-1 5-1Z"/><path fill="#DFE6EB" d="M1264 359h3l-2 8v2l-3 8-4-2v-6h3v-2l1-2v-3l2-3Z"/><path fill="#3F5D70" d="M1228 404h26l1 3c-9 0-18 0-27-2v-1Z"/><path fill="#3F5D75" d="M1066 170h8v3h-7v2l-1 2v2l-3 3-1-2-3 6c-1-3-1-5 1-9l1-2c1-2 2-3 5-4v-1Z"/><path fill="#000A10" d="m1482 276 1 2h3a1016 1016 0 0 1 4 17v5c-2-4-3-7-3-12h-2l-1-4-1-2-1-6Z"/><path fill="#0B7DC8" d="M122 213c9-1 9-1 13 1 3 3 3 5 3 9l-3 5h-2v-2l1-2v-3l-1-4-7-2h-5l1-2Z"/><path fill="#034572" d="M241 166h24v2l-28 1 4-1v-2Z"/><path fill="#44535F" d="m1289 503 6 2 4 5-1 3 1 2v2l-2 2-8-16Z"/><path fill="#5EA3D1" d="M1454 450c-1 4-3 5-6 8-4 2-6 6-8 9-3 2-6 2-9 2v-2l6-4 7-5 2-2 4-4 4-2Z"/><path fill="#DFEEF8" d="M48 375c6 2 8 3 11 8l1 3-1 2a332 332 0 0 1-9-6c-2-2-2-2-2-5v-2Z"/><path fill="#202C35" d="m1082 112 10 8 2 2 2 2-3 3-4-1-1-2-2-2-1-1 1-2v-2l-2-1-2-2v-2Z"/><path fill="#36434A" d="M1234 375c10 0 19 0 28 3v1h-9l-3-1-15-1-1-2Z"/><path fill="#95C3DF" d="m1257 370 2 6-21-2v-1h8v-2h4l3-1h4Z"/><path fill="#C2DCEE" d="m1423 354 1 2h-2v13c0 6 0 10-3 16l-3-2 1-4h2v-9l1-3 1-12 2-1Z"/><path fill="#CAD4CC" d="m1208 369 10 2-4 2h-6v11l2 6v3l-4-2v-16l2-6Z"/><path fill="#02385D" d="M1486 288c3 3 3 7 4 12l1 2 1 18h-1l-2-11-1-4-2-17Z"/><path fill="#A2D8FA" d="m143 250 2 1-1 1-7 7-3 2-11 13c0-7 8-13 12-17l8-7Z"/><path fill="#DCDFE2" d="m1360 175 1 2-2 4-2 8-4-1-1 6c-1-4-1-6 1-10l1-2c1-4 3-5 6-7Z"/><path fill="#374953" d="m1016 137 1 4h3c4 8 4 8 2 13-4-3-6-8-7-13l1-4Z"/><path fill="#364653" d="m1221 318 2 3-17 1-3-1h-7v-1c19-3 19-3 25-2Z"/><path fill="#C9C7BA" d="M1439 491h1l-1 12c-4 3-6 3-10 2-3 0-5-2-8-4l4-1 3 2 9-1 2-10Z"/><path fill="#96C6E5" d="M1368 277c2 2 3 4 3 7l-1 3h-2v2c0 3 0 3-2 5-3 2-6 2-10 2l2-1 2-2 3-2c4-3 4-9 5-14Z"/><path fill="#92C1E2" d="M1250 55v3l-3 1c-4 3-5 6-7 10v2l-4 1c0-5 1-8 4-11 7-6 7-6 10-6Z"/><path fill="#1F2327" d="m1358 508 2 1 9 1c-3 3-6 4-10 6h-2c-11 5-11 5-17 5l11-5 3-1 5-1v-2h-2l1-4Z"/><path fill="#D8EAF6" d="M69 429c5 0 8 0 12 3l5 7-10-4-3-2-4-4Z"/><path fill="#80AECB" d="M1058 198c3 5 3 5 3 8l-2 2-1 6-2 5-1 5h-1c0-5 0-9 2-14l2-12Z"/><path fill="#99C7E4" d="M1278 51c4 2 6 3 8 7l1 10-2 3c-2-4-2-7-2-11l-3-5-2-2v-2Z"/><path fill="#39454D" d="M1272 45h7v4h-19l2-1v-2l10-1Z"/><path fill="#91C1E1" d="m1385 491 2 1-5 4-3 2h-5l-2-1v-2c3-2 4-2 8-2v-2h5Z"/><path fill="#374147" d="M1221 400h3c11 2 21 3 32 3v1a1258 1258 0 0 1-26 0l-9-3v-1Z"/><path fill="#E6E9EE" d="m1357 239 2 1 5 2c-1 7-1 7-3 10l-3-4-1-3v-6Z"/><path fill="#65737C" d="m1181 157 1 3h25v1l-30 1v-4l-3-1h7Z"/><path fill="#A1D2F3" d="M1210 153v1h-2l-31 2 1-3h32Z"/><path fill="#9AC9E3" d="m1055 139 7 1c-1 4-2 6-5 8l-2 2-1 2 3-1v2h-4v-3l-2-1 3-4h4v-4l-4-1 1-1Z"/><path fill="#354D60" d="M1113 247h3c3 4 2 7 2 12h2l1 5-2-1v-2l-3-1c-2-4-3-8-3-13Z"/><path fill="#7FA6C0" d="M1320 301h1v15l18 1v1h-15v2h-4v-2l-4 1 2-3 1-6 1-9Z"/><path fill="#8EC7EB" d="M1320 318v2h4v-2h15l-1 2-14 1h-8v-2l4-1Z"/><path fill="#E3E6E6" d="m1246 301 5 1-10 7-3 2-4 1 1-4 5-2 3-1v-2h3v-2Z"/><path fill="#000910" d="M1474 256c5 3 8 11 10 17l1 5h-2l-1-2-1-3-2-3-3-5c-2-2-2-6-2-9Z"/><path fill="#CCCED1" d="M1435 187c3 3 3 4 3 8l-4-1 1-7Zm0 8-1 3-6 2c-3 3-3 4-3 8h-1c0-7 0-7 2-10 3-3 5-3 9-3Z"/><path fill="#E5E5E9" d="M1377 155v3l-2 1-3 4-3 3-6 1 5-7 2-2 7-3Z"/><path fill="#92C0DC" d="M1223 158c7-1 13 1 19 5l1 4-13-5-7-3v-1Z"/><path fill="#424C55" d="m1422 454 2 1v7h-3l-1 2c-1 4-4 7-6 10v-7h3l1-5 4-1v-7Z"/><path fill="#96C6E6" d="m1464 254 4 2 3 7 2 2c2 2 2 4 3 7l-1 4-1-2-2-3-1-3-6-10-1-4Z"/><path fill="#3B4050" d="m1278 224 1 3h2v20l-1 8h-1l-1-31Z"/><path fill="#3C5266" d="M1262 184c5 4 7 9 10 14l-5 1-5-15Z"/><path fill="#3C6D89" d="M1279 68v2l-2 1-7 5 3 1 4 1 1 2-8-2-4 2-2 2c0-5 3-7 6-10s5-4 9-4Z"/><path fill="#88BBD7" d="M1171 518h16l2 5-18-4v-1Z"/><path fill="#4D5460" d="M1106 483h4v2h2c3 1 4 1 6 4l1 7-13-13Z"/><path fill="#A1CDE9" d="m1484 384 1 2-2 6-1 8h-2v3l-4 7 1-8h2v-3c2-12 2-12 5-15Z"/><path fill="#BCDBED" d="m1356 331-11 3h-4l-17 2c6-4 12-4 19-5h3l2-1h2l6 1Z"/><path fill="#54555D" d="m1328 269 1 2 7 1v2l10 2h6v1c-17 1-17 1-25-4l-1-2h2v-2Z"/><path fill="#0B6CAC" d="M159 149h1c0 6 0 10-3 15h-4c3-11 3-11 6-15Z"/><path fill="#3D586D" d="m1422 449 4 4-1 2h-2v3l-1 3-4 2-1 4-4 1 7-13 2-6Z"/><path fill="#CAD0DA" d="m1270 406 7 8c2 3 3 4 6 5v1h-3l-9 2v-2h4c0-5-1-8-5-12v-2Z"/><path fill="#3A4350" d="M1403 272v3l-8 1v3l-2 8h-1l1-13-2-1h4l3-1h5Z"/><path fill="#2E4255" d="M1198 528a1125 1125 0 0 1 11 0h5l6 2-12 1v1l-11-1 1-3Z"/><path fill="#474848" d="M1400 489h2v7l-2 6h-2l-1-5h-6l4-4 4 1 1-5Z"/><path fill="#9CCCEE" d="M1221 365h5v4h4c4 0 4 0 6 2l1 1h-10l-3-1-2-1-1-5Z"/><path fill="#414446" d="M1349 338c6 0 6 0 9 2l2 1-1 3c-7-1-7-1-10-3v-3Z"/><path fill="#C5D5D4" d="m1288 502-1 3h-9l-7 1-1 4-2-2 3-5c6-2 11-3 17-1Z"/><path fill="#405461" d="M1078 112h4v2l2 1 4 4-4 2-9-6 4-1-1-2Z"/><path fill="#A4D8F2" d="M1282 73v9l-1 2-1 2h-7v-1l5-1-1-3-2-6 7 1v-3Z"/><path fill="#374858" d="m1052 376 5 1 1 7-1 3v2h-3v-3c0-3 0-4-2-7v-3Z"/><path fill="#3E4952" d="m1260 297-1 5h-3v2l-10 3 5-5 2-2c2-2 4-3 7-3Z"/><path fill="#4F6476" d="M1445 220h1l2 10-4-3-2 10-1-4-1-1v-5l4-5 1-2Z"/><path fill="#4A5258" d="M1378 149h3l-1 3 3 2-2 1h-2l-3 1-6 3v-3h2l1-5h2l3-2Z"/><path fill="#4D6477" d="M1242 531h18l7 1v2l6 1v1h-8v-2h-6v-2h-17v-1Z"/><path fill="#535D66" d="m1139 506 5 2v2l5 1-2 1v2c-5-1-9-3-13-6l2-1 3 1v-2Z"/><path fill="#8BC0E4" d="m189 503 1 3h3l4 1h2l6 1 2 3c-13-1-13-1-18-4v-4Z"/><path fill="#37454A" d="M1390 425h2c3 3 4 4 4 8v3l-4 1-2-12Z"/><path fill="#BBE2FC" d="m1414 271 7 9 1 2 2 2 1 2v6l-2-4-2-3-2-5-2-1-2-1-1-7Z"/><path fill="#248ACE" d="m143 203-1 3-6 2h-3l-3 1-1-2 3-3 3-1 3-1 5 1Z"/><path fill="#A3D1EE" d="M1350 174h4l-3 12-1 4-1 3h-1v-11h2v-8Z"/><path fill="#222B2F" d="M1068 106c5 1 9 2 14 5l-2 2 1 2c-4 0-6-1-9-3l-1-3-3-1v-2Z"/><path fill="#4A555A" d="m1306 526 3 1 1 11h-2l-2 7h-1l1-14v-3l-2-1 2-1Z"/><path fill="#50575E" d="m1122 498 8 1 1 5 4-1-1 4-8-5-2-2-2-1v-1Z"/><path fill="#438DBF" d="m1465 434 1 2c-7 11-7 11-12 14l5-10 2-3 4-3Z"/><path fill="#156397" d="M1475 416h1c1 5-1 8-4 12-1 3-4 4-6 6l2-6 2-1 2-1 1-6 2-4Z"/><path fill="#00070C" d="M1487 400c1 3 1 5-1 8l-1 3-1 2-1 3-3 6-2-3 2-3 5-14h2v-2Z"/><path fill="#CFDFF4" d="M1349 395h7l-10 4h-3l-3 1v-4c3-2 6-1 9-1Z"/><path fill="#3B464F" d="m1199 83-2 5h-9l1-4 10-1Z"/><path fill="#8BB6CD" d="m1265 507 1 2 3 1h-3l2 3a18078 18078 0 0 1 3 7l1 2 1 2 1 4h-3v-4h-2c-2-3-2-4-2-8h-2v-9Z"/><path fill="#363B40" d="M1377 506c-4 4-9 5-15 5v-2c5-3 9-5 15-3Z"/><path fill="#97C1DF" d="m1395 398-6 3-2-1v6l2 1-2 2-6-9c5-2 9-2 14-2Z"/><path fill="#354B57" d="M1211 368a1096 1096 0 0 1 13 2v2l4 2h-2l-15-3v-3Z"/><path fill="#304257" d="m1054 203 2 1-2 17h-3l1-9h2l-1-3 1-6Z"/><path fill="#364956" d="m1396 484 1 4h2v2l-10 5 1-4 2-1 2-4 2-2Z"/><path fill="#003152" d="M1483 404c1 6 0 9-3 14l-4 4 1-8 2-2h2l2-8Z"/><path fill="#354650" d="m1268 198 5 1v3l2 5v5c-3-1-3-3-5-6l-1-3-1-5Z"/><path fill="#F0EFF0" d="m1353 188 3 1c1 6-1 8-4 13h-1c0-5 0-9 2-14Z"/><path fill="#313B42" d="M1249 532h9v1h-7l-3 1-9 2h-7l4-4h13Z"/><path fill="#2A2E35" d="m1190 525 3 1h3l1 4-18-3c4-2 6-2 11-2Z"/><path fill="#DBECF7" d="M84 369v5l-1 3-1 3-1 2h-2l-2-7 7-6Z"/><path fill="#3A434E" d="M1434 331h2l1 11-4 2v-8l1-5Z"/><path fill="#777C83" d="m1426 254 4 2-1 3h-2l-1 2c-1 2-2 3-5 4l4-6-5 2 6-7Z"/><path fill="#435260" d="m1022 147 6 8 2 1-3 1 3 2-1 2c-7-4-7-4-7-8v-6Z"/><path fill="#494D56" d="m1226 529-4 2v2h-5v-2l-2 1c-4 0-7 0-11-2h8l2-1h12Z"/><path fill="#595D60" d="m1424 460 7 9-4-1-1 2-5-8h3v-2Z"/><path fill="#9AC6E2" d="m1313 418 2 1v5c-3 2-5 2-9 2h-5l2-1 10-7Z"/><path fill="#A7C6E1" d="M1373 394h4v2l3-1 9 2c-3 3-5 3-9 3l-7-5v-1Z"/><path fill="#E1E3E5" d="M1399 267h6l1 3c-5 2-11 3-17 2l-3-2h12l1-3Z"/><path fill="#BDE3FB" d="m145 247 2 1-2 2-16 14c0-4 1-5 4-8l6-5 2-1 4-3Z"/><path fill="#35546A" d="m1144 171 1 3-1 2-4 1-1 2h2l-1 2h-3l-2 2v-2l-2-1 11-9Z"/><path fill="#405562" d="M1042 107h6l3 1h7v1h-6l-4 1-9 1v-2l-7 1v-2l10-1Z"/><path fill="#3C434A" d="m1155 94 1 3-6 2v4l-6-2 2-4 9-3Z"/><path fill="#282B2F" d="M1445 491h1c1 7 0 13-4 19l-2-5 2-6 3 1v-9Z"/><path fill="#1B2C39" d="m1320 309 1 2 2 3a192 192 0 0 0 14 1c-4 2-5 2-10 2h-3l-4-1v-7Z"/><path fill="#8FC3E7" d="m1356 296-1 5-11 1v-3l4-1 3-1 5-1Z"/><path fill="#DEE1E1" d="m1140 284 2 2 5 4v4h2l-1 3-5-5-3-3-2-4 2-1Z"/><path fill="#84B2CE" d="M1053 224h1c1 9 1 15-2 23h-1l2-23Z"/><path fill="#314255" d="m1047 162 3 2v2h-14l2-1v-2c3-2 6-1 9-1Z"/><path fill="#9BCCE6" d="m1365 152 3 1-4 8-7 8-1-3 3-4 1-2 2-2h2l1-6Z"/><path fill="#3B4751" d="m1349 511 10 1v2c-4 2-7 2-11 2l1-5Z"/><path fill="#91B7CA" d="M1393 446h1l2 20-3-2v-18Z"/><path fill="#436174" d="m1062 395 4 8v3l1 2h-2v3h-2l-1 3-1-5h2l-1-14Z"/><path fill="#4895C8" d="M1485 384h1c0 6 0 11-3 16h-1c0-6 1-10 3-16Z"/><path fill="#93BFDD" d="m1243 315-3 4-9 2h-5l7-4 3-1 7-1Z"/><path fill="#ADDBFA" d="M109 292h1c0 5-1 9-3 14h-6l2-1c3-4 4-8 6-13Z"/><path fill="#4B6171" d="M1386 272h14v1l-7 1v5l-1-3h-6v-4Z"/><path fill="#02416B" d="M1456 234c3 1 5 3 7 6l2 8-9-10v-4Z"/><path fill="#3B4852" d="M1161 164h8a48 48 0 0 1-10 5l-4 1-1-4h7v-2Z"/><path fill="#3E5D73" d="M1145 103h6c-3 2-5 4-9 5l-11 5-1-2h3v-2l4-2 2-1 6-1v-2Z"/><path fill="#2E3236" d="m1311 95 15 6v1c-9 0-9 0-12-2v-2h-2l-1-3Z"/><path fill="#9ECDEB" d="m1277 51-4 1h-11l-1-2c5-2 11-2 16 1Z"/><path fill="#3D3D3D" d="M1407 514h2v9l-5 1-1-4 3-4 1-2Z"/><path fill="#3E4655" d="m1118 491 7 3 1 4h-5l-3-4v-3Z"/><path fill="#90C1D7" d="M1400 444h2c1 6 1 11-1 17h-1l-1-7v-4l1-6Z"/><path fill="#525E68" d="M1436 330c3 3 2 4 2 7 0 4 0 6-2 9l-3 2-1-2-2-1 3-3h4l-1-12Z"/><path fill="#A9D1EB" d="M1476 276c3 3 4 7 5 11l1 4v6l-1-4-1-3-1-6h-2l-1-8Z"/><path fill="#3D4754" d="M1255 182h4l1 2h2l3 10-5-5-3-3-2-4Z"/><path fill="#0F5381" d="M178 177h5l-2 1v2l-9 1-1-3 7-1Z"/><path fill="#9ECDE9" d="M1324 110c5 2 9 4 12 8l-3 1v-2l-9-2v-5Z"/><path fill="#9FCDEB" d="M1259 51v4l-9 3v-4l9-3Z"/><path fill="#0C5586" d="m200 512 19 1v2l2 1h-14l-2-1c-2 0-2 0-5-3Z"/><path fill="#9EC8E4" d="M1275 427h23v1l-17 1-6 1v-3Z"/><path fill="#3C4952" d="M1366 389h2l1 3 2 1v4l-7-1v-5l2-2Z"/><path fill="#3D5565" d="m1256 302 3 1c-8 7-8 7-11 7l-5-2c4-3 8-4 13-4v-2Z"/><path fill="#2A3031" d="M1047 104v4h-12v-2c4-2 8-2 12-2Z"/><path fill="#94C0DD" d="m1154 101 2 1-3 1-1 4h-7v2h-6c4-3 7-4 12-5v-2l3-1Z"/><path fill="#4C4D4D" d="M1405 496v8l-3 4-2 1v-8c1-2 2-5 5-5Z"/><path fill="#445A67" d="m1390 414 4 6v3l1 5-3-1v-2l-3 1 2-8-2-1 1-3Z"/><path fill="#D6EBFA" d="m114 402 3 3a259 259 0 0 1-4 6l-1 2h-3l1-4 1-3 3-4Z"/><path fill="#E0F1FD" d="M1416 269c4 3 5 6 7 11l-1 2c-6-7-6-7-7-11l1-2Z"/><path fill="#4A4A4A" d="m1409 520 4 3c2 2 3 3 6 3v2l-3 1-3 2-2-1 1-2c0-4-1-5-3-8Z"/><path fill="#303439" d="M1329 522v2l2 1-5 1-3 1-4-1v-2l10-2Z"/><path fill="#002640" d="M204 514h6l4 1 7 2h-10l-1 2-6-4v-1Z"/><path fill="#364F65" d="m1116 484 3 3 2 1 4 5-7-2v-2l-3-1-1-3 2-1Z"/><path fill="#93C2E3" d="m1418 453 3 2-6 10-2-1c1-4 1-5 4-8l1-3Z"/><path fill="#3F5A74" d="m1075 427 6 8 1 2 1 2-1 2c-7-7-7-7-7-12v-2Z"/><path fill="#96BDD3" d="M1371 399c5 3 8 6 11 10l-3 1-2-1v-3h-3v-4l-3-1v-2Z"/><path fill="#92BFDD" d="m1065 401 3 1v2l1 3 2 1 1 7-2 1-2-6-2-3-1-6Z"/><path fill="#4E555E" d="m1265 387 2 3 2-2 2 1v7l-2-1-3 1-1-3v-6Z"/><path fill="#8ABBD5" d="m1060 381 4 10v3l1 2-2 2c-5-12-5-12-3-17Z"/><path fill="#99A3A8" d="M1368 369h1l1 21 3 1v3l-5-2v-23Z"/><path fill="#49535F" d="m1281 250-1 16c-3-3-3-6-3-10l1-5 3-1Z"/><path fill="#384452" d="m1048 237 3 1v5h-2l-1 8h-1v-10l1-4Z"/><path fill="#4F5B63" d="M1236 165h2v3h2v2h2l2 4-13-6 2-1 3-2Z"/><path fill="#2C2F32" d="m1364 136 7 8-1 2-5-1-3-5 1-2h1v-2Z"/><path fill="#292F34" d="m1193 83-4 1-1 4h-2v-3l-4 4-4-4 5-1 2-1h8Z"/><path fill="#D4CDBE" d="M1292 509c4 4 5 7 6 12h-4v-2h-2v-10Z"/><path fill="#041A29" d="m1395 498-4 2-2 1-4 1v2l-8 2c2-3 5-4 8-6l3-2h7Z"/><path fill="#CAC4BB" d="m1421 463 5 5c-3 2-5 2-9 2l4-7Z"/><path fill="#3A4552" d="M1092 465c4 0 6 0 9 2l-2 5c-4-1-5-3-7-7Z"/><path fill="#374857" d="M1065 408h2l1 7-3 3c-2-3-2-3-2-7h2v-3Z"/><path fill="#9AC4E5" d="M1332 403v3l-3 2-2 2-3 1v-5c3-2 4-3 8-3Z"/><path fill="#384A53" d="m1209 394 11 5v2a212 212 0 0 1-7 0l-4-4v-3Z"/><path fill="#5E6C6D" d="m1420 324-3 1 9 1v1l-14 1-2-3c6-2 6-2 10-1Z"/><path fill="#42596D" d="m1280 219 3 8v4l-2-1v-3h-2l-2-2c0-3 1-4 3-6Z"/><path fill="#248ACE" d="m122 214 5 1h4v1l-18 1 1-3h8Z"/><path fill="#3A4451" d="m1121 197 4 1-1 5-3 1v4h-2c0-7 0-7 2-11Z"/><path fill="#8DB5D5" d="M1057 166c6 0 11 1 17 3v1c-7 0-11 0-17-3v-1Z"/><path fill="#3E5E73" d="M1058 109h16l-2 1v2l4 1c-4 1-5 0-9-1l-9-2v-1Z"/><path fill="#035992" d="m245 543 1 4-6 5-3-1 8-8Z"/><path fill="#B2CBDD" d="m1323 408 1 4-2 2-4 4h-5c5-6 5-6 9-8l1-2Z"/><path fill="#A8D2EB" d="m1388 407 1 2 5 4 1 6v6l-5-9-1-3-1-6Z"/><path fill="#94C8E9" d="M1238 406h3a202137422 202137422 0 0 1 11 1v1c-16 2-16 2-20-1l6-1Z"/><path fill="#D2DBE0" d="m1273 383 2 1-1 2c-2 3-1 6 0 10l-2 5c-2-3-2-4-2-8l1-3 2-7Z"/><path fill="#85B7D3" d="m1094 134 1 3h3v-3h3l1 4-3 3h-3c-2-3-2-3-2-7Z"/><path fill="#334755" d="M1273 88h6v4h-10v-2h4v-2Z"/><path fill="#425968" d="m1347 511 2 1v3l3 2-5 1v-2h-2l-2-1-1-2 5-2Z"/><path fill="#8ABBD3" d="m1297 502 1 7-2-2c-3-3-4-4-7-4l-1 2-1-4c4-1 6-1 10 1Z"/><path fill="#42444E" d="m1441 489 4 2v9l-3-1-1-10Z"/><path fill="#D6D1C6" d="m1410 478 3 1-2 10-4-5c0-3 1-4 3-6Z"/><path fill="#95C9E6" d="M1263 354h2l-4 10-1 3-1 2h-1c0-6 2-10 5-15Z"/><path fill="#E4E3E6" d="m1156 297 4 2 1 6c-3-1-6-2-8-5l3-1v-2Z"/><path fill="#96C2DB" d="M1359 257h2l3 5-3 2-2 3-2-8h2v-2Z"/><path fill="#384656" d="m1140 180-4 6h-5l2-5 7-1Z"/><path fill="#89B3CF" d="m1067 173 4 1-2 5-3 1-2 6v-6l1-3 1-2 1-2Z"/><path fill="#314F64" d="M1358 139h2v2l3 1 6 10-2 1-4-6-2-2-3-6Z"/><path fill="#A2D2F2" d="M1062 111c9 1 9 1 12 3l-2 1v2h-2v-2l-6-1v-2l-2-1Z"/><path fill="#344A5A" d="M1304 97c4 0 7 1 10 3h-10l-3-1h-2c2-2 2-2 5-2Z"/><path fill="#4A6679" d="m1287 91 4 1 1 3 6 2c-4 2-7 0-11-1l-4-1-3-1h7v-3Z"/><path fill="#394B60" d="m1273 530 1 3-4 1c-4 0-5 0-8-3l11-1Z"/><path fill="#44484F" d="M1301 524h2l1 4h2l1 6-2 2-2-5-1-3-1-4Z"/><path fill="#343434" d="M1418 527h7l-2 1-3 3-7 2-2-2 2-1c3-3 3-3 5-3Z"/><path fill="#87AABE" d="M1396 467h1l1 17-4 2-1-3h3v-16Z"/><path fill="#98BDD3" d="M1402 461h1v14l3 1-4 2-1-7v-4l1-6Z"/><path fill="#97C3E2" d="M1075 422h2c3 4 3 7 3 12-3-3-4-7-6-11l1-1Z"/><path fill="#013456" d="M1491 366h1c0 7 0 13-2 20h-1c0-7 0-13 2-20Z"/><path fill="#01273F" d="m42 314 4 3-1 7-5-5 2-1v-4Z"/><path fill="#8EB5D0" d="m1381 317 3 1-1 5 2 1h-9l3-2 2-5Z"/><path fill="#97CDE7" d="m1253 307 2 3-1 2-4 1-2 2-3-3 8-5Z"/><path fill="#364E63" d="M1353 295v2l-9 2-1-3c4-2 6-2 10-1Z"/><path fill="#60636A" d="m1328 294 17 1v1h-13l-1 3-4-1 1-4Z"/><path fill="#013A61" d="M1465 248c4 2 6 4 8 8l-1 2c-4-3-6-5-7-10Z"/><path fill="#4C5E70" d="m1015 128 4 9v4h-4v-13Z"/><path fill="#232B30" d="m1277 540 4 1 3 6-2 2-4-3-1-6Z"/><path fill="#484C4F" d="m1420 500 9 5v3l-10-5 1-3Z"/><path fill="#8DC3DD" d="m1398 435 3 1 1 7h-2l-2 2-1-4v-5l1-1Z"/><path fill="#01375C" d="m1472 428 1 2-8 10c0-4 1-6 4-9l3-3Z"/><path fill="#B5C6D2" d="m1263 404 2 1-2 4h-2v3h-2l-1-6 5-2Z"/><path fill="#92BFDE" d="m1219 403 15 2v1h-8l-1 2v-2h-6v-3Z"/><path fill="#C4DAEC" d="m1340 401-3 1-4 1h-2l-7 3 1-4a519 519 0 0 1 15-1Z"/><path fill="#344551" d="m1061 396 3 8v5h-3v-13Z"/><path fill="#8CB7D1" d="M1224 322c-3 2-5 2-9 2h-16v-1l10-1h3l3-1h3l6 1Z"/><path fill="#89BADA" d="M1444 227c4 1 5 3 7 7l-8-2 1-5Z"/><path fill="#88BFE3" d="M111 214c-3 3-6 5-11 6 1-3 1-4 4-5l2-1h5Z"/><path fill="#001524" d="M171 175h14c-3 3-4 2-8 3h-6v-3Z"/><path fill="#426C85" d="M1053 135c4 0 4 0 6 2l-9 1h-4c2-3 4-3 7-3Z"/><path fill="#3A586D" d="M1175 93v2l-4 2h-3l-5 1v-2l4-2 2-1h6Z"/><path fill="#4B4B4B" d="M1431 529h4v1h-2l-3 1-1 2-8 1 3-2v-2l7-1Z"/><path fill="#D5D0C3" d="M1278 520h1v6h2l3 5-1 4-7-12 2-3Z"/><path fill="#405D74" d="M1361 506v2h-3l-1 4-8-1c4-2 8-5 12-5Z"/><path fill="#292C30" d="M1441 510c-2 2-3 3-5 3h-7c5-4 6-4 12-3Z"/><path fill="#35454B" d="M1397 442c2 3 2 4 2 8v4l-2-2-2 3 2-13Z"/><path fill="#37474F" d="M1388 414h2l1 9-3 1v-10Z"/><path fill="#9CCAE7" d="m1161 312 14 5c-4 1-7 0-11-1v-2h-3v-2Z"/><path fill="#DBF0FE" d="m1423 282 4 3 1 3 1 3v7l-3-7-1-2-2-7Z"/><path fill="#3E586D" d="M1364 271c4 3 4 3 4 7v7l-2-1-1-7-1-3v-3Z"/><path fill="#345569" d="M1253 176c4 2 6 5 9 8h-2l-1 2v-4l-5 1 1-5h-2v-2Z"/><path fill="#3B4953" d="m1145 171 3 4-6 5-3-1 1-3h4l1-5Z"/><path fill="#004E83" d="m129 143 2 1-11 11c0-4 2-6 5-9l4-3Z"/><path fill="#93C8EA" d="m1028 116 2 2-2 1v5l-5 1c0-4 2-6 5-9Z"/><path fill="#2B2E33" d="m1335 108 7 5v3c-3-1-6-3-8-6l1-2Z"/><path fill="#343D43" d="m1140 100 3 1-11 7-2-1 10-7Z"/><path fill="#3C596C" d="m1373 499 2 1-3 5-5-1-1 2-2-2 4-3 3-1 2-1Z"/><path fill="#3F444B" d="M1427 468c3 0 4 1 6 3l1 4h-3v-2h-3l-1-5Z"/><path fill="#00192A" d="m1459 448 1 2-3 5-2 3-1 2-3-1 2-3h2v-3c1-3 1-3 4-5Z"/><path fill="#384450" d="M1050 361h1v4l2 9h-3l-1-6v-6l1-1Z"/><path fill="#9FB7C8" d="M1438 334h1a286 286 0 0 1 0 8l-1 5-7 3 4-5h2l1-11Z"/><path fill="#515E67" d="M1224 316v2l2 1v2l-6-1v-1l-6-1v-1l10-1Z"/><path fill="#BEE3FC" d="m117 278 1 2-3 5-1 3-4 4c1-6 3-10 7-14Z"/><path fill="#D5E8F5" d="m99 258-14 7 1-4 5-2 3-1h5Z"/><path fill="#9AC4E2" d="M1112 247h1a449 449 0 0 1 2 15c-3-4-3-6-3-10v-5Z"/><path fill="#E5E5E9" d="M1370 255v2l2 1-2 4-5-4v-2l5-1Z"/><path fill="#92C7EC" d="M1052 242h1v3l1 6-1 4-1 2v2h-1v-9l1-8Z"/><path fill="#455A69" d="M1049 221h1v14h2l-1 4-4-1 2-17Z"/><path fill="#D3D8D9" d="M1227 223h5l-1 12h-1l-1-9-3 2 1-5Z"/><path fill="#354855" d="M1171 158h6v4l-7 1 1-5Z"/><path fill="#3E4049" d="M1119 113h2l-3 3h-2l-1 3-4-1c4-5 4-5 8-5Z"/><path fill="#34475B" d="M1294 93h3v2l3 1-2 2-9-3c2-2 2-2 5-2Z"/><path fill="#D7D3C3" d="M1285 534c2 2 2 2 2 5h2v5l-2 1-3-10 1-1Z"/><path fill="#4B5053" d="M1233 532v2h5v1h-14v-2l9-1Z"/><path fill="#B2DEFB" d="m148 438 7 4-1 6-1-2c-1-3-3-3-6-4l1-4Z"/><path fill="#9FD3EF" d="m1417 401 2 1 1 8h-5v-2h2v-7Z"/><path fill="#155987" d="M1487 380h2v10h-3l1-10Z"/><path fill="#A1D5F2" d="m1346 301 3 1-4 9h-1v-9l2-1Z"/><path fill="#002138" d="m1482 276 1 2h3v10c-3-3-3-5-4-8v-4Z"/><path fill="#95C4DB" d="M1389 276h3v7l-2 7 1-9h-2v-5Z"/><path fill="#394F5B" d="M1358 249h2c2 3 3 4 3 8l-4-1-1-7Z"/><path fill="#323C48" d="M1222 250c-4 3-6 5-11 4v-3l5 1v-2h6Z"/><path fill="#0263A4" d="m25 242 2 1-3 7-4 1c1-4 2-6 5-9Z"/><path fill="#99C8E4" d="m1133 180-2 5-6 2c0-3 1-4 3-6l5-1Z"/><path fill="#96C6DD" d="M1084 121c4 2 6 5 9 8l-1 2-4-2v-4l-4-2v-2Z"/><path fill="#9BCBE4" d="m1275 70 2 1-1 7-6-2c1-3 2-4 5-6Z"/><path fill="#8CB9D7" d="m1362 503 4 1-4 2-3 1-6 2v-2h3v-3l6 1v-2Z"/><path fill="#727E88" d="m1403 486 1 2 4 1 2-2 1 3c-3 3-4 3-8 3v-7Z"/><path fill="#8EC0DF" d="m1390 483 4 2c-1 3-2 4-5 6h-2v-2h2l1-6Z"/><path fill="#002036" d="M114 481v2l-9-1h-7v-1h16Z"/><path fill="#3D484B" d="m1418 462 1 2c-1 4-3 7-6 10v-6l4-1 1-5Z"/><path fill="#91BCDA" d="m1092 454 4 1v4l3 1 1 5c-4-3-6-6-8-11Zm7 5 2 1Z"/><path fill="#B8CCE0" d="M1267 418h4v4h4v2c-6-1-6-1-8-3v-3Z"/><path fill="#C6C4BD" d="M1264 385h1v9c0 3 0 3-2 5l-2 1 2-8 1-7Z"/><path fill="#40434C" d="m1425 258-1 5-2 1-2 2-5 2c1-4 3-4 6-7l2-2 2-1Z"/><path fill="#5D646F" d="m1062 173 2 2c0 4-1 6-4 8l-2 3c0-5 2-9 4-13Z"/><path fill="#8ACAF2" d="M1129 117h5v2c-3 3-5 4-9 4l-3-2 6-1 1-3Z"/><path fill="#32475C" d="m1180 522 10 1v3h-5v-2l-5-1v-1Z"/><path fill="#3B4148" d="m1418 500 2 1-1 2 3 1v3l-4-1-3-5 3-1Z"/><path fill="#618AA6" d="M1399 490v5l-2-1c-3 0-4 1-7 3 1-4 4-7 9-7Z"/><path fill="#36464F" d="M1088 449v8h-2l-3-5c1-2 2-3 5-3Z"/><path fill="#4B5763" d="M1050 374h3l1 6 1 5-2 2-3-13Z"/><path fill="#E7D5B9" d="m1422 332 5 1-1 4h-5l1-5Z"/><path fill="#A1D6F6" d="M1191 323h8l2 2-8 2-3-2 1-2Z"/><path fill="#304A5C" d="M1243 308h5v3l-6 3 1-6Z"/><path fill="#E0E3E6" d="M1163 304h3v2l6-1-4 4-6-2 1-3Z"/><path fill="#88B6D4" d="M1368 277c2 2 3 4 3 7l-1 3h-2v2l-2-1 2-11Z"/><path fill="#E1F1FC" d="m121 270-2 6-4 1v-5l6-2Z"/><path fill="#496279" d="M1337 255h8l8 2-1 2-6-2-5-1h-4v-1Z"/><path fill="#555D65" d="M1118 251h2l3 10h-2l-1-2h-2v-8Z"/><path fill="#DCE3E5" d="m1206 218 2 4h2l1 5-3 1c-2-4-2-6-2-10Z"/><path fill="#324151" d="m1275 213 5 4-1 4-2 1-2-9Z"/><path fill="#3A4347" d="M1202 210h11l-5 5-1-3-5-1v-1Z"/><path fill="#035D98" d="m55 187 2 1-9 7c3-8 3-8 7-8Z"/><path fill="#4B5159" d="M1433 182h3v2l3-1-1 5-2 1v-2h-2l-1-5Z"/><path fill="#7AB6DE" d="m191 178-2 1v2h-10c4-4 7-3 12-3Z"/><path fill="#314350" d="m1206 156 9 1c-3 3-3 3-7 3h-3l3-2-2-2Z"/><path fill="#35404B" d="M1017 122h2v6h-2l1 4-2 1v-8l1-3Z"/><path fill="#A0D3F6" d="M1161 100v3l-3 1-1 2-4-1v-2l8-3Z"/><path fill="#2F3B46" d="M1259 49c-3 3-6 4-10 4v-3c4-2 6-2 10-1Z"/><path fill="#464A5C" d="m1281 532 2 1 1 3h-8v-2l5-2Z"/><path fill="#0D1217" d="m1439 470 2 1-1 2v4l1 2v3c-3-2-4-4-5-7v-3l3-2Z"/><path fill="#DDF1FE" d="m187 461 12 3c-4 2-8 1-12 0v-3Z"/><path fill="#000509" d="M1462 446h2c-1 5-4 7-8 10l6-10Z"/><path fill="#C3DCED" d="M1311 339c-6 2-10 3-16 3 5-3 10-5 16-3Z"/><path fill="#5E636D" d="M1125 267c3 1 3 2 4 5l1 2 1 5-4-3-2-9Z"/><path fill="#334E61" d="M1122 268h2c2 4 2 6 2 10-5-5-5-5-5-9l1-1Z"/><path fill="#496173" d="m1374 266 5 2-2 2 2 1v2l-6-2-1-2h2v-3Z"/><path fill="#313942" d="m1228 225 2 1v10l-3-1 1-10Z"/><path fill="#2F4554" d="M1059 190c1 4 0 6-1 10h-2l-1 2 1-8 2-1 1-3Z"/><path fill="#A0D4F2" d="m1261 181 5 1 1 5h-3c-3-3-3-3-3-6Z"/><path fill="#D0D8DE" d="m1362 167 2 6-4 1h-2l4-7Z"/><path fill="#485664" d="m1153 165 2 1 1 5-7 3 2-4 2-1-1-3 1-1Z"/><path fill="#445764" d="m1168 159 4 1-2 1v2l7-1c-3 2-4 2-7 2h-4l2-5Z"/><path fill="#484F58" d="m1347 119 4 2 3 8-4-1-2-7-1-2Z"/><path fill="#94CEF0" d="m1281 71 4 2-2 3-8-1 6-4Z"/><path fill="#282D32" d="M1198 528h6l4 4-11-1 1-3Z"/><path fill="#89B8D4" d="m1133 496 6 4-1 3-7-5 2-2Z"/><path fill="#A1D5F2" d="M1221 365h5v5l-5-1v-4Z"/><path fill="#35444D" d="M1230 315v4l-5 1-1-4 6-1Z"/><path fill="#94C3DD" d="m1313 294 8 3-1 5-1-3h-2l-1-2-4-2 1-1Z"/><path fill="#9CD9F9" d="m1271 288 3 1-1 3v3l-4 1v-4h2v-4Z"/><path fill="#485360" d="m1121 204 2 1-3 9-1-2-2-1 1-5 1 2h2v-4Z"/><path fill="#446279" d="m1120 197 2 3-2 1-1 5h-2v3h-2l1-4 1-3 3-5Z"/><path fill="#545A66" d="M1395 149h4v2c-4 2-5 2-9 2h-6v-1h11v-3Z"/><path fill="#45677D" d="M1301 99h7v2l3-1 3 2-1 2-4-1-3-1-5-3Z"/><path fill="#355068" d="M1304 523h9v3h-8l-1-3Z"/><path fill="#000B13" d="M211 517h10v2l-9 1-1-3Z"/><path fill="#3A4556" d="M1147 512h7l-1 3 2 1-8-2v-2Z"/><path fill="#7BB7DF" d="m206 509 1 2-12-1v-1h11Z"/><path fill="#33434C" d="m1374 500 6 1-5 4-3-1 2-4Z"/><path fill="#024E81" d="m114 481 7 2v2l-9-1 2-1v-2Z"/><path fill="#345367" d="M1088 449c4 5 4 5 4 8l-4-1v-7Z"/><path fill="#485164" d="m1416 385 3 3-1 3-4-1 2-5Z"/><path fill="#3D3E3F" d="M1364 351c2 3 2 4 2 8h-3l-1-7 2-1Z"/><path fill="#CCC8C0" d="M1431 343c-1 3-2 4-5 6l-3 1-1-3 2-1 7-3Z"/><path fill="#4D4F51" d="M1349 338h7l-4 5-3-2v-3Z"/><path fill="#96C6E2" d="M1325 332h9c-2 2-3 2-7 3h-4l2-3Z"/><path fill="#3F5B6D" d="m1258 295 5 1-1 4-3 2 1-5-4 1 2-3Z"/><path fill="#61A8D8" d="m1482 290 3 3 1 9c-3-3-3-5-4-8v-4Z"/><path fill="#2D4359" d="m1393 275 2 4-2 8h-1l1-12Z"/><path fill="#E1D6D5" d="M1361 279h2l-1 7h-4l3-7Z"/><path fill="#2B4A5E" d="M1357 263c3 2 4 5 6 8h-5l-1-8Z"/><path fill="#415E75" d="m1319 264 2 1-1 2h-2v2h-6c2-3 4-4 7-5Z"/><path fill="#DFF1FD" d="M129 258h2c-1 3-3 6-6 8l-1-2 5-6Z"/><path fill="#314451" d="M1050 224h1l1 11-3 1 1-12Z"/><path fill="#3C5971" d="M1131 182v6l-2 2h-3v2l-2-1 7-9Z"/><path fill="#9ED5F2" d="M1137 177c-2 3-4 4-8 4v-3c3-2 5-2 8-1Z"/><path fill="#7BB7DF" d="m207 175-2 1v2l-10-1v-1l12-1Z"/><path fill="#F5EFF2" d="M1368 165c0 3-1 4-3 6l-2 1-1-3c4-4 4-4 6-4Z"/><path fill="#376580" d="m1067 140 7 4 1 3c-4-1-7-3-10-6l2-1Z"/><path fill="#38464D" d="M1306 541h2v8h-3l1-8Z"/><path fill="#95C8ED" d="m1224 525 2 2 6 1v1c-5 0-9 0-14-2v-1l6-1Z"/><path fill="#3F454B" d="M1315 524h4v2h2v2h-6v-4Z"/><path fill="#3C5169" d="m1084 443 4 6-2 2h-2v-8Z"/><path fill="#001B2F" d="M1464 440h2l-1 6-5 2 4-8Z"/><path fill="#0C7DC9" d="M124 399h6v2l-8 3 2-5Z"/><path fill="#94BEDA" d="m1363 393 2 2 5 4-4 1h-2l-2-6 1-1Z"/><path fill="#BFBDB4" d="M1255 379c6 1 6 1 8 3l1 1-1 2-4-2v-2l-4-1v-1Z"/><path fill="#C9DDE8" d="m1258 369 4 3v5l-4-2v-6Z"/><path fill="#C8C8BE" d="M1425 328c3 1 5 1 7 4v3h-2v-3l-3 1-2-5Z"/><path fill="#1E87CD" d="M101 306h5l1 4-7-1 1-3Z"/><path fill="#38516A" d="m1137 292 6 2v2l3 1-3 2-6-7Z"/><path fill="#375569" d="M1365 286h2c-1 4-4 6-7 8l-1-2h2l1-4h3v-2Z"/><path fill="#43607D" d="M1304 275h1l1 4v5l-2 2v-11Z"/><path fill="#3B414F" d="m1329 264-1 7-3-1-1-4 5-2Z"/><path fill="#415E75" d="m1329 259 2 2-2 4-2-2-5 1 7-5Z"/><path fill="#117EC6" d="M57 259h2l-1 9-3-2 2-7Z"/><path fill="#2C7DB4" d="m1453 234 8 8-1 2c-6-4-6-4-7-8v-2Z"/><path fill="#40444D" d="m1440 230 2 1-2 7h-2c0-4 0-5 2-8Z"/><path fill="#525E70" d="m1052 206 2 6h-2v3c0 3 0 3-2 5v-5l1-2 1-7Z"/><path fill="#3A3E43" d="M1432 176c5 3 5 3 6 6l-4 1-2-7Z"/><path fill="#364650" d="m1225 163 9 1 1 3h-5v-3h-5v-1Z"/><path fill="#8DB9D9" d="M1049 160h4l4 6-6-2v-2h-2v-2Z"/><path fill="#36434E" d="m1026 155 5 1v4l4 1-2 1-3-1v-2l-4-2v-2Z"/><path fill="#2E3B49" d="M1221 530h7l2 3h-8l-1-3Z"/><path fill="#31393E" d="M1172 522h5l2 4-7-1v-3Z"/><path fill="#80AEC7" d="M1171 518h8l2 3c-8-1-8-1-10-3Z"/><path fill="#202225" d="M1444 501v6l-2 3-2-3 2-4h2v-2Z"/><path fill="#444546" d="m1435 481 5 2v4l-2 1-3-7Z"/><path fill="#344050" d="m1108 480 4 3 4 2c-4 1-6 0-10-2l2-3Z"/><path fill="#48789A" d="M1437 469v2l-1 4h-2l-3-6h6Z"/><path fill="#98CAE4" d="M1386 418c2 2 2 2 2 5v3l-3 1 1-9Z"/><path fill="#D1D4E0" d="M1327 394v6l-4 4 1-4 1-3 2-3Z"/><path fill="#75B2DB" d="m48 375 4 2v5l-4-2v-5Z"/><path fill="#86B0CD" d="m1056 373 1 2h2l1 5-2 3-2-10Z"/><path fill="#9ED8F9" d="m1216 362 4 4v2h-5l1-6Z"/><path fill="#4C6172" d="m1321 294 3 1v7l-3-1v-4l-2-1 2-2Z"/><path fill="#1984CB" d="m134 227 1 4-6 3 5-7Z"/><path fill="#78787D" d="M1437 206h2l-1 7-5-2 4-5Z"/><path fill="#80A7BF" d="M1062 186c1 4 1 6-1 10l-2 2 3-12Z"/><path fill="#0F7AC0" d="m89 152 1 2-3 6-3-1v-3l5-4Z"/><path fill="#2C3D49" d="m1018 145 4 2 1 6-2 1-3-9Z"/><path fill="#98CEE9" d="M1062 145h2l-2 5-5 1 5-6Z"/><path fill="#9BCAE7" d="M1062 137h8l1 3c-7-1-7-1-9-3Z"/><path fill="#9AD5FC" d="m1028 118 2 1 1 6-4-1v-5l1-1Z"/><path fill="#2B343B" d="M1285 53h3l2 6-1 2-4-8Z"/><path fill="#3B5468" d="m1243 54 5 1-5 5h-1v-5l1-1Z"/><path fill="#474D52" d="M1296 510c2 3 3 4 3 7l-2 2-2-7 1-2Z"/><path fill="#3A3A3A" d="M1401 505c2 3 2 4 2 8l-3-1 1-7Zm2 2 2 1Z"/><path fill="#D2CCBF" d="M1427 471c4 5 4 5 4 8l-4-2v-6Z"/><path fill="#82A6BF" d="M1069 428c4 5 4 5 5 9h-2c-2-3-3-5-3-9Z"/><path fill="#9BB1BE" d="M1373 394h4v2l5 1-2 3-3-2-2-2-2-1v-1Z"/><path fill="#8BB7D4" d="m1187 321 11 1v1l-10 1-1-3Z"/><path fill="#707479" d="m1432 246 2 1 3-1c-2 5-2 5-4 6v-2h-2l1-4Z"/><path fill="#393D43" d="m1228 237 1 4-4 6 1-8h2v-2Z"/><path fill="#505960" d="m1191 215 2 1-1 4-5 1 4-6Z"/><path fill="#3E4149" d="M1422 194h8l2 2-7 1v-2l-3-1Z"/><path fill="#323237" d="M1439 185h2l1 5h-5l2-5Z"/><path fill="#344F63" d="M1354 174h2c-1 7-1 7-3 9l1-9Z"/><path fill="#97C6DE" d="m1246 168 6 3-1 3-5-4v-2Z"/><path fill="#96C8E2" d="m1152 166-8 5v-3c3-2 4-2 8-2Z"/><path fill="#0062A3" d="M83 158h3l-1 5-4 2 2-7Z"/><path fill="#54565D" d="M1403 151h2l1 6-6-2 3-4Z"/><path fill="#292D37" d="M1393 148h6l-4 1v3h-5v-2h3v-2Z"/><path fill="#353F4C" d="M1346 117c3 3 4 4 4 8h-2l-1-4h-2l1-4Z"/><path fill="#A5D8F8" d="M1049 110h12l-3 1v2h-3v-2h-6v-1Z"/><path fill="#252A2E" d="m1326 102 7 3-3 1-1 2-2-1-1-5Z"/><path fill="#A2CCEA" d="m1314 105 8 4-8-1-1-2 1-1Z"/><path fill="#202224" d="m1311 95 9 3v1l-6 1v-2h-2l-1-3Z"/><path fill="#212427" d="m1303 92 8 2c-3 2-4 2-8 2v-4Z"/><path fill="#415766" d="M1285 71h1l1 8-2 1-2-4 2-5Z"/><path fill="#485768" d="M1220 529h6l-4 2v2h-5v-2h3v-2Z"/><path fill="#454E4D" d="m1275 524 4 3 1 2-2 2v-2h-2l-1-5Z"/><path fill="#535B6B" d="m1306 526 3 1v5l-3-1v-3l-2-1 2-1Z"/><path fill="#394352" d="M1156 516h5v2l5-1-2 2-7-1-1-2Z"/><path fill="#D1D5C5" d="m1269 509 4 4-1 4c-3-3-3-4-3-8Z"/><path fill="#89B1D0" d="M1159 509v2h-2v2l-6-2c3-2 4-2 8-2Z"/><path fill="#0A5282" d="m1395 493 3 1-1 3h-6l4-4Z"/><path fill="#314C5C" d="m1412 468 2 3-2 4-3-3 3-4Z"/><path fill="#0F7FC9" d="M145 442h1v8l-3-1 2-7Z"/><path fill="#BDD4E5" d="m1419 377 2 1-2 7-3-2 1-4h2v-2Z"/><path fill="#9FD8F2" d="m1261 300 4 1-2 3h-5l3-4Z"/><path fill="#CEC4C6" d="m1354 289 3 1c-2 3-4 4-8 4l-1-2h5l1-3Z"/><path fill="#3A4F63" d="M1133 285h2v2h2l-1 4-4-4 1-2Z"/><path fill="#97C7DF" d="m1308 268 2 2-6 5-1-4h4l1-3Z"/><path fill="#DFE3EB" d="M1133 271v8l-4-5 4-3Z"/><path fill="#ADB4BB" d="m1419 265 2 1-2 3h-3v2l-4-1h3l1-3 3-2Z"/><path fill="#CEC5CA" d="M1321 269c3 0 5 1 7 3l1 2-6-1-2-4Z"/><path fill="#324556" d="m1314 268 3 3v1h-7l4-4Z"/><path fill="#3D607A" d="m1116 260 4 3v6l-1-4h-2l-1-5Z"/><path fill="#E2E6E7" d="m1223 249 2 3-4 2-3-2 5-3Z"/><path fill="#DBE0E4" d="m1437 213 2 3-5 5-3-1 2-2 4-5Z"/><path fill="#C7CBCD" d="M1212 209h2l-1 4-4 2v2l-2-1 3-3 2-4Z"/><path fill="#D9DCE3" d="m1426 198 3 1-1 1c-3 3-3 5-3 8h-1v-8l2-2Z"/><path fill="#E1E1E4" d="M1154 171v3l-4 3-3-2 7-4Z"/><path fill="#CCCAD3" d="m1369 159 2 1-3 4-1 1-2 2h-2c1-3 3-6 6-8Z"/><path fill="#8EC1E5" d="m1029 146 1 2-2 5-4-4 5-3Z"/><path fill="#92C6DA" d="m1056 147-2 5 3-1v2h-4v-3l-2-1 5-2Z"/><path fill="#30475C" d="m1356 130 1 5-4-1-1-3 4-1Z"/><path fill="#57646F" d="m1094 125 5 1-3 3-5-1 3-3Z"/><path fill="#3E4248" d="m1330 106 5 1v3l-5-1v-3Z"/><path fill="#373E44" d="M1174 86h7v3l-5 1 1-3-3-1Z"/><path fill="#4A4E53" d="m1197 83-1 3-7-1c3-2 4-2 8-2Z"/><path fill="#9FCEED" d="m1268 77 7 2v1h-9l2-3Z"/></svg>