<svg xmlns="http://www.w3.org/2000/svg" width="1536" height="602"><path fill="#EC717B" d="m1124 58 21 11a584 584 0 0 0 28 16c48 27 48 27 55 34v12a1962 1962 0 0 1 0 31h4a7814 7814 0 0 1 21 0 384 384 0 0 1 64 4c6 1 10-2 15-5l3-1a843 843 0 0 0 47-28l23-13 3-2 3-2c5-2 10-2 16 0a144 144 0 0 1 18 11l20 11a198 198 0 0 1 22 14 682 682 0 0 1 27 15l3 2 2 1 3 2 5 4v7l1 3a839 839 0 0 1 0 64 1405 1405 0 0 0 1 33c0 13 0 13-2 17l-6 4-3 2-3 2-3 2-3 1-4 2-10 5v4a171 171 0 0 1-52 149l-2 2c-6 6-12 11-19 15l-14 7-10 5-2 1-21 8-4 1-15 4-11 5-4 2-2 2-12 6a1514 1514 0 0 0-50 29l-21 13-5 3c-9 5-18 5-28 5h-9c-12 0-21-2-31-8l-9-5a1381 1381 0 0 1-19-11v-2l-3-1-8-4-4-2-3-2-3-1a4267 4267 0 0 1-15-9l-2-1a10524 10524 0 0 0-12-7h-9a16010 16010 0 0 0-21 0h-13a14021 14021 0 0 0-169 0h-4a781890 781890 0 0 1-174-1h-3a733543 733543 0 0 1-438 0 335 335 0 0 1-47-3l-3-1h-9l3 1a2873 2873 0 0 1 19 10l3 2c3 2 5 4 6 7v7c-3 3-5 5-9 6-5 0-9-2-13-5l-3-1a1226 1226 0 0 1-14-8l-3-1a906 906 0 0 0-15-8c-11-8-23-6-36-6-25 0-49-8-70-22l-3-2c-7-5-7-5-7-8 0-4 1-7 3-10l7-1h3l2-1h9l-3-1c-24-5-44-15-58-36l-4-8 2-5 1-2c2-2 3-3 6-3h7a125 125 0 0 1 8 0c-17-6-33-16-41-33-3-6-4-13-3-20 2-3 3-3 6-5 7-1 14 2 20 5l3 2 1-2-3-1c-12-4-23-16-29-28-5-12-8-27-3-39 3-3 5-4 10-4 5 1 9 4 13 7l2 1 8 9 2 1c-1-4-3-6-6-9a62 62 0 0 1-20-42c0-9 2-17 7-24 4-2 7-2 11-2 9 4 16 14 20 22v-7l-2-3c-9-14-14-29-10-46 2-8 6-17 13-21l9 1c9 7 12 16 14 27 4-5 4-5 5-10l-2-7c-3-14-3-28 3-42 5-7 12-14 20-18 3 0 5 0 8 2l3 4 2 13 1-2c7-10 16-15 28-18l3-1 9 1c3 2 4 3 5 6 0 11-5 21-11 29h9l6 3c5 2 11 0 16-1l6-2h3l23-4 2-1a2635 2635 0 0 1 20-2h2c17-2 35-2 52-2h12a22046 22046 0 0 1 281 0h112a5083850 5083850 0 0 0 315 0 1579796588 1579796588 0 0 0 0-32l-1-3c0-5 1-6 3-10l7-5 2-1 2-1 3-2 30-17 40-24 3-1a2999 2999 0 0 0 6-4l2-1c6-3 10-4 16-3Z"/><path fill="#EB5441" d="m1124 58 21 11a584 584 0 0 0 28 16c48 27 48 27 55 34v12a1962 1962 0 0 1 0 31h4a7814 7814 0 0 1 21 0 384 384 0 0 1 64 4c6 1 10-2 15-5l3-1a843 843 0 0 0 47-28l23-13 3-2 3-2c5-2 10-2 16 0a144 144 0 0 1 18 11l20 11a198 198 0 0 1 22 14 682 682 0 0 1 27 15l3 2 2 1 3 2 5 4v7l1 3a839 839 0 0 1 0 64 1405 1405 0 0 0 1 33c0 13 0 13-2 17l-6 4-3 2-3 2-3 2-3 1-4 2-10 5v4a171 171 0 0 1-52 149l-2 2c-6 6-12 11-19 15l-14 7-10 5-2 1-21 8-4 1-15 4-11 5-4 2-2 2-12 6a1514 1514 0 0 0-50 29l-21 13-5 3c-9 5-18 5-28 5h-9c-12 0-21-2-31-8l-9-5a1381 1381 0 0 1-19-11v-2l-3-1-8-4-4-2-3-2-7-3-3-2a741 741 0 0 0-37-19h-7a3605 3605 0 0 1-16 0h-13a13653 13653 0 0 0-167 0h-4a1000788 1000788 0 0 1-379-1H267v-2h-3a365 365 0 0 1-75-9v-3c2-14 3-29-3-42l-2-6 3 1 5 1 2 1 15 4v2h3a11712 11712 0 0 1 7 1h2l2 1 6 1a86 86 0 0 0 19 3 1700 1700 0 0 1 35 3v2l740 1v-2l-2-1c-4-1-8-4-10-8v-24a23204 23204 0 0 0 0-125v-2a735345 735345 0 0 0 0-109H804a1075312 1075312 0 0 0-98 0h-3a245187 245187 0 0 1-350 1c-66-1-66-1-132 9h-6v2l-10 1h-6v2l-10 2-12 5-8 2-1 3-4 2c-3 0-5 1-8 3l-1 3-4 3a193 193 0 0 0-20 14l-9 10c-1 2-3 4-6 5v-2l1-4v-3c0-3 0-3-2-5-3-3-5-2-9-2h-7c3-3 6-4 10-6 11-5 23-13 27-25l1-7c-1-3-1-3-4-5-9-2-18 0-26 4l-7 2c1-4 3-4 6-6l9-2c20-4 43-10 56-27l1-2c2-3 4-3 7-4h6v-2h2l8-1 3-1 14-2c39-7 80-5 120-5a13305 13305 0 0 0 126 0h4a532576 532576 0 0 0 233 0h4a1662713 1662713 0 0 0 312 0v-2a2035 2035 0 0 1 0-35l-1-3c0-7 0-7 3-11l3-2 2-1 2-2 2-1 2-1 3-2 30-17 40-24 3-1a2999 2999 0 0 0 6-4l2-1c6-3 10-4 16-3Z"/><path fill="#FEFEFE" d="m1028 138 10 5 3 2 4 2 3 1a1006 1006 0 0 1 34 20l2 1a5947 5947 0 0 0 13 7l3 2 3 2 2 1c6 3 6 3 7 6v19a2150 2150 0 0 0 0 78v32a15416 15416 0 0 0 0 86l-1 3 3 8 7 5 2 1 3 2 7 3 3 2a2216 2216 0 0 1 47 27l28 16v96l-21-11-3-2-25-15a1592 1592 0 0 0-74-42l-2-1-12-7-38-22-2-1-6-4v-39a22926 22926 0 0 1 0-145v-3a1129289 1129289 0 0 0 0-135Z"/><path fill="#FEFDFD" d="m184 456 3 1 5 1 2 1 15 4v2h3l5 1h4a7709736732 7709736732 0 0 1 20 4h2a1468 1468 0 0 0 40 4v2h214a340169 340169 0 0 1 102-1h3a77902 77902 0 0 0 233 0h4a17112 17112 0 0 0 159 0c16 0 29 0 42 10l9 5 4 2 20 12 16 10v1a773271 773271 0 0 1-350 0h-4a317819 317819 0 0 0-258 0h-4a69686 69686 0 0 0-139 0c-115 1-115 1-144-9v-3a1035 1035 0 0 0 0-14c1-10-1-18-4-27l-2-6ZM293 171h12a21928 21928 0 0 1 150 0h3a1613102 1613102 0 0 0 235 0h4a5056650 5056650 0 0 0 101 0h213v35H804a1075321 1075321 0 0 0-98 0h-3a245187 245187 0 0 1-225 0h-3a53742 53742 0 0 1-122 1c-66-1-66-1-132 9h-6v2l-10 1h-6v2l-10 2-12 5-8 2-1 3-4 2c-3 0-5 1-8 3l-1 3-4 3a193 193 0 0 0-20 14l-9 10c-1 2-3 4-6 5v-2l1-4v-3c0-3 0-3-2-5-3-3-5-2-9-2h-7c3-3 6-4 10-6 11-5 23-13 27-25l1-7c-1-3-1-3-4-5-9-2-18 0-26 4l-7 2c1-4 3-4 6-6l9-2c18-3 42-9 53-24 7-8 21-8 31-10h2a450 450 0 0 1 51-6l41-1Z"/><path fill="#FEFCFC" d="M157 139c2 2 2 2 2 5l-3 12v2c-4 10-11 15-20 20l-3 1-6 3 2-1c11-5 24-9 37-5l4 4c0 4-1 5-3 7-15 16-40 22-61 24h-5l-1 2-5 10-1 2-2 4 2-1c9-7 19-12 32-12h7c2 3 2 4 2 8-5 13-17 20-28 26-25 12-25 12-33 12a4047 4047 0 0 0-2 11v2l-1 2v5l2-2c10-10 21-21 35-21 5 0 5 0 7 2-1 16-12 27-23 38-8 7-17 13-27 18l1 25 1-2c3-7 7-12 12-18l2-2c5-6 13-10 21-12l5 1c2 3 1 6 1 9v3c0 17-9 32-22 44-10 9-10 9-13 9l1 2 3 7 1 2 1 3 1 2 1 4h2v-2c0-13 4-25 13-34 5-5 5-5 9-5h2a1875 1875 0 0 1 4 9c6 11 5 24 1 35-2 9-7 16-11 24l-3 6 13 17v-15c0-9 2-16 8-23 3-2 5-4 9-5 6 2 9 6 12 11 9 17 5 34-1 51l-2 6 8 8 3 2 2 2 2 2 5 4-1-2v-3l-1-2c-3-10-4-22 1-32l5-6c7 0 11 5 16 10 9 11 11 22 11 35v3c0 7 0 13-2 19l3 1 11 5 4 3 3 1 16 9a7371 7371 0 0 1 10 6l3 1 7 4c0 4 0 5-2 8-3 3-4 2-8 2l-8-4a2761 2761 0 0 0-8-4l-18-10a5229 5229 0 0 1-16-8c-4-3-8-4-13-3h-10c-10 0-20 0-30-2h-2c-20-5-37-14-53-27l1-6c13-4 29-1 41 2l3 1 18 5a3499 3499 0 0 0-8-7l-3-3-2-2c-4-3-6-2-10-2-25-1-49-9-67-26-5-6-12-13-12-21l3-3h10l11 2 3 1c9 3 17 7 24 11l7 3c-6-12-6-12-17-19l-12-3c-17-3-34-14-44-28-4-7-7-15-6-23 2-2 3-3 6-3 19 4 33 16 47 29a4860 4860 0 0 0-6-13l-1-2-1-3c-2-5-5-6-10-8-18-8-31-18-39-35-2-7-2-12-2-19v-2c0-5 0-9 2-13 5-1 8 0 12 2 12 8 20 20 27 32v-22l-4-2c-13-12-24-25-26-44-1-9 1-16 5-24 2-2 2-2 5-2 7 1 13 8 17 14l4 7 1 2 3 8c2-6 5-15 2-21l-2-3c-9-11-12-27-11-40 2-8 6-16 12-22 3 0 5 0 8 3 8 9 10 20 12 32l6-8 1-2c3-4 4-6 4-11l-1-3-1-3-1-3c-2-12-3-26 3-37 5-6 11-13 18-16h5c2 2 2 2 2 5v7a1294 1294 0 0 1 0 25c3-3 4-6 5-10 2-10 6-16 14-22 8-5 17-7 26-7Z"/><path fill="#931211" d="m159 137 4 6c-1 10-4 21-11 28h2a483322395 483322395 0 0 0 13 3c5 2 11 0 16-1l6-2h3l23-4 2-1a2635 2635 0 0 1 20-2h2c17-2 35-2 52-2h12a22046 22046 0 0 1 281 0h112a5083850 5083850 0 0 0 315 0v6H797a1154666 1154666 0 0 0-102 0h-3a263246 263246 0 0 1-363 1c-61-1-61-1-122 6l-22 2v2h-3c-6 1-6 1-11 6l-1 3c-12 16-37 21-55 25l-4 1c-3 0-5 1-7 3h-3l1 2 2-1 4-1 3-2c7-3 14-3 22-2 3 2 3 3 5 6 0 8-4 14-9 20-14 13-34 20-52 26l-1 8 2-2c9-8 9-8 15-11l2 1-10 9-14 13v-12l1-2c0-3 1-6 4-8l4-2 3-1h3c17-6 37-14 46-30l2-9-1-2c-16-1-27 4-40 12l-2 1 1-2 2-6c2-5 3-8 7-11l20-4c17-2 35-9 47-22v-7c-11-4-22-2-33 2l-3 1-6 2 7-5c13-6 19-12 24-27l1-10-4-1c-11 0-20 4-28 11-6 6-7 13-9 21-1 4-3 5-6 8v-3a5969 5969 0 0 0 0-26v-8l-1-1c-7 0-12 4-17 9-9 10-10 21-9 34l3 13c1 5 1 8-1 12l-1 2-2 2-1 3-2 2-4 6h-1v-2a851 851 0 0 0-2-11c-2-8-4-15-10-20l-5-2c-6 2-8 8-10 13-5 12-3 24 1 36 2 5 5 11 9 15 2 3 1 7 0 10v3l-2 11-4-9c-4-9-10-20-20-24h-5l-2 4-1 2c-5 10-4 22 0 33 4 9 10 17 17 24l2 2 7 6 1 23-7-9c-7-11-15-22-28-26l-5 1-1 14v2c0 13 5 25 14 35 7 6 14 11 23 14 8 3 12 6 16 14a148 148 0 0 1 5 11l1 3-1 2-2-2c-12-11-28-25-44-27-4 0-4 0-6 2-1 11 4 20 10 29 11 12 27 18 43 23h2l4 1c5 1 8 2 11 6a189 189 0 0 1 5 8l5 8-11-5c-8-5-16-8-25-11l-3-1-12-1h-8c-1 7 3 11 7 17l2 2a80 80 0 0 0 48 26l15 2c8 0 13 0 19 6a272 272 0 0 1 9 8l2 2h-7l-3-1-6-2c-12-4-22-5-35-5H76v6l6 5 2 2c20 13 42 22 66 21 21-2 36 2 54 13a196 196 0 0 0 20 11l6 3c3 2 5 3 9 2l3-3 1-6-2-1-15-7-3-2-26-14-2-1-3-2-6-3v-2c2-19 3-38-9-54-3-4-7-8-12-10l-5 1c-7 8-7 17-6 27a155 155 0 0 0 4 18l-15-13-2-2-5-5 1-2c6-17 11-35 3-53l-6-8-2-2-4-2c-5 1-7 3-10 7-5 8-6 15-6 24v12l-10-12-2-2-3-4 4-8c9-16 17-33 12-51l-5-11-1-4c-9 2-13 8-17 15a45 45 0 0 0-6 21l-1 5h-2l-4-9-1-2-1-3-1-2-1-4 6-4c14-11 25-25 28-43v-16l-6-2c-18 6-26 19-35 34h-1l-1-8-1-8 1-10c4-4 10-7 15-10 13-8 25-19 33-33l3-3c-2 14-14 25-24 33-8 5-15 11-23 15v6l1 5 1-2 10-11 2-1c6-6 13-11 22-11l7 5c3 14-2 28-9 40h3c5 2 6 4 9 8 5 12 6 26 2 38-3 10-7 19-13 27v5l4 6v-3c1-8 2-14 6-21l2-3c3-4 7-8 12-8h6v2l2 1c6 3 10 12 12 19 2 10 1 19-1 28v3l-4 10v8l4 4 2 2 2 1v-13c0-9 2-15 6-22l8-4c8 2 14 9 18 15 7 11 9 21 9 35v3c0 6 0 11-2 16l5 1 3 1 27 4h4l12 1 8 1 19 1v2h240a854913 854913 0 0 1 114 0h3a196218 196218 0 0 0 262 0h4a43146 43146 0 0 0 196-1c7 0 13 1 18 6v1H861a4388064 4388064 0 0 1-115 0h-4a1005706 1005706 0 0 0-265 0h-4a220993 220993 0 0 0-199 0 333 333 0 0 1-47-3l-3-1h-9l3 1a2873 2873 0 0 1 19 10l3 2c3 2 5 4 6 7v7c-3 3-5 5-9 6-5 0-9-2-13-5l-3-1a1226 1226 0 0 1-14-8l-3-1a906 906 0 0 0-15-8c-11-8-23-6-36-6a125 125 0 0 1-73-24c-7-5-7-5-7-8 0-4 1-7 3-10l7-1h3l2-1h9l-3-1c-24-5-44-15-58-36l-4-8 2-5 1-2c2-2 3-3 6-3h7l11 1-3-1c-17-6-33-16-41-33-3-6-4-13-3-20 2-3 3-3 6-5 7-1 14 2 20 5l3 2 1-2-3-1c-12-4-23-16-29-28-5-12-8-27-3-39 3-3 5-4 10-4 5 1 9 4 13 7l2 1 8 9 2 1c-1-4-3-6-6-9a62 62 0 0 1-20-42c0-9 2-17 7-24 4-2 7-2 11-2 9 4 16 14 20 22v-7l-2-3c-9-14-14-29-10-46 2-8 6-17 13-21l9 1c9 7 12 16 14 27 4-5 4-5 5-10l-2-7c-3-14-3-28 3-42 5-7 12-14 20-18 3 0 5 0 8 2l3 4 2 13 1-2c8-11 19-16 32-19 4 0 6 0 9 2Z"/><path fill="#FEFEFE" d="M1410 366v95l-27 15-12 7-19 11a2409 2409 0 0 0-80 46 954 954 0 0 1-41 24l-4 1v-96l27-15 18-11a1006 1006 0 0 1 43-24 1378 1378 0 0 1 83-48l7-3 5-2ZM1323 305a163 163 0 0 1 20 11 2837 2837 0 0 0 58 34v2l-2 1a1715 1715 0 0 0-84 48 840 840 0 0 1-44 25 1304 1304 0 0 1-41 24l-2 1-5 3c-4 1-5 0-9-1l-6-3-3-2-3-2a14944 14944 0 0 0-53-30l-2-1-10-6 9-7 3-2 4-2 5-3a3252 3252 0 0 1 68-39 3418 3418 0 0 1 75-43l3-2 6-3c8-5 8-5 13-3ZM1211 138a13393 13393 0 0 1 2 191c0 15 0 15-3 19l-12 6a233 233 0 0 0-12 7l-4 2a2218 2218 0 0 1-47 27l-7 3a10203 10203 0 0 1-2-191c0-12 0-12 2-17 4-4 9-7 15-9l8-5a7242 7242 0 0 1 38-22l22-11Z"/><path fill="#E76C76" d="m1227 169 72 1v2h2l13 1-1 2-1 7v35a2164 2164 0 0 0 0 51c1 18 1 18-2 23l-12 6-4 2-3 2-3 2-3 2a11169 11169 0 0 0-41 23l-3 2-5 3-2 1-2 1-5 1V169Z"/><path fill="#FEFEFD" d="m1420 133 3 1a862568928 862568928 0 0 0 8 4l3 2 4 2a1745 1745 0 0 1 63 37l-10 7-3 2a28742 28742 0 0 1-15 9l-15 8a4353 4353 0 0 1-28 16l-3 2-4 3-5 1-8-4-3-1-3-2-4-2a2444 2444 0 0 1-57-34l-4-1-3-4a3449 3449 0 0 1 74-43l3-2 3-1h4ZM1122 76l3 2a1234 1234 0 0 0 6 4l10 6a1030 1030 0 0 1 41 23l3 1 6 4 2 1 3 2 6 5a3777 3777 0 0 1-45 26l-2 1a2261 2261 0 0 0-27 16l-3 2-7 2-5-2-2-2-3-2-7-4-2-1-17-10-9-5-2-1a5039 5039 0 0 1-23-13l-3-2-3-2-5-3v-2l2-1a2073 2073 0 0 0 61-35l3-2a958 958 0 0 1 19-8Z"/><path fill="#FEFDFD" d="m1327 195 13 5 4 3 3 2 12 7 2 1a10782 10782 0 0 0 30 17l3 2 2 1 5 2 10 7a1141 1141 0 0 0 1 43v17l-1 23v3l-1 8-10-5-2-1-3-2a1021954337 1021954337 0 0 0-56-32l-3-2-3-2-6-3a81 81 0 0 1 0-12 1298 1298 0 0 1 0-32v-50Z"/><path fill="#FEFEFE" d="M1510 194a1484 1484 0 0 1 2 53c2 37 2 37-4 45-6 5-12 8-19 10l-11 5a7655 7655 0 0 1-27 16l-3 2-6 4-3 1-2 2-10 4a4000 4000 0 0 1-1-76c0-16 0-16 3-21l7-3 3-2 2-1 3-2 3-1 6-4 3-1a1105 1105 0 0 0 51-30l3-1Z"/><path fill="#FEFDFC" d="M1487 321a173 173 0 0 1-7 76l-1 5h-2v2c-1 7-4 12-7 17l-3 5-1 2-2 4-3 3c-3 1-3 3-4 6-3 6-8 11-13 15l-5 5c-7 7-14 14-23 17l-6 5a331034553 331034553 0 0 1-17 10l-3 1c-7 3-7 3-11 2l2-1 3-2 3-2a8131 8131 0 0 0 31-18l3-1 1-1 4-4v-9a861 861 0 0 0 0-50c0-10 2-18 6-28l3-12v-2l1-9c0-4 1-7 4-10l9-5 11-6a1644 1644 0 0 1 24-14l3-1Z"/><path fill="#190600" d="M291 162h12a22046 22046 0 0 1 281 0h112a5083850 5083850 0 0 0 102 0h213v6H797a1154675 1154675 0 0 0-102 0h-3a263246 263246 0 0 1-234 0h-3a57697 57697 0 0 1-126 1c-61-1-61-1-122 6l-22 2v2c-5 2-8 2-13 2l-2-5 15-4 2-1a1642 1642 0 0 1 28-4l2-1a2635 2635 0 0 1 20-2h2c17-2 35-2 52-2Z"/><path fill="#FEFDFD" d="M419 320h3l15 1h25a6180 6180 0 0 0 64-1h3c7 0 11 2 17 6a115 115 0 0 1-90 91l-5-5-2-3-4-6 2-1c8-1 14-3 21-6l3-1a88 88 0 0 0 53-55v-2l1-2h-4a43617 43617 0 0 1-91 1h-8l-3-1a210 210 0 0 1 0-16ZM241 321a11039 11039 0 0 1 106-1h3c7 0 12 2 18 6-5 25-18 51-39 67l-2 2c-12 9-26 15-40 20l-3 1h-7l-5-5-2-3-3-5h2c19-5 41-13 55-28l3-1 1-2 4-6c6-7 10-16 13-25l1-3 1-2h-4a43617 43617 0 0 1-91 1h-8l-3-1v-15Z"/><path fill="#0F0300" d="M204 514a853 853 0 0 1 19 2c21 4 43 3 65 3h13a14204 14204 0 0 0 227 0h94a367982 367982 0 0 0 266 0h3a51215 51215 0 0 0 203 0h3c4 1 5 2 7 5H861a4388064 4388064 0 0 1-115 0h-4a1005706 1005706 0 0 0-265 0h-4a220993 220993 0 0 0-199 0 352 352 0 0 1-67-6l-2-2-1-1v-1Z"/><path fill="#FEFCFC" d="m648 304 14 10 1 1 5 5 2 2 8 9 12 12a218 218 0 0 1 19 20 155 155 0 0 1 14 15c4 4 9 9 12 15l-12 12a4876 4876 0 0 0-13-13l-8-9a1562 1562 0 0 1-37-42l-7-7-4-5c-3-3-5-6-10-6-4 0-5 1-7 4l-3 3a667 667 0 0 0-17 23l-20 25c-4-2-7-4-10-8l-1-1-4-4 9-10 11-11 3-3 13-16 2-2 4-6c13-15 13-15 24-13Z"/><path fill="#EDABB0" d="M322 206h11a10092 10092 0 0 1 144 0h3a745554 745554 0 0 0 531 0v3h-2a1811515 1811515 0 0 0-305 0h-3a747910 747910 0 0 1-228 1h-3a164441 164441 0 0 1-167 0h-3a116 116 0 0 0-21 1 306 306 0 0 0-74 11l-2 1h-3l-3 1-8 2v2l-10 2v2l-3 1a12761 12761 0 0 0-17 9h-3l-3 1-1 2-4 4c-16 7-30 27-37 43l-2 6-2 8h-4c-10 1-20 7-26 14l-8 11c-2-3-3-6-2-10 0-3 2-4 5-6l2-1 4-2 2-2c14-8 27-20 34-35v-3l-2 1 1-4v-9c-7 0-13 0-19 3l-1-2-18 13 1-9 12-5 2-1a43 43 0 0 1 15-3c5 0 7 0 11 2 3 5 2 9 1 14 3-2 4-2 6-6 3-6 8-9 14-13l4-3 2-2a650 650 0 0 0 6-4l2-2 4-1v-2c2-3 5-5 8-6l5-1 1-1c3-3 5-3 9-5l7-3a100 100 0 0 1 7-2h7v-2l16-1v-2c11-3 23-5 34-6l4-1c23-3 46-3 69-3Z"/><path fill="#FEFBFB" d="M841 282h17l1 107c18-10 34-22 46-39 4 1 5 3 7 6l2 3 1 4-7 9-2 2a201 201 0 0 1-47 36c-7 4-7 4-11 3l-4-3-3-2c-2-3-1-4 0-8v-15a6057 6057 0 0 0 0-103Z"/><path fill="#FEFDFD" d="M1228 172a7452 7452 0 0 1 83 2v43l-1-2-5-1h-4v-3h-3l-24-1-15-2v-2h-31v-34Z"/><path fill="#FBB7BC" d="m184 456 3 1 5 1 2 1 15 4v2h3l5 1h4a7709736732 7709736732 0 0 1 20 4h2a1468 1468 0 0 0 40 4v2h2a633280 633280 0 0 1 314 0h4a261456 261456 0 0 0 234 0h3a57498 57498 0 0 0 175 0c6 0 10 0 15 3v1H817a1676293 1676293 0 0 1-100 0h-4a383086 383086 0 0 0-231 0h-4a84062 84062 0 0 0-158 0c-18 0-37 0-55-2v-2h-2a463 463 0 0 1-64-9v-2h-3l-8-2-1 2-3-9Z"/><path fill="#FEFCFC" d="M796 281h17l-1 52v3c-1 15-2 30-8 44l-1 2c-5 10-12 19-20 27l-2 2-3 3c-4 0-7-3-10-5l-3-2-2-1 7-9c18-16 25-39 26-62v-17a5758 5758 0 0 0 0-37Z"/><path fill="#AC1E1E" d="M114 271v6c-10 19-28 32-46 42v6l1 5 1-2 10-11 2-1c6-6 13-11 22-11l7 5c3 14-2 28-9 40h3c5 2 6 4 9 8 5 12 6 26 2 38-3 10-7 19-13 27v5l4 6v-3c1-8 2-14 6-21l2-3c3-4 7-8 12-8h6v2l2 1c6 3 10 12 12 19 2 10 1 19-1 28v3l-4 10v8l4 4 2 2 2 1v-13c0-9 2-15 6-22l8-4c8 2 14 9 18 15 7 11 9 22 9 35v9l-2 6h-2v-2c1-27 1-27-12-50-5-6-5-6-12-8-4 2-6 5-8 9-3 11-1 22 2 32l1 5a379 379 0 0 1-22-20l1-2c6-17 11-35 3-53l-6-8-2-2-4-2c-5 1-7 3-10 7-5 8-6 15-6 24v12l-10-12-2-2-3-4 4-8c9-16 17-33 12-51l-5-11-1-4c-9 2-13 8-17 15a45 45 0 0 0-6 21l-1 5h-2l-4-9-1-2-1-3-1-2-1-4 6-4c14-11 25-25 28-43v-16l-6-2c-18 6-26 19-35 34h-1l-1-8-1-8 1-10c4-4 10-7 15-10 14-8 25-19 33-33l2-3Z"/><path fill="#621A07" d="M198 511h11a47 47 0 0 0 11 2h7l10 1 10 1 20 1v2h829l1 2H854a1457680 1457680 0 0 1-115 0h-4a333008 333008 0 0 0-264 0h-4a73060 73060 0 0 0-233-2c-7 0-15-1-22-3h-6c-4 0-5-1-8-3v-1Z"/><path fill="#D7AA9F" d="m189 503 1 3h2l9 1 3 1h3a1314231428 1314231428 0 0 0 39 5l53 1h12a8811 8811 0 0 0 187 0 340107 340107 0 0 0 122 0h4a1702290 1702290 0 0 0 115 0h92a351494 351494 0 0 1 250 0h6c3 0 4 1 6 3H856a1044280 1044280 0 0 1-113 0h-4a237570 237570 0 0 0-258 0h-4a52015 52015 0 0 0-139 0c-69 1-69 1-103-2h-3c-35-2-35-2-43-8v-4Z"/><path fill="#6E2B19" d="M270 166h12a11662 11662 0 0 1 155 0h3a858856 858856 0 0 0 352 0h219v2H797a1154658 1154658 0 0 0-102 0h-3a263246 263246 0 0 1-234 0h-3a57697 57697 0 0 1-126 1c-61-1-61-1-122 6l-22 2v2c-4 2-8 2-12 2l2-1v-2l10-2v-2a147 147 0 0 1 27-3l9-1v-2c16-2 33-2 49-2Z"/><path fill="#D7ABA0" d="M280 169h12a11338 11338 0 0 1 153 0h3a836118 836118 0 0 0 240 0h3a2617274 2617274 0 0 0 104 0h216v2H796a1160861 1160861 0 0 0-102 0h-3a264667 264667 0 0 1-234 0h-3a58009 58009 0 0 1-127 1c-52 0-104 0-155 13l1-4 4-1 2-1h6v-2h2l8-1 3-1 16-2c22-4 44-4 66-4Z"/><path fill="#F9929A" d="M1023 475v2H811a3331554 3331554 0 0 1-100 0h-4a764517 764517 0 0 0-231 0h-3a168094 168094 0 0 0-170 0h-3l-17-1v-1h158a2628757 2628757 0 0 0 76 0h2a546258 546258 0 0 1 491-2h6l7 2Z"/><path fill="#931211" d="M34 431h2l1 4c5 15 20 26 34 33 6 3 13 4 19 6l4 1 15 2c8 0 13 0 19 6a272 272 0 0 1 9 8l2 2h-7l-3-1-6-2c-12-4-22-5-35-5H76v6l6 5 2 2c20 13 42 22 66 21 21-2 36 2 54 13a196 196 0 0 0 20 11l6 3c3 2 5 3 9 2l3-3 1-6-2-1-15-7-3-2-26-14-2-1-3-2-6-3v-6l3-1v5l12 3-2 2 3 1a945 945 0 0 1 35 19l3 1c3 2 5 4 6 7v7c-3 3-5 5-9 6-5 0-9-2-13-5l-3-1a1226 1226 0 0 1-14-8l-3-1a906 906 0 0 0-15-8c-11-8-23-6-36-6-25 0-49-8-70-22l-3-2c-7-5-7-5-7-8 0-4 1-7 3-10l7-1h3l2-1h9l-3-1c-24-5-44-15-58-36l-4-8 2-4Z"/><path fill="#120400" d="M1495 317a172 172 0 0 1-31 131c-6 8-13 16-21 22l-2 2c-6 6-12 11-19 15l-14 7-10 5-2 1-21 8-4 1c-6 2-12 4-18 4l9-7 4-1 9-3v-2a4053 4053 0 0 1 10-3l8-1 1-3 11-2v-2h2l2-1 1-3 7-2 3-3 1-2h2l1-2c1-3 3-3 6-4l2-2 1-2h4l1-2 5-5 6-7 2-2h3l1-2 3-4c3-3 4-5 5-9l3-5h2l5-11 3-6 3-11 6-20h2l1-8v-2a327 327 0 0 0 2-55l5-2Z"/><path fill="#FEFDFD" d="M435 282h99v16h-60l-14-1h-25v-15Z"/><path fill="#FEFEFE" d="M257 282h98v15h-98v-15Z"/><path fill="#961515" d="m8 307 2 1v12c0 14 5 26 14 36 7 6 14 11 23 14 8 3 12 6 16 14a148 148 0 0 1 5 11l1 3-1 2-2-2c-12-11-28-25-44-27-4 0-4 0-6 2-1 11 4 20 10 29 11 12 27 18 43 23h2l4 1c5 1 8 2 11 6a189 189 0 0 1 5 8l5 8-11-5c-8-5-16-8-25-11l-3-1-12-1h-8l-1 2-1-3 4-4h9l11 1-3-1c-17-6-33-16-41-33-3-6-4-13-3-20 2-3 3-3 6-5 7-1 14 2 20 5l3 2 1-2-3-1c-12-4-23-16-29-28-4-9-7-21-4-31l2-5Z"/><path fill="#EEB3B7" d="M286 207h7v1l-10 1v2h-4a321 321 0 0 0-70 10l-4 1-2 1h-3l-3 1-8 2v2l-10 2v2l-3 1-5 2-2 1-10 6h-3l-3 1-1 2-4 4c-16 7-30 27-37 43l-2 6-2 8h-4c-10 1-20 7-26 14l-8 11c-2-3-3-6-2-10 0-3 2-4 5-6l2-1 4-2 2-2c14-8 27-20 34-35v-3l-2 1 1-4v-9c-7 0-13 0-19 3l-1-2-18 13 1-9a1587 1587 0 0 1 27-9h2c5 0 7 0 11 2 3 5 2 9 1 14 3-2 4-2 6-6 3-6 8-9 14-13l4-3 2-2 4-3 2-1 2-2 4-1v-2c2-3 5-5 8-6l5-1 1-1c3-3 5-3 9-5l7-3 5-1 2-1h7v-2l16-1v-2a420 420 0 0 1 71-9Z"/><path fill="#AC2020" d="M159 149h1c1 9-3 15-8 22h2c13 1 13 1 16 3 2 3 3 5 3 8-2 8-10 13-17 17-14 8-29 13-45 15-3 0-5 1-7 3h-3l1 2 2-1 4-1 3-2c7-3 14-3 22-2 3 2 3 3 5 6 0 8-4 14-9 20-14 13-34 20-52 26l-1 8 2-2c9-8 9-8 15-11l2 1-10 9-14 13v-12l1-2c0-3 1-6 4-8l4-2 3-1h3c17-6 37-14 46-30l2-9-1-2c-16-1-27 4-40 12l-2 1 1-2 2-6c2-5 3-8 7-11l20-4c17-2 35-9 47-22v-7c-11-4-22-2-33 2l-3 1-6 2 7-5c13-6 19-12 24-26l2-3Z"/><path fill="#390C03" d="M204 514a853 853 0 0 1 19 2c21 4 43 3 65 3h13a14239 14239 0 0 0 191 0 364514 364514 0 0 0 248 1h4a3286906 3286906 0 0 1 356 0v1H848a4707475 4707475 0 0 1-119 0h-4a1079035 1079035 0 0 0-275 0h-3a237118 237118 0 0 0-227 0l-4-1c-4 0-8-2-12-5v-1Z"/><path fill="#7E3E2D" d="m219 513 48 3v2h829v1H856a1417777 1417777 0 0 1-113 0h-4a323629 323629 0 0 0-443 0c-26 0-51-1-77-4v-2Z"/><path fill="#080200" d="M1227 119h1v43h9a14066 14066 0 0 1 16 0 429 429 0 0 1 70 5c-5 4-7 4-13 4h-3l-21-1-59-2v-49Z"/><path fill="#EFB5B8" d="M1227 169a15371 15371 0 0 1 44 0h4l24 1v2h2l13 1-3 4v-3h-16l-22-1h-4l-10-1h-31v34h31v2h2l20 1 20 2v3l9 1-1 2h-3l-48-6-31-2v-40Z"/><path fill="#D09B8D" d="m1487 321 2 1v12h2c0 17-1 33-4 50h-2l-1 3c-6 26-6 26-11 35l-2 5-3 5h-2l-1 2c-6 16-6 16-13 19l-5 4-2 3h-2l-1 2c-2 3-4 6-8 7l-3 3-7 4-1 2-4 1-8 5-2-1 2-1 3-3c1-3 2-3 5-4l13-8 5-3 1-2c1-3 4-5 6-7l2-2 3-1 1-2 4-6 4-7 1-2h2l2-1 1-2 7-15c3-5 5-9 6-15h2v-3l3-12a181 181 0 0 0 5-55v-11Z"/><path fill="#FEFBFB" d="M713 284c5 4 8 9 11 14l1 2c3 4 5 8 6 13l-4 2-2 1-6 1-3-5-2-3-2-3-3-6-2-3-3-4-1-2 3-4 3-1 2-1 2-1ZM692 294l5 5 1 2a236330754 236330754 0 0 0 7 12l1 2 3 7-4 2-3 1h-6l-2-4-1-2-1-2-10-16-1-4 4-2 3-1h4Z"/><path fill="#AD2323" d="M114 271v6c-10 19-28 32-46 42v6l1 5 1-2 10-11 2-1c4-5 9-8 15-10 3 0 4 1 6 3h-2c-16 5-24 16-32 29l-3 5h-1l-1-8-1-8 1-10c4-4 10-7 15-10 14-8 25-19 33-33l2-3Z"/><path fill="#5A2011" d="m1494 317 1 2h-2v2c2 22 4 56-6 77h-2l-1 2v4l-1 3-3 7h-2v2c-2 7-5 14-11 20h-2l1-4h2l5-11 3-6 3-11 6-20h2l1-8v-2a327 327 0 0 0 2-55l4-2Z"/><path fill="#FAF1F1" d="m110 286-1 2-1 7c-2 8-2 8-5 11l-8 2c-12 5-19 13-26 23-2-3-3-6-2-10 0-3 2-4 5-6a11438933551 11438933551 0 0 1 8-5c9-5 17-12 24-20 4-4 4-4 6-4Z"/><path fill="#F1797B" d="M1438 349c-1 11-2 22-6 33-4 10-5 18-5 29a1585 1585 0 0 1 0 17v39h-1a19218 19218 0 0 1 1-112c3-3 7-6 11-6Z"/><path fill="#CE988B" d="m267 169-2 1v2h-3c-19 1-38 3-56 6h-3l-31 7 1-4 4-1 2-1h6v-2h2l8-1 3-1 16-2c18-3 35-4 53-4Z"/><path fill="#FAF1F2" d="m148 441 5 3-2 9v25l-1-1-2-2-2-2-6-4 3-12 3-12 2-4Z"/><path fill="#4B1103" d="m1464 436 1 4-3 5-1 2-5 5-2 3h-4v3c-1 4-2 6-5 8h-2v2h-2v2c-5 5-11 9-18 11l-5 4c-4 2-5 2-9 1l4-2 2-1 4-1 2-4h2l1-2c1-3 3-3 6-4l2-2 1-2h4l1-2 5-5 6-7 2-2h3l1-2 3-4c3-3 4-5 5-9l1-1Z"/><path fill="#0D0300" d="M1493 319h2c6 34-1 72-15 103l-2-3 2-3 4-13 1-5h2l5-32v-2l1-27a9639 9639 0 0 1 0-18Z"/><path fill="#9A1514" d="M189 502v5l12 3-2 2 3 1 13 7 3 2a997 997 0 0 1 23 11l3 5v2l-58-31v-6l3-1Z"/><path fill="#880D0D" d="m159 137 4 6-2 10c-2-2-3-2-3-5v-7l-4-1c-10 0-21 4-28 11l-5 7-1 2h-4l-1 3v-17h1l1 10 3-4c8-10 18-15 30-17 4 0 6 0 9 2Z"/><path fill="#9B1919" d="M159 149h1c1 9-3 15-8 22h2c11 1 11 1 16 3v4l-4-1c-11-2-20-1-31 3l-3 1-6 2 7-5c13-6 19-12 24-26l2-3Z"/><path fill="#D09F93" d="m1487 321 2 1v12h2c0 17-1 33-4 50h-2l-1 3-7 23h-1l1-8h2v-3l3-12a181 181 0 0 0 5-55v-11Z"/><path fill="#D3A296" d="M1227 169a12760 12760 0 0 1 44 0h4l24 1v2h2l13 1-3 4v-3h-2l-21-1-61-2v-2Z"/><path fill="#611E0D" d="M228 169a185516151 185516151 0 0 0 23 0v1h-3a438 438 0 0 0-63 7v2c-4 2-8 2-12 2l2-1v-2l10-2v-2a150 150 0 0 1 27-4h3l4-1h9Z"/><path fill="#AE2525" d="M105 256c5 0 7 0 11 2 3 4 2 6 1 11-2 3-2 3-5 4l1-4v-9c-7 0-13 0-19 3l-1-2-18 13 1-9a1587 1587 0 0 1 14-6l15-3Z"/><path fill="#AA1C1C" d="M114 271v6c-9 16-27 34-44 40 1-6 5-7 9-10 14-9 25-20 33-34l2-2Z"/><path fill="#6D3227" d="M1227 119h1v48h14a19589 19589 0 0 1 39 0c24 0 24 0 28 2v2l-23-1-59-2v-49Z"/><path fill="#FBEAE7" d="m1424 470 3 2-10 5-5 5-11 7-2 1-6 3-3 1c-7 3-7 3-11 2l2-1 43-25Z"/><path fill="#A51717" d="M110 140h4l1 6v3l1 2v9l3-1-1 7v2l-1 3v2c-1 3-4 5-6 7v-3a5852 5852 0 0 0 0-26v-2l-1-9Z"/><path fill="#AE2525" d="m82 367 2 1-2 3 3-2-3 12h2l-1 13h-2l-4-9-1-2-1-3-1-2-1-4 5-4 2-2 2-1Z"/><path fill="#E99097" d="M191 226h-2v2l-10 2v2l-3 1-5 2-2 1-10 6h-3l-3 1-1 2c-1 3-4 3-7 5-4 2-8 6-11 10l-6 4c7-18 36-29 52-36l2-1c3-2 6-3 9-1Z"/><path fill="#9B1D1D" d="M81 171h2v3c0 8 1 16 4 24v10l-6 4v-2l1-2 1-2-1-8c-2-6-2-11-2-17v-3l1-7Z"/><path fill="#100400" d="M1228 162h45v2h8v1h-53v-3Z"/><path fill="#4E1305" d="M1228 165a11715 11715 0 0 1 29 0l38 1v1l-23 1h-14l-10-1h-20v-2Z"/><path fill="#FBF5F5" d="m114 402 3 3-2 3c-5 8-6 18-7 27-6-6-6-6-7-10l4-7a1689 1689 0 0 0 6-12l3-4Z"/><path fill="#FBE4E2" d="M1435 368h1c1 9-2 16-5 24h-2l-1 72h-1a3190 3190 0 0 1-1-56c0-10 2-19 6-28l3-12Z"/><path fill="#6C200C" d="M1485 384h1c1 7-1 12-4 19l-2 9c-3 8-7 16-12 23l-3 1 1-4h2l5-11 3-6 3-11 6-20Z"/><path fill="#AA1D1C" d="m170 177 3 4c-3 9-9 14-17 18l-2 1c-4 3-8 4-12 5l1-4 8-4c7-3 14-7 18-14v-5l1-1Z"/><path fill="#B1614D" d="m1419 478 2 1c-3 4-6 5-11 7l-3 3h-2v2l-2 1h-3l-3 1-4 2c-4 4-10 4-15 5l-3 1h-3c3-3 6-4 10-5 9-2 16-6 23-10l3-2 9-5 2-1Z"/><path fill="#E37880" d="M283 211v1h-14v2a9910 9910 0 0 1-50 5c3-3 7-3 11-4h2a1251 1251 0 0 1 51-4Z"/><path fill="#1B0601" d="M204 514c7 0 15 1 22 3l15 1v3h-14c-9 0-16-1-23-6v-1Z"/><path fill="#EEB0B5" d="M293 207v1l-10 1v2h-4l-29 2 1-3 42-3Z"/><path fill="#D09E91" d="m189 503 1 3h2l30 5 11 1 4 2c-38-1-38-1-48-7v-4Z"/><path fill="#C89488" d="m1487 321 2 1v12h2l-2 38h-1v-3l-1-48Z"/><path fill="#F5D1D4" d="M187 223h6c-3 3-6 3-9 5l-21 9-8 3c1-3 2-4 5-6l6-1 3-2c3-3 5-3 9-5l9-3Z"/><path fill="#F6A1A8" d="M1437 349h1c-1 14-4 28-9 41h-1c0-6 0-11 2-16v-2a1032 1032 0 0 1 3-10h2v-6l1-3 1-4Z"/><path fill="#7F0D0D" d="m132 143 2 1-7 6-7 10h-4l-1 3v-17h1l1 10 1-2c9-11 9-11 14-11Z"/><path fill="#681A06" d="m1433 468 4 1c-1 3-3 5-6 7l-2 1-2 2-2 2c-10 6-10 6-14 6l-2-1 4-2 2-1 4-1 2-4h2l1-2c1-3 3-3 6-4l3-4Z"/><path fill="#5F1806" d="M1489 366h1v15l-3 17h-2a294768461 294768461 0 0 1-6 16c0-5 1-9 3-13 4-9 5-18 6-27l1-8Z"/><path fill="#521404" d="M265 166v2a321 321 0 0 1-44 1v-1c15-2 29-2 44-2Z"/><path fill="#FBC9CD" d="m186 459 17 5v2l4 1h5l2 1h5l4 3-9-1h-2c-5-1-9-1-13-3v-2h-3l-8-2-1 2-1-6Z"/><path fill="#AD2121" d="m114 394 2 1-7 18-1 2-3 5-4 1 6-14 4-9 3-4Z"/><path fill="#260901" d="M1483 404c1 4 1 5-1 9l-1 3-2 4v2l-4 8h-3l-1 2c-1 4-3 6-6 8v-4l4-3c4-6 7-12 9-19h2l3-10Z"/><path fill="#F4E2E2" d="m99 258-2 1c-8 4-15 9-21 15-1-4-1-6 1-10l9-4 3-1c7-2 7-2 10-1Z"/><path fill="#F2B0B5" d="m117 278 1 2-3 4c-4 7-6 14-8 22h-6l2-1c3-4 3-6 4-11l2-6h2l1-3c1-3 2-5 5-7Z"/><path fill="#E5BFB6" d="m1403 485 4 1-7 4-3 1c-13 7-13 7-18 5l8-5 2-1c5-3 8-5 13-4l1-1Z"/><path fill="#7B2D1A" d="M237 169a3051 3051 0 0 0 14 0v1a6104 6104 0 0 1-24 2l-4 1h-12l-2-2c9-2 18-2 28-2Z"/><path fill="#0A0200" d="m1449 460 4 1-10 9-2 2-8 7-3 3-2 1-3-1h2l1-2 5-6 3-2 5-2v-2h2v-2l5-4 1-2Z"/><path fill="#6B200C" d="m1464 436 1 4-3 5-1 2-5 5-2 3h-4l-1 5-6 2v-2l5-4 2-2 1-2h3l1-2 3-4c3-3 4-5 5-9l1-1Z"/><path fill="#F7D6D8" d="m155 241-2 1a255 255 0 0 0-22 16c1-5 4-7 7-9l2-2 7-3v-2c3-2 5-2 8-1Z"/><path fill="#7D2A15" d="M1391 498h-2v2l-9 2-3 1-3 1h-2l-3 1v2l-10 2a34 34 0 0 1 12-6l4-1v-2l6-2h10Z"/><path fill="#F4CBCE" d="M1228 206h31v2h12v1l-43-2v-1Z"/><path fill="#742714" d="M1285 167c19 0 19 0 24 2v2l-24-1v-3Z"/><path fill="#F1DCDB" d="M131 212v1h-2c-7 0-13 1-20 4l-9 3c1-4 3-4 6-6s6-2 10-3h2c5-1 8-1 13 1Z"/><path fill="#FBD5D8" d="M1435 368h1c1 9-2 16-5 24h-2l-2 4 3-13 5-15Z"/><path fill="#A81515" d="M122 213c9-1 9-1 13 1 3 3 3 5 3 9l-3 5h-2v-2l1-2v-3l-1-4-7-2h-5l1-2Z"/><path fill="#F3E1E0" d="M48 375c6 2 8 3 11 8l1 3-1 2a332 332 0 0 1-9-6c-2-2-2-2-2-5v-2Z"/><path fill="#210802" d="M1295 167h28c-5 4-7 4-14 4v-2l-14-1v-1Z"/><path fill="#471103" d="m1413 488-3 1-3 1-1 3c-4 4-9 4-15 4l2-1 1-3 11-2v-2c3-2 5-2 8-1Z"/><path fill="#BE7B6B" d="M185 177h10l-6 2v2l-17 4 1-4 4-1 2-1h6v-2Z"/><path fill="#750D0D" d="M83 158h3l-1 5v3l-3 4c-2 3-2 6-2 9v7h-1c-1-10 0-18 4-28Z"/><path fill="#A6523E" d="M1485 384h1c1 9-2 16-6 24h-2l7-24Z"/><path fill="#F0A9AE" d="M129 258h2l-1 2-2 5c-3 6-6 9-10 13 2-8 5-14 11-20Z"/><path fill="#F78A92" d="m184 456 3 1 5 1 2 1 15 4v2l-13-2c-4-2-7-3-11-3l-1-4Z"/><path fill="#7D2C18" d="M201 175v1l-16 1v2c-4 2-8 2-12 2l2-1v-2c9-3 17-3 26-3Z"/><path fill="#F0DCDA" d="M69 429c11 1 11 1 13 5l4 5-11-5-4-2-2-1v-2Z"/><path fill="#762816" d="m198 511 21 2v3h-10c-4-1-7-1-11-4v-1Z"/><path fill="#901313" d="M159 149h1c0 6 0 10-3 15h-4c3-11 3-11 6-15Z"/><path fill="#D5A69B" d="m1428 470-2 6-9 4-6 4-2-1 2-1 3-3c1-3 3-3 5-4 4-1 6-3 9-5Z"/><path fill="#DBB3A9" d="M1484 384c2 4-1 8-2 12l-1 3v2l-1 3-4 6 1-8h2v-3c2-12 2-12 5-15Z"/><path fill="#D1988D" d="m189 503 1 3h3l4 1h2l6 1 2 3c-13-1-13-1-18-4v-4Z"/><path fill="#FAD6D9" d="m1439 348 2 1-2 15h-2l-1 4c0-7 0-13 2-19l1-1Z"/><path fill="#B12D2D" d="m143 203-1 3-6 2h-3l-3 1-1-2 3-3 3-1 3-1 5 1Z"/><path fill="#280901" d="m1427 478 2 1-2 3h-2l-1 2-3 3h-3l-3 1h-2v-2l2-1 12-7Z"/><path fill="#88331E" d="m1425 474 4 1-1 1-2 1-2 2-3 4-4 2-2 1h-6l4-2 2-1 4-1 2-4h2l2-4Z"/><path fill="#890B0B" d="m25 242 2 1-2 6-2 3-3 4h-2l1-4 1-3c2-6 2-6 5-7Z"/><path fill="#2A0A01" d="M174 175h11c-3 3-6 3-10 3v2l-3 1-2-5 4-1Z"/><path fill="#800A0A" d="M244 538h1l1 9-6 5h-2l4-7 2-7Z"/><path fill="#2F0A01" d="m1459 448 1 2-3 5-1 3c-2 2-2 2-5 2h-2l1-5h2c3-1 3-3 5-6l2-1Z"/><path fill="#410903" d="m111 480 3 1 5 1v2h-6l-4-1-4-1h-7v-1l13-1Z"/><path fill="#DCB4AA" d="m1463 432 1 3-5 7-1 2-4 4-2-1 2-3 4-7 1-2 4-1v-2Z"/><path fill="#75301F" d="M1489 366h1l-1 24h-3l3-24Z"/><path fill="#F2DCDC" d="M84 369v5l-1 3-1 3-1 2h-2l-2-7 7-6Z"/><path fill="#EEA2A8" d="m145 247 2 1-2 2-16 14c0-4 1-5 4-8l6-5 2-1 4-3Z"/><path fill="#2E0A01" d="M213 169h8l-12 3h-8v-2l12-1Z"/><path fill="#EF99A0" d="M109 292h1c0 5-1 9-3 14h-6l2-1c3-4 4-8 6-13Z"/><path fill="#A85D4A" d="M1461 438v4c-1 4-4 7-7 10l-3-1 10-13Z"/><path fill="#C36350" d="m1319 171-7 6 1-3-14-2v-1l9-1h7l4 1Z"/><path fill="#C88F81" d="m237 171-2 1v2l-16-1v-1l18-1Z"/><path fill="#471003" d="m1442 466 1 2h-2v2l-5 4-3 2-2 2-2-1 4-4h2v-2l4-4 3-1Z"/><path fill="#F5D0D2" d="m114 402 3 3a259 259 0 0 1-4 6l-1 2h-3l1-4 1-3 3-4Z"/><path fill="#320A02" d="M204 514h6l4 1 7 2h-10l-1 2-6-4v-1Z"/><path fill="#EAC8C0" d="m1403 485 4 1c-4 3-7 3-12 4l-4 1v-2c4-3 6-3 11-3l1-1Z"/><path fill="#370C02" d="M1483 404c1 6 0 9-3 14l-4 4 2-8h2l3-10Z"/><path fill="#F0B6BB" d="M199 219h6l-2 1v2l-4 2h-8 2v-2l6-1v-2Z"/><path fill="#B02C2C" d="m122 214 5 1h4v1h-6l-4 1-8 1 1-4h8Z"/><path fill="#B36855" d="m1471 422 1 2-4 8h-2l-1 2-3 4c1-6 5-11 9-16Z"/><path fill="#EFB2B7" d="m251 211-2 3-14-1v-1l16-1Z"/><path fill="#320B03" d="m42 314 4 3-1 7-5-5 2-1v-4Z"/><path fill="#6C1C08" d="m1405 492-5 3-2 1h-7 2l1-3c4-2 7-2 11-1Z"/><path fill="#85341F" d="M1478 408h2c-1 7-3 11-7 16l-1-2 2-5 4-9Z"/><path fill="#170500" d="M1421 487c-5 3-8 4-14 4 4-3 9-6 14-4Z"/><path fill="#EA979E" d="M191 226h-2v2l-5 2h-9l6-3 3-1h7Z"/><path fill="#6C0606" d="m129 143 2 1-11 11c0-4 2-6 5-9l4-3Z"/><path fill="#80301C" d="m1451 452 2 1-2 2-1 3-4 3-3 1v-2l5-4 3-4Z"/><path fill="#F5A0A7" d="m148 438 7 4-1 6-1-2c-1-3-3-3-6-4l1-4Z"/><path fill="#501405" d="M1307 168c9 0 9 0 12 2-3 2-6 1-10 1v-2l-2-1Z"/><path fill="#D39A91" d="M111 214c-3 3-6 5-11 6 1-3 1-4 4-5l2-1h5Z"/><path fill="#CD9486" d="M173 181h10c-2 2-3 2-7 3l-2 1h-2l1-4Z"/><path fill="#551505" d="M1391 498h-2v2c-3 2-6 1-10 1 3-3 7-5 12-3Z"/><path fill="#F3DBD6" d="M1405 483h4v2l-11 2v-2c3-2 4-2 7-2Z"/><path fill="#F6D7D9" d="m121 270-2 6-4 1v-5l6-2Z"/><path fill="#E37880" d="M201 224h-2v2l-10 2v-2l4-2h8Z"/><path fill="#7F0B0B" d="m55 187 2 1-9 7c3-8 3-8 7-8Z"/><path fill="#F5DEDA" d="m1424 470 3 2-6 4-4-2 7-4Z"/><path fill="#070100" d="M1462 446h2c-1 5-4 7-8 10l6-10Z"/><path fill="#E2C0B8" d="m1417 476 2 1c-3 3-6 6-10 7l2-3h2l1-2 3-3Z"/><path fill="#0F0300" d="M211 517h10v2l-9 1-1-3Z"/><path fill="#C88C7D" d="m206 509 1 2-12-1v-1h11Z"/><path fill="#531709" d="M1371 505h-2v2l-10 2c7-6 7-6 12-4Z"/><path fill="#BC7463" d="M1485 384h1c0 5-1 8-3 12v-8l1-2 1-2Z"/><path fill="#451104" d="M1491 373v8l-1 3v2h-1v-12l2-1Z"/><path fill="#830909" d="m55 259 4 1-1 5-4 2 1-8Z"/><path fill="#F7D2D5" d="M129 258h2c-1 3-3 6-6 8l-1-2 5-6Z"/><path fill="#DFACA1" d="M1391 493c-3 3-5 3-8 4l-4-1c4-3 7-3 12-3Z"/><path fill="#240801" d="M1464 440h2l-1 6-5 2 4-8Z"/><path fill="#A71112" d="M130 399v2l-8 3 1-4 7-1Z"/><path fill="#7C2B16" d="m1442 462 1 4-6 2c1-3 2-4 5-6Z"/><path fill="#C58479" d="m48 375 4 2v5l-4-2v-5Z"/><path fill="#F8DCDE" d="M179 228h-2v2l-8 1c3-3 6-5 10-3Z"/><path fill="#AD2222" d="m134 227 1 4-6 3 5-7Z"/><path fill="#A24D38" d="m1433 468 4 1-6 5-2-1 4-5Z"/><path fill="#7E0909" d="m8 303 3 1-5 7 2-8Z"/><path fill="#870808" d="M83 158h3l-1 5-4 2 2-7Z"/><path fill="#C78B7C" d="m1477 408 1 4-3 4v-6h2v-2Z"/><path fill="#E88D92" d="M107 300v6h-6l4-4h2v-2Z"/></svg>