<svg xmlns="http://www.w3.org/2000/svg" width="1536" height="602"><path fill="#E5323E" d="M1331 58a5455 5455 0 0 1 42 4c5 6 5 15 5 23v5h2a198 198 0 0 1 82 21v-10l1-5 3 1 2-7c4 1 8 3 11 6l3 2 4 3 5 4 2 2 2 1 2 2 5 3-1 5h-2l-1 2c-1 4-3 4-6 6 1 4 4 5 8 8 7 4 7 4 8 7l4 2 13 10v2l2 1 6 4c0 5-3 8-5 12l-1 2c-3 4-4 6-9 7l-1 2c-4 0-5 0-9-2l-2-2-8-6-3-3-4-2-2-1-3-1-2-1c-31-12-60-7-90 4l-4 2-8 5-3 1-2 1 2-1 10-2 4-1 3-1 3-1 7 1c4 5 3 11 3 17h-2v2l3 1a58 58 0 0 1 14 8c10 6 19 13 27 23l7 7c4 3 6 6 8 11l3 4 5 8 7 12c7 12 10 25 12 38v2a176 176 0 0 1-29 142c-6 8-13 16-21 22l-2 2c-6 6-12 11-19 15l-14 7-10 5-2 1-21 8-3 1-25 6a113 113 0 0 0 10 23l1 2 1 6a14552 14552 0 0 1-31-1l-3-1h-12l-3-1-4-2-5-10v-2l-2-8-4 1c1 9 4 17 7 25a358 358 0 0 1 13 36v2l2 10h-264l-1-14v-8a2351 2351 0 0 1 0-14c0-29 0-29 2-35H825a3880447 3880447 0 0 1-361 0h-3a195380 195380 0 0 0-171 0 452 452 0 0 1-63-3l-3-1h-9l3 1a2873 2873 0 0 1 22 12c3 2 5 4 6 7v7c-3 3-5 5-9 6-5 0-9-2-13-5l-3-1a1226 1226 0 0 1-14-8l-3-1a906 906 0 0 0-15-8c-11-8-23-6-36-6-25 0-49-8-70-22l-3-2c-7-5-7-5-7-8 0-4 1-7 3-10l7-1h3l2-1h9l-3-1c-24-5-44-15-58-36l-4-8 2-5 1-2c2-2 3-3 6-3h7a125 125 0 0 1 8 0c-17-6-33-16-41-33-3-6-4-13-3-20 2-3 3-3 6-5 7-1 14 2 20 5l3 2 1-2-3-1c-12-4-23-16-29-28-5-12-8-27-3-39 3-3 5-4 10-4 5 1 9 4 13 7l2 1 8 9 2 1c-1-4-3-6-6-9a62 62 0 0 1-20-42c0-9 2-17 7-24 4-2 7-2 11-2 9 4 16 14 20 22v-7l-2-3c-9-14-14-29-10-46 2-8 6-17 13-21l9 1c9 7 12 16 14 27 4-5 4-5 5-10l-2-7c-3-14-3-28 3-42 5-7 12-14 20-18 3 0 5 0 8 2l3 4 2 13 1-2c7-10 16-15 28-18l3-1 9 1c3 2 4 3 5 6 0 11-5 21-11 29h9l6 3c5 2 11 0 16-1l6-2h3l23-4 2-1a2635 2635 0 0 1 20-2h2a340 340 0 0 1 56-2h14a30630 30630 0 0 1 235 0h97a5921515 5921515 0 0 1 489-1h3l5-1 4 1h10a5325 5325 0 0 0 48 0h3c3 0 4-1 6-3l18-16 4-3 10-7 1-1a933 933 0 0 1 9-6c16-10 16-10 21-10v-2c26-11 26-11 32-11v-2l12-3 4-1 3-1h3l8-2-1-4-4-24h3l-1-7Z"/><path fill="#CC0101" d="m1412 102 3 1c18 5 34 11 51 19v2l2 1c5 1 8 3 12 6l2 1a162 162 0 0 1 23 17l20 16-5 10-1 3 4-1v2l-2 1-4 3c-4 0-5 0-9-2l-2-2-8-6-3-3-4-2-2-1-3-1-2-1c-31-12-60-7-90 4l-4 2-8 5a518294514 518294514 0 0 1 7-1l4-1 3-1 3-1 7 1c4 5 3 11 3 17h-2v2l3 1a58 58 0 0 1 14 8c10 6 19 13 27 23l7 7c4 3 6 6 8 11l3 4 5 8 7 12c7 12 10 25 12 38v2a176 176 0 0 1-29 142c-6 8-13 16-21 22l-2 2c-6 6-12 11-19 15l-14 7-10 5-2 1-21 8-3 1-25 6a113 113 0 0 0 10 23l1 2 1 6a14552 14552 0 0 1-31-1l-3-1h-12l-3-1-4-2-5-10v-2l-2-8-4 1c1 9 4 17 7 25a358 358 0 0 1 12 34l1 2v2l2 10h-264v-9h1v8h261v-6h-4a254981 254981 0 0 1-105 0h-3a95736 95736 0 0 0-140 0h-2l-3-1v-16a3367 3367 0 0 1 0-17c0-41 0-41 3-54h2v-4a72 72 0 0 1 1-14 1403 1403 0 0 1 8-40v-3l4-12 1-5 3-10 5-18a300 300 0 0 1 15-42l9-23 1-2 12-27 6-12 1-3 3-6h2l1-4c2-7 6-13 10-19l1-2c4-8 9-17 15-24l8-14 16-23 1-2a125 125 0 0 1 19-22c7-8 15-15 23-21l3-2c6-6 13-10 20-14l3-2c4-3 8-5 13-6v-2c21-10 44-19 68-23l4-1c23-3 50-3 73 4Z"/><path fill="#E83B4A" d="M1371 184h3c6 4 9 11 10 17l1 3 10-4 6-2 2 2h3c4 1 4 2 7 5l2 1c3 0 4 2 6 4l9 7 8 7 3 2 6 7 2 2c5 5 8 9 10 15l4 2v2l2 1c4 2 5 4 6 8l2 1v2h2c3 4 5 9 6 14l4 9c3 9 4 18 5 27v3c2 25 4 55-7 79l-2 8h-2l-2 10h-2v3c-1 4-2 7-5 10l-1 2c-12 20-12 20-17 22l-3 3c-2 4-5 7-9 10h-3v2l-11 7-4 4-8 4-3 1v2h-2v2c-3 3-7 4-11 6l-3 2-8 2-17 4-7 2v2c-7 3-15 5-22 3l-2-3-4-4a75 75 0 0 0-10 0 592 592 0 0 0-28 2l1 3v2l1 7h-8a126 126 0 0 1-8-29v-3l-5-18a226 226 0 0 1-6-39c-2-12-3-24-3-37v-15a247 247 0 0 1 41-143l1-1 7-8 6-7 6-6 1-1 22-19 3-2c8-5 8-5 15-4Z"/><path fill="#FEFDFD" d="m1138 161 5 4-2 2-10 10-3 3-13 16 3 1c3 1 5 2 7 5l3 2v2H887a1453589 1453589 0 0 0-114 0h-3a331816 331816 0 0 1-263 0h-3a72771 72771 0 0 1-231 2l-3 1c-17 1-35 3-52 7l-13 1v2h-6v2l-10 2-12 5-8 2-1 3-4 2c-3 0-5 1-8 3l-1 3-4 3-20 16-2 2-2 5c-2 5-6 8-10 12l-7 12-2 3-2 6c-2 5-2 5-4 6l-2 1c-11 3-20 9-27 18l-5 6c-1-4-2-8-1-12l7-5 4-2 2-2 9-6 2-2 8-7 2-2h2l1-2 4-6c5-7 10-16 9-24l-4-4H99c3-3 6-4 10-6 11-5 23-13 27-25l1-7c-1-3-1-3-4-5-9-2-18 0-26 4l-7 2c1-4 3-4 6-6l9-2c18-3 42-9 53-24 7-8 21-8 31-10h2l48-6h4a395 395 0 0 1 44-1h13a30407 30407 0 0 1 325 0h4a152010 152010 0 0 1 273 0h3a28626 28626 0 0 1 203 0c8 0 8 0 14-3l5-6 1-1Z"/><path fill="#FEFCFC" d="M1171 207h3l-3 8-2 3-1 2-2 3a457 457 0 0 1-23 38l-9 18h-2l-1 3-4 9-1 3-2 4-1 3a509 509 0 0 1-15 32l-1 2a345 345 0 0 0-11 31c-5 11-9 23-12 36l-4 13-4 12-1 6a401 401 0 0 0-12 67h-2c-2 29-2 58-2 87l256 1v6h-261v-8h-2a8228 8228 0 0 1 0-24c0-28 0-28 2-41l1-4v-2H827a1279613 1279613 0 0 1-359 0h-3a63987 63987 0 0 0-134 0c-112 1-112 1-141-9v-3a1035 1035 0 0 0 0-14c1-9 0-16-3-25v-4l3 1c9 3 18 6 27 7l8 2 13 2 2 1a2959 2959 0 0 0 25 3v2h19l36 1h11a20086 20086 0 0 0 142 0h3a1478088 1478088 0 0 1 222 1h3a4632456 4632456 0 0 1 97 0h201l1-9v-2l1-3v-8h6l-1 28-1 4-2 13h4l19 1a3688170895 3688170895 0 0 0 22 4h2v-2c1-6 1-11 3-16l2-10h6v-3c5-38 5-38 10-45l1-4 1-3v-3l6-21v-2l6-17a606 606 0 0 0 16-44l5-12 11-24 4-8a15629 15629 0 0 1 6-12c12-25 26-49 42-72l2-3Z"/><path fill="#FEFCFC" d="m157 139 2 4c-1 11-5 21-13 29l-10 6-3 1a484 484 0 0 1-4 2c11-5 24-9 37-5l4 4c0 4-1 5-3 7-15 16-40 22-61 24h-5l-1 2-5 10-1 2-2 4 2-1c9-7 19-12 32-12h7c2 3 2 4 2 8-5 13-17 20-28 26-25 12-25 12-33 12a4047 4047 0 0 0-2 11v2l-1 2v5l2-2c10-10 21-21 35-21 5 0 5 0 7 2-1 16-12 27-23 38-8 7-17 13-27 18l1 25 1-2c3-7 7-12 12-18l2-2c5-6 13-10 21-12l5 1c2 3 1 6 1 9v3c0 17-9 32-22 44-10 9-10 9-13 9l1 2 3 7 1 2 1 3 1 2 1 4h2v-2c0-13 4-25 13-34 5-5 5-5 9-5h2l3 7 1 2c6 11 5 24 1 35-2 9-7 16-11 24l-3 6 13 17v-15c0-9 2-16 8-23 3-2 5-4 9-5 6 2 9 6 12 11 8 16 5 32 0 48l-3 9 8 8 3 2 2 2 2 2 5 4-1-2v-3l-1-2c-3-10-4-22 1-32l5-6c7 0 11 5 16 10 9 11 11 22 11 35v3c0 7 0 13-2 19l3 1 11 5a3400 3400 0 0 0 7 4l19 10 17 10c0 4 0 5-2 8-3 3-4 2-8 2l-10-5-7-4-3-1-15-8-6-3-2-2-6-3c-4-2-8-3-13-3h-10c-21 0-21 0-31-2h-2c-20-5-37-14-53-27l1-6 15-1h2c12 0 23 2 34 6l3 1 8 2a3499 3499 0 0 0-8-7l-3-3-2-2c-4-3-6-2-10-2-25-1-49-9-67-26-6-6-11-13-12-22 4-2 5-2 10-2h3l11 2 3 1c9 3 17 7 24 11l7 3c-6-12-6-12-17-19l-12-3c-17-3-34-14-44-28-4-7-7-15-6-23 2-2 3-3 6-3 19 4 33 16 47 29a4860 4860 0 0 0-6-13l-1-2-1-3c-2-5-5-6-10-8-16-7-30-16-37-32l-1-2c-3-6-3-13-3-20v-2c0-5 0-9 2-13 5-1 8 0 12 2 12 8 20 20 27 32v-22l-4-2c-13-12-24-25-26-44-1-9 1-16 5-24l2-2c6 0 10 2 14 6 6 7 11 16 14 25 2-7 5-14 2-21l-5-8c-7-12-10-25-7-38 2-7 6-14 11-19 3 0 5 0 8 3 8 9 10 20 12 32l6-8 1-2c3-4 4-6 4-11l-2-6c-3-10-4-25 0-35l1-2 1-2c4-8 10-13 18-17h5c2 2 2 2 2 5v7a1294 1294 0 0 1 0 25c3-3 4-6 5-10 2-10 6-17 14-22s17-9 26-7Z"/><path fill="#F26576" d="m159 137 4 6c-1 10-4 21-11 28h2a483322395 483322395 0 0 0 13 3c5 2 11 0 16-1l6-2h3l23-4 2-1a2635 2635 0 0 1 20-2h2a340 340 0 0 1 56-2h14a30630 30630 0 0 1 235 0h97a5921515 5921515 0 0 1 123-1h96a1189480 1189480 0 0 0 270 0h3l7-1-3 3-4 5-6 4a165 165 0 0 1-15 0h-26a4878 4878 0 0 1-116 0h-61a272717 272717 0 0 0-155 0h-3a3848767 3848767 0 0 0-114 0h-95a412749 412749 0 0 0-298 1l-3 1c-17 1-35 4-52 7l-3 1-8 1-2 1-5 1-2 4c-6 7-14 11-23 15l-2 1-18 6h-3a320 320 0 0 1-22 6l1 2 2-1 4-1 3-2c7-3 14-3 22-2 3 2 3 3 5 6 0 8-4 14-9 19-8 8-18 13-28 18h2c9-1 9-1 13 2 2 3 2 5 2 9-4 11-9 20-18 28l-1 2-15 12-2 1-14 9 1 11 1-2 10-11 2-1c5-5 11-9 19-11 3-1 4-2 5-5l2-6c2-6 4-11 9-16h3l1 2-5 8c-5 6-7 12-9 19l2 1c2 2 2 2 2 5 0 14-3 25-8 38h3c4 1 5 3 8 7 6 12 5 27 2 40l1 4 7-3c4-1 7-1 11 1 7 6 12 16 13 25v3c0 6 0 6 3 11l5 3 2-2 9-1c6 3 9 7 13 12 7 8 17 10 27 11v2h2l16 2a210 210 0 0 0 35 5h2c11 2 23 2 34 2h25a20674 20674 0 0 0 144 0h3a1520066 1520066 0 0 1 328 1h204v-13h1v10l-2 9H795a1537521 1537521 0 0 1-321 0h-3a77075 77075 0 0 0-152 0c-18 0-36 0-54-2v-2h-3l-25-3h-4a194 194 0 0 1-28-6l-18-6 1 2c4 13 5 29 2 43h2l9 1 3 1h6l5 1c39 7 79 5 119 5a15280 15280 0 0 1 134 1h3a611042 611042 0 0 1 249 0h3a1908319 1908319 0 0 1 108 0h224v9H826a3890369 3890369 0 0 1-108 0h-4a891483 891483 0 0 0-250 0h-3a195877 195877 0 0 0-171 0 452 452 0 0 1-63-3l-3-1h-9l3 1a2873 2873 0 0 1 19 10l3 2c3 2 5 4 6 7v7c-3 3-5 5-9 6-5 0-9-2-13-5l-3-1a1226 1226 0 0 1-14-8l-3-1a906 906 0 0 0-15-8c-11-8-23-6-36-6a125 125 0 0 1-73-24c-7-5-7-5-7-8 0-4 1-7 3-10l7-1h3l2-1h9l-3-1c-24-5-44-15-58-36l-4-8 2-5 1-2c2-2 3-3 6-3h7l11 1-3-1c-17-6-33-16-41-33-3-6-4-13-3-20 2-3 3-3 6-5 7-1 14 2 20 5l3 2 1-2-3-1c-12-4-23-16-29-28-5-12-8-27-3-39 3-3 5-4 10-4 5 1 9 4 13 7l2 1 8 9 2 1c-1-4-3-6-6-9a62 62 0 0 1-20-42c0-9 2-17 7-24 4-2 7-2 11-2 9 4 16 14 20 22v-7l-2-3c-9-14-14-29-10-46 2-8 6-17 13-21l9 1c9 7 12 16 14 27 4-5 4-5 5-10l-2-7c-3-14-3-28 3-42 5-7 12-14 20-18 3 0 5 0 8 2l3 4 2 13 1-2c8-11 19-16 32-19 4 0 6 0 9 2Zm-36 16c-4 6-6 12-7 19l-4 6v-3a2642 2642 0 0 0 0-24v-8l-2-2c-7 0-12 4-17 9-8 8-10 16-10 28v2c0 7 1 14 3 20v8l-5 8-1 3-4 5v-2c-3-18-3-18-14-32l-5-1c-7 4-10 12-13 20-3 16 4 32 13 46 2 5 0 12-1 17l-1 3-1-2c-4-9-8-17-15-24l-2-2c-4-2-6-3-10-3-7 9-8 19-7 30 3 14 10 24 20 34l2 2 6 6h2v22l-4-6c-7-12-16-24-30-29l-5 1c-2 5-2 9-2 15v2c0 15 6 26 16 37 6 6 14 11 22 13 6 3 11 5 14 11l6 15c-2 0-4-2-5-4-12-10-27-23-44-23l-3 3c-1 10 3 18 8 26 12 15 29 22 47 27h2l4 1c5 1 7 2 9 6l4 5 1 2 4 6-9-4c-8-5-16-8-25-11l-3-1-11-1h-4l-6 2c0 7 4 11 8 17l2 2a80 80 0 0 0 48 26l15 2c8 0 13 0 19 6a167 167 0 0 1 7 8c-29-9-29-9-59-7l-1 6c22 18 46 30 75 29 19 0 34 0 50 11l16 9 9 4 3 2 5 3c4 0 5 0 8-2 2-3 2-4 2-8l-2-1-12-6-2-1-30-17-3-2-2-1-6-2v-2c4-17 4-34-5-49-4-6-9-13-16-16-3 0-5 1-7 3-6 9-6 19-4 30a227 227 0 0 0 2 12l-2-2-17-16 1-2c6-17 11-35 3-53l-6-8-2-2-5-3c-5 2-9 5-12 10-4 7-5 13-5 21v12l-5-6-1-2-7-9 4-8c9-16 17-33 12-52l-7-14-7 1c-9 8-16 18-17 30v10h-2l-1-4-7-16 2-1c15-8 26-23 32-39l1-16v-2l-1-7c-3-2-6-1-9 0-15 5-24 17-31 31l-1 2-1-8-1-7 1-10 13-8c16-9 31-24 36-41v-8c-2-2-3-1-5-1-15 0-26 11-36 21l-2 2v-3l3-17h2c19-5 44-15 56-32 2-4 3-7 3-11l-2-3c-15-2-27 4-40 12 1-4 4-8 7-12l1-5h2c23-2 49-8 65-25l2-5c-1-3-1-3-4-5-13-4-25 1-37 5l3-2c13-6 20-11 25-25l2-13c-2-2-3-2-6-2-12 0-22 6-30 14Z"/><path fill="#FEFDFD" d="M1371 184h3c6 4 9 11 10 17l1 3 10-4 6-2 2 2h3c4 1 4 2 7 5l2 1c3 0 4 2 6 4l9 7 8 7 3 2 6 7 2 2c5 5 8 9 10 15l4 2v2l2 1c4 2 5 4 6 8l2 1v2h2c3 4 5 9 6 14l4 9c3 9 4 18 5 27v3c2 25 4 55-7 79l-2 8h-2l-2 10h-2v3c-1 4-2 7-5 10l-1 2c-12 20-12 20-17 22l-3 3c-2 4-5 7-9 10h-3v2l-11 7-4 4-8 4-3 1v2h-2v2c-3 3-7 4-11 6l-3 2-8 2-17 4-7 2v2c-7 3-15 5-22 3l-2-3-4-4a75 75 0 0 0-10 0 592 592 0 0 0-28 2l1 3v2l1 7h-8l-7-23v-4l-2-13h3v-2h2l11-2h4a169 169 0 0 0 29-6c13-4 26-9 38-15l4-1v-2h4l1-2c1-2 2-3 5-4 6-2 11-6 16-10l3-2 5-5c1-3 2-4 5-6l6-10 3-4c9-13 13-30 15-45l1-3c2-17 0-35-6-51l-3-12c-1-5-2-10-6-14l-1-3c-3-5-5-8-10-11l-6-7-12-10-4-3a126 126 0 0 0-22-12l-17-7 1 2 2 4 3 5-1 7h-1l-1-2c-1-5-4-9-7-13-9-13-9-13-9-16-5 2-8 6-11 9l-2 2-4 4-2-1 7-7-2-2 8-10 2-2 20-17 3-2c8-5 8-5 15-4Z"/><path fill="#CF4232" d="m159 137 4 6-2 10c-2-2-3-2-3-5v-7c-2-2-3-1-5-1-11 0-21 5-28 12-5 6-6 12-8 20l-6 8v-3a5969 5969 0 0 0 0-26v-8l-1-1c-7 0-12 4-17 9-7 8-9 16-9 27v2c0 7 1 14 3 20 1 4 1 7-1 10l-1 2-2 2-1 3-2 2-4 6h-1v-2l-2-8v-3c-2-8-4-15-10-20l-5-2c-6 2-8 8-10 13-5 11-4 22 0 33l10 19 1 7-1 3-2 13-4-9-8-13-2-4c-1-3-3-3-5-4l-2-2-8-1-2 4-1 2c-5 10-4 22 0 33 4 9 10 17 17 24l2 2 7 6 1 23-7-9c-7-11-15-22-28-26l-5 1-1 14v2c0 15 6 26 16 36 6 6 13 11 21 13 8 3 12 6 16 14a148 148 0 0 1 5 11l1 3-1 2-2-2c-12-11-28-25-44-27-4 0-4 0-6 2-1 11 4 20 10 29 12 12 28 18 44 23h2l4 2c7 1 10 5 14 11l1 2 5 8-11-5c-8-5-16-8-25-11l-3-1-11-1h-4l-5 1c0 7 4 11 8 17l1 2a78 78 0 0 0 48 25l15 2c8 0 13 0 19 6a272 272 0 0 1 9 8l2 2h-7l-3-1-6-2c-12-4-22-5-35-5H76v6l6 5 2 2c20 13 42 22 66 21 19 0 34 0 50 11l16 9 9 4 3 2 5 3 8-1 2-8-2-1-15-7-3-2-26-14-2-1-3-2-6-3v-6l3-1v5l30 6v2c26 2 53 2 79 2h12a25282 25282 0 0 0 159 0h3a1866868 1866868 0 0 1 248 1h4a5840583 5840583 0 0 1 107 0h224v6H826a3890369 3890369 0 0 1-108 0h-4a891483 891483 0 0 0-250 0h-3a195877 195877 0 0 0-171 0 452 452 0 0 1-63-3l-3-1h-9l3 1a2873 2873 0 0 1 19 10l3 2c3 2 5 4 6 7v7c-3 3-5 5-9 6-5 0-9-2-13-5l-3-1a1226 1226 0 0 1-14-8l-3-1a906 906 0 0 0-15-8c-11-8-23-6-36-6a125 125 0 0 1-73-24c-7-5-7-5-7-8 0-4 1-7 3-10l7-1h3l2-1h9l-3-1c-24-5-44-15-58-36l-4-8 2-5 1-2c2-2 3-3 6-3h7l11 1-3-1c-17-6-33-16-41-33-3-6-4-13-3-20 2-3 3-3 6-5 7-1 14 2 20 5l3 2 1-2-3-1c-12-4-23-16-29-28-5-12-8-27-3-39 3-3 5-4 10-4 5 1 9 4 13 7l2 1 8 9 2 1c-1-4-3-6-6-9a62 62 0 0 1-20-42c0-9 2-17 7-24 4-2 7-2 11-2 9 4 16 14 20 22v-7l-2-3c-9-14-14-29-10-46 2-8 6-17 13-21l9 1c9 7 12 16 14 27 4-5 4-5 5-10l-2-7c-3-14-3-28 3-42 5-7 12-14 20-18 3 0 5 0 8 2l3 4 2 13 1-2c8-11 19-16 32-19 4 0 6 0 9 2Z"/><path fill="#F3ECEB" d="M1331 58a5455 5455 0 0 1 42 4c5 6 5 15 5 23v5h2a198 198 0 0 1 82 21v-10l1-5 3 1 2-7c4 1 8 3 11 6l3 2 4 3 5 4 2 2 2 1 2 2 5 3-1 5h-2l-1 2c-1 4-3 4-6 6 1 4 4 5 8 8 7 4 7 4 8 7l4 2 13 10v2l2 1 6 4c0 6-5 13-9 17l-5 1c0-3 1-5 3-8l2-4c-4-10-20-18-28-23l-5-4c-8-6-16-10-25-15v-2l-2-1a274 274 0 0 0-62-21h-2l-7-1-4-1c-39-4-79 5-114 22l-8 2v2l-3 1c-13 7-25 15-37 25l-2 1-28 28-2 2-10 13-2 3a399 399 0 0 0-4 7l-2 2-5 2v-2h-11c2-6 2-6 5-8l1-2 2-2 1-2 4-4-13-9-2-2-15-10-3-2v-2l-1-2h2a5850 5850 0 0 0 58 0h3l5-1 1-2 18-16 4-3 10-7 1-1a933 933 0 0 1 9-6c16-10 16-10 21-10v-2c26-11 26-11 32-11v-2l12-3 4-1 3-1h3l8-2-1-4-4-24h3l-1-7Z"/><path fill="#76241B" d="m1137 160 3 1c-3 4-6 7-11 8a152 152 0 0 1-16 0h-26a4230 4230 0 0 1-116 0h-62a310358 310358 0 0 0-642-1v2h-3a5776 5776 0 0 0-46 5l-13 1-18 3-10 1-5 1-2-5 15-4h2a1642 1642 0 0 1 28-5l2-1a2635 2635 0 0 1 20-2h2a340 340 0 0 1 56-2h14a30666 30666 0 0 1 235 0h97a6183388 6183388 0 0 1 123-1h97a1185942 1185942 0 0 0 269 0h4l3-1Z"/><path fill="#EC5241" d="M159 149h1c1 9-3 15-8 22h2c12 1 12 1 16 3l2 6 19-3 21-3 8-1c16-3 31-3 47-3v-2h864l-1 3H881a1559998 1559998 0 0 0-118 0h-4a356065 356065 0 0 1-272 0h-4a78085 78085 0 0 1-239 2l-3 1c-17 1-35 4-52 7l-3 1-8 1-2 1-5 1-2 4c-6 7-14 11-23 15l-2 1-18 6h-3a320 320 0 0 1-22 6l1 2 2-1 4-1 3-2c7-3 14-3 22-2 3 2 3 3 5 6 0 8-4 14-9 19-8 8-18 13-28 18h2c9-1 9-1 13 2 2 3 2 5 2 9-4 11-9 20-18 28l-1 2-15 12-2 1-14 9 1 11 1-2 10-11 2-1c5-5 11-9 19-11 3-1 4-2 5-5l2-6c2-6 4-11 9-16h3l1 2-5 8c-5 6-7 12-9 19l2 1c2 2 2 2 2 5 0 14-3 25-8 38h3c4 1 5 3 8 7 6 12 5 27 2 40l1 4 7-3c4-1 7-1 11 1 10 10 13 22 14 35l-2 9-1 6-3-1 1-4c1-12 1-25-7-36l-3-3-2-2-4-2c-5 1-7 3-10 7-5 8-6 15-6 24v12l-10-12-2-2-3-4 4-8c9-16 17-33 12-52l-6-12v-2c-9 2-13 8-17 15a45 45 0 0 0-6 21l-1 5h-2l-4-9-1-2-1-3-1-2-1-4 6-4c14-11 25-25 28-43v-16l-6-2c-18 6-26 19-35 34h-1l-1-8-1-8 1-10c4-4 10-7 15-10 15-9 29-22 34-39v-8c-13-1-22 5-32 13l-10 10v-12l1-2c0-3 1-6 4-8l4-2 3-1h3c17-6 37-14 46-30l2-9-1-2c-16-1-27 4-40 12l-2 1 1-2 2-6c2-5 3-8 7-11l20-4c16-2 34-9 46-21l2-6-1-2a48 48 0 0 0-38 4l-2 1-2-1 2-1 8-4 2-1c9-5 14-11 18-20l3-7Z"/><path fill="#FEFAFA" d="m890 270 2 3 2 2 1 3a5554263346 5554263346 0 0 0 7 11l1 7-2 1c-7 3-10 7-13 14l-1 2-5 10v2c-5 10-12 20-19 29l6 8 2 2 2 2 5 4 2 2 17 18 10 10 4 7-5 5-2 2-4 3-6-2-1-2-2-2-1-2a5413 5413 0 0 0-5-6l-11-12a75708 75708 0 0 1-22-22l-13 11-20 17-3 2c-21 16-21 16-31 18-3-1-5-4-7-6l-2-2-3-4 10-7c19-9 35-20 50-35l1-1c10-9 17-19 24-30l1-2c5-6 7-13 11-21l-82-1v-16l9-1h8a2934 2934 0 0 1 72 0h3c3 0 6 0 9 2l1 1-1-1a1282 1282 0 0 1-5-10l-2-2-1-2-1-6 4-1 2-1 4-1Z"/><path fill="#FEFBFB" d="M263 282h18l-1 111c24-8 46-17 66-33l3-2 23-22c4 4 7 7 9 12l-2 4-2 3-9 8-4 4c-13 12-29 22-45 29l-2 1-27 11-3 1-4 1-4 2-6 1c-5-2-9-6-11-11v-33a1810 1810 0 0 1 1-87ZM539 275c10 7 10 7 12 10 0 3-1 5-4 7l-1 2-2 2-2 1-20 17-2 1-6 5-2 1-6 3v91h-18l1-79-25 12a754 754 0 0 1-31 12l-3 1h-6l-3-6-2-3v-6l5-2 3-1 3-1c12-3 22-7 33-12l2-1a218 218 0 0 0 73-53l1-1Z"/><path fill="#170703" d="M204 514a853 853 0 0 1 19 2c21 3 42 3 63 3h12a12734 12734 0 0 0 181 0 325996 325996 0 0 0 235 1h4a2939907 2939907 0 0 1 109 0h227v4H825a3880447 3880447 0 0 1-361 0h-3a195380 195380 0 0 0-171 0 469 469 0 0 1-83-6l-2-2-1-1v-1Z"/><path fill="#FEFAFA" d="M671 281h17l-1 109 26-17 3-2c7-6 13-13 19-21 4 1 5 3 7 6l2 3 1 4-8 10-2 2a177 177 0 0 1-44 34l-2 1-2 1-2 1-7 1-8-7-1-12v-14l1-10a2329 2329 0 0 1 1-89Z"/><path fill="#EC8285" d="m1128 204 6 4v1H890a4462663 4462663 0 0 0-116 0h-4a1024297 1024297 0 0 1-491 2 306 306 0 0 0-70 10l-6 2-12 3-7 2c-9 2-17 7-25 11l-4 1c1-3 2-4 5-6l6-1 3-2c3-3 5-3 9-5l7-3 5-1 2-1h7v-2h6v-2h2l20-3c33-6 65-8 99-8h12a13676 13676 0 0 1 168 0h4a1009012 1009012 0 0 0 263 0h4a3157848 3157848 0 0 0 113 0h238v-2Z"/><path fill="#170804" d="m1137 160 3 1c-4 4-6 5-11 5a1853004761 1853004761 0 0 0-25 0h-14a7620 7620 0 0 1-176 0h-4a425247 425247 0 0 0-158 0H535a644933 644933 0 0 0-314 2v2l-36 4v2h-2v2l-11 3-2-5 15-4h2a1642 1642 0 0 1 28-5l2-1a2635 2635 0 0 1 20-2h2a340 340 0 0 1 56-2h14a30666 30666 0 0 1 235 0h97a6183388 6183388 0 0 1 123-1h97a1185942 1185942 0 0 0 269 0h4l3-1Z"/><path fill="#EDA79F" d="M267 168h864l-1 3H881a1559998 1559998 0 0 0-118 0h-4a356065 356065 0 0 1-272 0h-4a78085 78085 0 0 1-239 2l-3 1c-23 1-46 5-69 11l1-5 10-2 13-2 16-2 8-1c16-3 31-3 47-3v-2ZM189 503l1 3h2l9 1 3 1h6l5 1c39 7 79 5 119 5a15280 15280 0 0 1 134 1h3a611042 611042 0 0 1 249 0h3a1908319 1908319 0 0 1 108 0h224v3H828a3832536 3832536 0 0 1-108 0h-4a875849 875849 0 0 0-247 0h-4a192189 192189 0 0 0-218-1l-28-2v-2h-3l-15-2h-2l-10-4v-4Z"/><path fill="#CD0101" d="M1008 455a276 276 0 0 1 49 3 282 282 0 0 1-7 50h-8l-4-1-8-1h-2a3010 3010 0 0 0-25-3l5-48Z"/><path fill="#F6A0AA" d="M1000 461h1v10l-2 9H795a1537521 1537521 0 0 1-96 0h-3a351288 351288 0 0 0-222 0h-3a77075 77075 0 0 0-152 0c-18 0-36 0-54-2v-2h-3l-26-3h-4l-3-1h-3l-5-3 27 3 33 3 5 1h42a20049 20049 0 0 0 142 0h3a1471491 1471491 0 0 1 224 1h3a4618657 4618657 0 0 1 97 0h202l1-16Z"/><path fill="#FEFAFA" d="M626 281h17c0 49 0 49-2 71l-1 3c-3 22-13 40-29 56l-2 2-3 1c-4-1-6-3-9-5l-3-2-2-2 8-7c17-14 23-38 25-59l1-35a8069 8069 0 0 1 0-23Z"/><path fill="#200A06" d="m1406 191 18 10 3 2c9 6 17 12 24 21l7 7c4 3 6 6 8 11l3 4 5 8 7 12a127 127 0 0 1 12 40 176 176 0 0 1-29 142c-6 8-13 16-21 22l-2 2c-6 6-12 11-19 15l-14 7-10 5-2 1-21 8-3 1a177 177 0 0 1-25 6l-1 2h-2v-5l9-2v-2l10-2v-2l9-3 3-1 16-5 13-5 5-2v-2h2v-2l12-6 1-2c1-3 3-3 6-4l5-4h2v-2l3-1 4-3 1-2 3-2 1-2 3-4c8-4 13-17 18-24l3-5 2-7h2v-4l2-6h2v-7l2-6c3-4 3-9 4-14l1-4 2-23v-4a269 269 0 0 0-1-33c-1-12-3-24-9-35l-1-3-5-13-2-2-5-9c-2-3-3-5-3-8-2-5-4-6-8-9l-1-6h-2l-3-4-7-6v-2h-2v-2l-2-1-5-3c-2-2-4-4-7-4-4-2-5-4-8-7-4-3-9-5-14-6l1-4Z"/><path fill="#C90808" d="M1296 502a1313 1313 0 0 1 32-1h2l7 1 4 6 6 1h6c-3 3-4 3-8 3l-1 5h3l6 12 2 4 1 3 2 3 1 7a14552 14552 0 0 1-31-1l-3-1h-12l-3-1-4-2-5-10v-2l-2-8-6 3-1-5 3-1-5-1 1-4v3h8l-1-2v-3l-1-3-1-6Z"/><path fill="#CD0304" d="m1056 292 10 3 3 1 2 1 3 1 4 3 4 1 2 1 2 1 5 2h2l7 3c0 6-2 10-4 15l-7 20-3 3-6-1-2-1h-3l-2-1-9-3-5-2-16-5a79 79 0 0 1 6-23l7-19Z"/><path fill="#CD4333" d="m159 137 4 6-2 10c-2-2-3-2-3-5v-7c-2-2-3-1-5-1-11 0-21 5-28 12-5 6-6 12-8 20l-6 8v-3a5969 5969 0 0 0 0-26v-8l-1-1c-7 0-12 4-17 9-7 8-9 16-9 27v2c0 7 1 14 3 20 1 4 1 7-1 10l-1 2-2 2-1 3-2 2-4 6h-1v-2l-2-8v-3c-2-8-4-15-10-20l-5-2c-6 2-8 8-10 13-5 11-4 22 0 33l10 19 1 7-1 3-2 13-4-9-8-13-2-4c-1-3-3-3-5-4l-2-2-8-1-2 4-1 2c-5 10-4 22 0 33 4 9 10 17 17 24l2 2 7 6 1 23-7-9c-7-11-15-22-28-26l-9 2 3-5h11l9 6 2 1 8 9 2 1c-1-4-3-6-6-9a62 62 0 0 1-20-42c0-9 2-17 7-24 4-2 7-2 11-2 9 4 16 14 20 22v-7l-2-3c-9-14-14-29-10-46 2-8 6-17 13-21l9 1c9 7 12 16 14 27 4-5 4-5 5-10l-2-7c-3-14-3-28 3-42 5-7 12-14 20-18 3 0 5 0 8 2l3 4 2 13 1-2c8-11 19-16 32-19 4 0 6 0 9 2Z"/><path fill="#C20202" d="m1251 75 4 5 12 13c4 4 7 7 7 12 0 3-1 4-3 6l-5 1v2l-9 5-2 1a803 803 0 0 1-10 6l-5 1-7-7-1-1-8-11-5-5-2-4v-3l-1-5 24-13 2-1 9-2Z"/><path fill="#9B3E33" d="M202 513h17v2c26 2 53 2 79 2h12a25282 25282 0 0 0 159 0h3a1866868 1866868 0 0 1 248 1h4a5840583 5840583 0 0 1 107 0h224v6l-1-4H824a1311820 1311820 0 0 1-110 0h-3a299588 299588 0 0 0-251 0h-4a65717 65717 0 0 0-219-1l-3-1c-7 0-15-1-22-3h-9l-1-2Z"/><path fill="#E24145" d="M1138 210v1H283v-1l22-1a7605 7605 0 0 0 16 0h13a28161 28161 0 0 1 287-1h27a7086667 7086667 0 0 1 273 0h4a122058 122058 0 0 0 203 0h3l7 2Z"/><path fill="#C30B0B" d="M1331 58a5455 5455 0 0 1 42 4c6 7 5 19 5 28l16 1v1h-19v3h-4a2699 2699 0 0 0-20 0 132 132 0 0 0-37 5l-7 1-3 1v-2l12-3 4-1 3-1h3l8-2-1-4-4-24h3l-1-7Z"/><path fill="#CD0404" d="M1140 166c5 1 8 2 12 5l1 1 6 4 2 1 14 11-3 3-3 4-2 2-1 2-2 1-3 5h-2l-2 5h-2v2c-1 3-3 5-6 7l-7-5-10-7-11-7v-2l-6-2 7-9 18-21Z"/><path fill="#D24737" d="m9 304 2 1v2l-1 12v2c0 15 6 26 16 36 6 6 13 11 21 13 8 3 12 6 16 14a148 148 0 0 1 5 11l1 3-1 2-2-2c-12-11-28-25-44-27-4 0-4 0-6 2-1 11 4 20 10 29 12 12 28 18 44 23h2l4 2c7 1 10 5 14 11l1 2 5 8-11-5c-8-5-16-8-25-11l-3-1-12-1h-8l1-3h3v-2h7l11 1-3-1c-17-6-33-16-41-33-3-6-4-13-3-20 2-3 3-3 6-5 7-1 14 2 20 5l3 2 1-2-3-1c-12-4-23-16-29-28-5-11-7-24-4-36l3-3Z"/><path fill="#CD0202" d="m1284 382 19 9v2l2 1c5 1 10 3 14 6 3 6 2 13 2 19v12c-10-2-20-6-29-11h-2c-4-2-6-4-8-7v-14l2-17Z"/><path fill="#F3ABA3" d="m1474 266 3 4 2 2 2 8 4 9c3 9 4 18 5 27v3c2 25 4 55-7 79l-2 8h-2l-2 10h-2v3c-1 4-2 7-5 10l-1 2c-12 20-12 20-17 22l-3 3c-2 4-5 7-9 10h-3v2l-11 7-4 4-8 4-3 1v2h-2v2c-3 3-7 4-11 6l-3 2-8 2-17 4-7 2v2c-7 3-14 3-22 3l-1-2 13-1v-2h2l28-9 4-1v-2l3-1 4-1 2-1c4-1 6-3 9-6l9-2 3-1 1-2c1-3 3-3 5-5l11-8 3-1 1-2c1-3 4-5 6-7l2-2 3-1 1-2 4-6 4-7 1-2h2l2-1 1-2 7-15c3-5 5-9 6-15h2v-3l3-12 4-21v-3c3-22 1-45-5-67l-2-12h-2l-1-7-2-11Z"/><path fill="#CD0202" d="M1297 295c6 2 11 7 16 11l5 3c6 5 6 5 6 8l-1 8a573 573 0 0 0-2 9v3l-1 2v2l-4 5-8-7-12-11c-7-5-7-5-9-9 0-5 3-10 5-15l1-2 4-7Z"/><path fill="#EC5444" d="M148 438c3 0 5 2 8 4l2-2 9-1c6 3 9 7 13 12 7 8 17 10 27 11v2h2l16 2a210 210 0 0 0 31 5l27 2v2c-17 1-33-2-49-4l-20-3c-9-1-18-4-27-7l1 2c3 9 3 16 3 25v4c0 8 0 8-2 11h-2v-2c1-27 1-27-12-50-5-6-5-6-12-8-4 2-6 5-8 9-3 11-1 22 2 32l1 5-15-13-2-2-5-5 1-2 4-16 1-2 3-1 1-4 2-6Z"/><path fill="#A44E43" d="M299 167h13a14751 14751 0 0 1 174 0h4a1087950 1087950 0 0 0 395 0h247v1H267v2h-3a5776 5776 0 0 0-46 5l-13 1-18 3-6-1c38-11 79-11 118-11Z"/><path fill="#581911" d="M204 514a853 853 0 0 1 19 2c21 3 42 3 63 3h12a12734 12734 0 0 0 181 0 325996 325996 0 0 0 235 1h4a2939907 2939907 0 0 1 109 0h227v1H815a4222218 4222218 0 0 1-113 0h-3a967651 967651 0 0 0-260 0h-4a212626 212626 0 0 0-215 0l-3-1c-5 0-9-2-13-5v-1Z"/><path fill="#CE0404" d="m1337 214 4 7c3 4 5 9 9 12l4 10c-1 5-4 9-7 13l-3 6c-8-3-13-11-18-17a183 183 0 0 0-6-7l-2-2c-2-2-2-2-2-5l3-3 13-12c2-2 2-2 5-2Z"/><path fill="#B30C0C" d="M1468 90c4 1 8 3 11 6l3 2 4 3 5 4 2 2 2 1 2 2 5 3-1 5h-2l-1 2c-1 4-3 4-6 6l1 4-15-7-2-1a2904 2904 0 0 1-24-13l-2-1-5-2c4-1 6 0 10 2l2 1 5 2v-10l1-5 3 1 2-7Z"/><path fill="#FAE1E2" d="M1171 207h3l-3 8-2 3-1 2-2 3a457 457 0 0 1-23 38l-9 18h-2l-1 3-4 9-1 3-2 4-1 3a509 509 0 0 1-15 32l-1 2a345 345 0 0 0-11 31c-6 11-9 24-12 37l-1 2v3l-3 4v-7l-2 1 3-13 1-3 3-9 4-10a58318 58318 0 0 1 12-33l5-12 11-24 4-8a15629 15629 0 0 1 6-12c12-25 26-49 42-72l2-3Z"/><path fill="#EC5443" d="M159 149h1c1 9-3 15-8 22h2c13 1 13 1 16 3 2 3 3 5 3 8-2 8-10 13-17 17-15 9-32 12-49 15l-6 3 1 2 2-1 4-1 3-2c7-3 14-3 22-2 3 2 3 3 5 6 0 8-4 14-9 19-8 8-25 21-37 21l1-4 4-2 3-2 3-1c13-6 24-12 30-24v-9c-16-1-27 4-40 12l-2 1 1-2 2-6c2-5 3-8 7-11l20-4c16-2 34-9 46-21l2-6-1-2c-12-4-25-2-36 3l-2 1-2 1-2-1 2-1 8-4 2-1c9-5 14-11 18-20l3-7Z"/><path fill="#EB4B3D" d="M105 351c4 1 6 3 8 7l2 2c3 7 3 13 3 20v2c0 6 0 11-2 16l1 4 7-3c4-1 7-1 11 1 10 10 13 22 14 35l-2 9-1 6-3-1 1-4c1-12 1-25-7-36l-3-3-2-2-4-2c-5 1-7 3-10 7-5 8-6 15-6 24v12a95 95 0 0 1-15-18l4-8c9-16 17-33 12-52l-8-16Z"/><path fill="#A23427" d="M1407 175c2 3 2 6 2 10v5l-3 2-1 3 4 1c5 1 10 4 14 8l7 4 11 8v2h2v2l2 1c2 1 3 2 4 5l4 2v2h2l1 3c1 3 1 3 4 5 4 3 4 6 6 11 1 4 4 8 7 12l1 2-1 3v-2l-3-1c-2-3-2-3-2-7l-5-2v-2l-2-1c-4-1-4-3-5-6l-6-8-1-3-2-1c-3-1-4-3-6-6l-2-2-2-1v-2l-2-1-8-5-3-3-3-2-2-2-2-1v-2h-3l-4-3-1-2h-3l-6-2h-3l2-2c4-4 4-7 4-12l-2-7-14 3-8 1 1-3 4-1 3-1 2-1h3c11-3 11-3 15-1Z"/><path fill="#D9D3D3" d="M1341 95h2c6 0 6 0 8 2l1 1h-2c-26 3-51 10-75 22l-8 2v2l-3 1-25 16-8 5 3-7-3 3-2-1c4-4 7-7 12-9l1-1a933 933 0 0 1 9-6c16-10 16-10 21-10v-2l8-3 2-1c10-4 20-8 31-10l3-1c8-2 16-3 25-3Z"/><path fill="#AE0C0C" d="m1458 166 9 1 12 3 11 2v14l-6-1v4a7038 7038 0 0 1-19-1l-3-1-9-1v-15h5v-5Z"/><path fill="#CE0606" d="m1390 169 2 1-10 6-3 1-2 1 2-1 10-2 4-1 3-1 3-1 7 1-1 2a376 376 0 0 1-17 3h-3l-5 2-1 2 7-1 2-1c4 0 7-1 10-3l4 1c2 4 3 8 2 13-2 6-9 11-15 14l-4-1-2-4-1-2-2-5c-2-4-3-6-7-8l-7-2c3-4 7-6 12-8l2-1a560 560 0 0 1 8-4l2-1Z"/><path fill="#FDF5F4" d="m155 241-2 1c-12 8-12 8-22 18l-2 2-2 5c-2 5-6 8-10 12l-7 12-2 3-2 6c-2 5-2 5-4 6l-2 1c-11 3-20 9-27 18l-5 6c-1-4-2-8-1-12l7-5 4-2 2-2a122 122 0 0 0 19-15l2-2h2l1-2 4-7 6-9c1-3 1-3 4-4l3-1v-2c1-8 9-13 15-17l2-2 2-2 7-3v-2c3-2 5-2 8-1Z"/><path fill="#7E271D" d="M1485 390c2 4 0 8-1 12v2l-6 12-5 12c-1 5-3 8-7 12h-2l-1 2c-1 3-3 6-6 8l-2 6h-2l-2 4h-2l-1 2c-1 2-2 3-5 4v2h-2v2c-5 5-11 9-18 11l-5 4c-8 5-8 5-11 5l-1 3c-4 3-6 3-11 3v2l-16 4-6 3-8 1v2l-7 1h-5c3-3 6-3 10-3v-2l9-3 3-1 16-5 13-5 5-2v-2h2v-2l12-6 1-2c1-3 3-3 6-4l5-4h2v-2l3-1 4-3 1-2 3-2 1-2 3-4c8-4 13-17 18-24l3-5 2-7h2v-4l2-6h2v-2c1-5 1-9 4-14Z"/><path fill="#F26475" d="m1417 408 1 2c-3 6-6 11-11 15l-2 2-8 8-3 2-3 2-2 2-8 3-4 4h-4v2a207 207 0 0 1-88 24v2h-3l-1 3-1-9h3a167 167 0 0 0 40-6 1439 1439 0 0 0 14-3c11-3 11-3 20-8l14-7 8-4 3-1 5-4 6-2 1-2c1-3 4-5 7-7l14-15 2-3Z"/><path fill="#CDC3C3" d="M1331 58a5455 5455 0 0 1 42 4c4 5 4 11 4 18v8h-3l-1-3v-5l-1-2-1-6c-5-3-9-3-15-3a2878 2878 0 0 1-16-1h-4l-4-3-1-7Z"/><path fill="#F17E89" d="m1408 264 6 3 1 3 2 1c3 1 4 2 5 5l1 6 3 1c3 6 4 12 5 18l3 10a129 129 0 0 1-8 88c-2 4-4 6-8 9l3-7 4-10 2-7c3-7 5-14 6-22h2v-38h-2l-1-4a12930 12930 0 0 0-6-22l-1-4c-2-10-9-18-15-26l-2-4Z"/><path fill="#CEC7C7" d="m1251 75 5 5 2 3 3 6v2l4 2 4 4 2 2 1 4-4 1-16-19-5-3v2l-15 7-6 3-6 2-2-1-1-3c5-7 15-10 22-13l2-1 2-1 2-1 6-1Z"/><path fill="#EC5645" d="m93 257-1 2 2-1c5-2 13-3 19-2l5 5c0 4-1 7-3 11h-2v-2l1-3v-6c-2-2-3-1-5-1-15 0-26 11-36 21l-2 2v-12l1-2 2-7 9-4 4-1h6Z"/><path fill="#F4A79F" d="m1402 194 1 2h2l3 2 7 4 10 6 2 1 5 3v2l2 1c7 3 11 9 15 16l4 4 1 3h2c5 2 8 9 11 14a212 212 0 0 0 5 8l1 1v5-2l-3-1c-2-3-2-3-2-7l-5-2v-2l-2-1c-4-1-4-3-5-6l-6-8-1-3-2-1c-3-1-4-3-6-6l-2-2-2-1v-2l-2-1-8-5-3-3-3-2-2-2-2-1v-2h-3l-4-3-1-2h-3l-6-2h-3l5-5Z"/><path fill="#4C1F18" d="m1209 158 2 1c-7 8-7 8-12 10h-13a404 404 0 0 1-25 0h-3c-8 0-12-2-18-7l8-1h4a122559876 122559876 0 0 0 48 0h3c3 0 3 0 5-2l1-1Z"/><path fill="#DED8D8" d="M1469 92c5 0 7 2 11 4l3 2 3 3 5 4 2 2 2 1 2 2 5 3-1 5h-2l-1 3-4 1v-4l-2-1c-4-1-7-4-10-6l-2-2-6-4-2-1-4-4v-7l1-1Z"/><path fill="#F9C5CB" d="M1435 368h1c1 9-2 16-5 24h-2l-1 2v3l-1 3-3 6h-2v2c-1 4-3 6-5 9l-2 3-2 2h-2l-1 2c-4 8-12 13-19 18h-2v2l-2 1-2 1-3 2-6 3-8 3-1 1c-3 3-5 3-9 5l-7 3h-8c3-3 6-4 10-5l16-7 4-1v-2h4l1-2c1-2 2-3 5-4 6-2 11-6 16-10l3-2 5-5c1-3 2-4 5-6l6-10 3-4c8-10 11-25 14-37Z"/><path fill="#FEF9F9" d="m910 265 3 4 1 3 2 2 2 3 5 10c-1 3-1 3-4 5l-7 1-2-3-2-4-1-2-6-10-2-5 4-4h7Z"/><path fill="#ED5E4D" d="m114 402 3 3-1 2c-4 5-6 10-6 17l2 1v20l-8-8-1-2-1-2-2-2-3-4 1-2a852 852 0 0 0 6-12l1-2c3-7 3-7 7-9h2Z"/><path fill="#FBE8E9" d="m1050 293 5 1c0 5-2 9-4 14l-4 12-1 3-1 2v2l-2 7h2a599 599 0 0 1 38 12v2l-24-6-18-6-4-2a76 76 0 0 1 6-23c2-5 3-10 6-14l1-4Z"/><path fill="#F7C4C7" d="m1348 223 4 1 3 1c10 4 10 4 13 7l4 1c6 2 10 5 15 8l2 1v2l2 1 11 7 2 2 11 10-1 4-9-9-12-10-4-3a126 126 0 0 0-22-12l-17-7 1 2 2 4 3 5-1 7h-1l-1-3c-1-4-4-7-6-11l-2-2-3-5c3-2 3-2 6-1Z"/><path fill="#FAE2E3" d="M1098 344v6c3-1 3-3 4-5v4l-1 3-1 3-3 9c-6 12-10 25-13 39l-1 2v3l-3 4v-7l-2 1 3-13 1-3a170 170 0 0 1 7-20 548954 548954 0 0 1 6-17v-2l3-7Z"/><path fill="#D74736" d="M189 502v5l22 5v1l-8 1 3 1 26 14 3 2a1220026932 1220026932 0 0 1 10 7v6l-2 1v-6l-2-1-15-7-3-2-26-14-2-1-3-2-6-3v-6l3-1Z"/><path fill="#F16273" d="M185 458c8 0 15 2 22 4v2h2l16 2a210 210 0 0 0 31 5l27 2v2c-17 1-33-2-49-4a582 582 0 0 0-35-6l-4-1-3-1-3-1-3-1-1-3Z"/><path fill="#BF4B3E" d="m1435 468 2 1-3 3h-2l-1 2c-1 4-3 5-6 6l-3 2-3 2-3 2-9 4-1 3c-4 3-6 3-11 3v2l-16 4-6 3-8 1v2l-7 1h-5c3-3 6-3 10-3v-2l9-3 3-1 16-5 13-5 5-2v-2h2v-2l12-6 1-2c1-3 3-3 6-4l5-4Z"/><path fill="#FEF6F5" d="m147 440 6 3 1 4-2 4-1 16v11l-1-1-2-2-2-2-6-4 3-12 4-17Z"/><path fill="#F7EFEF" d="M1306 536a15242 15242 0 0 1 22 1l28 2 1 5a8479 8479 0 0 1-46-2c-3 0-3 0-5-2v-4Z"/><path fill="#F6C5C7" d="m155 241-2 1c-12 8-12 8-22 18l-2 2-2 5c-2 5-6 8-10 12l-7 12-1 2a674 674 0 0 0-1-3v-2c0-4 1-5 3-8l1-3c3-4 4-5 9-7v-2c1-8 9-13 15-17l2-2 2-2 7-3v-2c3-2 5-2 8-1Z"/><path fill="#A24338" d="m1484 286 1 2h2a1779 1779 0 0 1 2 8 123 123 0 0 1 4 38v3c1 18-2 35-5 53h-2l2-17 2-21v-4l-1-31v-3l-4-22-1-6Z"/><path fill="#C13C2D" d="m159 137 4 6-2 10c-2-2-3-2-3-5v-7c-2-2-3-1-5-1-10 0-19 4-26 10l-6 8-1 2h-4l-1 3v-17h1l1 10 3-4c8-10 18-15 30-17 4 0 6 0 9 2Z"/><path fill="#D74B3B" d="M159 149h1c1 9-3 15-8 22h2c12 1 12 1 16 3l1 4h-2c-14-4-27-2-39 4l-2 1-2-1 2-1 8-4 2-1c9-5 14-11 18-20l3-7Z"/><path fill="#EE8E91" d="M227 215v2h-2l-33 9-9 2c-8 2-16 7-24 11l-4 1c1-3 2-4 5-6l6-1 3-2c3-3 5-3 9-5l7-3 5-1 2-1h7v-2h6v-2l22-2Z"/><path fill="#E88F85" d="m189 503 1 3h2a455 455 0 0 1 45 7v2h3l27 1v1c-32 0-32 0-48-2v-2h-3l-15-2h-2l-10-4v-4Z"/><path fill="#932F23" d="M265 166v2h-3c-35 2-35 2-70 8l-9 1 2-1v-2l24-3h3l9-1v-2c15-2 29-2 44-2Z"/><path fill="#0F0502" d="m1486 280 3 6 1 3a919 919 0 0 1 4 18c2 12 2 24 2 37v11l-1 13h-1v-3c1-40 1-40-8-77v-8Z"/><path fill="#EDE9E9" d="m1459 167 9 1h5l2 1 5 2 5 1 4 1v11h-5v-8h-2c-19-2-19-2-23-4v-5Z"/><path fill="#ED5948" d="m93 257-1 2 2-1h5l-2 1c-8 4-13 8-19 13-2 2-2 2-6 2v-8l4-5 7-3 4-1h6Z"/><path fill="#F3B2B5" d="m1321 404 2 1c2 10 1 20 1 30l-13-4-3-1-18-9-6-2v-2l16 6 21 8v-27Z"/><path fill="#ECA79E" d="m1143 164 2 1c6 3 10 2 16 3a983346841 983346841 0 0 1 40 0c-2 3-2 3-4 3l-3 1h-9a973 973 0 0 1-23 0h-3c-7 1-10-1-15-5l-3-2 2-1Z"/><path fill="#40130D" d="M1492 320h1l1 21v3a2661 2661 0 0 1-1 38h-2v4l-4 12-2 6h-1c0-5 0-9 2-14h2a2542 2542 0 0 0 3-23c2-15 1-31 1-47Z"/><path fill="#F6B5AE" d="m1437 222 7 5 7 6 3 3v2h2c5 2 8 9 11 14a212 212 0 0 0 5 8l1 1v5-2l-3-1c-2-3-2-3-2-7l-5-2v-2l-2-1c-4-1-4-3-5-6l-6-8-1-3-2-1c-3-1-4-3-6-6l-2-2-2-1v-2Z"/><path fill="#C2B5B5" d="M1407 175c3 5 3 10 2 15l-6 4v-8l-2-8-14 3-8 1 1-3 4-1 3-1 2-1h3c11-3 11-3 15-1Z"/><path fill="#F39E94" d="M1401 492c-4 4-9 5-14 6l-17 4-7 2v2c-7 3-14 3-22 3l-1-2 13-1v-2l2-1 8-2 2-1 12-4 9-2 8-2h7Z"/><path fill="#E64D3B" d="M110 140h4l1 6v3l1 2v9l3-1-1 7v2l-1 3v2c-1 3-4 5-6 7v-3a5852 5852 0 0 0 0-26v-2l-1-9Z"/><path fill="#F6B8B1" d="M235 172v2h-3l-32 5h-3c-8 2-17 3-25 6l1-5 10-2 13-2 15-2 13-2h11Z"/><path fill="#E99087" d="M1477 408v8h-2v3c-1 4-2 7-5 10l-1 2-15 21-1-2 7-11 4-8c2-8 7-14 11-21h2v-2Z"/><path fill="#0F0502" d="m1406 191 18 10 3 2c9 6 17 12 24 21l2 2h-4l-4-5-2-1v-2h-2v-2l-2-1-5-3c-2-2-4-4-7-4-4-2-5-4-8-7-4-3-9-5-14-6l1-4Z"/><path fill="#ED5948" d="m82 367 2 1-2 3 3-2-3 12h2l-1 13h-2l-4-9-1-2-1-3-1-2-1-4 5-4 2-2 2-1Z"/><path fill="#D86C60" d="M267 169v1h-3a5776 5776 0 0 0-46 5l-13 1-18 3-6-1 30-6h3c18-3 35-3 53-3Z"/><path fill="#F9CACE" d="m1434 310 1 4h2a91 91 0 0 1 3 34l-1 16h-2l-1 4v-11l1-13v-3c0-13 0-13-3-25v-6Z"/><path fill="#F6BABE" d="m1408 264 6 3 1 3 2 1c3 1 4 2 5 5l1 6 3 1 2 5 1 3v7l-1-2-2-4-5-7-11-17-2-4Z"/><path fill="#E9646A" d="M1355 229c6 0 11 3 17 6l3 2a89 89 0 0 1 19 12 2895 2895 0 0 1 14 13l-1 2-2-2c-6-6-11-11-18-15-3-1-3-1-4-4l-6-1-4-2c-3-3-6-4-9-5l-2-1-5-2v-2l-2-1Z"/><path fill="#F3AEB2" d="M1298 293c5 2 10 6 14 10l5 3c9 6 9 6 10 10l-2 9-1 4-5 18v-9l1-3v-3l2-7 1-2v-8l-4-4-3-2a243 243 0 0 0-18-14v-2Z"/><path fill="#FBE8E9" d="M1113 315c1 4 0 5-1 9l-2 4v1l-3 6c-4 11-4 11-7 15h-2c1-7 3-13 6-19l1-3 1-3 1-2 4-3 1-4 1-1Z"/><path fill="#FDF5F5" d="M112 406h2l-2 8c-3 7-3 14-4 21-6-6-6-6-7-10l4-7 1-2 3-5 2-3 1-2Z"/><path fill="#290C08" d="M204 514c7 0 15 1 22 3l15 1v3h-14c-9 0-16-1-23-6v-1Z"/><path fill="#F5B9BB" d="M127 264c0 4-1 5-4 8l-2 3-5 5c-3 3-4 6-6 10l-1 3a526 526 0 0 0-1-3v-2c0-4 1-5 3-8l1-3c4-5 4-5 7-6s3-2 4-5l4-2Z"/><path fill="#E2383E" d="m149 244 2 1c-2 3-2 3-5 4v3l-5 4-7 7-4 2-1 3h-1c0-4 0-6 2-9 4-5 10-8 15-12l4-3Z"/><path fill="#DA675A" d="m1474 266 3 4 2 2 2 8 3 7c4 9 4 17 4 27h-1v-2l-4-14-1-12h-2l-3-8-1-2-1-2v-2l-1-6Z"/><path fill="#F58997" d="M1361 456c-34 14-34 14-46 13 2-2 4-2 7-3h5v-2h2v-2l3-1c8-1 15-2 23-5h6Z"/><path fill="#F6B9B2" d="M1476 276c3 3 4 6 4 10h2v2l1 3v3l2 5 3 13v2l1 20c-2-2-2-3-2-6l-1-2v-3c-1-9-2-18-5-27l-2-12h-2l-1-8Z"/><path fill="#3B2120" d="m1390 169 2 1-10 6-3 1-2 1 2-1 10-2 4-1 3-1 3-1 7 1-1 2-6 1-12 2-9 1v3h-7l-2-2 21-11Z"/><path fill="#F16677" d="m1417 408 1 2c-3 6-6 11-11 15l-2 2-8 8-2 1-4 3-2-1 2-1 2-1v-2c1-4 5-6 7-8l4-3 1-2 10-10 2-3Z"/><path fill="#F37A88" d="M185 458c8 0 15 2 22 4v2h2v2h5l3 1 4 2c-8 0-15-2-22-4l-4-1-3-1-3-1-3-1-1-3Z"/><path fill="#E6998F" d="M1488 314h1c2 20 2 38 0 58h-1v-58Z"/><path fill="#E43E46" d="m120 278 1 2-5 8c-5 5-7 11-9 18l-4-1 3-6 2-7 1-1 2-6c3-4 4-7 9-7Z"/><path fill="#862A1F" d="M1465 248c4 2 6 4 8 8l1 4 1 4 3 1c3 5 7 13 6 19l-1 2-4-9-5-13-2-2-5-9-2-5Z"/><path fill="#7E281D" d="m1454 454 1 2h-2l-2 4h-2l-1 2c-1 2-2 3-5 4v2h-2v2l-5 4-3 2-2 2-2-1c2-4 4-6 7-8l1-3 3-1 4-3 1-2c5-6 5-6 9-6Z"/><path fill="#EC5645" d="M127 399h3l1 3-4 1c-5 1-8 4-11 9l-4 13h-3c0-7 1-13 7-19l3-3 4-3 4-1Z"/><path fill="#FADFE0" d="m1042 331 1 3 5 1 13 4 2 1a4558 4558 0 0 1 20 6v2l-24-6-21-7 3-1 1-3Z"/><path fill="#ED8A8C" d="M260 209h5v1l-8 1v2l-11 2h-23v-1h3a8980 8980 0 0 0 15-2l3-1 4-1 12-1Z"/><path fill="#B3392B" d="m132 143 2 1-7 6-7 10h-4l-1 3v-17h1l1 10 1-2c9-11 9-11 14-11Z"/><path fill="#942E22" d="m1435 468 2 1-3 3h-2l-1 2c-1 4-3 5-6 7l-3 1-3 2-3 2-7 1 2-1v-2l12-6 1-2c1-3 3-3 6-4l5-4Z"/><path fill="#7D261C" d="M265 166v2a321 321 0 0 1-44 1v-1c15-2 29-2 44-2Z"/><path fill="#F5AFA8" d="m1463 432 1 3-4 6c-4 4-4 4-6 9l-5 5a49 49 0 0 0-10 9h-2l7-9 2-2 3-1 1-2 4-6 4-7 1-2 4-1v-2Z"/><path fill="#F5C1C2" d="m185 223 4 1h-2v2l-4 2-24 11-4 1c1-3 2-4 5-6l6-1 3-2c3-3 5-3 9-5l7-3Z"/><path fill="#8E2F24" d="m1445 225 6 1 2 4h2l1 3c1 3 1 3 4 5s3 3 4 6l1 4-6-7-5-3v-2l-1-2-4-2c-4-4-4-4-4-7Z"/><path fill="#FCE9E7" d="m99 258-2 1c-8 4-15 9-21 15-1-4-1-6 1-10l9-4 3-1c7-2 7-2 10-1Z"/><path fill="#0F0502" d="M1491 382h1c-1 14-6 27-12 40l-2-3 2-3 5-14 2-6v-2l4-12Z"/><path fill="#1B0804" d="M1473 258h2v2l2 1c5 3 6 9 8 14l1 13-3-6-1-2-1-5c-1-6-3-9-7-13l-1-4Z"/><path fill="#76241A" d="m1411 487 2 1-3 1-3 1-1 3c-4 3-6 3-11 3v2l-4 2h-8 2v-2l2-1 4-1 3-1 7-4 5-2 5-2Z"/><path fill="#F28B96" d="M1064 457v13l-1 2-2 8h-6v5l-1 3-2 4c0-6 1-11 3-17l5-1 1-3v-4l1-2 2-8Z"/><path fill="#0F0502" d="m1449 460 4 1-10 9-2 2-8 7-3 3-2 1-3-1h2l1-2 5-6 3-2 5-2v-2h2v-2l5-4 1-2Z"/><path fill="#B74538" d="M1485 390c2 4 0 8-1 12v2c-2 6-4 11-8 16l-2 1 1-5h2v-4l2-6h2v-2c1-5 1-9 4-14Z"/><path fill="#D96E62" d="m1456 238 9 10 7 12 2 3-1 3v-2l-3-1c-2-3-2-3-2-7l-2-1-5-5c-1-4-1-4-4-7l-1-5Z"/><path fill="#EC6B75" d="M1426 292c4 2 5 9 7 13 2 7 2 13 1 19l-4-12-3-11-1-9Z"/><path fill="#1B0906" d="M1406 191a203 203 0 0 1 16 9l3 4h2l2 4c-4-1-6-1-8-4-4-5-10-7-16-9l1-4Z"/><path fill="#D42828" d="m1223 152 2 1-28 28-2-1 1-1 9-10 18-17Z"/><path fill="#E89A9A" d="m1403 175-4 4h-3a1008 1008 0 0 0-17 3l1-3 4-1 3-1 2-1h3c7-2 7-2 11-1Z"/><path fill="#3C120B" d="m1427 478 2 1-2 3h-2l-1 2c-2 4-6 5-10 7h-7l9-6 3-2 3-2 3-2 2-1Z"/><path fill="#FBE6E6" d="m1345 222 3 3 5 8c4 5 4 5 3 9l-1 3h-1l-1-3c-1-4-4-7-6-11l-2-2-3-5 3-2Z"/><path fill="#E1393F" d="m1323 217 3 4-1 1-2 2-2 2-3 5h-2l-1 2h-2l-4 3c1-4 3-7 6-10l2-2 4-3 2-4Z"/><path fill="#77241A" d="m1429 208 8 5 2 2 2 1v2h2v2l2 1c2 1 3 2 4 5l-6-2v-2l-2-1c-6-3-10-7-12-13Z"/><path fill="#EF8E95" d="m1321 404 2 1c2 9 1 19 1 28l-6-1 3-1v-27Z"/><path fill="#FCE4E1" d="M131 212v1h-2c-7 0-13 1-20 4l-9 3c1-4 3-4 6-6s6-2 10-3h2c5-1 8-1 13 1Z"/><path fill="#F9C5CA" d="M1435 368h1c1 9-2 16-5 24h-2l-2 6v-7l1-2 7-21Z"/><path fill="#F9DCDD" d="M1138 261h3c0 4-1 7-4 10l-3 8-2-2-2 1 8-17Z"/><path fill="#F5BCBF" d="m1346 223 11 2 8 4 3 3 1 2-13-5-3-1-3-1-1 2-3-6Z"/><path fill="#DD7367" d="M1470 426c0 8-9 18-15 24l-2 2c1-5 3-8 6-12l6-8 1-2h2l2-4Z"/><path fill="#72231A" d="m1484 286 1 2h2c5 21 5 21 5 32h-1a13136 13136 0 0 1-4-18l-1-3v-4l-2-9Z"/><path fill="#EB503E" d="M169 178h2l2 4c-2 7-7 12-13 15l-3 1c1-5 4-7 8-10l4-5v-5Z"/><path fill="#110502" d="m1413 491-12 7-6 2-2 1-2 1h-6 2v-2l8-2v-2l4-1 6-3c3-2 5-1 8-1Z"/><path fill="#F695A2" d="m1315 469-6 3h-3l-3 1h-2l-16 1v2h-3l-1 3v-6a4223 4223 0 0 1 18-3h3l4-1h9Z"/><path fill="#F6B0A8" d="M1405 483h4v2h-2l-2 1-1 2c-2 3-3 3-7 4l-3 1-9 2 2-1v-2l3-1 4-1 2-1c4-1 6-3 9-6Z"/><path fill="#FACCD2" d="m1367 452 2 1c-3 4-6 5-11 7l-7 3h-8c3-3 6-4 10-5l11-5 3-1Z"/><path fill="#F5C2C4" d="M1082 390v7h2l1-4v6l-1 2v3l-1 2-2 6-1-7-2 1 4-16Z"/><path fill="#EB4D3B" d="M122 213c9-1 9-1 13 1 3 3 3 5 3 9l-3 5h-2v-2l1-2v-3l-1-4-7-2h-5l1-2Z"/><path fill="#E4867B" d="m191 178-2 1v2l-17 4 1-5c5-3 12-2 18-2Z"/><path fill="#432E2C" d="m1300 519 2 11h2l1 2v3l1 3 2 4-4-3-1-2v-2l-1-2-1-3-2-9-6 3-1-5h8Z"/><path fill="#FAD2D6" d="m1409 423 2 1c-6 7-12 13-20 18l-2-1 13-11 7-7Z"/><path fill="#F6B1A9" d="M1484 384v5l-1 3-1 7-1 4v3h-2v2h-2l-1 2 1-8h2v-3c2-12 2-12 5-15Z"/><path fill="#ED8B81" d="m1402 194 1 2h2l3 2c3 3 6 4 9 5l2 2h-5l-1-3h-5l-3-1-5-2h-3l5-5Z"/><path fill="#4D1414" d="M1346 517c4 4 5 9 8 13l1 4 2 3 1 2 1 7h-6v-1h5l-1-2-4-7-2-3c-3-6-5-10-5-16Z"/><path fill="#FBE2DF" d="M69 429c5 0 8 0 12 3l5 7-10-4-3-2-4-4Z"/><path fill="#FBEAEA" d="m1149 246 1 2-4 8-1 2-3 5-3-1c2-7 4-12 10-16Z"/><path fill="#FAC9CF" d="M1343 464h-2v2c-9 3-18 5-28 5 3-3 6-3 10-3l13-4h7Z"/><path fill="#2B0D08" d="M174 175h11l-2 1v2l-11 3-2-5 4-1Z"/><path fill="#0D0402" d="m205 169-4 1v2c-17 4-17 4-26 3v-1h2l8-2h3l2-1 3-1 12-1Z"/><path fill="#FCEBE9" d="m49 376 7 2 4 8-1 2-4-3-3-2c-2-2-3-4-3-7Z"/><path fill="#F5B2AB" d="m1464 254 4 2 3 7 2 2c2 2 2 4 3 7l-1 4-1-2-2-3-1-3-6-10-1-4Z"/><path fill="#E75D61" d="m189 227-12 5-4 3-4 2-2 1-6-1 8-4 2-1c6-3 11-5 18-5Z"/><path fill="#CA4334" d="M159 149h1c0 6 0 10-3 15h-4c3-11 3-11 6-15Z"/><path fill="#2D0505" d="M1329 65h4v2h-2a4100 4100 0 0 0 4 19v5l1 2 2 1-4-1-5-28Z"/><path fill="#ED5061" d="M1425 390c0 8-4 14-9 20l-1-4 6-8 3-7 1-1Z"/><path fill="#FCEDED" d="M1405 256c4 2 8 4 10 8l-1 4c-7-4-7-4-9-8v-4Z"/><path fill="#FCECED" d="M131 256c0 5-2 7-6 10l-4 2c0-5 3-7 6-11l4-1Z"/><path fill="#EA7277" d="m149 244 2 1-7 6-10 8-6 5c3-8 13-15 21-20Z"/><path fill="#170000" d="m1496 170 14 10 5 1 2-3 6-1v2l-2 1-4 3c-4 0-5 0-9-2l-2-2-8-6-2-1v-2Z"/><path fill="#E88378" d="M1421 479c-3 3-6 4-10 5v2h-2v2l-4 3-4-1c6-5 6-5 8-5l1-2c2-3 7-6 11-4Z"/><path fill="#CF6F64" d="m1482 290 2 1 1 4 2 1 1 11v7h-1v-2c-1-8-1-8-4-14l-1-8Z"/><path fill="#7B261B" d="M201 172v2l-6 2h-3l-9 1 2-1v-2l16-2Z"/><path fill="#F5AAA1" d="m189 503 1 3h3l4 1h2l6 1 2 3c-13-1-13-1-18-4v-4Z"/><path fill="#EF5969" d="M1413 410h2c-3 7-9 14-16 18l5-8 7-7 2-3Z"/><path fill="#621E15" d="M1489 380h1c0 7 0 12-3 18l-2 6h-1c0-5 0-9 2-14h2l1-10Z"/><path fill="#FDF3F3" d="M1132 276v6l-2 3-1 3-5 3c1-5 2-9 5-13l3-2Z"/><path fill="#130603" d="M1465 242c6 3 9 9 11 15l-1 3v-2h-2l-2-4-6-6v-6Z"/><path fill="#ED5F4F" d="m143 203-1 3-6 2h-3l-3 1-1-2 3-3 3-1 3-1 5 1Z"/><path fill="#C94030" d="m111 139-3 3-2 1-10 3c1-4 2-5 5-7 4-2 6-2 10 0Z"/><path fill="#2A1C1C" d="M1261 89c5 2 9 6 12 11v9l-5 2 1-2h2l-2-5 3-1a1645 1645 0 0 0-7-8l-4-4v-2Z"/><path fill="#DC6E62" d="M1358 505h5c-4 4-8 4-13 4h-9l-1-2h5l3-1 10-1Z"/><path fill="#952F23" d="m1464 438 1 2-3 4-1 3-5 5-2 3-5 1 2-4 3-1 4-4 1-3 2-2 3-4Z"/><path fill="#752319" d="m1454 454 1 2h-2l-2 4h-2l-1 2c-1 2-2 3-5 4 1-5 3-8 7-11l4-1Z"/><path fill="#F7BFB9" d="m1463 432 1 3-5 7-1 2-4 4-2-1 2-3 4-7 1-2 4-1v-2Z"/><path fill="#F4B6B7" d="m173 232-8 4-2 1-2 1-2 1-4 1c1-3 2-4 5-6 9-3 9-3 13-2Z"/><path fill="#EA8688" d="m1326 214 1 2 4 2-11 11-2-1 7-7-2-2 3-5Z"/><path fill="#F5AFA7" d="m207 175-2 1v2l-16 2 2-1v-2l16-2Z"/><path fill="#FCE5E2" d="M84 369v5l-1 3-1 3-1 2h-2l-2-7 7-6Z"/><path fill="#F8D0D2" d="m1284 417 19 7v2c-7 0-13-4-19-7v-2Z"/><path fill="#F5919C" d="M1407 422c0 4-1 5-4 8l-6 5-2 1-4 3-2-1 2-2 16-14Z"/><path fill="#ED7C82" d="M1389 247c4 1 7 4 11 6l2 3 6 6-1 2-2-2-15-13-1-1v-1Z"/><path fill="#D45B4D" d="m1419 205 13 7v2l2 1 3 3c-5-1-7-3-10-6l-4-2v-2l-4-2v-1Z"/><path fill="#46150D" d="M213 169h8l-12 3h-8v-2l12-1Z"/><path fill="#F5ACA4" d="m1472 418 1 4-2 2-1 2-5 6-1-2 2-4 2-3 4-5Z"/><path fill="#F3AEB1" d="m1322 327 2 1-2 8v2l-4 9c1-17 1-17 4-20Z"/><path fill="#EC8488" d="m1159 205 13 1-3 4h-5l-3-1h-2v-4Z"/><path fill="#D35B4D" d="m1435 468 2 1-3 3h-2l-1 3-5 3-3 2-2 1-2-1 2-1 3-3c1-3 3-3 6-4l5-4Z"/><path fill="#DE7367" d="m1448 454 1 4-2 2-5 4c-2 2-2 2-5 2v-2l4-3 7-7Z"/><path fill="#F4AEB2" d="m1064 342 6 1h4l9 3v2l-18-4-1-2Z"/><path fill="#F7BCC1" d="m1434 310 1 4h2c2 3 1 7 1 10v8h-1v-3l-1-4v-4l-2-5v-6Z"/><path fill="#F29B93" d="M1364 183c5 0 9 1 13 3l1 3-16-4 2-2Z"/><path fill="#E05C4C" d="m83 163 2 1v2l-2 10v7h-1l-1-11h-1c0-6 0-6 2-8l1-1Z"/><path fill="#EF868C" d="M1408 264c3 1 5 2 7 5l3 7-1 2-4-6-2-2-3-6Z"/><path fill="#ED8085" d="M127 264c0 4-2 5-4 9l-2 3-2 2v-4c3-8 3-8 8-10Z"/><path fill="#E77A7C" d="m1352 239 2 1c0 6-1 9-3 14l-2 3-2 3h-2c1-4 2-7 5-10 2-4 2-6 2-11Z"/><path fill="#E24D3C" d="m89 152 1 2-2 5-1 2-6 4c2-6 3-10 8-13Z"/><path fill="#EB676E" d="M109 292h1c0 5-1 9-3 14l-4-1 2-4 1-3 3-6Z"/><path fill="#79261C" d="m1404 193 1 2 6 1c4 1 7 4 10 6l-8-2-3-1-7-3 1-3Z"/><path fill="#F7C2C5" d="M1415 270c3 1 5 3 7 6l1 6c-4-3-6-5-8-10v-2Z"/><path fill="#EFE6E6" d="m1403 175-2 3-7 1h-6v-2l5-2h10Z"/><path fill="#2E2E2E" d="m1526 155 7 5c0 5-3 8-5 12l-3 2c1-4 4-7 6-11-1-3-2-4-5-6v-2Z"/><path fill="#310D0D" d="m1216 91 3 3 1 6 3 4 2 2 1 1-1 2-5-5-2-1c-2-3-1-4-1-7l-1-5Z"/><path fill="#4C160F" d="M204 514h6l4 1 7 2h-10l-1 2-6-4v-1Z"/><path fill="#82281E" d="m1371 505-6 1v2l-7 1h-5c3-3 4-3 8-4l3-1 7 1Z"/><path fill="#F07670" d="m114 402 3 3-3 3v-2l-2 1-5 3 2-6 5-2Z"/><path fill="#F8DCDC" d="M1345 222c3 1 3 3 4 6l2 4-3 1-6-9 3-2Z"/><path fill="#ED5E4E" d="m122 214 5 1h4v1h-6l-4 1-8 1 1-4h8Z"/><path fill="#D96355" d="M1401 492c-3 3-6 4-10 5l-4-1h2v-2l4-2h8Z"/><path fill="#F2AAAD" d="M1098 344v6c3-1 3-3 4-5l1 2-3 7-2-2-3 5v-5l1-3 1-3 1-2Z"/><path fill="#F7D4D5" d="m1134 268 1 2 2 1-3 8-2-2-2 1 4-10Z"/><path fill="#AD3527" d="m245 543 1 4-6 5-3-1 8-8Z"/><path fill="#501710" d="M1483 404c2 5 0 7-2 12l-5 6c0-4 2-7 4-10l3-8Z"/><path fill="#F48F9A" d="m1417 408 1 2-3 5-1 3-6 4a487 487 0 0 0 9-14Z"/><path fill="#EE9C9F" d="M1298 293a54 54 0 0 1 13 8l2 2-2 2-6-5-2-1-5-4v-2Z"/><path fill="#E17468" d="M1437 218c5 3 8 7 12 12l-1 2-4-4-3-3-4-7Z"/><path fill="#E4494E" d="m1158 207 1 2h10l-1 4-1-2h-11l2-4Z"/><path fill="#9D382D" d="M202 513h17v3h-10l-6-1-1-2Z"/><path fill="#F4A8A0" d="M1367 502h-2v2l-7 1h-5l6-3 2-1 6 1Z"/><path fill="#722219" d="M1465 248c4 2 6 4 8 8l-1 2c-4-3-6-5-7-10Z"/><path fill="#872A1F" d="m1456 236 6 3 3 9-9-10v-2Z"/><path fill="#DA2226" d="m1317 224 2 1-3 4 2 2h-2l-1 2h-2l-4 3c2-5 5-8 8-12Z"/><path fill="#DF2D32" d="M219 219h6v1l-6 1h-3l-9 2 2-1v-2l10-1Z"/><path fill="#300E09" d="m1419 200 5 1 1 3h2l2 4c-4-1-6-2-8-5l-2-3Z"/><path fill="#D5BBBB" d="m1523 169 2 7-6 2c1-4 1-6 4-9Z"/><path fill="#373737" d="m1227 142 2 1-5 4-2 3-8 5c2-4 4-6 8-9l3-2 2-2Z"/><path fill="#A33328" d="M1341 509h12c-2 2-2 2-5 2l-3 1-2 3-2-6Z"/><path fill="#F06B78" d="M148 438c3 0 5 2 8 4l-1 4-4-3v-2l-4-2 1-1Z"/><path fill="#F4A79F" d="M111 214c-3 3-6 5-11 6 1-3 1-4 4-5l2-1h5Z"/><path fill="#AA443B" d="m1378 179 2 1-1 3h-3v2c-7-1-7-1-10-3h12v-3Z"/><path fill="#383838" d="M1493 130c4 1 7 3 10 6l3 2 2 1-1 2-7-5-2-1-5-4v-1Z"/><path fill="#F8C5C0" d="M1339 505h14l-6 3h-3c-2 0-2 0-5-3Z"/><path fill="#230B06" d="M1421 487c-5 3-8 4-14 4 4-3 9-6 14-4Z"/><path fill="#393939" d="M1511 143c6 2 10 6 14 10l-1 2-2-2-3-2-3-3-5-3v-2Z"/><path fill="#9B2D20" d="m129 143 2 1-11 11c0-4 2-6 5-9l4-3Z"/><path fill="#363636" d="M1471 92a43 43 0 0 1 12 7l2 1-1 2-5-3-3-2-5-5Z"/><path fill="#F1A69F" d="M1290 512h9v4h-8l-1-4Z"/><path fill="#320F09" d="m1459 448 1 2-3 5-2 3-1 2-3-1 2-3h2v-3c1-3 1-3 4-5Z"/><path fill="#F9D3D6" d="M1322 424h1l1 11-11-4 2-1 7 3v-9Z"/><path fill="#F38D98" d="M1425 394v6l-1 2-2 2-4 4 7-14Z"/><path fill="#F4BBBD" d="m1042 331 1 3 4 1 2 1h2l-1 2-12-3 3-1 1-3Z"/><path fill="#43150F" d="m42 314 3 2v8l-5-5 2-1v-4Z"/><path fill="#ED7A80" d="m117 278 1 2-3 5-1 3-4 4c1-6 3-10 7-14Z"/><path fill="#EE8087" d="M1418 278c4 3 6 5 8 10l-1 4-7-14Z"/><path fill="#F9C4C9" d="m186 460 13 4h-10l-2 1-1-5Z"/><path fill="#FCF0F0" d="M1098 351h1c0 4 0 7-3 10h-2l4-10Z"/><path fill="#41130C" d="m1482 276 1 2h3v10c-3-3-3-5-4-8v-4Z"/><path fill="#F8C9CA" d="m121 270-2 6-5 1 1-5 6-2Z"/><path fill="#C23A2B" d="m25 242 2 1-3 7-4 1c1-4 2-6 5-9Z"/><path fill="#CD4D3E" d="m1417 481 2 1h-2l-1 2-2 3h-5l2-1v-2c3-3 3-3 6-3Z"/><path fill="#40130D" d="M114 481v2l-9-1h-7v-1h16Z"/><path fill="#FEF8F8" d="M1084 387h2c0 4 0 7-2 10l-3 1 3-11Z"/><path fill="#F0A7A9" d="M1312 304a41 41 0 0 1 11 8l2 1-2 2-5-5-2-1-4-4v-1Z"/><path fill="#F9D8D9" d="m1150 240 2 2-1 5-4 2-2 1 5-10Z"/><path fill="#F4A59C" d="M173 181h10c-2 2-3 2-7 3l-2 1h-2l1-4Z"/><path fill="#7C261C" d="M178 177h5c-2 2-3 2-7 3l-2 1h-2l-1-3 7-1Z"/><path fill="#F8C0C5" d="M147 440c3 0 4 1 6 3l1 2-1 3v-2l-6-2v-4Z"/><path fill="#EFA6A8" d="m1098 356 1 2-3 6h-3l-2 1 2-8 1 4c3-1 3-3 4-5Z"/><path fill="#F6BEC2" d="m1430 298 1 2h2c2 3 1 6 1 10-3-3-3-5-4-8v-4Z"/><path fill="#B43729" d="m55 187 2 1-9 7c3-8 3-8 7-8Z"/><path fill="#F0CAC9" d="M1143 164a604 604 0 0 1 10 6v2l-12-6 2-2Z"/><path fill="#0A0301" d="M1462 446h2c-1 5-4 7-8 10l6-10Z"/><path fill="#EF5F6E" d="m1421 400-2 7-2 2-1 1-1-4 5-5 1-1Z"/><path fill="#F8C4BE" d="m49 376 5 1v6l-4-2-1-5Z"/><path fill="#F5BCBE" d="m155 241-8 6-2-1 4-5h6Z"/><path fill="#E54951" d="m1350 227 5 1v2h2v2h-6l-1-5Z"/><path fill="#B24539" d="m1445 225 4 1 3 6 1 2c-4-1-6-4-8-7v-2Z"/><path fill="#323232" d="m1239 133 2 1-10 8-2-1 10-8Z"/><path fill="#BA4A3D" d="M198 511h7l6 2-5 1h-3l-4-1-1-2Z"/><path fill="#F8C6C1" d="M1409 483v2l-7 4-3-1c6-5 6-5 10-5Z"/><path fill="#E43741" d="m1389 250 5 1 5 7-10-7v-1Z"/><path fill="#3E0505" d="M1329 65h4v2h-2l1 9-2-1-1-5v-5Z"/><path fill="#160703" d="M211 517h10v2l-9 1-1-3Z"/><path fill="#F29D94" d="m206 509 1 2-12-1v-1h11Z"/><path fill="#982E22" d="m114 481 7 2v2l-9-1 2-1v-2Z"/><path fill="#F2B6B8" d="m1079 400 1 3h2v7l-2 2v-7l-2 1 1-6Z"/><path fill="#EE8A7E" d="M1485 384h1c0 5-1 8-3 12v-8l1-2 1-2ZM1482 290l3 3 1 9c-3-3-3-5-4-8v-4Z"/><path fill="#F6C0C3" d="M1405 258c3 1 5 3 7 6l-1 2-6-8Z"/><path fill="#F5BDBF" d="M129 258h2c-1 3-3 6-6 8l-1-2 5-6Z"/><path fill="#F7C9CB" d="M1369 233c6 1 6 1 8 3l1 1-9-2v-2Z"/><path fill="#FBEEEE" d="m1166 218 1 3-3 5-3-1 5-7Z"/><path fill="#F29D94" d="m207 175-2 1v2l-10-1v-1l12-1Z"/><path fill="#F26173" d="M1341 460v2l-7 1h-5v-1l4-1 2-1h6Z"/><path fill="#F4818F" d="M1373 449c-3 3-6 4-10 5l3-4 7-1Z"/><path fill="#37100A" d="M1464 440h2l-1 6-5 2 4-8Z"/><path fill="#FCE9EA" d="m1434 306 1 2h2l1 8-1-2h-2l-1-8Z"/><path fill="#E8503F" d="M57 259h2l-1 9-3-2 2-7Z"/><path fill="#DD685C" d="m1402 194 1 2 4 1 2 2-8-1-1-2 2-2Z"/><path fill="#43140F" d="M1348 511h3l-4 1-1 5h-2v-5l4-1Z"/><path fill="#CD5C4F" d="M1460 442c0 4-1 4-3 7l-2 2-1 1-1-2c1-4 4-6 7-8Z"/><path fill="#F26F7F" d="m1390 435 3 1-8 6c1-4 2-5 5-7Z"/><path fill="#F6C5C7" d="m161 234 1 2c-2 3-4 3-7 4 1-3 2-4 4-5l2-1Z"/><path fill="#F7CCCD" d="M179 228h-2v2l-8 1c3-3 6-5 10-3Z"/><path fill="#0E0A09" d="m1383 178-5 1v3h-3v-2l-2-1 4-1 2-1 4 1Z"/><path fill="#A93C2F" d="m1455 450 1 2c-2 3-2 3-5 4h-2c1-3 2-4 4-5l2-1Z"/><path fill="#FDF5F5" d="M1113 315v5l-4 3v-3h2v-2l2-3Z"/><path fill="#F6BDBF" d="m105 298 1 4-3 4-2-1 2-5h2v-2Z"/><path fill="#F3BBBD" d="m1326 214 1 2 4 2-4 3v-2h-2l1-5Z"/><path fill="#3A1818" d="m1522 177 1 2-2 1-4 3-4-1c3-3 5-5 9-5Z"/><path fill="#C23929" d="M83 158h3l-1 5-4 2 2-7Z"/><path fill="#EB4839" d="m158 440 3 1-2 4h-3l2-5Z"/><path fill="#FCECEE" d="M1426 284h2c2 4 2 6 2 10-3-3-4-6-4-10Z"/><path fill="#F8D6D7" d="m1168 215 1 3-7 4c1-5 1-5 4-6l2-1Z"/><path fill="#F4DADA" d="M1380 179h6l-2 3h-5l1-3Z"/></svg>