<svg xmlns="http://www.w3.org/2000/svg" width="1536" height="602"><path fill="#1791DC" d="M1467 91v2l3 1c9 11 12 27 13 41a2555 2555 0 0 0 15 109v3l7 49 1 10 1 2a56971 56971 0 0 0 15 110c6 46 6 46-5 60-13 17-36 17-56 20a4179 4179 0 0 0-41 5l-76 12-22 4-3 1a2349 2349 0 0 1-109 12 7188 7188 0 0 1-31 4c-18 2-35 5-50-5l-3-5-9-1h-4a33518 33518 0 0 0-20 0h-14a29370 29370 0 0 0-231 0h-96a5667806 5667806 0 0 0-476-1 343 343 0 0 1-49-3l-3-1h-9l3 1a2873 2873 0 0 1 22 12c3 2 5 4 6 7v7c-3 3-5 5-9 6-5 0-9-2-13-5l-3-1a1226 1226 0 0 1-14-8l-3-1a906 906 0 0 0-15-8c-11-8-23-6-36-6-25 0-49-8-70-22l-3-2c-7-5-7-5-7-8 0-4 1-7 3-10l7-1h3l2-1h9l-3-1c-24-5-44-15-58-36l-4-8 2-5 1-2c2-2 3-3 6-3h7a125 125 0 0 1 8 0c-17-6-33-16-41-33-3-6-4-13-3-20 2-3 3-3 6-5 7-1 14 2 20 5l3 2 1-2-3-1c-12-4-23-16-29-28-5-12-8-27-3-39 3-3 5-4 10-4 5 1 9 4 13 7l2 1 8 9 2 1c-1-4-3-6-6-9a62 62 0 0 1-20-42c0-9 2-17 7-24 4-2 7-2 11-2 9 4 16 14 20 22v-7l-2-3c-9-14-14-29-10-46 2-8 6-17 13-21l9 1c9 7 12 16 14 27 4-5 4-5 5-10l-2-7c-3-14-3-28 3-42 5-7 12-14 20-18 3 0 5 0 8 2l3 4 2 13 1-2c7-10 16-15 28-18l3-1 9 1c3 2 4 3 5 6 0 11-5 21-11 29h9l6 3c5 2 11 0 16-1l6-2h3l23-4 2-1a2635 2635 0 0 1 20-2h2a328 328 0 0 1 54-2h13a25676 25676 0 0 1 162 0h3a1888330 1888330 0 0 0 255 0h4a5919059 5919059 0 0 0 340 0v-4c1-9 5-16 12-22 9-6 20-9 31-11h3l39-6 11-1a32764 32764 0 0 1 38-5l2-1a2283983 2283983 0 0 0 142-19h3a39280 39280 0 0 0 63-9c38-5 38-5 53 7Z"/><path fill="#017ACD" d="M1448 83c7 1 13 3 19 8v2l3 1c9 11 12 27 13 41a2555 2555 0 0 0 15 109v3l7 49 1 10 1 2a56971 56971 0 0 0 15 110c6 46 6 46-5 60-13 17-36 17-56 20a4179 4179 0 0 0-41 5l-76 12-22 4-3 1a2349 2349 0 0 1-109 12 7188 7188 0 0 1-31 4c-18 2-35 5-50-5l-3-5-9-1h-4a33518 33518 0 0 0-20 0h-14a29370 29370 0 0 0-231 0h-96a5667806 5667806 0 0 0-476-1 343 343 0 0 1-49-3l-3-1h-9l3 1a2873 2873 0 0 1 22 12c3 2 5 4 6 7v7c-3 3-5 5-9 6-5 0-9-2-13-5l-3-1a1226 1226 0 0 1-14-8l-3-1a906 906 0 0 0-15-8c-11-8-23-6-36-6-25 0-49-8-70-22l-3-2c-7-5-7-5-7-8 0-4 1-7 3-10l7-1h3l2-1h9l-3-1c-24-5-44-15-58-36l-4-8 2-5 1-2c2-2 3-3 6-3h7a125 125 0 0 1 8 0c-17-6-33-16-41-33-3-6-4-13-3-20 2-3 3-3 6-5 7-1 14 2 20 5l3 2 1-2-3-1c-12-4-23-16-29-28-5-12-8-27-3-39 3-3 5-4 10-4 5 1 9 4 13 7l2 1 8 9 2 1c-1-4-3-6-6-9a62 62 0 0 1-20-42c0-9 2-17 7-24 4-2 7-2 11-2 9 4 16 14 20 22v-7l-2-3c-9-14-14-29-10-46 2-8 6-17 13-21l9 1c9 7 12 16 14 27 4-5 4-5 5-10l-2-7c-3-14-3-28 3-42 5-7 12-14 20-18 3 0 5 0 8 2l3 4 2 13 1-2c7-10 16-15 28-18l3-1 9 1c3 2 4 3 5 6 0 8-3 15-6 22h-4l1-5 1-2 2-6 1-10-3-1c-13 1-23 4-32 14-3 5-4 11-6 18l-6 8v-3a5969 5969 0 0 0 0-26v-8l-1-1c-7 0-12 4-17 9-7 8-9 16-9 27v2c0 7 1 14 3 20 1 4 1 7-1 10l-1 2-2 2-1 3-2 2-4 6h-1v-2a851 851 0 0 0-2-11c-2-8-4-15-10-20l-5-2c-6 2-8 8-10 13-5 11-4 22 0 33 4 10 4 10 10 18 2 3 1 5 1 8l-1 3-2 13-4-9-8-13-2-4c-1-3-3-3-5-4l-2-2-8-1-2 4-1 2c-5 10-4 22 0 33a81 81 0 0 0 19 26l7 6 1 23-7-9c-7-11-15-22-28-26l-5 1-1 14v2c0 13 5 25 14 35 7 6 14 11 23 14 8 3 12 6 16 14a148 148 0 0 1 5 11l1 3-1 2-2-2c-12-11-28-25-44-27-4 0-4 0-6 2-1 11 4 20 10 29 12 12 28 18 44 23h2l4 2c7 1 10 5 14 11l1 2 5 8-11-5c-8-5-16-8-25-11l-3-1-11-1h-4l-5 1c0 7 4 11 8 17l1 2a78 78 0 0 0 48 25l15 2c8 0 13 0 19 6a272 272 0 0 1 9 8l2 2h-7l-3-1-6-2c-12-4-22-5-35-5H76v6l6 5 2 2c20 13 42 22 66 21 21-2 36 2 54 13a196 196 0 0 0 18 10l2 1 6 3c3 2 5 3 9 2l3-3 1-6-2-1-15-7-3-2-26-14-2-1-3-2-6-3v-6l3-1v5a1424 1424 0 0 0 19 3c31 6 62 6 94 6h13a9557 9557 0 0 0 196 0h243a2179727 2179727 0 0 0 153 0h3a34668 34668 0 0 0 199 0c12 0 12 0 16 4l3 6 4 3 4 1 2 1 5 1v2a314 314 0 0 0 80-7l25-3 2-1h5l2-1h2a460 460 0 0 1 43-6c10-2 21-2 31-2v-2h3a830 830 0 0 0 84-12l33-4c24-2 24-2 48-9l4-1 1-3 4-3c5-3 6-5 8-10h2c5-29-2-60-7-89a450 450 0 0 1-7-59l-4-24a496 496 0 0 0-8-65l-2-11-1-3a2725 2725 0 0 1-5-42c-3-11-4-22-5-33 0-4 0-4-2-7a418 418 0 0 0 8 74l5 37 1 8v2l2 9v19h2a11423 11423 0 0 1 14 98v3l1 25h2c2 14 4 28 3 42v3c-1 9-4 16-10 22l-9 4-2 1c-7 3-14 4-21 5l-3 1-16 1v2l-22 3a627 627 0 0 0-68 8 18991 18991 0 0 1-41 6h-3l-14 1v2h-2c-25 2-49 6-74 9a12060 12060 0 0 1-29 4l-4 1a13194 13194 0 0 0-20 3h-21c-17 0-17 0-23-4l-2-3-7-5-1-4-3-7c-5-15-7-31-9-47l-9-73a31370 31370 0 0 1-11-81l-3-23-1-2a3781 3781 0 0 1-13-109v-4c0-7 1-11 5-16l1-2c2-4 4-6 7-8l3-4c18-9 43-10 63-11l8-2 5-1h3l3-1 9-1h2a4579 4579 0 0 0 110-15l23-3 44-6c56-8 56-8 75-8l2-1 15 4 3 1c4 2 6 5 8 9l5 5 4 11c0 4 1 6 3 9l-1-9v-2c-2-9-7-20-14-26l-10-4-5-2 1-2Z"/><path fill="#FDFDFE" d="M1478 131h1l4 17v3l2 13v2a1014 1014 0 0 1 3 23l5 32a581 581 0 0 1 7 50l4 31 3 23 2 19a772 772 0 0 0 11 75v2c2 10 2 21 2 31v3c0 5 0 10-2 15h-2v3c-2 5-5 7-10 9l-4 4c-12 12-43 10-59 12a33215 33215 0 0 0-35 5l-31 4a716 716 0 0 1-40 5h-6v2h-2l-32 4-21 3a361 361 0 0 0-54 7l-28 4c-10 2-21 3-31 3h-13l-9-1v-2h-4l-11-4-3-6c-2-3-2-4-5-6l-14-1a1257 1257 0 0 1-16 0h-13a4765 4765 0 0 0-115 0h-60a266424 266424 0 0 1-153 0h-27a252447 252447 0 0 1-180 0h-3a403252 403252 0 0 1-298-2c-37-2-37-2-51-7v-3a2197 2197 0 0 0-2-36v-4l11 2v2h2l6 1 3 1 9 1 4 1v2h12v2h3l19 1c23 3 45 3 68 3h13a13415 13415 0 0 0 164 0h4a989847 989847 0 0 1 374 1h233v-10c3 4 4 5 4 10a1105142332 1105142332 0 0 1 7 28c2 3 2 6 2 10h2l5 4 2 2 1 3c27 6 54 1 81-3l15-2 22-4h2a73237 73237 0 0 0 42-5h10v-2a48367 48367 0 0 1 94-13c39-5 39-5 54-5v-2h3c14-2 28-4 41-10l2-1c6-3 10-6 12-13 4-14 3-31 0-45v-10h-2v-3l-3-27-1-4-2-10v-4l-1-3v-3a681 681 0 0 0-8-72h-2v-3l-3-30-2-13-1-3a3498 3498 0 0 1-6-45c-6-43-6-43-5-61Z"/><path fill="#FEFEFE" d="m1076 154 1 12a484203142 484203142 0 0 1 0 20v2l1 9v14h-2l-1-4H850a1254523 1254523 0 0 0-492 0c-70-1-70-1-140 9l-13 1v2h-6v2l-10 2-12 5-8 2-1 3-4 2c-3 0-5 1-8 3l-1 3-4 3-20 16-2 2-2 5-5 7-5 7-1 2-4 7-3 3-2 5-4 8-6 1c-10 3-18 10-24 18l-5 6c-1-4-2-8-1-12l7-5a826 826 0 0 0 15-10l2-2 8-7 2-2h2l1-2 4-6c5-7 10-16 9-24l-4-4H99c3-3 6-4 10-6 11-5 23-13 27-25l1-7c-1-3-1-3-4-5-10-2-19 1-28 5l-3 1-2-1c5-5 10-7 17-8 17-3 36-8 49-20l2-3c7-8 21-8 31-10h2a455 455 0 0 1 94-7h13a25676 25676 0 0 1 162 0h3a1888330 1888330 0 0 0 255 0h4a5919059 5919059 0 0 0 340 0l1-3a16908 16908 0 0 1 1-7l2-7Z"/><path fill="#FCFDFD" d="M157 139c2 2 2 2 2 5l-3 12v2c-4 10-11 15-20 20l-3 1a484 484 0 0 1-4 2c11-5 24-9 37-5l4 4c0 4-1 5-3 7-15 16-40 22-61 24h-5l-1 2-5 10-1 2-2 4 2-1c9-7 19-12 32-12h7c2 3 2 4 2 8-5 13-17 20-28 26-25 12-25 12-33 12a4047 4047 0 0 0-2 11v2l-1 2v5l2-2c10-10 21-21 35-21 5 0 5 0 7 2-1 16-12 27-23 38-8 7-17 13-27 18l1 25 1-2c3-7 7-12 12-18l2-2c5-6 13-10 21-12l5 1c2 3 1 6 1 9v3c0 17-9 32-22 44-10 9-10 9-13 9l1 2 3 7 1 2 1 3 1 2 1 4h2v-2c0-13 4-25 13-34 5-5 5-5 9-5h2a1875 1875 0 0 1 4 9c6 11 5 24 1 35-2 9-7 16-11 24l-3 6 13 17v-15c0-9 2-16 8-23 3-2 5-4 9-5 6 2 9 6 12 11 8 16 5 32 0 48l-3 9 8 8 3 2 2 2 2 2 5 4-1-2v-3l-1-2c-3-10-4-22 1-32l5-6c7 0 11 5 16 10 9 11 11 22 11 35v3c0 7 0 13-2 19l3 1 11 5 4 3 3 1 16 9a7371 7371 0 0 1 10 6l3 1 7 4c0 4 0 5-2 8-3 3-4 2-8 2l-8-4a2761 2761 0 0 0-8-4l-18-10a5229 5229 0 0 1-16-8c-4-3-8-4-13-3h-10c-10 0-20 0-30-2h-2c-20-5-37-14-53-27l1-6c13-4 29-1 41 2l3 1 18 5a3499 3499 0 0 0-8-7l-3-3-2-2c-4-3-6-2-10-2-25-1-49-9-67-26-6-6-11-13-12-22 4-2 5-2 10-2h3l11 2 3 1c9 3 17 7 24 11l7 3c-6-12-6-12-17-19l-12-3c-17-3-34-14-44-28-4-7-7-15-6-23 2-2 3-3 6-3 19 4 33 16 47 29a4860 4860 0 0 0-6-13l-1-2-1-3c-2-5-5-6-10-8-18-8-31-18-39-35-2-7-2-12-2-19v-2c0-5 0-9 2-13 5-1 8 0 12 2 12 8 20 20 27 32v-22l-4-2c-13-12-24-25-26-44-1-9 1-16 5-24l2-2c6 0 10 2 14 6 6 7 11 16 14 25 2-6 5-15 2-21l-2-3c-9-11-12-27-11-40 2-8 6-16 12-22 3 0 5 0 8 3 8 9 10 20 12 32l6-8 1-2c3-4 4-6 4-11l-2-6c-3-10-4-25 0-35l1-2 1-2c4-8 10-13 18-17h5c2 2 2 2 2 5v7a1294 1294 0 0 1 0 25c3-3 4-6 5-10 2-10 6-17 15-22 7-5 16-8 25-7Z"/><path fill="#1D618F" d="M1448 83c7 1 13 3 19 8v2l3 1c9 11 12 27 13 41a2555 2555 0 0 0 15 109v3l7 49 1 10 1 2a56971 56971 0 0 0 15 110c6 46 6 46-5 60-13 17-36 17-56 20a4179 4179 0 0 0-41 5l-76 12-22 4-3 1a2349 2349 0 0 1-109 12 7188 7188 0 0 1-31 4c-18 2-35 5-50-5l-3-5-9-1h-4a33518 33518 0 0 0-20 0h-14a29370 29370 0 0 0-231 0h-96a5667806 5667806 0 0 0-476-1 343 343 0 0 1-49-3l-3-1h-9l3 1a2873 2873 0 0 1 22 12c3 2 5 4 6 7v7c-3 3-5 5-9 6-5 0-9-2-13-5l-3-1a1226 1226 0 0 1-14-8l-3-1a906 906 0 0 0-15-8c-11-8-23-6-36-6-25 0-49-8-70-22l-3-2c-7-5-7-5-7-8 0-4 1-7 3-10l7-1h3l2-1h9l-3-1c-24-5-44-15-58-36l-4-8 2-5 1-2c2-2 3-3 6-3h7a125 125 0 0 1 8 0c-17-6-33-16-41-33-3-6-4-13-3-20 2-3 3-3 6-5 7-1 14 2 20 5l3 2 1-2-3-1c-12-4-23-16-29-28-5-12-8-27-3-39 3-3 5-4 10-4 5 1 9 4 13 7l2 1 8 9 2 1c-1-4-3-6-6-9a62 62 0 0 1-20-42c0-9 2-17 7-24 4-2 7-2 11-2 9 4 16 14 20 22v-7l-2-3c-9-14-14-29-10-46 2-8 6-17 13-21l9 1c9 7 12 16 14 27 4-5 4-5 5-10l-2-7c-3-14-3-28 3-42 5-7 12-14 20-18 3 0 5 0 8 2l3 4 2 13 1-2c7-10 16-15 28-18l3-1 9 1c3 2 4 3 5 6 0 8-3 15-6 22h-4l1-5 1-2 2-6 1-10-3-1c-13 1-23 4-32 14-3 5-4 11-6 18l-6 8v-3a5969 5969 0 0 0 0-26v-8l-1-1c-7 0-12 4-17 9-7 8-9 16-9 27v2c0 7 1 14 3 20 1 4 1 7-1 10l-1 2-2 2-1 3-2 2-4 6h-1v-2a851 851 0 0 0-2-11c-2-8-4-15-10-20l-5-2c-6 2-8 8-10 13-5 11-4 22 0 33 4 10 4 10 10 18 2 3 1 5 1 8l-1 3-2 13-4-9-8-13-2-4c-1-3-3-3-5-4l-2-2-8-1-2 4-1 2c-5 10-4 22 0 33a81 81 0 0 0 19 26l7 6 1 23-7-9c-7-11-15-22-28-26l-5 1-1 14v2c0 13 5 25 14 35 7 6 14 11 23 14 8 3 12 6 16 14a148 148 0 0 1 5 11l1 3-1 2-2-2c-12-11-28-25-44-27-4 0-4 0-6 2-1 11 4 20 10 29 12 12 28 18 44 23h2l4 2c7 1 10 5 14 11l1 2 5 8-11-5c-8-5-16-8-25-11l-3-1-11-1h-4l-5 1c0 7 4 11 8 17l1 2a78 78 0 0 0 48 25l15 2c8 0 13 0 19 6a272 272 0 0 1 9 8l2 2h-7l-3-1-6-2c-12-4-22-5-35-5H76v6l6 5 2 2c20 13 42 22 66 21 21-2 36 2 54 13a196 196 0 0 0 18 10l2 1 6 3c3 2 5 3 9 2l3-3 1-6-2-1-15-7-3-2-26-14-2-1-3-2-6-3v-6l3-1v5a1424 1424 0 0 0 19 3c31 6 62 6 94 6h13a9557 9557 0 0 0 196 0h243a2179727 2179727 0 0 0 153 0h3a34668 34668 0 0 0 199 0c12 0 12 0 16 4l3 6 4 3 4 1 2 1 5 1v2a314 314 0 0 0 80-7l25-3 2-1h5l2-1h2a460 460 0 0 1 43-6c10-2 21-2 31-2v-2h3a830 830 0 0 0 84-12l33-4c24-2 24-2 48-9l4-1 1-3 4-3c5-3 6-5 8-10h2c5-29-2-60-7-89a450 450 0 0 1-7-59l-4-24a496 496 0 0 0-8-65l-2-11-1-3a2725 2725 0 0 1-5-42c-3-11-4-22-5-33 0-4 0-4-2-7v15h-1l-1-10-1-2-1-15 2 3-1-9v-2c-2-9-7-20-14-26l-10-4-5-2 1-2Z"/><path fill="#FBFDFE" d="m1443 288 12 11c-2 6-7 9-11 13a393 393 0 0 0-8 6l-3 2-4 2-6-4c-6-6-10-7-19-7-6 1-9 2-14 7-2 4-2 9-1 14l4 6 1 3 4 2 8 2c5 3 11 4 16 5 20 6 41 13 52 31a76 76 0 0 1 5 10c4 13 4 29-2 41a64 64 0 0 1-46 30l-4 1h-19a67 67 0 0 1-54-27c0-3 1-4 3-6l2-1 2-2 2-1 2-2a581 581 0 0 1 9-7l2-1 2-2 2-1c3 1 3 1 5 4 5 6 13 10 20 12 12 1 23 1 33-7 3-3 4-6 5-11l-3-11c-9-7-20-10-31-13-20-5-37-11-50-29l-2-2c-7-10-6-22-6-34v-3c0-9 6-19 13-25 21-20 56-22 79-6ZM1323 291a5302 5302 0 0 1 4 21l1 4v7a120 120 0 0 1-26 4 2855 2855 0 0 0-14 2h-3l-2 1h-7l1 3a1363 1363 0 0 1 12 87 726 726 0 0 0 7 58l-38 5v-3l-2-13v-3a1067 1067 0 0 0-6-52v-2l-1-2-1-7a182 182 0 0 1-5-31l-1-5v-2l-2-12-1-4v-11a20222 20222 0 0 0-31 4h-2l-10 2h-9l-2-11-1-4v-3l-1-3v-12h2a105310 105310 0 0 0 119-17h3l16-1Z"/><path fill="#8EA6BA" d="m1463 91 10 14 1 2c3 8 4 15 4 23-5-5-6-12-7-19l-1-3-3-1-3-4c-2-4-4-6-8-8l-3-2c-25-11-68 3-94 7a1221 1221 0 0 1-97 13l-39 5-16 2-4 1-20 2-2 1a2483 2483 0 0 1-25 4l-11 1c-15 1-30 4-44 7l-7 1-3 3-1 2-3 3c-4 3-5 5-7 10l-1 2c-2 5-1 10-1 15v2a312 312 0 0 0 7 67l5 35a3163 3163 0 0 0 16 121 26308 26308 0 0 0 8 58v2l1 15h-1l-1 8a766505 766505 0 0 1-348 0h-4a315036 315036 0 0 0-258 0h-3a69087 69087 0 0 0-176 0c-21 0-41 0-62-2h-2l-9-2-8-1h-8v-2h-12v-2h-4a11638 11638 0 0 1-20-4v-2h-3l-8-2-1 2-1-6 17 5v2a369 369 0 0 0 49 7l29 2 5 1h19a7177 7177 0 0 1 16 0h12a26867 26867 0 0 0 166 0h3a1971412 1971412 0 0 1 259 1h4a6187834 6187834 0 0 1 112 0h234a12390 12390 0 0 0-4-30l-2-18-2-12-2-15-3-21a1841 1841 0 0 1-18-134v-3l-3-41-1-9a251 251 0 0 1 0-25v-14l-4 16h-5a745385 745385 0 0 0-338 0h-3a309828 309828 0 0 1-394 1c-77-1-77-1-153 12l-6-1 6-1v-2l9-2h7v-2c13-3 27-4 41-6h3a468 468 0 0 1 58-2h12a25548 25548 0 0 1 163 0h3a1878974 1878974 0 0 0 254 0h4a5889707 5889707 0 0 0 109 0h230v-8c0-9 4-14 10-21l7-4 2-1c13-7 27-8 41-10l13-1 29-4 7-1 15-2a624 624 0 0 0 69-10l39-5 29-4a721 721 0 0 0 71-10l10-1 11-2c13-2 26-1 38 7Z"/><path fill="#00070B" d="M1447 83v1h-4l-23 2-11 2a421 421 0 0 0-42 5 455 455 0 0 0-54 8l-29 4-38 5a559 559 0 0 0-65 9l-11 2a212 212 0 0 0-35 4l-14 2c-12 2-22 4-32 9l-3 1c-7 4-11 10-12 17l-2 9v5h-2a746619 746619 0 0 0-340 0h-3a308291 308291 0 0 1-393 1c-62-1-62-1-123 5l-16 2v2l-14 2-9 1-2-5 15-4h2a1642 1642 0 0 1 28-5l2-1a2635 2635 0 0 1 20-2h2a328 328 0 0 1 54-2h13a25676 25676 0 0 1 162 0h3a1888330 1888330 0 0 0 255 0h4a5919059 5919059 0 0 0 340 0v-4c1-9 5-16 12-22 9-6 20-9 31-11h3l39-6 11-1a32764 32764 0 0 1 38-5l2-1a2283983 2283983 0 0 0 142-19h3a39280 39280 0 0 0 63-9c11-1 22-2 33-1Z"/><path fill="#749EBC" d="m156 163-4 8h2c12 1 12 1 16 3l2 6 9-1-2 1v2l-6 1v2h-2l-1 2c-5 9-15 13-24 17l-2 1c-6 3-12 4-19 6h-2l-12 2c-4 1-6 3-9 6l3-1c9-4 18-7 28-5 3 2 3 3 5 6 0 8-4 14-9 20-8 7-18 12-28 17h2c9-1 9-1 13 2 2 3 2 5 2 9-4 11-9 20-18 28l-1 2-15 12-2 1-14 9v6l1 5 1-2 10-11 2-1c5-5 12-10 19-11 5 1 7 2 10 5 3 14-2 28-9 40l3 1c4 1 6 2 8 6 6 12 7 26 3 39-3 10-7 19-13 27v5l4 6v-3c1-8 2-14 6-21l1-2c3-4 6-7 11-9h8v2l2 1c6 3 10 12 12 18 2 10 1 19-1 29v2l-4 11v8l4 4 2 2 2 1v-14c0-6 0-10 3-15l1-2c2-4 3-6 6-7 5 0 9 1 13 4 9 8 16 19 18 32v16l-1 15h2l9 1 3 1h6l5 1 28 4h3l54 1h13a9664 9664 0 0 0 171 1h4a715168 715168 0 0 1 269 0h4a2234494 2234494 0 0 1 116 0h4a837279 837279 0 0 0-123 2h-4a341630 341630 0 0 0-268 0h-3a74916 74916 0 0 0-184 0 497 497 0 0 1-97-7l-13-3c-2-3-2-6-2-10v-7c0-16-2-29-14-41-4-4-4-4-10-6-4 2-6 5-8 9-3 11-1 22 2 32l1 5-15-13-2-2-5-5 1-2c6-17 11-35 3-53l-6-8-2-2-4-2c-5 1-7 3-10 7-5 8-6 15-6 24v12l-10-12-2-2-3-4 4-8c9-16 17-33 12-51l-5-11-1-4c-9 2-13 8-17 15a45 45 0 0 0-6 21l-1 5h-2l-4-9-1-2-1-3-1-2-1-4 4-3c14-11 27-25 30-44v-16l-6-2c-18 6-26 19-35 34h-1l-1-8-1-8 1-10c4-4 10-7 15-10 15-9 29-22 34-39v-8c-13-1-22 5-32 13l-10 10v-12l1-2c0-3 1-6 4-8l4-2 3-1h3c17-6 37-14 46-30l2-9-1-2c-16-1-27 4-40 12l-2 1 1-2 2-6c2-5 3-8 7-11l20-4c16-2 34-9 46-21l2-6-1-2a48 48 0 0 0-38 4l-2 1-2-1 2-1a995 995 0 0 0 10-5c6-3 9-6 13-11 1-2 2-2 5-2Z"/><path fill="#FCFDFE" d="M829 293v17l-54-1v74l62-1v16H699v-16l61 1v-74l-51 1v-16a2196407 2196407 0 0 1 106-1h14Z"/><path fill="#FAFCFE" d="M888 288a6104 6104 0 0 1 85-1h3c6 0 9 2 13 6l1 1c-6 15-14 31-23 45l-2 3-5 7 8 8 14 13 2 3 12 13 9 9 1 4c-1 3-3 4-5 6l-3 2-4 2-8-7a3391 3391 0 0 0-5-6l-10-12-3-3-8-9-3-3-2-2-2-3-4-1c-3 1-4 3-7 6l-16 14-2 1c-9 8-19 14-29 20l-3 1c-2 2-4 3-7 3-4-1-5-2-7-5l-1-2-4-5 3-1a207 207 0 0 0 59-41 152 152 0 0 0 33-51h-3a24588 24588 0 0 1-69 1h-7l-1-4a592 592 0 0 1 0-12Z"/><path fill="#000B11" d="M1448 83c7 1 13 3 19 8v2l3 1c9 11 12 27 13 41a2555 2555 0 0 0 15 109v3l7 49 1 10 1 2a56971 56971 0 0 0 15 110c6 46 6 46-5 60-13 17-36 17-56 20a4179 4179 0 0 0-41 5l-76 12-22 4-3 1a2349 2349 0 0 1-109 12 7188 7188 0 0 1-31 4c-18 2-35 5-50-5l-3-5-9-1h-4a33518 33518 0 0 0-20 0h-14a29370 29370 0 0 0-231 0h-96a5667806 5667806 0 0 0-511-3v-1a386529 386529 0 0 1 377 0h98a643179 643179 0 0 0 395-1c11 0 11 0 14 3l3 3c2 3 5 4 8 4l4 1 3 1v2a314 314 0 0 0 80-7l25-3 2-1h5l2-1h2a460 460 0 0 1 43-6c10-2 21-2 31-2v-2h3a830 830 0 0 0 84-12l33-4c24-2 24-2 48-9l4-1 1-3 4-3c5-3 6-5 8-10h2c5-29-2-60-7-89a450 450 0 0 1-7-59l-4-24a496 496 0 0 0-8-65l-2-11-1-3a2725 2725 0 0 1-5-42c-3-11-4-22-5-33 0-4 0-4-2-7v15h-1l-1-10-1-2-1-15 2 3-1-9v-2c-2-9-7-20-14-26l-10-4-5-2 1-2Z"/><path fill="#A5D2EF" d="m1078 204 2 1a130 130 0 0 1 3 20 7240 7240 0 0 0 27 197 12449 12449 0 0 1 4 33v2l1 15h-1l-1 8a766505 766505 0 0 1-348 0h-4a315036 315036 0 0 0-258 0h-3a69087 69087 0 0 0-176 0c-21 0-41 0-62-2h-2l-9-2-8-1h-8v-2h-12v-2h-4l-5-1h-2c-5-1-9-1-13-3v-2h-3l-8-2-1 2-1-6 17 5v2a369 369 0 0 0 49 7l29 2 5 1h19a7177 7177 0 0 1 16 0h12a26867 26867 0 0 0 166 0h3a1971412 1971412 0 0 1 375 1h234a12390 12390 0 0 0-4-30l-2-18-2-12-2-15-3-21a1841 1841 0 0 1-18-134v-3c-4-33-4-33-2-40Z"/><path fill="#041929" d="M198 511h2l10 1 26 2c22 2 44 2 66 2h13a9557 9557 0 0 0 196 0h243a2179727 2179727 0 0 0 153 0h3a34668 34668 0 0 0 199 0c11 0 11 0 14 2l4 5-1 2-1-1c-3-3-5-2-8-2a621190513 621190513 0 0 1-26 0h-13a10528 10528 0 0 0-180 0l-4-1a638226 638226 0 0 1-160 0h-27a424436 424436 0 0 1-464 0c-30 0-30 0-38-4l-3-2-4-4Z"/><path fill="#FCFEFE" d="M196 323h135v15h-58v15l-1 9-1 3c-5 22-20 36-39 48l-5-2-3-2-2-2-4-3 3-4 3-2c17-9 25-20 31-38l3-22h-62v-15Z"/><path fill="#ACCADE" d="M1478 131h1l4 17v3a689 689 0 0 1 5 38l5 32a581 581 0 0 1 7 50l4 31 3 23 2 19a772 772 0 0 0 11 75v2c2 10 2 21 2 31v3c0 5 0 10-2 15h-2v3c-2 5-5 7-10 9l-4 4c-12 12-43 10-59 12a33215 33215 0 0 0-35 5l-31 4a716 716 0 0 1-40 5h-6v2h-2l-32 4-21 3a361 361 0 0 0-54 7 726 726 0 0 0-49 6v-2h-13l-17-1-2-2h2c25 1 48-2 72-5l15-2 22-4 44-5h10v-2a48367 48367 0 0 1 94-13c39-5 39-5 54-5v-2h3c14-2 28-4 41-10l2-1c6-3 10-6 12-13 4-14 3-31 0-45v-10h-2v-3l-3-27-1-4-2-10v-4l-1-3v-3a681 681 0 0 0-8-72h-2v-3l-3-30-2-13-1-3a3498 3498 0 0 1-6-45c-6-43-6-43-5-61Z"/><path fill="#FBFDFE" d="M459 303c3 1 6 3 8 6l2 2 2 1c-1 5-4 7-7 10l-2 2-15 12-2 2-2 1-2 2-7 3 1 74h-17l1-64-16 8-10 4-2 1c-20 8-20 8-24 7l-3-5-2-3-1-5 3-1c26-8 52-19 73-36l2-2c7-5 14-12 20-19Z"/><path fill="#4BB1EB" d="M1107 448h1l2 8v3a72 72 0 0 1 1 16v2H873a4182082 4182082 0 0 1-112 0h-4a959859 959859 0 0 0-258 0h-4a211062 211062 0 0 0-218-1l-43-5a711 711 0 0 0-31-5v-2l-2-1h-4l-3-1-8-3-1 2-1-5 3 1a334 334 0 0 0 73 14h2a337 337 0 0 0 52 2h12a27457 27457 0 0 0 167 0h3a2017889 2017889 0 0 1 261 1h4a6328554 6328554 0 0 1 113 0h236v-2a2938 2938 0 0 1-3-24Z"/><path fill="#7ABCE7" d="M324 206h12a11985 11985 0 0 1 177 0 306834 306834 0 0 1 562 0l1 5-1-2H848a3861860 3861860 0 0 0-108 0h-3a886308 886308 0 0 1-248 1h-3a194882 194882 0 0 1-207 1 306 306 0 0 0-76 12h-3l-6 2c-12 2-24 8-35 14l-4 1c1-3 2-4 5-6l6-1 3-2c3-3 5-3 9-5l7-3a100 100 0 0 1 7-2h7v-2h6v-2h2l20-3c33-6 64-8 97-8Z"/><path fill="#FDFEFE" d="M530 332h132v18H530v-18Z"/><path fill="#C8D8E3" d="m1463 91 10 14 1 2c3 8 4 15 4 23-5-5-6-12-7-19l-1-3-3-1-3-4c-2-4-4-6-8-8l-3-2c-25-11-68 3-94 7a1221 1221 0 0 1-97 13l-39 5-16 2-4 1-20 2-2 1a2483 2483 0 0 1-25 4l-11 1c-15 1-30 4-44 7l-7 1-3 3-1 2-5 4-3 2c-2 2-2 2-5 2 0-5 1-8 5-12l7-3 2-1c13-7 27-8 41-10l13-1 29-4 7-1 15-2a624 624 0 0 0 69-10l39-5 29-4a721 721 0 0 0 71-10l10-1 11-2c13-2 26-1 38 7Z"/><path fill="#1D618F" d="m159 137 4 6c0 7-2 16-7 21h-3l1-5 1-2 2-6 1-10-3-1c-13 1-23 4-32 14-3 5-4 11-6 18l-6 8v-3a5969 5969 0 0 0 0-26v-8l-1-1c-7 0-12 4-17 9-7 8-9 16-9 27v2c0 7 1 14 3 20 1 4 1 7-1 10l-1 2-2 2-1 3-2 2-4 6h-1v-2a851 851 0 0 0-2-11c-2-8-4-15-10-20l-5-2c-6 2-8 8-10 13-5 11-4 22 0 33 4 10 4 10 10 18 2 3 1 5 1 8l-1 3-2 13-4-9-8-13-2-4c-1-3-3-3-5-4l-2-2-8-1-2 4-1 2c-5 10-4 22 0 33 4 9 10 17 17 24l2 2 7 6 1 23-7-9c-7-11-15-21-28-26l-7 2-3 5c0-4 0-6 4-9 4-2 7-2 11-1l9 6 2 1 8 9 2 1c-1-4-3-6-6-9a62 62 0 0 1-20-42c0-9 2-17 7-24 4-2 7-2 11-2 9 4 16 14 20 22v-7l-2-3c-9-14-14-29-10-46 2-8 6-17 13-21l9 1c9 7 12 16 14 27 4-5 4-5 5-10l-2-7c-3-14-3-28 3-42 5-7 12-14 20-18 3 0 5 0 8 2l3 4 2 13 1-2c8-11 19-16 32-19 4 0 6 0 9 2Z"/><path fill="#79C5F0" d="m186 459 17 5v2a369 369 0 0 0 49 7l29 2 5 1h19a7177 7177 0 0 1 16 0h12a26867 26867 0 0 0 166 0h3a1971412 1971412 0 0 1 259 1h4a6187834 6187834 0 0 1 112 0h234v2H870a2153360 2153360 0 0 1-114 0h-4a492981 492981 0 0 0-263 0h-3a108269 108269 0 0 0-180 0c-42 0-42 0-53-3l-10-1h-8v-2h-12v-2h-4l-5-1h-2c-5-1-9-1-13-3v-2h-3l-8-2-1 2-1-6Z"/><path fill="#1D3D56" d="M1071 162h1v6h-2a746619 746619 0 0 0-340 0h-3a308291 308291 0 0 1-253 0h-4a67590 67590 0 0 1-136 1c-62-1-62-1-123 5l-16 2v2l-12 1h-8c3-2 6-2 10-3v-2l24-3h3l9-1v-2l19-2h59a26138 26138 0 0 1 164 0h4a1927514 1927514 0 0 0 257 0h3a6033675 6033675 0 0 0 112 0h232v-4Z"/><path fill="#2E2E2E" d="M1448 83c7 1 13 3 19 8v2l3 1c9 11 12 27 13 41a2555 2555 0 0 0 15 109v3l7 49 1 10 1 2a56971 56971 0 0 0 15 110c6 46 6 46-5 60-13 17-36 17-56 20a4179 4179 0 0 0-41 5l-76 12-22 4-3 1a2349 2349 0 0 1-109 12 7188 7188 0 0 1-31 4c-32 4-32 4-43-1l-3-5 10 2v2a314 314 0 0 0 80-7l25-3 2-1h5l2-1h2a460 460 0 0 1 43-6c10-2 21-2 31-2v-2h3a830 830 0 0 0 84-12l33-4c24-2 24-2 48-9l4-1 1-3 4-3c5-3 6-5 8-10h2c5-29-2-60-7-89a450 450 0 0 1-7-59l-4-24a496 496 0 0 0-8-65l-2-11-1-3a2725 2725 0 0 1-5-42c-3-11-4-22-5-33 0-4 0-4-2-7v15h-1l-1-10-1-2-1-15 2 3-1-9v-2c-2-9-7-20-14-26l-10-4-5-2 1-2Z"/><path fill="#4A6980" d="M219 513h9l15 1c19 2 38 2 57 2h14a14468 14468 0 0 0 196 0h220a1683189 1683189 0 0 0 393 2l4 5-1 2-2-2c-3-4-8-4-13-4a6481 6481 0 0 0-20 0h-13a5739 5739 0 0 0-172 0h-3a305942 305942 0 0 1-55 0h-4a136404 136404 0 0 0-110 0h-4a2747023 2747023 0 0 0-97 0h-94a425711 425711 0 0 1-242 0c-26 0-52-1-78-4v-2Z"/><path fill="#051A29" d="M1447 83v1h-4l-23 2-11 2a421 421 0 0 0-42 5 455 455 0 0 0-54 8l-29 4-38 5a559 559 0 0 0-65 9l-11 2a212 212 0 0 0-35 4l-14 2c-12 2-22 4-32 9l-3 1c-11 7-11 15-15 29H255v-1h815v-8c2-8 6-17 14-22 9-5 18-8 29-10h3l39-6 11-1a32764 32764 0 0 1 182-25h3a39280 39280 0 0 0 63-9c11-1 22-2 33-1Z"/><path fill="#FCFDFE" d="M214 282a38189 38189 0 0 1 87 0h3l8 1v14h-98v-15Z"/><path fill="#216594" d="M8 307h2v2a1364 1364 0 0 0 0 11c0 14 5 26 14 36 7 6 14 11 23 14 8 3 12 6 16 14a148 148 0 0 1 5 11l1 3-1 2-2-2c-12-11-28-25-44-27-4 0-4 0-6 2-1 11 4 20 10 29 12 12 28 18 44 23h2l4 2c7 1 10 5 14 11l1 2 5 8-11-5c-8-5-16-8-25-11l-3-1-12-1h-8l1-3h3v-2h7l11 1-3-1c-17-6-33-16-41-33-3-6-4-13-3-20 2-3 3-3 6-5 7-1 14 2 20 5l3 2 1-2-3-1c-12-4-23-16-29-28-4-9-7-21-4-31l2-5Z"/><path fill="#2CA3E7" d="m184 456 3 1a334 334 0 0 0 73 14h2a337 337 0 0 0 52 2h12a27457 27457 0 0 0 167 0h3a2017889 2017889 0 0 1 261 1h4a6328554 6328554 0 0 1 113 0h236v1H866a884515 884515 0 0 1-116 0h-4a202003 202003 0 0 0-266 0h-4a44311 44311 0 0 0-181 1 372 372 0 0 1-92-10v-2l-2-1h-4l-3-1-8-3-1 2-1-5Z"/><path fill="#ABDAF5" d="M1109 427h1a5823 5823 0 0 1 4 28v2l1 15h-1l-1 8H293v-1h818a398 398 0 0 0-5-46h1l2 11v-17Z"/><path fill="#0D2E4B" d="M198 511h2l11 2h8v2h3a5487 5487 0 0 1 76 3h14a14616 14616 0 0 0 193 0 374177 374177 0 0 0 252 1h4a3374695 3374695 0 0 1 116 0h244v1H871a1542423 1542423 0 0 1-118 0h-4a352430 352430 0 0 0-272 0h-4a77328 77328 0 0 0-237-1l-2-1c-7 0-15-1-22-3h-6c-4 0-5-1-8-3v-1Z"/><path fill="#141414" d="M1448 83c7 1 13 3 19 8v2l3 1c9 11 12 27 13 41a2555 2555 0 0 0 15 109v3l7 49 1 10 1 2a56971 56971 0 0 0 15 110c4 32 4 32 2 44h-1v-2c0-12-1-25-3-37l-3-21-4-23a347 347 0 0 1-7-57l-4-24a496 496 0 0 0-8-65l-2-11-1-3a2725 2725 0 0 1-5-42c-3-11-4-22-5-33 0-4 0-4-2-7v15h-1l-1-10-1-2-1-15 2 3-1-9v-2c-2-9-7-20-14-26l-10-4-5-2 1-2Z"/><path d="M263 523h250a925586 925586 0 0 1 118 0h4a212599 212599 0 0 0 272 0h4a46765 46765 0 0 0 208-1h3c4 1 5 3 7 6l6 4-3 1-6-5v-2l-9-1h-4a33658 33658 0 0 0-20 0h-14a29432 29432 0 0 0-173 0h-4a2156859 2156859 0 0 1-639-1v-1Z"/><path fill="#D7E0E8" d="m1076 154 1 11v7l-1 4v10h-1l-2-14H265v-1h807l3-16 1-1Z"/><path fill="#2975A8" d="M133 399v2l2 1c6 3 10 12 12 18 2 10 1 19-1 29v2l-4 11v8l4 4 2 2 2 1v-14c0-6 0-10 3-15l1-2c2-4 3-6 6-7 5 0 9 1 13 4 9 8 16 19 18 32a178 178 0 0 1 0 16v6l-2 6h-2v-2c1-27 1-27-12-50-5-6-5-6-12-8-4 2-6 5-8 9-3 11-1 22 2 32l1 5-15-13-2-2-5-5 1-2c6-17 11-35 3-53l-6-8-2-2-4-2c-4 1-7 3-10 7-3 5-6 10-6 16h-3c0-9 3-16 9-22 5-4 9-4 15-4Z"/><path fill="#2C75A6" d="m156 163-4 8h2c12 1 12 1 16 3l2 6 9-1-2 1v2l-6 1v2h-2l-1 2c-5 9-15 13-24 17l-2 1c-6 3-12 4-19 6h-2l-12 2c-4 1-6 3-9 6l3-1c9-4 18-7 28-5 3 2 3 3 5 6 0 8-4 14-9 20l-13 9c0-3 0-3 2-5l5-4c5-5 9-10 11-17l-1-5c-16-1-27 4-40 12l-2 1 1-2 2-6c2-5 3-8 7-11l20-4c16-2 34-9 46-21l2-6-1-2c-12-4-25-2-36 3l-2 1-2 1-2-1 2-1a995 995 0 0 0 10-5c6-3 9-6 13-11 1-2 2-2 5-2Z"/><path fill="#212121" d="M1447 83v1h-4l-23 2-11 2a421 421 0 0 0-42 5 455 455 0 0 0-54 8l-29 4-38 5a559 559 0 0 0-65 9l-11 2a212 212 0 0 0-35 4l-14 2c-10 1-19 3-27 7l-4-1h2l1-3c6-3 13-4 20-5h3l39-6 11-1a32764 32764 0 0 1 281-35Z"/><path fill="#C1DBEC" d="M1236 113c-3 3-6 3-9 3l-3 1-21 2-25 5-13 2-7 1-13 2c-15 1-30 4-44 7l-7 1-3 3-1 2-5 4-3 2c-2 2-2 2-5 2 0-5 1-8 5-12l7-3 2-1c13-7 27-8 41-10l13-1 29-4 7-1 17-2 24-3h14Z"/><path fill="#B1BFC9" d="M1478 131h1l4 17v3l2 13v2a1014 1014 0 0 1 3 23l5 32a581 581 0 0 1 5 34v3l1 6 1 8v21c-2-2-2-3-3-7v-5a972 972 0 0 0-2-8l-1-6-2-12-1-3a3019 3019 0 0 1-12-97v-3l-1-21Z"/><path fill="#A2BDD0" d="M1293 514v1l-14 1v2l20-1c-4 2-8 2-13 3l-29 3-2 1h-2l-5 1h-2a1477 1477 0 0 1-71 9v-2h-13l-17-1-2-2h2c25 1 48-2 72-5l15-2 22-4 22-3h3l14-1Z"/><path fill="#EFF5FA" d="M127 264c0 4-2 6-4 9l-10 15-3 3-3 8-4 7-6 1c-10 3-18 10-24 18l-5 6c-1-4-2-8-1-12l7-5a826 826 0 0 0 15-10l2-2 8-7 2-2h2l1-2 5-7 4-7 6-1v-2c2-7 2-7 6-9l2-1Z"/><path fill="#B3DAF2" d="m1096 344 2 1v7h2a12815 12815 0 0 1 7 52c2 14 3 29 3 43-2-3-3-6-3-10l-1-2-1-6v-3a310 310 0 0 1-7-43c-2-13-2-26-2-39Z"/><path fill="#B7CAD6" d="M1495 270h1l3 21v-18l3 11v5l1 2 2 16v4l2 14 2 19v31h-1l-3-17a647 647 0 0 0-8-72h-2v-16Z"/><path fill="#CFE4F2" d="m1439 86 4-1c8 1 16 2 23 8 8 11 12 24 12 37-5-5-6-12-7-19l-1-3-3-1-3-4c-2-4-4-6-8-8l-6-3-1-3a4503 4503 0 0 0-22 1h-4l-7 1h-15c10-7 27-5 38-5Z"/><path fill="#1A1A1A" d="M1447 83v1h-4l-23 2-11 2a421 421 0 0 0-42 5l-25 4a669 669 0 0 1-67 8h-7v-1a128194 128194 0 0 1 141-19c13-2 25-4 38-2Z"/><path fill="#9DC3DB" d="M1448 83c7 1 13 3 19 8v2l3 1c11 13 13 33 14 50l2 19v12h-1v-3a7084 7084 0 0 0-4-26v-2c0-4 0-4-2-7v15h-1l-1-10-1-2-1-15 2 3-1-9v-2c-2-9-7-20-14-26l-10-4-5-2 1-2Z"/><path fill="#87C3EA" d="M265 209v1l-8 1v2h-3a3885 3885 0 0 0-51 10h-3l-6 2c-12 2-24 8-35 14l-4 1c1-3 2-4 5-6l6-1 3-2c3-3 5-3 9-5l7-3 5-1 2-1h7v-2h6v-2h2l30-5h3l6-2h3l3-1h13Z"/><path fill="#286895" d="M189 502v5l30 5v1h-18l3 1a864 864 0 0 1 30 16l4 2 3 2 4 4v6l-2 1v-6l-2-1-15-7-3-2-26-14-2-1-3-2-6-3v-6l3-1Z"/><path fill="#333434" d="M1274 521v1a823 823 0 0 1-94 14c-33 4-33 4-44-1l-3-5 10 2v2a314 314 0 0 0 85-7 1085 1085 0 0 0 46-6Z"/><path fill="#145582" d="m159 137 4 6c0 7-2 16-7 21h-3l1-5 1-2 2-6 1-10-3-1c-12 1-22 4-30 12l-4 6-1 2h-4l-1 3v-17h1l1 10 3-4c8-10 18-15 30-17 4 0 6 0 9 2Z"/><path fill="#ACC8DC" d="M1293 514v1l-14 1v2l20-1c-4 2-8 2-13 3a528 528 0 0 0-59 7c3-2 3-2 10-3h-18v-1a16359 16359 0 0 1 74-9Z"/><path fill="#F2F7FA" d="m147 440 8 3c0 3-1 5-3 8-2 5-1 10-1 16v11l-1-1-2-2-2-2-6-4 3-12 4-17Z"/><path fill="#3079AA" d="m115 244 2 1c-1 3-2 4-5 6l-4 2-2 1-7 2v2l-2 1c-8 4-13 8-19 13-2 2-2 2-6 2v-8l4-5 5-2 2-1 3-1a137 137 0 0 0 29-13Z"/><path fill="#3CAAE8" d="m184 456 3 1a334 334 0 0 0 96 16v2c-17 1-33-2-49-4a606 606 0 0 0-31-5v-2l-2-1h-4l-3-1-8-3-1 2-1-5Z"/><path fill="#8DA7BC" d="m267 169-2 1v2h-3l-57 6h-2l-24 6-6-1 6-1v-2l9-2h7v-2a446 446 0 0 1 72-7Z"/><path fill="#98AEBE" d="M1438 84h7l6 2h-2a312 312 0 0 0-36 4h5l9-1h4a25766 25766 0 0 1 18 0v2h-2c-15-1-29 0-44 3l-18 1v-1l5-1a269 269 0 0 0-27 1v-1h3a5555 5555 0 0 0 48-7l11-2h13Z"/><path fill="#00070A" d="M1355 512c-10 5-21 6-32 7a6624 6624 0 0 0-59 5v-1l10-1v-2h2c22-1 22-1 43-4a7195 7195 0 0 1 36-4Z"/><path fill="#DEE5E9" d="M1236 113c-3 3-6 3-9 3l-3 1a546 546 0 0 1-60 4h3l3-1 3-1a263 263 0 0 1 46-5l17-1Z"/><path fill="#256A98" d="m156 163-4 8h2c12 1 12 1 16 3l2 6 9-1-2 1v2l-6 1v2l-5 1 1-3-1-5a46 46 0 0 0-38 4l-2 1-2-1 2-1a995 995 0 0 0 10-5c6-3 9-6 13-11 1-2 2-2 5-2Z"/><path fill="#B3C9D7" d="M1508 343h1v3l2 12v2l4 23c2 9 1 18 1 28h-2v-3l-1-4v-2l-3-12-2-18v-29Z"/><path fill="#E7EEF3" d="M1478 131h1a98 98 0 0 1 4 19l1 9v3a1801 1801 0 0 1 3 34l-3-3c-4-20-6-41-6-62Z"/><path fill="#173955" d="M228 169a185516151 185516151 0 0 0 23 0v1h-3l-42 5-11 1v2a42 42 0 0 1-15 1h-5c3-2 6-2 10-3v-2a150 150 0 0 1 27-4h3l4-1h9Z"/><path fill="#8CB8D6" d="M1166 120h4c-3 2-6 2-10 3l15-1h8v1h-2l-7 1-3 1-13 2-13 2a376 376 0 0 0-40 5c5-5 15-4 22-5l18-3-9-1 7-3h5l6-1h2l10-1Z"/><path fill="#98CCEE" d="M1089 307h1l1 14h2v-10h1a4119 4119 0 0 1 4 25v2l1 14h-1l-1-7v21h-1a10620 10620 0 0 1-5-39l-1-3-1-17Z"/><path fill="#2D2D2D" d="M1483 141h1a12001 12001 0 0 1 11 97h-1a10932 10932 0 0 1-6-47l-4-29-1-21Z"/><path fill="#6AB1E1" d="M1252 109v1h-3l-5 2h13v1a1997 1997 0 0 1-72 9v-1a737 737 0 0 1 19-5v-1c36-6 36-6 48-6Z"/><path fill="#A7D8F5" d="m186 459 17 5v2a379 379 0 0 0 33 4l3 1 4 2 8 1v1h-16v-2h-12v-2h-4l-5-1h-2c-5-1-9-1-13-3v-2h-3l-8-2-1 2-1-6Z"/><path fill="#3078AA" d="m83 366 2 1-3 4 3-2-2 8h1l-1 17h-2l-4-9-1-2-1-3-1-2-1-4 4-4 6-4Z"/><path fill="#236EA1" d="M110 140h4l1 6v3l1 2v9l3-1-1 7v2l-1 3v2c-1 3-4 5-6 7v-3a5852 5852 0 0 0 0-26v-2l-1-9Z"/><path fill="#D0E7F7" d="M1103 396c3 3 3 5 4 8v4l3 18v21l-3-8-1-2v-3l-1-3c-2-12-2-23-2-35Z"/><path fill="#181818" d="M1447 83v1h-4l-23 2-11 2-19 3-33 2v-1a22396 22396 0 0 1 52-7c13-2 25-4 38-2Z"/><path fill="#151515" d="M1513 363h1a8785 8785 0 0 1 9 66c2 11 2 22 1 33h-1v-2c0-12-1-25-3-37a388 388 0 0 1-7-53v-7Z"/><path fill="#4FA7E0" d="M191 225v3l-12 2v2l-3 1-5 2-2 1-10 6h-3l-3 1-1 2c-1 3-4 3-7 5-4 2-8 6-11 10l-6 4c7-18 36-29 52-36l2-1 9-2Z"/><path fill="#8BCCF2" d="M242 472h7l2 1 9 1h13l20 3v2l-28-1h-3l-11-2v-2h-8l-1-2Z"/><path fill="#D5DBDF" d="M1147 125c-3 3-6 3-10 4h-3l-19 2-10 3h-6c2-3 4-4 8-5l8-2c10-3 21-2 32-2Z"/><path fill="#6BB1E1" d="M1329 99v1l-6 1h12l11-1v1a16768 16768 0 0 1-87 11v-1a1032 1032 0 0 1 59-8v-2h-7v-1l18-1Z"/><path fill="#94B5CB" d="M1495 270h1l3 21v-18l3 12v2l1 19h-1v16h-1a3971 3971 0 0 1-3-22l-1-4v-10h-2v-16Z"/><path fill="#266997" d="M81 171h2v2l1 9v3c0 6 1 11 3 16v7l-6 4v-2l1-2 1-2-1-8c-2-6-2-11-2-17v-3l1-7Z"/><path fill="#4D4D4D" d="M1520 428c5 7 3 16 3 24v4c0 11-2 18-9 26-5 5-11 8-18 9l-4-1 5-2 3-1 5-1 1-3 4-3c5-3 6-5 8-10h2l1-19v-3l-1-20Z"/><path fill="#D0E7F6" d="m1078 204 2 1c4 15 5 33 4 49l-3-9-1-4v-3l-1-3c-3-22-3-22-1-31Z"/><path fill="#E6EFF5" d="m1323 512-1 2-8 2h-3a990 990 0 0 1-39 3v-1h7v-2c32-5 32-5 44-4Z"/><path fill="#F6F9FB" d="m114 402 3 3-2 3c-5 8-6 18-7 27-6-6-6-6-7-10l4-7a1689 1689 0 0 0 6-12l3-4Z"/><path fill="#343434" d="m1503 302 3 10v7h2a2324 2324 0 0 1 5 55h-1a5992 5992 0 0 1-9-72Z"/><path fill="#E3E9ED" d="M1518 464h1c1 6-1 10-4 14l-7 5-4 3-1 1-5-1 2-3h2l1-3 2-1c4-2 5-5 8-8l1-2h2v-2l2-3Z"/><path fill="#EBF2F7" d="M1435 86h2c4 0 8 0 12 2v1h-3a4664 4664 0 0 0-19 1h-4l-7 1h-15c4-3 8-3 13-4h2l19-1Z"/><path fill="#384E60" d="M1359 509h4l-2 3a92 92 0 0 1-14 1l-3 1-14 2h-3a7634 7634 0 0 0-17 2l-3 1h-12c8-4 18-4 27-5h11v-2h4l5-1h5l2-1 10-1Z"/><path fill="#B0D7F0" d="M127 264c0 4-2 6-4 9l-10 15-4 5-2 5-1-4 2-4v-2c0-5 2-8 5-11l6-1v-2c2-7 2-7 6-9l2-1Z"/><path fill="#C1E0F4" d="m155 241-2 1c-13 9-13 9-24 21l-8 5c0-5 3-7 6-10l11-9 2-2 7-3v-2c3-2 5-2 8-1Z"/><path fill="#010C14" d="M204 514c7 0 15 1 22 3l15 1v3h-14c-9 0-16-1-23-6v-1Z"/><path fill="#EBEFF1" d="m1138 528 7 2 20 2h10v2l-20 1h-7l-5-1v-2h-5v-4Z"/><path fill="#535353" d="m1133 530 10 2v2h31l-4 1v2l-14 1h-2c-6 0-13-1-18-3l-3-5Z"/><path fill="#F5F7F9" d="M1516 413c8 13 5 35 5 49l-3 1v-2c0-11 0-21-2-32v-16Z"/><path fill="#6EB2E2" d="M1197 527v1l-18 3 10 1v1l-14 1v-2h-13l-17-1-2-2h3a2368 2368 0 0 0 51-2Z"/><path fill="#CFE7F7" d="M1088 285c3 3 3 5 3 9s0 4 2 7v20h-2l-2-12-1-3v-21Z"/><path fill="#7BBCE7" d="M294 207c-2 3-3 3-6 4l-18 1h-13c2-2 2-2 5-2h3v-2l29-1Z"/><path fill="#7E7E7E" d="M1479 117c5 7 4 18 5 27l2 19v12h-1a28767 28767 0 0 1-4-30l-2-23v-5Z"/><path fill="#2A74A7" d="m170 184 1 3c-8 9-18 15-29 18l1-4 7-4c8-3 14-7 20-13Z"/><path fill="#B6DBF2" d="M187 223h6c-3 3-6 3-9 5l-21 9-8 3c1-3 2-4 5-6l6-1 3-2c3-3 5-3 9-5l9-3Z"/><path fill="#18537C" d="m132 143 2 1-7 6-7 10h-4l-1 3v-17h1l1 10 1-2c9-11 9-11 14-11Z"/><path fill="#BBBDBE" d="M1318 101v2c-11 4-23 3-34 2v-1c11-2 22-3 34-3Z"/><path fill="#9FD1F0" d="M1109 427h1l2 14 1 3 1 19h-1l-2-14v17h-1a2858 2858 0 0 1-4-33h1l2 11v-17Z"/><path fill="#E5ECF1" d="m1419 499-9 3-2 1h-3l-2 1h-20c4-3 7-3 12-4h2l22-1Z"/><path fill="#EAF1F6" d="M1494 250h1l2 10v3c2 8 3 16 3 25v5c-3-3-3-5-3-8l-1-4v-2a674 674 0 0 0-2-29Z"/><path fill="#1D1D1D" d="M1363 93v1a5435 5435 0 0 1-35 5l-3 1h-2l-6-1c4-4 9-3 14-4l6-1 26-1Z"/><path fill="#282828" d="M1136 124v1h-3l-25 4h-2l-12 5-4-1h2l1-3c14-6 28-6 43-6Z"/><path fill="#EEF4F8" d="M1362 96c-3 3-4 3-8 3l-4 1h-2a654 654 0 0 0-28 2c3-2 5-3 9-3l4-1h4l3-1 22-1Z"/><path fill="#171717" d="M1448 83c7 1 13 3 19 8v2l3 1c5 6 10 15 9 23l-4-9c-4-8-7-14-16-18a130 130 0 0 0-12-5l1-2Z"/><path fill="#B7C7D1" d="M1520 432h1l1 19v3c0 6 0 11-2 16h-1l-1-5-1 2-4 3 1-2 3-18v-3l1-7h1v17l-1 6 2-1v-30Z"/><path fill="#9EBDD3" d="m1330 509-3 2 24-1v1l-18 1v2l-16 1v-1l5-1-14-1v-1l22-2Z"/><path fill="#2D76A8" d="M115 394c-1 9-5 18-10 26l-4 1 6-14 4-9c1-4 1-4 4-4Z"/><path fill="#51B2EA" d="m184 456 4 1 4 1 2 1 13 3v2h2v2h5l3 1 4 2-18-3v-2l-2-1h-4l-3-1-8-3-1 2-1-5Z"/><path fill="#E9F1F6" d="m99 258-2 1c-8 4-15 9-21 15-1-4-1-6 1-10l9-4 3-1c7-2 7-2 10-1Z"/><path fill="#E1ECF4" d="M1241 523c-10 6-24 5-36 5v-2c12-2 24-4 36-3Z"/><path fill="#B6B9BC" d="M1252 109v1l-7 1-1 3-10 1v-1c-7 0-12 0-19 2h-11v-1c36-6 36-6 48-6Z"/><path fill="#F3F6F9" d="m1091 136-4 7-6 5-4 2c0-6 1-8 5-12 3-2 6-2 9-2Z"/><path fill="#97BFDC" d="M1434 495v1h-7v2l3 2-17 2 2-2h-18v-1a3428 3428 0 0 1 37-4Z"/><path fill="#93BCDA" d="M1397 500v1l-11 2 7 1v1l-16 2 1-2h-18v-1a3428 3428 0 0 1 37-4Z"/><path fill="#90B9D7" d="m1486 488-11 3 8 1v1l-16 2v-2l-11-1v-1h3l21-4 6 1Z"/><path fill="#E9F2F9" d="M1501 304c4 4 3 9 4 14a605 605 0 0 0 1 10l1 4-1 9-3-9v-3l-1-3v-3l-1-19Z"/><path fill="#F1F6F9" d="M1236 113c-3 3-6 3-10 4h-3l-22 1 8-3h2l3-1h3l19-1Z"/><path fill="#2997DD" d="m120 278 1 2-5 8c-5 5-7 11-9 18l-4-1 2-4 1-3 3-6h2l1-3c2-5 4-8 8-11Z"/><path fill="#D1D6DA" d="M1464 492h7l-4 1v2l-10 2h-5l-3 1h-7v-2l10-1-3-2 15-1Z"/><path fill="#EAF1F7" d="M1511 376h1c5 24 5 24 4 35h-2a2281 2281 0 0 1-3-35Z"/><path fill="#1F1F1F" d="M1092 133h-2l-1 2-3 3c-5 2-7 5-10 9l-3 12-1 3-2 1c1-11 4-19 12-27 3-3 6-4 10-3Z"/><path fill="#337AAB" d="M106 256c4 0 6 0 10 2 2 3 2 4 2 7l-3 7-3 1 1-4v-9l-8-1 1-3Z"/><path fill="#242424" d="M1495 230h1a1803 1803 0 0 1 4 43h-1c-2-14-4-28-4-43Z"/><path fill="#97BDD7" d="M1329 99v1l-6 1h12l11-1v1c-10 2-20 4-30 3l2-1v-2h-7v-1l18-1Z"/><path fill="#E6ECEF" d="M1204 528c-6 3-12 4-19 4h-8c6-6 19-4 27-4Z"/><path fill="#13171A" d="M1274 520h9l12 1v1l-12 1h-3l-4 1h-12v-1l10-1v-2Z"/><path fill="#E3F0F9" d="m1076 154 1 11v7l-1 4v10h-1v-3l-1-4v-4l-1-3-2-1 1-2 3-12 1-3Z"/><path fill="#040E15" d="M1311 517h4v3l-17 1h-9v-2h7l4-1 11-1Z"/><path fill="#E9F4FB" d="M1099 367h2l2 28c-5-9-4-19-4-28Z"/><path fill="#93B7CE" d="M1486 176h1l1 15v2a2771 2771 0 0 1 0 26h-1a2524 2524 0 0 1-3-30h1l1 6v-19Z"/><path fill="#DBE6EF" d="M131 212v1h-2c-8 0-15 2-22 5l-5 2-2-1c5-5 10-7 16-8h2c5-1 8-1 13 1Z"/><path fill="#2270A4" d="M122 213c9-1 9-1 13 1 3 3 3 5 3 9l-3 5h-2v-2l1-2v-3l-1-4-7-2h-5l1-2Z"/><path fill="#E8EFF5" d="m1382 504-2 1-3 2h-8l-4 1h-11c8-5 19-4 28-4Z"/><path fill="#E8EEF2" d="M1483 170h2l2 26-2-1-1-7v-2l-1-16Z"/><path fill="#EDF3F8" d="M1125 128c-3 3-6 3-10 4l-10 2h-6c6-7 17-6 26-6Z"/><path fill="#ABD3ED" d="M1493 239h1l1 30h-1a1880 1880 0 0 1-3-28h2v-2Z"/><path fill="#E9F2F8" d="m1352 508-1 2-4 1h-8l-14 1c6-6 19-4 27-4Z"/><path fill="#174D73" d="M83 158h3l-1 5v3l-3 4c-2 3-2 6-2 9v7h-1c-1-10 0-18 4-28Z"/><path fill="#99C7E5" d="M1479 152h1l2 13 1-6h1v29h-1l-2-13-1-4-1-19Z"/><path fill="#262626" d="M1513 363h1c2 12 4 24 3 36h-1l-3-36Z"/><path fill="#21608C" d="m147 137 4 3-6 1-4 1-3 1-3 1h-2l-2-2 4-2 2-1c3-2 6-2 10-2Z"/><path fill="#DBE6EE" d="M69 429c5 0 8 0 12 3l5 7-10-4-3-2-4-4Z"/><path fill="#D9DFE4" d="M1286 105h10c-3 3-4 3-8 3l-18-1v-1l16-1Z"/><path fill="#E6EEF4" d="m49 376 7 2 4 8-1 2-4-3-3-2c-2-2-3-4-3-7Z"/><path fill="#C6CBCE" d="m1077 145 2 4 3-1-1 3h-2l-1 2-3 5-1 7h-1c0-7 0-13 3-19l1-1Z"/><path fill="#464646" d="m1513 478-1 6c-5 4-10 6-16 7l-4-1 5-2 3-1 5-1 1-3 4-3 2-1 1-1Z"/><path fill="#3D4852" d="M1359 509h4l-2 3-6 1h-22v-1h4l5-1h5l2-1 10-1Z"/><path fill="#343434" d="M1498 491c-9 4-19 5-29 5 3-3 4-3 8-3l3-1h4l3-1h11Z"/><path fill="#98B0C3" d="m200 177-1 2-8 2c-5 0-9 1-14 3l-4-1 6-1v-2l9-2 4-1h8Z"/><path fill="#1D5F8C" d="M159 149h1c0 6 0 10-3 15h-4c3-11 3-11 6-15Z"/><path fill="#EAF5FB" d="M131 256c0 5-2 7-6 10l-4 2c0-5 3-7 6-11l4-1Z"/><path fill="#8B8B8B" d="M1465 93c5 4 7 7 10 13l1 2c2 4 3 8 3 13-3-4-4-8-6-13l-7-12-1-3Z"/><path fill="#E5ECF0" d="M1318 101v2c-5 2-10 3-15 2l-3-2 18-2Z"/><path fill="#B0C1CD" d="m1154 531 35 1v1l-14 1v-2h-21v-1Z"/><path fill="#313131" d="M1268 105h8v1l-11 2h-6l-3 1-6-1h3v-2l15-1Z"/><path fill="#505050" d="M1414 502v1h-6v2l-21 1v-1l8-1 3-1 16-1Z"/><path fill="#93CFF1" d="m186 459 17 5v1c-6 0-10 0-15-2l-1 2-1-6Z"/><path fill="#397EAD" d="m143 203-1 3-6 2h-3l-3 1-1-2 3-3 3-1 3-1 5 1Z"/><path fill="#D4D4D4" d="M1443 86c7 0 13 0 19 4l2 3-2-1-11-2h-2l-1-2-5-1v-1Z"/><path fill="#79B9E4" d="M1505 345h1l2 11v2l1 17h-1c-2-6-2-12-3-19v-11Z"/><path fill="#03131F" d="M174 175h11c-3 3-6 3-10 3v2l-3 1-2-5 4-1Z"/><path fill="#ECF5FC" d="M1093 322c3 3 3 7 3 11v10c-3-5-3-8-3-14v-7Z"/><path fill="#EDF4F9" d="M1516 413c2 3 3 5 3 8l1 3-1 7-2 2-1-20Z"/><path fill="#396F96" d="M169 178h2l2 2 2-1h6l-2 1v2l-6 1v2l-5 1 1-8Z"/><path fill="#DEEAF1" d="M84 369v5l-1 3-1 3-1 2h-2l-2-7 7-6Z"/><path fill="#EBF5FB" d="M1084 255c4 4 3 12 3 17v4c-3-5-3-8-3-13v-8Z"/><path fill="#272727" d="M1448 83c7 1 12 3 17 7l-1 3-2-2-15-6 1-2Z"/><path fill="#EFF7FC" d="m1110 448 2 1 1 20c-4-6-3-14-3-21Z"/><path fill="#6AB5E6" d="m145 247 2 1-2 2-16 14c0-4 1-5 4-8l6-5 2-1 4-3Z"/><path fill="#031521" d="M213 169h8l-12 3h-8v-2l12-1Z"/><path fill="#EEF6FC" d="m1081 233 2 1 1 20c-4-7-3-14-3-21Z"/><path fill="#ECF4FA" d="M1490 219h1l2 22h-2l-1-22Z"/><path fill="#EFF5F9" d="m1473 112 3 1c2 5 2 11 2 17-3-3-3-6-4-10v-2l-1-6Z"/><path fill="#F0F7FC" d="M1105 411c3 3 3 7 3 11v10c-4-7-3-14-3-21Z"/><path fill="#535353" d="M1510 351h1v5h2v18h-1l-2-23Z"/><path fill="#F0F7FC" d="M1088 285c3 3 3 7 3 11v10c-4-7-3-14-3-21Z"/><path fill="#CCE4F4" d="m121 268-2 8-5 1 1-4v-2l1-2 5-1Z"/><path fill="#74BBE8" d="M127 264c0 4-2 5-4 9l-2 3-2 2v-4c3-8 3-8 8-10Z"/><path fill="#AEC1CE" d="m1112 129-2 1h-3l-3 1-4 2 5 1c-2 2-2 2-5 2h-3l1-3-2-1c10-5 10-5 16-3Z"/><path fill="#BADCF0" d="m114 402 3 3a259 259 0 0 1-4 6l-1 2h-3l1-4 1-3 3-4Z"/><path fill="#56ACE2" d="M109 292h1c0 5-1 9-3 14l-4-1 2-4 1-3 3-6Z"/><path fill="#849FB5" d="m237 171-2 1v2l-16-1v-1l18-1Z"/><path fill="#07263C" d="M107 481c11-1 11-1 15 3v1c-11-1-11-1-15-3v-1Z"/><path fill="#CBCFD3" d="M1508 343h1l1 8v2l1 14h-3v-24Z"/><path fill="#74B9E6" d="M235 212h14v2l-15 1 1-3Z"/><path fill="#EFF5F9" d="M1227 523h14c-7 3-14 3-21 3v-1h7v-2Z"/><path fill="#041725" d="M204 514h6l4 1 7 2h-10l-1 2-6-4v-1Z"/><path fill="#387DAD" d="m122 214 5 1h4v1h-6l-4 1-8 1 1-4h8Z"/><path fill="#385E7F" d="M189 175h12v1h-6v2l-10 1v-2h4v-2Z"/><path fill="#222" d="m1479 117 3 7v7l1 6c-3-5-4-8-4-14v-6Z"/><path fill="#144F77" d="m245 543 1 4-6 5-3-1 8-8Z"/><path fill="#95C7EA" d="M1118 492h1l1 3 1 4v2l4 9-1 4c-6-14-6-14-6-22Z"/><path fill="#268ED4" d="m1092 138 4 1-13 11c0-3 0-3 2-5l2-2 5-5Z"/><path fill="#ADD3EC" d="M1470 108h4l1 4h-2l1 4v8c-2-4-2-8-3-13l-1-3Z"/><path fill="#353535" d="M1319 97h17v1l-19 2 2-3Z"/><path fill="#BEBEBE" d="m1084 137 4 1-3 4-2 1c-2 2-2 2-5 2 1-3 3-6 6-8Z"/><path fill="#051827" d="m42 314 4 3-1 7-5-5 2-1v-4Z"/><path fill="#5C5C5C" d="M1480 130c2 4 3 7 3 12v5l-2-1-1-8v-8Z"/><path fill="#272727" d="M1092 133h-2l-1 2c-1 3-3 3-6 4l-3 1c1-3 3-5 5-6 4-2 4-2 7-1Z"/><path fill="#D8DEE2" d="M1487 198h2l1 12-3 1v-13Z"/><path fill="#0F4569" d="m129 143 2 1-11 11c0-4 2-6 5-9l4-3Z"/><path fill="#454545" d="M1103 129c-8 5-8 5-11 5l-2-1h2l1-3 10-1Z"/><path fill="#F0F0F0" d="m1513 474 1 4c-6 5-6 5-8 5l7-9Z"/><path fill="#6CB7E7" d="m117 278 1 2-3 5-1 3-4 4c1-6 3-10 7-14Z"/><path fill="#D8E6EF" d="m99 258-14 7 1-4 5-2 3-1h5Z"/><path fill="#165885" d="m25 242 2 1-3 7-4 1c1-4 2-6 5-9Z"/><path fill="#D7E3EC" d="M1370 94v3l-10 1-2-3 12-1Z"/><path fill="#3897D8" d="m1396 313-8 11c0-4 1-6 3-9l5-2Z"/><path fill="#1E1E1E" d="m1124 523 11 10c-4-1-6-2-9-5v-2h-2v-3Z"/><path fill="#191919" d="m1519 472 1 3-3 4-2 2-2 2-3-1 2-2 4-5h2l1-3Z"/><path fill="#15527C" d="m55 187 2 1-9 7c3-8 3-8 7-8Z"/><path fill="#B6DBF2" d="m155 241-8 6-2-1 4-5h6Z"/><path fill="#99B4C8" d="m108 213 3 1c-3 3-6 5-11 6l8-7Z"/><path fill="#B5C8D7" d="m49 376 5 1v6l-4-2-1-5Z"/><path fill="#00070C" d="M211 517h10v2l-9 1-1-3Z"/><path fill="#171717" d="M1498 491c-9 3-9 3-14 3 4-3 9-5 14-3Z"/><path fill="#08263D" d="M59 425c6 2 6 2 8 5l-10-2 2-3Z"/><path fill="#B7DBF3" d="M129 258h2c-1 3-3 6-6 8l-1-2 5-6Z"/><path fill="#809DB4" d="m207 175-2 1v2l-10-1v-1l12-1Z"/><path fill="#87C6EB" d="m147 440 8 3-1 5-1-2c-1-3-3-3-6-4v-2Z"/><path fill="#3DA7E4" d="M148 438h3v2l6 2-2 2-8-4 1-2Z"/><path fill="#469FDA" d="M1506 360h1c2 5 2 9 2 15h-1c-2-5-2-9-2-15Z"/><path fill="#2771A3" d="M57 259h2l-1 9-3-2 2-7Z"/><path fill="#E3ECF2" d="M1148 531h6l-2 3h-9v-1l5-1v-1Z"/><path fill="#D5E9F6" d="m1360 428 2 1-7 7-1-3 6-5Z"/><path fill="#DDE4E9" d="M1518 422h1l1 9-3 2 1-11Z"/><path fill="#C8E3F5" d="M179 228h-2v2l-8 1c3-3 6-5 10-3Z"/><path fill="#256D9E" d="m89 152 1 2-3 6-3-1v-3l5-4Z"/><path fill="#D1D7DB" d="m1497 484 2 1v4l-4-1 1-2-2-1 3-1Z"/><path fill="#135684" d="M83 158h3l-1 5-4 2 2-7Z"/><path fill="#125078" d="m8 303 3 1-3 4-2 3 2-8Z"/><path fill="#D2E6F4" d="m1212 115 10 1v1l-10 1v-3Z"/></svg>