<svg xmlns="http://www.w3.org/2000/svg" width="1536" height="602"><path fill="#5DD5A0" d="M1020 99h14a34627 34627 0 0 1 122 0 1035 1035 0 0 1 5 12h2l4 6 1 2 2 7 3 1a109 109 0 0 1 7 12l1 2 7 12 1 4h2l2 5 57-1 2-4h2l1-2 6-12h2v-2l4-9 2-4 2-2h2l1-3 5-9 6-10 3-5a113 113 0 0 1 11 0h9a8157 8157 0 0 0 24 0h19a29039 29039 0 0 1 155 0l-3 10-2 2-1 3-3 5-2 2-3 6h-2l-1 2-5 11a375 375 0 0 0-12 19l-4 8c-6 11-6 11-9 13v2l-4 6-5 10-1 2-3 5h-2l-2 8c1 4 3 5 6 7l7 8 4 4c3 4 6 7 8 12l2 2 5 8 7 12c7 12 10 25 12 38v2a176 176 0 0 1-29 142c-6 8-13 16-21 22l-2 2c-6 6-12 11-19 15l-14 7a108 108 0 0 1-14 7l-18 7-4 1a213 213 0 0 1-35 8l-23 3a1658 1658 0 0 0-35 3l-2 1h-10c-7 0-7 0-12 3l-4 7-1 3-1 2-8 12-5 10h-2l-1 3-5 10-1 2-3 4h-4l-2-6-3-1-4-6c-1-5-1-5-5-8l-4-8-8-14-4-7-4-5h-15a2946 2946 0 0 1-18 0h-14a11224 11224 0 0 0-209-1h-41a257363 257363 0 0 0-105 0h-27a452550 452550 0 0 1-195 0h-6a1685318 1685318 0 0 1-279 0 348 348 0 0 1-50-3l-3-1h-9l3 1a2873 2873 0 0 1 19 10l3 2c3 2 5 4 6 7v7c-3 3-5 5-9 6-5 0-9-2-13-5l-3-1a1226 1226 0 0 1-14-8l-3-1a906 906 0 0 0-15-8c-11-8-23-6-36-6a125 125 0 0 1-73-24c-7-5-7-5-7-8 0-4 1-7 3-10l7-1h3l2-1h9l-3-1c-24-5-44-15-58-36l-4-8 2-5 1-2c2-2 3-3 6-3h7l11 1-3-1c-17-6-33-16-41-33-3-6-4-13-3-20 2-3 3-3 6-5 7-1 14 2 20 5l3 2 1-2-3-1c-12-4-23-16-29-28-5-12-8-27-3-39 3-3 5-4 10-4 5 1 9 4 13 7l2 1 8 9 2 1c-1-4-3-6-6-9a62 62 0 0 1-20-42c0-9 2-17 7-24 4-2 7-2 11-2 9 4 16 14 20 22v-7l-2-3c-9-14-14-29-10-46 2-8 6-17 13-21l9 1c9 7 12 16 14 27 4-5 4-5 5-10l-2-7c-3-14-3-28 3-42 5-7 12-14 20-18 3 0 5 0 8 2l3 4 2 13 1-2c7-10 16-15 28-18l3-1 9 1c3 2 4 3 5 6 0 11-5 21-11 29h9l6 3c5 2 11 0 16-1l6-2h3l23-4 2-1a2635 2635 0 0 1 20-2h2c17-2 34-2 51-2h11a19799 19799 0 0 1 266 0h106a4566001 4566001 0 0 0 299 0l-2-4-5-8-10-16-2-7h-2l-2-3-2-3-1-2-8-14v-5l82-1Z"/><path fill="#3FB782" d="M1020 99h14a34627 34627 0 0 1 122 0 1035 1035 0 0 1 5 12h2l4 6 1 2 2 7 3 1a109 109 0 0 1 7 12l1 2 7 12 1 4h2l2 5 57-1 2-4h2l1-2 6-12h2v-2l4-9 2-4 2-2h2l1-3 5-9 6-10 3-5a113 113 0 0 1 11 0h9a8157 8157 0 0 0 24 0h19a29039 29039 0 0 1 155 0l-3 10-2 2-1 3-3 5-2 2-3 6h-2l-1 2-5 11a375 375 0 0 0-12 19l-4 8c-6 11-6 11-9 13v2l-4 6-5 10-1 2-3 5h-2l-2 8c1 4 3 5 6 7l7 8 4 4c3 4 6 7 8 12l2 2 5 8 7 12c7 12 10 25 12 38v2a176 176 0 0 1-29 142c-6 8-13 16-21 22l-2 2c-6 6-12 11-19 15l-14 7a108 108 0 0 1-14 7l-18 7-4 1a213 213 0 0 1-35 8l-23 3a1658 1658 0 0 0-35 3l-2 1h-10c-7 0-7 0-12 3l-4 7-1 3-1 2-8 12-5 10h-2l-1 3-5 10-1 2-3 4h-4l-2-6-3-1-4-6c-1-5-1-5-5-8l-4-8-8-14-4-7-4-5h-15a2946 2946 0 0 1-18 0h-14a11224 11224 0 0 0-209-1h-41a257363 257363 0 0 0-105 0h-27a452550 452550 0 0 1-195 0h-6a1685318 1685318 0 0 1-279 0 348 348 0 0 1-50-3l-3-1h-9l3 1a2873 2873 0 0 1 19 10l3 2c3 2 5 4 6 7v7c-3 3-5 5-9 6-5 0-9-2-13-5l-3-1a1226 1226 0 0 1-14-8l-3-1a906 906 0 0 0-15-8c-11-8-23-6-36-6a125 125 0 0 1-73-24c-7-5-7-5-7-8 0-4 1-7 3-10l7-1h3l2-1h9l-3-1c-24-5-44-15-58-36l-4-8 2-5 1-2c2-2 3-3 6-3h7l11 1-3-1c-17-6-33-16-41-33-3-6-4-13-3-20 2-3 3-3 6-5 7-1 14 2 20 5l3 2 1-2-3-1c-12-4-23-16-29-28-5-12-8-27-3-39 3-3 5-4 10-4 5 1 9 4 13 7l2 1 8 9 2 1c-1-4-3-6-6-9a62 62 0 0 1-20-42c0-9 2-17 7-24 4-2 7-2 11-2 9 4 16 14 20 22v-7l-2-3c-9-14-14-29-10-46 2-8 6-17 13-21l9 1c9 7 12 16 14 27 4-5 4-5 5-10l-2-7c-3-14-3-28 3-42 5-7 12-14 20-18 3 0 5 0 8 2l3 4 2 13 1-2c7-10 16-15 28-18l3-1 9 1c3 2 4 3 5 6 0 11-5 21-11 29h9l6 3c5 2 11 0 16-1l6-2h3l23-4 2-1a2635 2635 0 0 1 20-2h2c17-2 34-2 51-2h11a19799 19799 0 0 1 266 0h106a4566001 4566001 0 0 0 299 0l-2-4-5-8-10-16-2-7h-2l-2-3-2-3-1-2-8-14v-5l82-1Zm-897 55c-3 4-5 9-6 14-2 7-2 7-5 10a466290524 466290524 0 0 1 0-35l-2-2c-7 0-12 4-17 9-10 10-11 21-10 35l3 13v10l-5 8-1 3-4 5v-2c-3-18-3-18-14-32l-5-1c-7 4-10 12-13 20-3 15 3 30 11 43l2 2c2 3 1 7 0 11v2l-2 8-1-2c-4-11-10-22-20-28-3-1-4-2-7-1l-4 6-1 2c-4 10-3 22 1 32 4 9 10 17 17 24l2 2 6 6h2v22l-4-6c-7-12-16-24-30-29l-5 1c-2 5-2 9-2 15v2c0 14 5 26 15 35 6 7 14 12 23 15 6 3 11 5 14 11l6 15c-2 0-4-2-5-4-12-10-27-23-44-23l-3 3c-1 10 3 18 8 26a89 89 0 0 0 48 27l4 1c5 1 7 2 11 6l3 5 1 2 4 6-9-4c-8-5-16-8-25-11l-3-1-11-1h-4l-5 1c-2 3-1 5 0 8l7 10 2 2c10 14 28 21 44 25l4 1 15 2c8 0 13 0 19 6a167 167 0 0 1 9 9l-2-1c-29-9-29-9-59-7l-1 6c22 17 46 30 75 29 21-2 36 2 54 13a196 196 0 0 0 18 10l2 1 6 3c3 2 5 3 9 2 3-1 3-1 4-4v-6l-3-2-28-15-19-10-3-2-4-1v-2c4-17 4-34-5-49-4-6-9-13-16-16-3 0-5 1-7 3-6 9-6 19-4 30a227 227 0 0 0 2 12l-2-2-17-16 1-2c6-17 11-35 3-53l-6-8-2-2-5-3c-5 2-9 5-12 10-4 7-5 13-5 21v12l-5-6-1-2-7-9 4-8c9-16 17-33 12-51l-7-15-7 1c-9 8-16 18-17 30v10h-2l-1-4-7-16 2-1c15-8 26-23 32-39a58 58 0 0 0 1-18l-1-7c-3-2-6-1-9 0-15 5-24 17-31 31l-1 2-1-8-1-7 1-10 13-8c15-8 27-22 36-37-2 14-15 25-26 33l-19 13-3 3c0 4 1 7 3 10l1-2c7-9 16-19 27-22h9l3 3h2l-1 10v3a61 61 0 0 1-8 26l-1 2h4c4 1 5 3 7 7 6 10 7 24 4 36-3 10-8 20-14 29v4c1 3 3 6 6 8v-3c1-8 2-15 6-22l2-3c3-4 6-7 10-7l7-1v2l2 2c9 9 12 18 12 30a78 78 0 0 1-6 29v8l5 4 2 2 3 2v-14c0-7 1-13 4-19l3-3v-2c6-1 9 0 14 3 9 9 16 20 18 32v16l-1 16c13 7 31 7 45 8h4c36 3 73 3 110 2a15104 15104 0 0 1 179 0 209046 209046 0 0 0 169 0h2a227685 227685 0 0 1 226 0h260l-4-8-1-2-7-12-5-9h-2l-1-2-7-15h-2l-1-2-5-11a357 357 0 0 1-18-31h-2l-1-2c-1-5-4-9-6-13h-2l-1-2-7-15h-2l-1-2c-1-5-4-9-6-13h-2l-1-3-4-8a692 692 0 0 1-19-33h-2l-1-3-4-8-8-15-2-2-2-4h-2l-1-3-4-8-8-15-2-2-2-4h-2l-1-2c-1-5-4-9-6-13h-2l-1-2c-2-8-7-15-11-21l-2-4h-2l-1-2c-3-9-7-17-13-24l-4-8h-2l-1-3-4-9-2-3-2-3-1-3c-2-3-3-2-7-3a288 288 0 0 0-20 0h-11a3967 3967 0 0 0-146 0 354393 354393 0 0 1-231 0h-22l-84 1h-9a491380 491380 0 0 0-127 0c-42-1-42-1-83 1l-2 1c-17 1-34 4-51 7h-2l-7 2-4 1-8 6a86 86 0 0 1-45 21l-12 3c-4 0-6 2-10 4l-1 3 2-1a723 723 0 0 1 9-3c7-3 15-3 22-2l4 5c0 8-3 14-8 19-11 10-26 17-40 22h-2l-5 2-5 2c-2 4-2 6-1 10l2-2c5-5 10-8 16-11l-9 8-14 13v-3l3-17h2c19-5 44-15 56-32 2-4 3-7 3-11l-2-3c-15-2-27 4-40 12 1-4 4-8 7-12l1-5h2c22-2 48-8 64-24l3-7-4-4c-13-4-25 1-37 5l3-2c14-7 21-12 26-27l1-11c-2-2-2-2-5-2-12 0-24 5-31 15Z"/><path fill="#33485D" d="M1020 99h14a34627 34627 0 0 1 122 0 1035 1035 0 0 1 5 12h2l4 6 1 2 2 7 3 1a109 109 0 0 1 7 12l1 2 7 12 1 4h2l2 5 57-1 2-4h2l1-2 6-12h2v-2l4-9 2-4 2-2h2l1-3 5-9 6-10 3-5a113 113 0 0 1 11 0h9a8157 8157 0 0 0 24 0h19a29039 29039 0 0 1 155 0l-3 10-2 2-1 3-3 5-2 2-3 6h-2l-1 2-5 11a375 375 0 0 0-12 19l-4 8c-6 11-6 11-9 13v2l-4 6-5 10-1 2-3 5h-2l-2 8c1 4 3 5 6 7l7 8 4 4c3 4 6 7 8 12l2 2 5 8 7 12c7 12 10 25 12 38v2a176 176 0 0 1-29 142c-6 8-13 16-21 22l-2 2c-6 6-12 11-19 15l-14 7a108 108 0 0 1-14 7l-18 7-4 1a213 213 0 0 1-35 8l-23 3a1658 1658 0 0 0-35 3l-2 1h-10c-7 0-7 0-12 3l-4 7-1 3-1 2-8 12-5 10h-2l-1 3-5 10-1 2-3 4h-4l-2-6-3-1-4-6c-1-5-1-5-5-8l-4-8-8-14-4-7-4-5h-15a2946 2946 0 0 1-18 0h-14a11224 11224 0 0 0-209-1h-41a257363 257363 0 0 0-105 0h-27a452550 452550 0 0 1-195 0h-6a1685318 1685318 0 0 1-279 0 348 348 0 0 1-50-3l-3-1h-9l3 1a2873 2873 0 0 1 19 10l3 2c3 2 5 4 6 7v7c-3 3-5 5-9 6-5 0-9-2-13-5l-3-1a1226 1226 0 0 1-14-8l-3-1a906 906 0 0 0-15-8c-11-8-23-6-36-6a125 125 0 0 1-73-24c-7-5-7-5-7-8 0-4 1-7 3-10l7-1h3l2-1h9l-3-1c-24-5-44-15-58-36l-4-8 2-5 1-2c2-2 3-3 6-3h7l11 1-3-1c-17-6-33-16-41-33-3-6-4-13-3-20 2-3 3-3 6-5 7-1 14 2 20 5l3 2 1-2-3-1c-12-4-23-16-29-28-5-12-8-27-3-39 3-3 5-4 10-4 5 1 9 4 13 7l2 1 8 9 2 1c-1-4-3-6-6-9a62 62 0 0 1-20-42c0-9 2-17 7-24 4-2 7-2 11-2 9 4 16 14 20 22v-7l-2-3c-9-14-14-29-10-46 2-8 6-17 13-21l9 1c9 7 12 16 14 27 4-5 4-5 5-10l-2-7c-3-14-3-28 3-42 5-7 12-14 20-18 3 0 5 0 8 2l3 4 2 13 1-2c7-10 16-15 28-18l3-1 9 1c3 2 4 3 5 6 0 11-5 21-11 29h9l6 3c5 2 11 0 16-1l6-2h3l23-4 2-1a2635 2635 0 0 1 20-2h2c17-2 34-2 51-2h11a19799 19799 0 0 1 266 0h106a4566001 4566001 0 0 0 299 0l-2-4-5-8-10-16-2-7h-2l-2-3-2-3-1-2-8-14v-5l82-1Zm-69 10 5 10a754 754 0 0 1 18 32h2l1 2 4 10 2 3 1 3h-2l-16-1h-24a21983 21983 0 0 0-266 0h-3a177530 177530 0 0 1-346 0c-59-1-59-1-118 6l-14 2h-3l-7 1v2h-3l-10 3-3 6c-6 7-14 11-23 15l-2 1a109 109 0 0 1-21 6l-12 3c-4 0-6 2-10 4l-1 3 2-1a723 723 0 0 1 9-3c7-3 15-3 22-2l4 5c0 8-3 14-8 19a106 106 0 0 1-47 24l-5 2c-2 4-2 6-1 10l2-2c5-5 10-8 16-11l-9 8-14 13v-3l3-17h2c19-5 44-15 56-32 2-4 3-7 3-11l-2-3c-15-2-27 4-40 12 1-4 4-8 7-12l1-5h2c22-2 48-8 64-24l3-7-4-4c-13-4-25 1-37 5l3-2c14-7 21-12 26-27l1-11c-2-2-2-2-5-2-12 0-22 5-30 13-4 5-5 10-7 16-2 7-2 7-5 10a466290524 466290524 0 0 1 0-35l-2-2c-7 0-12 4-17 9-10 10-11 21-10 35l3 13v10l-5 8-1 3-4 5v-2c-3-18-3-18-14-32l-5-1c-7 4-10 12-13 20-3 15 3 30 11 43l2 2c2 3 1 7 0 11v2l-2 8-1-2c-4-11-10-22-20-28-3-1-4-2-7-1l-4 6-1 2c-4 10-3 22 1 32 4 9 10 17 17 24l2 2 6 6h2v22l-4-6c-7-12-16-24-30-29l-5 1c-2 5-2 9-2 15v2c0 14 5 26 15 35 6 7 14 12 23 15 6 3 11 5 14 11l6 15c-2 0-4-2-5-4-12-10-27-23-44-23l-3 3c-1 10 3 18 8 26a89 89 0 0 0 48 27l4 1c5 1 7 2 11 6l3 5 1 2 4 6-9-4c-8-5-16-8-25-11l-3-1-11-1h-4l-5 1c-2 3-1 5 0 8l7 10 2 2c10 14 28 21 44 25l4 1 15 2c8 0 13 0 19 6a167 167 0 0 1 9 9l-2-1c-29-9-29-9-59-7l-1 6c22 17 46 30 75 29 21-2 36 2 54 13a196 196 0 0 0 18 10l2 1 6 3c3 2 5 3 9 2 3-1 3-1 4-4v-6l-3-2-28-15-19-10-3-2-4-1v-2c4-17 4-34-5-49-4-6-9-13-16-16-3 0-5 1-7 3-6 9-6 19-4 30a227 227 0 0 0 2 12l-2-2-17-16 1-2c6-17 11-35 3-53l-6-8-2-2-5-3c-5 2-9 5-12 10-4 7-5 13-5 21v12l-5-6-1-2-7-9 4-8c9-16 17-33 12-51l-7-15-7 1c-9 8-16 18-17 30v10h-2l-1-4-7-16 2-1c15-8 26-23 32-39a58 58 0 0 0 1-18l-1-7c-3-2-6-1-9 0-15 5-24 17-31 31l-1 2-1-8-1-7 1-10 13-8c15-8 27-22 36-37-2 14-15 25-26 33l-19 13-3 3c0 4 1 7 3 10l1-2c7-9 16-19 27-22h9l3 3h2l-1 10v3a61 61 0 0 1-8 26l-1 2h4c4 1 5 3 7 7 6 10 7 24 4 36-3 10-8 20-14 29v4c1 3 3 6 6 8v-3c1-8 2-15 6-22l2-3c3-4 6-7 10-7l7-1v2l2 2c9 9 12 18 12 30a78 78 0 0 1-6 29v8l5 4 2 2 3 2v-14c0-7 1-13 4-19l3-3v-2c6-1 9 0 14 3 9 9 16 20 18 32v16l-1 16c5 3 9 4 14 5h2l14 1v2a13569 13569 0 0 0 24 2l3 1a1429 1429 0 0 0 53 1h14a33425 33425 0 0 0 185 0h4a2455654 2455654 0 0 1 420 0h263v-4c4 1 4 2 6 6l2 3a679 679 0 0 1 22 38l2 3 4 7h2a3591 3591 0 0 0 12-23h2l1-2c1-4 4-8 6-11l1-2a1250 1250 0 0 1 29-50c3-4 3-4 4-9h2l1-2 5-9 8-15 6-10 9-15a8225 8225 0 0 1 18-31l1-2 1-2a745 745 0 0 1 26-44 684 684 0 0 0 34-58l1-3 7-10 1-2 2-4 3-7 4 1c0 5-2 8-4 11l-6 11-8 12-4 10h-2c-10 14-10 14-15 29h-2l-2 4-2 2a321299855 321299855 0 0 0-23 40c-5 7-5 7-7 15h-2l-3 5-2 3-1 2-6 10a1167 1167 0 0 0-17 30l-7 11a1561 1561 0 0 1-34 60l42-2 2-1c9 0 9 0 17-2l7-1h7v-2l7-1h5l18-4h2a513 513 0 0 0 38-13v-2h2l2-1 1-2 5-2c4-2 7-5 10-9l2-1c3-1 4-2 6-5h2c3-1 5-3 7-6l1-3 2-1c3-1 4-3 6-6l2-1 4-7 6-7 5-8 2-2a438 438 0 0 0 5-10c4-6 5-13 7-20l2-9v-3l1-2h2c5-28 5-54 0-82h-2l-1-3-6-21-2-6c-1-4-2-7-5-10l-4-7c-2-6-6-12-12-16l-1-2c-1-4-3-6-6-8l-2-2-3-1-1-2-5-6h-4v-2h-2l1-2 2-3 1-3 1-4h2l4-7 4-8 2-3 1-3 4-6 2-4a1353 1353 0 0 0 36-61l1-3h-108l-2 6h-2a866707781 866707781 0 0 0-36 63l-2 4-4 9h-2l-5 9-1 2c-5 7-5 7-7 15h-2l-2 3a1695 1695 0 0 1-35 61l-1 2-2 7h-2l-1 2a518 518 0 0 1-23 40l-12 21c-5 7-5 7-7 15h-2l-11 21h-2l-1-2-4-8-2-3-1-3-2-3-4-7h-2l-1-2a87 87 0 0 0-8-16l-3-6h-2l-1-2c-1-5-4-10-7-14l-1-3-4-7h-2l-1-2a87 87 0 0 0-8-16l-3-6h-2l-1-2a87 87 0 0 0-8-16l-3-6h-2l-1-2a944272063 944272063 0 0 0-12-24h-2l-1-2a87 87 0 0 0-8-16l-3-6h-2l-1-2c-1-5-4-10-7-14l-1-3-4-7h-2l-1-2c-1-5-3-9-6-13l-1-2-9-14-8-15h-2l-1-2-12-24h-2l-1-2-3-6h-10a695283668 695283668 0 0 1-40 0h-57Z"/><path fill="#FDFEFD" d="m186 459 17 5v2a369 369 0 0 0 49 7l29 2 5 1h20a8065 8065 0 0 1 16 0h14a30233 30233 0 0 0 175 0h4a2218390 2218390 0 0 1 275 1h4a6962320 6962320 0 0 1 119 0h248l4 9h2l13 23 1 2 3 6H920a1257379 1257379 0 0 1-224 0h-2a1108248 1108248 0 0 0-190 0h-4a64324 64324 0 0 0-155 0c-77 1-77 1-110-2h-4c-34-2-34-2-42-8v-3c2-13 3-27-2-40l-1-5ZM292 171h11a22136 22136 0 0 1 268-1h3a45425 45425 0 0 0 225 0h3a10745 10745 0 0 0 154-1c21 0 21 0 26 3l6 12 3 5 1 5h2a519 519 0 0 1 5 12H796a1039741 1039741 0 0 0-321 0h-3a51954 51954 0 0 1-120 1c-67-1-67-1-134 9l-13 1v2h-6v2l-10 2-12 5-8 2-1 3-4 2c-3 0-5 1-8 3l-1 3-5 3a193 193 0 0 0-19 14l-9 10c-1 2-3 4-6 5v-2l1-4v-3c0-3 0-3-2-5-3-3-5-2-9-2h-7c3-3 6-4 10-6 11-5 23-13 27-25l1-7c-1-3-1-3-4-5-9-2-18 0-26 4l-7 2c1-4 3-4 6-6l9-2c18-3 42-9 53-24 7-8 21-8 31-10h2l48-6h3l40-1Z"/><path fill="#FCFEFC" d="M157 139c2 2 2 2 2 5l-3 12v2c-4 10-11 15-20 20l-3 1-6 3 2-1c11-5 24-9 37-5l4 4c0 4-1 5-3 7-15 16-40 22-61 24h-5l-1 2-5 10-1 2-2 4 2-1c9-7 19-12 32-12h7c2 3 2 4 2 8-5 13-17 20-28 26-25 12-25 12-33 12a4047 4047 0 0 0-2 11v2l-1 2v5l2-2c10-10 21-21 35-21 5 0 5 0 7 2-1 16-12 27-23 38-8 7-17 13-27 18l1 25 1-2c3-7 7-12 12-18l2-2c5-6 13-10 21-12l5 1c2 3 1 6 1 9v3c0 17-9 32-22 44-10 9-10 9-13 9l1 2 3 7 1 2 1 3 1 2 1 4h2v-2c0-13 4-25 13-34 5-5 5-5 9-5h2a1875 1875 0 0 1 4 9c6 11 5 24 1 35-2 9-7 16-11 24l-3 6 13 17v-15c0-9 2-16 8-23 3-2 5-4 9-5 6 2 9 6 12 11 9 17 5 34-1 51l-2 6 8 8 3 2 2 2 2 2 5 4-1-2v-3l-1-2c-3-10-4-22 1-32l5-6c7 0 11 5 16 10 9 11 11 22 11 35v3c0 7 0 13-2 19l3 1 11 5 4 3 3 1 16 9a7371 7371 0 0 1 10 6l3 1 7 4c0 4 0 5-2 8-3 3-4 2-8 2l-8-4a2761 2761 0 0 0-8-4l-18-10a5229 5229 0 0 1-16-8c-4-3-8-4-13-3h-10c-10 0-20 0-30-2h-2c-20-5-37-14-53-27l1-6c13-4 29-1 41 2l3 1 18 5a3499 3499 0 0 0-8-7l-3-3-2-2c-4-3-6-2-10-2-25-1-49-9-67-26-5-6-12-13-12-21l3-3h10l11 2 3 1c9 3 17 7 24 11l7 3c-6-12-6-12-17-19l-12-3c-17-3-34-14-44-28-4-7-7-15-6-23 2-2 3-3 6-3 19 4 33 16 47 29a4860 4860 0 0 0-6-13l-1-2-1-3c-2-5-5-6-10-8-18-8-31-18-39-35-2-7-2-12-2-19v-2c0-5 0-9 2-13 5-1 8 0 12 2 12 8 20 20 27 32v-22l-4-2c-13-12-24-25-26-44-1-9 1-16 5-24 2-2 2-2 5-2 7 1 13 8 17 14l4 7 1 2 3 8c2-6 5-15 2-21l-2-3c-9-11-12-27-11-40 2-8 6-16 12-22 3 0 5 0 8 3 8 9 10 20 12 32l6-8 1-2c3-4 4-6 4-11l-1-3-1-3-1-3c-2-12-3-26 3-37 5-6 11-13 18-16h5c2 2 2 2 2 5v7a1294 1294 0 0 1 0 25c3-3 4-6 5-10 2-10 6-16 14-22 8-5 17-7 26-7Z"/><path fill="#023203" d="M1020 99h14a34627 34627 0 0 1 122 0 1035 1035 0 0 1 5 12h2l4 6 1 2 2 7 3 1a109 109 0 0 1 7 12l1 2 7 12 1 4h2l2 5 57-1 2-4h2l1-2 6-12h2v-2l4-9 2-4 2-2h2l1-3 5-9 6-10 3-5a113 113 0 0 1 11 0h9a8157 8157 0 0 0 24 0h19a29039 29039 0 0 1 155 0l-3 10-2 2-1 3-3 5-2 2-3 6h-2l-1 2-5 11a375 375 0 0 0-12 19l-4 8c-6 11-6 11-9 13v2l-4 6-5 10-1 2-3 5h-2l-2 8c1 4 3 5 6 7l7 8 4 4c3 4 6 7 8 12l2 2 5 8 7 12c7 12 10 25 12 38v2a176 176 0 0 1-29 142c-6 8-13 16-21 22l-2 2c-6 6-12 11-19 15l-14 7a108 108 0 0 1-14 7l-18 7-4 1a213 213 0 0 1-35 8l-23 3a1658 1658 0 0 0-35 3l-2 1h-10c-7 0-7 0-12 3l-4 7-1 3-1 2-8 12-5 10h-2l-1 3-5 10-1 2-3 4h-4l-2-6-3-1-4-6c-1-5-1-5-5-8l-4-8-8-14-4-7-4-5h-15a2946 2946 0 0 1-18 0h-14a11224 11224 0 0 0-209-1h-41a257363 257363 0 0 0-105 0h-27a452550 452550 0 0 1-195 0h-6a1685318 1685318 0 0 1-279 0 348 348 0 0 1-50-3l-3-1h-9l3 1a2873 2873 0 0 1 19 10l3 2c3 2 5 4 6 7v7c-3 3-5 5-9 6-5 0-9-2-13-5l-3-1a1226 1226 0 0 1-14-8l-3-1a906 906 0 0 0-15-8c-11-8-23-6-36-6a125 125 0 0 1-73-24c-7-5-7-5-7-8 0-4 1-7 3-10l7-1h3l2-1h9l-3-1c-24-5-44-15-58-36l-4-8 2-5 1-2c2-2 3-3 6-3h7l11 1-3-1c-17-6-33-16-41-33-3-6-4-13-3-20 2-3 3-3 6-5 7-1 14 2 20 5l3 2 1-2-3-1c-12-4-23-16-29-28-5-12-8-27-3-39 3-3 5-4 10-4 5 1 9 4 13 7l2 1 8 9 2 1c-1-4-3-6-6-9a62 62 0 0 1-20-42c0-9 2-17 7-24 4-2 7-2 11-2 9 4 16 14 20 22v-7l-2-3c-9-14-14-29-10-46 2-8 6-17 13-21l9 1c9 7 12 16 14 27 4-5 4-5 5-10l-2-7c-3-14-3-28 3-42 5-7 12-14 20-18 3 0 5 0 8 2l3 4 2 13 1-2c7-10 16-15 28-18l3-1 9 1c3 2 4 3 5 6 0 11-5 21-11 29h9l6 3c5 2 11 0 16-1l6-2h3l23-4 2-1a2635 2635 0 0 1 20-2h2c17-2 34-2 51-2h11a19799 19799 0 0 1 266 0h106a4566001 4566001 0 0 0 299 0l-2-4-5-8-10-16-2-7h-2l-2-3-2-3-1-2-8-14v-5l82-1Zm-69 9 3 8 1 2 8 13 11 20h2l1 2 4 10 2 3 1 3h-2l-16-1h-24a21983 21983 0 0 0-266 0h-3a177530 177530 0 0 1-346 0c-59-1-59-1-118 6l-14 2h-3l-7 1v2h-3l-10 3-3 6c-6 7-14 11-23 15l-2 1a109 109 0 0 1-21 6l-12 3c-4 0-6 2-10 4l-1 3 2-1a723 723 0 0 1 9-3c7-3 15-3 22-2l4 5c0 8-3 14-8 19a106 106 0 0 1-47 24l-5 2c-2 4-2 6-1 10l2-2c5-5 10-8 16-11l-9 8-14 13v-3l3-17h2c19-5 44-15 56-32 2-4 3-7 3-11l-2-3c-15-2-27 4-40 12 1-4 4-8 7-12l1-5h2c22-2 48-8 64-24l3-7-4-4c-13-4-25 1-37 5l3-2c14-7 21-12 26-27l1-11c-2-2-2-2-5-2-12 0-22 5-30 13-4 5-5 10-7 16-2 7-2 7-5 10a466290524 466290524 0 0 1 0-35l-2-2c-7 0-12 4-17 9-10 10-11 21-10 35l3 13v10l-5 8-1 3-4 5v-2c-3-18-3-18-14-32l-5-1c-7 4-10 12-13 20-3 15 3 30 11 43l2 2c2 3 1 7 0 11v2l-2 8-1-2c-4-11-10-22-20-28-3-1-4-2-7-1l-4 6-1 2c-4 10-3 22 1 32 4 9 10 17 17 24l2 2 6 6h2v22l-4-6c-7-12-16-24-30-29l-5 1c-2 5-2 9-2 15v2c0 14 5 26 15 35 6 7 14 12 23 15 6 3 11 5 14 11l6 15c-2 0-4-2-5-4-12-10-27-23-44-23l-3 3c-1 10 3 18 8 26a89 89 0 0 0 48 27l4 1c5 1 7 2 11 6l3 5 1 2 4 6-9-4c-8-5-16-8-25-11l-3-1-11-1h-4l-5 1c-2 3-1 5 0 8l7 10 2 2c10 14 28 21 44 25l4 1 15 2c8 0 13 0 19 6a167 167 0 0 1 9 9l-2-1c-29-9-29-9-59-7l-1 6c22 17 46 30 75 29 21-2 36 2 54 13a196 196 0 0 0 18 10l2 1 6 3c3 2 5 3 9 2 3-1 3-1 4-4v-6l-3-2-28-15-19-10-3-2-4-1v-2c4-17 4-34-5-49-4-6-9-13-16-16-3 0-5 1-7 3-6 9-6 19-4 30a227 227 0 0 0 2 12l-2-2-17-16 1-2c6-17 11-35 3-53l-6-8-2-2-5-3c-5 2-9 5-12 10-4 7-5 13-5 21v12l-5-6-1-2-7-9 4-8c9-16 17-33 12-51l-7-15-7 1c-9 8-16 18-17 30v10h-2l-1-4-7-16 2-1c15-8 26-23 32-39a58 58 0 0 0 1-18l-1-7c-3-2-6-1-9 0-15 5-24 17-31 31l-1 2-1-8-1-7 1-10 13-8c15-8 27-22 36-37-2 14-15 25-26 33l-19 13-3 3c0 4 1 7 3 10l1-2c7-9 16-19 27-22h9l3 3h2l-1 10v3a61 61 0 0 1-8 26l-1 2h4c4 1 5 3 7 7 6 10 7 24 4 36-3 10-8 20-14 29v4c1 3 3 6 6 8v-3c1-8 2-15 6-22l2-3c3-4 6-7 10-7l7-1v2l2 2c9 9 12 18 12 30a78 78 0 0 1-6 29v8l5 4 2 2 3 2v-14c0-7 1-13 4-19l3-3v-2c6-1 9 0 14 3 9 9 16 20 18 32v16l-1 16c5 3 9 4 14 5h2l14 1v2a13569 13569 0 0 0 24 2l3 1a1429 1429 0 0 0 53 1h14a33425 33425 0 0 0 185 0h4a2455654 2455654 0 0 1 420 0h263v-4c4 1 4 2 6 6l2 3a679 679 0 0 1 22 38l2 3 4 7h2a3591 3591 0 0 0 12-23h2l1-2c1-4 4-8 6-11l1-2a1250 1250 0 0 1 29-50c3-4 3-4 4-9h2l1-2 5-9 8-15 6-10 9-15a8225 8225 0 0 1 18-31l1-2 1-2a745 745 0 0 1 26-44 684 684 0 0 0 34-58l1-3 7-10 1-2 2-4 3-7 4 1c0 5-2 8-4 11l-6 11-8 12-4 10h-2c-10 14-10 14-15 29h-2l-2 4-2 2a321299855 321299855 0 0 0-23 40c-5 7-5 7-7 15h-2l-3 5-2 3-1 2-6 10a1167 1167 0 0 0-17 30l-7 11a1561 1561 0 0 1-34 60l42-2 2-1c9 0 9 0 17-2l7-1h7v-2l7-1h5l18-4h2a513 513 0 0 0 38-13v-2h2l2-1 1-2 5-2c4-2 7-5 10-9l2-1c3-1 4-2 6-5h2c3-1 5-3 7-6l1-3 2-1c3-1 4-3 6-6l2-1 4-7 6-7 5-8 2-2a438 438 0 0 0 5-10c4-6 5-13 7-20l2-9v-3l1-2h2c5-28 5-54 0-82h-2l-1-3-6-21-2-6c-1-4-2-7-5-10l-4-7c-2-6-6-12-12-16l-1-2c-1-4-3-6-6-8l-2-2-3-1-1-2-5-6h-4v-2h-2l1-2 2-3 1-3 1-4h2l4-7 4-8 2-3 1-3 4-6 2-4a1353 1353 0 0 0 36-61l1-4a8919 8919 0 0 0-189-2c-9-1-9-1-17 2-5 5-8 11-11 17a97 97 0 0 1-7 12l-1 2-3 8h-2l-4 7-1 2-3 8h-2l-2 3-5 1h-4a1191 1191 0 0 1-23 0c-22 1-22 1-27-2l-6-12-5-9h-2l-1-3-5-10-1-2-2-4-4-7c-4-7-4-7-10-12l-18-1a973 973 0 0 1-23 0l-17 1a3406 3406 0 0 0-146 1Z"/><path fill="#FDFEFD" d="M1434 221c6 2 9 7 13 12l2 2c9 9 9 9 9 13l1 2 2 1c3 2 4 5 6 8l2 4 1 2 3 6 2 5h2c4 8 6 17 8 26h2c5 28 5 54 0 82h-2l-1 3a1255 1255 0 0 1-4 17c-2 8-6 15-10 23l-2 3c-2 5-5 8-9 12-2 2-4 4-5 8-1 3-3 5-6 7l-2 2-3 1-1 2c-2 3-4 6-8 7l-3 3-4 3c-4 1-6 4-8 7l-7 4c-2 0-3 1-5 3h-2v2l-2 1h-3l-3 1-8 3-14 5-3 1-24 6-4 1h-9v2h-6l-4 1-9 1-25 2a2022 2022 0 0 0-31 2l12-23 4-7 2-3a819 819 0 0 0 4-6l1-2 4-4h8v-2h3l4-1h4l5-2 8-1h8v-2l15-4c11-2 20-5 30-10l3-2a91 91 0 0 0 19-12l13-12 4-5c4-4 5-8 7-12l3-6 4-10 3-9 5-20h2v-38h-2l-1-4-1-4v-3l-5-15-1-4c-2-9-9-17-14-25-2-2-3-4-2-7a84 84 0 0 1 7-11l1-2 5-8 1-3 6-10 3-3 2-4Z"/><path fill="#60D7A2" d="m1408 264 2 3 2 3a1121451834 1121451834 0 0 0 7 10l2 2a69 69 0 0 1 9 23c2 6 3 12 3 19h2l1 12v17l-1 9h-2v2l-4 18-1 3c-4 15-4 15-7 19l-4 7c-2 6-6 10-11 15l-2 2a143 143 0 0 1-51 31h-3l-3 1a4596 4596 0 0 0-20 4v2h-3l-17 3-12 1v2h-4l-6 2 6-12a573 573 0 0 0 24-40l1-2 7-12 1-2a648 648 0 0 0 6-10h2l1-3 5-10 1-2a1642 1642 0 0 1 20-34l1-3a629 629 0 0 0 6-9h2l1-3 5-11 2-2 3-6 4-7h2l1-3c1-5 4-9 7-14l5-7 2-4 1-2 7-12Z"/><path fill="#119312" d="m159 137 4 6c-1 10-4 21-11 28h2c13 1 13 1 16 3 2 3 3 5 3 8-2 8-10 13-17 17-14 8-29 13-45 15-3 0-5 1-7 3h-3l1 2 2-1 4-1 3-2c7-3 14-3 22-2 3 2 3 3 5 6 0 8-4 14-9 20-14 13-34 20-52 26l-1 8 2-2c9-8 9-8 15-11l2 1-10 9-14 13v-12l1-2c0-3 1-6 4-8l4-2 3-1h3c17-6 37-14 46-30l2-9-1-2c-16-1-27 4-40 12l-2 1 1-2 2-6c2-5 3-8 7-11l20-4c17-2 35-9 47-22v-7c-11-4-22-2-33 2l-3 1-6 2 7-5c13-6 19-12 24-27l1-10-4-1c-11 0-20 4-28 11-6 6-7 13-9 21-1 4-3 5-6 8v-3a5969 5969 0 0 0 0-26v-8l-1-1c-7 0-12 4-17 9-9 10-10 21-9 34l3 13c1 5 1 8-1 12l-1 2-2 2-1 3-2 2-4 6h-1v-2a851 851 0 0 0-2-11c-2-8-4-15-10-20l-5-2c-6 2-8 8-10 13-5 12-3 24 1 36 2 5 5 11 9 15 2 3 1 7 0 10v3l-2 11-4-9c-4-9-10-20-20-24h-5l-2 4-1 2c-5 10-4 22 0 33 4 9 10 17 17 24l2 2 7 6 1 23-7-9c-7-11-15-22-28-26l-5 1-1 14v2c0 13 5 25 14 35 7 6 14 11 23 14 8 3 12 6 16 14a148 148 0 0 1 5 11l1 3-1 2-2-2c-12-11-28-25-44-27-4 0-4 0-6 2-1 11 4 20 10 29 11 12 27 18 43 23h2l4 1c5 1 8 2 11 6a189 189 0 0 1 5 8l5 8-11-5c-8-5-16-8-25-11l-3-1-12-1h-8c-1 7 3 11 7 17l2 2a80 80 0 0 0 48 26l15 2c8 0 13 0 19 6a272 272 0 0 1 9 8l2 2h-7l-3-1-6-2c-12-4-22-5-35-5H76v6l6 5 2 2c20 13 42 22 66 21 21-2 36 2 54 13a196 196 0 0 0 20 11l6 3c3 2 5 3 9 2l3-3 1-6-2-1-15-7-3-2-26-14-2-1-3-2-6-3v-2c2-19 3-38-9-54-3-4-7-8-12-10l-5 1c-7 8-7 17-6 27a155 155 0 0 0 4 18l-15-13-2-2-5-5 1-2c6-17 11-35 3-53l-6-8-2-2-4-2c-5 1-7 3-10 7-5 8-6 15-6 24v12l-10-12-2-2-3-4 4-8c9-16 17-33 12-51l-5-11-1-4c-9 2-13 8-17 15a45 45 0 0 0-6 21l-1 5h-2l-4-9-1-2-1-3-1-2-1-4 6-4c14-11 25-25 28-43v-16l-6-2c-18 6-26 19-35 34h-1l-1-8-1-8 1-10c4-4 10-7 15-10 13-8 25-19 33-33l3-3c-2 14-14 25-24 33-8 5-15 11-23 15v6l1 5 1-2 10-11 2-1c6-6 13-11 22-11l7 5c3 14-2 28-9 40h3c5 2 6 4 9 8 5 12 6 26 2 38-3 10-7 19-13 27v5l4 6v-3c1-8 2-14 6-21l2-3c3-4 6-8 11-8h7v2l2 1c6 3 10 12 12 19 2 10 1 19-1 28v3l-4 10v8l4 4 2 2 2 1v-13c0-9 2-15 6-22l8-4c8 2 14 9 18 15 7 11 9 21 9 35v3c0 6 0 11-2 16l30 6v2h10l14 1c19 2 38 2 58 2h14a16878 16878 0 0 0 185 0h4a1244300 1244300 0 0 1 189 1h2a471136 471136 0 0 1 490 0v-4l4 1 1 3-10 1h-9a8986 8986 0 0 0-18 0h-14a37930 37930 0 0 1-351 0 305475 305475 0 0 0-295 0h-4a95166 95166 0 0 0-200 0 639 639 0 0 1-81-3l25 13 3 1c8 5 8 5 10 9l-1 8c-3 4-6 5-11 5l-10-5-3-1a1226 1226 0 0 1-14-8l-3-1a906 906 0 0 0-15-8c-11-8-23-6-36-6a125 125 0 0 1-73-24c-7-5-7-5-7-8 0-4 1-7 3-10l7-1h3l2-1h9l-3-1c-24-5-44-15-58-36l-4-8 2-5 1-2c2-2 3-3 6-3h7l11 1-3-1c-17-6-33-16-41-33-3-6-4-13-3-20 2-3 3-3 6-5 7-1 14 2 20 5l3 2 1-2-3-1c-12-4-23-16-29-28-5-12-8-27-3-39 3-3 5-4 10-4 5 1 9 4 13 7l2 1 8 9 2 1c-1-4-3-6-6-9a62 62 0 0 1-20-42c0-9 2-17 7-24 4-2 7-2 11-2 9 4 16 14 20 22v-7l-2-3c-9-14-14-29-10-46 2-8 6-17 13-21l9 1c9 7 12 16 14 27 4-5 4-5 5-10l-2-7c-3-14-3-28 3-42 5-7 12-14 20-18 3 0 5 0 8 2l3 4 2 13 1-2c8-11 19-16 32-19 4 0 6 0 9 2Z"/><path fill="#469557" d="m984 167 7 10 2 3 2 3 2 4 9 16 12 20a813 813 0 0 1 35 59l1 3c3 4 5 8 6 13h2l6 10 1 3 2 2 1 3 1 4h2l1 2a3981 3981 0 0 0 16 27l6 11 8 14 8 13 1 2 1 2 1 2 1 4h2l1 2a2106 2106 0 0 0 57 97l10 19h-3v4H920a1696587 1696587 0 0 1-419 0h-4a87183 87183 0 0 0-198 0c-27 0-53-1-80-4v-2a3347 3347 0 0 1 84 3h14a16463 16463 0 0 0 184 0h4a1214351 1214351 0 0 1 189 0h2a459518 459518 0 0 1 487 0l-4-8-1-2-10-16-1-4h-2l-4-7-1-2-3-8h-2l-2-3-10-18c-12-19-12-19-12-23h-2l-3-6-2-2-2-7h-2l-4-7-1-2-3-8h-2l-3-6-2-2-2-7h-2l-2-3-2-5-1-2a197 197 0 0 0-13-22l-2-3-4-9h-2l-1-1-4-7-1-3-10-17-1-4h-2l-2-3-2-5-1-2-9-15-3-7h-2a1661 1661 0 0 1-5-8l-2-7h-2l-2-3a24609 24609 0 0 0-11-20l-1-4h-2l-1-2-14-24-3-8h-2l-1-1-3-7-2-3c-1-3-3-7-6-10v-2H774a1066567 1066567 0 0 0-97 0h-4a243079 243079 0 0 1-348 1c-42-1-42-1-83 1l-2 1c-23 1-46 6-68 11l1-4 4-1 2-1h6v-2h2l8-1 3-1 14-2c38-6 78-5 117-5a12174 12174 0 0 0 121 0h3a486041 486041 0 0 0 223 0h3a7449768 7449768 0 0 0 287 0h4l14 1v-2Z"/><path fill="#001705" d="M1362 509h5c-2 2-4 3-7 3l-3 1-3 1h-4a1296 1296 0 0 1-11 3l-25 3a1658 1658 0 0 0-35 3l-2 1h-10c-7 0-7 0-12 3l-4 7-1 3-1 2-8 12-5 10h-2l-1 3-5 10-1 2-3 4h-4l-2-6-3-1-4-6c-1-5-1-5-5-8l-4-8-8-14-4-7-4-5h-15a2946 2946 0 0 1-18 0h-14a11224 11224 0 0 0-185 0l-4-1a680314 680314 0 0 1-166 0h-27a452550 452550 0 0 1-195 0h-6a1685386 1685386 0 0 1-279 0 367 367 0 0 1-70-6l-2-2-1-1v-1a853 853 0 0 1 19 2c22 4 45 3 68 3h14a17193 17193 0 0 0 216 0h30a1384711 1384711 0 0 1 341-1h2a120807 120807 0 0 1 61 0h4a26381 26381 0 0 0 232 1c3 3 4 6 6 10l2 3 2 3a520 520 0 0 0 16 29l2 3 1 2 3 3 1-2 6-12 2-3 3-6h2v-2c1-4 3-8 6-11l1-2 3-5 5-8 4-6h3v4a1902 1902 0 0 0 94-9l9-1Z"/><path fill="#FCFEFD" d="M398 260h17l-1 29h11a3913 3913 0 0 1 29-1h3c7-1 11 0 16 5l-3 20-1 3a128 128 0 0 1-22 51c-13 16-31 26-50 34l-2 1c-4 2-7 2-11 1l-5-5-2-2c-2-3-2-3-2-7l3-1c23-5 44-16 58-35 10-16 14-32 17-50h-92v40h-15l-1-9v-9a3052 3052 0 0 1 0-29v-3l1-5 52 1v-29ZM545 309a6238 6238 0 0 1 62 0c16-1 16-1 23 4l-1 16v4l-2 9-3 23-1 6-1 3-1 5h30v15H529v-15h76v-7l1-6 6-42h-67v-15Z"/><path fill="#0F5B1F" d="M1453 234c6 3 9 6 12 12v2l2 1 6 7v2h2v2l2 1c7 4 10 19 13 27a268 268 0 0 1 3 18 176 176 0 0 1-29 142c-6 8-13 16-21 22l-2 2c-6 6-12 11-19 15l-14 7a107 107 0 0 1-14 7c-11 5-22 9-34 9l-5 1a222 222 0 0 1-22 2l-33 4h-4l-37 2v-4l-3-1 16-28 6-11h2v-2c1-4 3-6 5-9l8-15 6-10 9-15a8225 8225 0 0 1 18-31l1-2 1-2a745 745 0 0 1 26-44 684 684 0 0 0 25-43 1475 1475 0 0 1 19-32l1-2c2-3 3-6 6-8l3 2c0 5-2 8-4 11l-6 11a405 405 0 0 1-13 22h-2l-1 3-5 9-9 17h-2l-1 2-4 8-1 3-2 3-2 3-10 16-1 3a1631 1631 0 0 1-13 23h-2l-1 2a100 100 0 0 1-6 13l-10 16-9 15a2688 2688 0 0 1-43 74l41-2 2-1c9 0 9 0 17-2a193 193 0 0 1 11 0h3v-2l4-1h3l8-1 15-4h2l30-11 8-1v-2h2l2-1 1-3 7-2 3-3 1-2h2l1-2c1-3 3-3 6-4l2-2 1-2h4l1-2 5-5 8-9h2l1-2c2-6 5-10 9-14l7-10 1-2 3-6 2-3 3-11 6-20h2c3-23 4-45 1-68l-1-14h-2l-1-3-7-21-3-12-1-2-3-1-4-9c-2-6-7-11-12-15l-1-5Z"/><path fill="#A4E4C8" d="m999 205 2 4H795a3169750 3169750 0 0 0-97 0h-3a727346 727346 0 0 1-224 1h-3a159917 159917 0 0 1-189 1 306 306 0 0 0-70 10l-4 1-2 1h-3l-3 1-8 2v2l-10 2v2l-3 1-5 2-2 1-10 6h-3l-3 1-1 2-4 4c-16 7-30 27-37 43l-2 6-2 8h-4c-10 1-20 7-26 14l-8 11c-2-3-3-6-2-10 0-3 2-4 5-6l2-1 4-2 2-2c14-8 27-20 34-35v-3l-2 1 1-4v-9c-7 0-13 0-19 3l-1-2-18 13 1-9a1587 1587 0 0 1 27-9h2c5 0 7 0 11 2 3 5 2 9 1 14 3-2 4-2 6-6 3-6 8-9 14-13a287 287 0 0 0 10-8l2-1 2-2 4-1v-2c2-3 5-5 8-6l5-1 1-1c3-3 5-3 9-5l7-3 5-1 2-1h7v-2h6v-2h2l20-3c32-6 62-8 94-8h11a9953 9953 0 0 1 142 0h3a735296 735296 0 0 0 321-1h201Z"/><path fill="#ABEBCF" d="m186 459 17 5v2a369 369 0 0 0 49 7l29 2 5 1h20a8065 8065 0 0 1 16 0h14a30233 30233 0 0 0 175 0h4a2218390 2218390 0 0 1 275 1h4a6962320 6962320 0 0 1 119 0h248l1 3H912a1159072 1159072 0 0 1-119 0h-3a264099 264099 0 0 0-273 0h-4a57868 57868 0 0 0-147 0c-48 1-95 1-143-7v-2h-4l-5-1h-2c-5-1-9-1-13-3v-2h-3l-8-2-1 2-1-6Z"/><path fill="#000F03" d="m972 159 4 6H255v2l-34 1v2l-36 4v2l-10 2v2l-3 1-2-5 15-4h2a1642 1642 0 0 1 28-5l2-1a2635 2635 0 0 1 20-2h2c17-2 34-2 51-2h11a19799 19799 0 0 1 266 0h106a4565385 4565385 0 0 0 299 0v-3Z"/><path fill="#8BCA98" d="M329 168a12136 12136 0 0 0 245 0 235312 235312 0 0 0 202 0h202l1 3H773a1063586 1063586 0 0 0-97 0h-3a242398 242398 0 0 1-224 0h-3a53119 53119 0 0 1-121 1c-42-1-42-1-83 1l-2 1c-23 1-46 6-68 11l1-4 4-1 2-1h6v-2h2l8-1 3-1 14-2c38-6 78-5 117-5Z"/><path fill="#FCFEFD" d="m699 320 136 1 1 18H699v-19Z"/><path fill="#03360B" d="M1362 509h5c-2 2-4 3-7 3l-3 1-3 1h-4a1296 1296 0 0 1-11 3l-25 3a1658 1658 0 0 0-35 3l-2 1h-10c-7 0-7 0-12 3l-4 7-1 3-1 2-8 12-5 10h-2l-1 3-5 10-1 2-3 4h-4l-2-6-3-1-4-6c-1-5-1-5-5-8l-4-8-8-14-3-6-4-9h-3a3217162 3217162 0 0 1-712-1h-2a295721 295721 0 0 0-250 0l-4-1c-4 0-8-2-12-5v-1a853 853 0 0 1 19 2c22 4 45 3 68 3h14a17193 17193 0 0 0 216 0h30a1384711 1384711 0 0 1 341-1h2a120807 120807 0 0 1 61 0h4a26381 26381 0 0 0 232 1c3 3 4 6 6 10l2 3 2 3a520 520 0 0 0 16 29l2 3 1 2 3 3 1-2 6-12 2-3 3-6h2v-2c1-4 3-8 6-11l1-2 3-5 5-8 4-6h3v4a1902 1902 0 0 0 94-9l9-1Z"/><path fill="#9FD7AB" d="m189 503 1 3h2l9 1 3 1h6l5 1 28 4h3l56 1h14a10980 10980 0 0 0 184 0h4a811910 811910 0 0 1 189 0h2a306366 306366 0 0 1 227 0h261l1 3H920a1257379 1257379 0 0 1-224 0h-2a1108248 1108248 0 0 0-190 0h-4a64324 64324 0 0 0-155 0c-77 1-77 1-110-2h-4c-34-2-34-2-42-8v-4Z"/><path fill="#1EAC20" d="M114 271v6c-10 19-28 32-46 42v6l1 5 1-2 10-11 2-1c6-6 13-11 22-11l7 5c3 14-2 28-9 40h3c5 2 6 4 9 8 5 12 6 26 2 38-3 10-7 19-13 27v5l4 6v-3c1-8 2-14 6-21l2-3c3-4 6-8 11-8h7v2l2 1c6 3 10 12 12 19 2 10 1 19-1 28v3l-4 10v8l4 4 2 2 2 1v-13c0-9 2-15 6-22l8-4c8 2 14 9 18 15 7 11 9 22 9 35v9l-2 6h-2v-2c1-27 1-27-12-50-5-6-5-6-12-8-4 2-6 5-8 9-3 11-1 22 2 32l1 5a379 379 0 0 1-22-20l1-2c6-17 11-35 3-53l-6-8-2-2-4-2c-5 1-7 3-10 7-5 8-6 15-6 24v12l-10-12-2-2-3-4 4-8c9-16 17-33 12-51l-5-11-1-4c-9 2-13 8-17 15a45 45 0 0 0-6 21l-1 5h-2l-4-9-1-2-1-3-1-2-1-4 6-4c14-11 25-25 28-43v-16l-6-2c-18 6-26 19-35 34h-1l-1-8-1-8 1-10c4-4 10-7 15-10 14-8 25-19 33-33l2-3Z"/><path fill="#217739" d="m984 167 7 10 2 3 2 3 2 4 9 16 12 20a813 813 0 0 1 28 48l2 3 5 8 1 3c3 4 5 8 6 13h2l6 10 1 3 2 2 1 3 1 4h2l1 2a3981 3981 0 0 0 16 27l6 11 8 14 8 13 1 2 1 2 1 2 1 4h2l1 2a2106 2106 0 0 0 45 80l-5-1c-2-3-4-6-4-9h-2l-2-3-10-18c-12-19-12-19-12-23h-2l-3-6-2-2-2-7h-2l-4-7-1-2-3-8h-2l-3-6-2-2-2-7h-2l-2-3-2-5-1-2a197 197 0 0 0-13-22l-2-3-4-9h-2l-1-1-4-7-1-3-10-17-1-4h-2l-2-3-2-5-1-2-9-15-3-7h-2a1661 1661 0 0 1-5-8l-2-7h-2a753418194 753418194 0 0 1-13-23l-1-4h-2l-1-2-14-24-3-8h-2l-2-4-2-4-1-2-6-10-2-5h5v-2Z"/><path fill="#22793B" d="m1405 260 3 2c0 5-2 8-4 11l-6 11a405 405 0 0 1-13 22h-2l-1 3-5 9-9 17h-2l-1 2-4 8-1 3-2 3-2 3-10 16-1 3a1631 1631 0 0 1-13 23h-2l-1 2a100 100 0 0 1-6 13l-10 16-9 15a2688 2688 0 0 1-43 74l41-2 2-1c9 0 9 0 17-2a193 193 0 0 1 11 0h3v-2c7-2 13-2 20-2v2l-12 3h-3l-8 1-3 1-41 4h-2l-27 1v-4l-3-1 16-28 6-11h2v-2c1-4 3-6 5-9l8-15 6-10 9-15a8225 8225 0 0 1 18-31l1-2 1-2a745 745 0 0 1 26-44 684 684 0 0 0 25-43 1475 1475 0 0 1 19-32l1-2c2-3 3-6 6-8Z"/><path fill="#186D2B" d="M283 166h12a20432 20432 0 0 1 270 0h108a4719007 4719007 0 0 0 99 0h205v2H773a1051729 1051729 0 0 0-97 0h-3a239683 239683 0 0 1-223 0h-3a52523 52523 0 0 1-120 1c-60-1-60-1-120 6l-22 2v2c-4 2-8 2-12 2l2-1v-2l10-2v-2a147 147 0 0 1 27-3l9-1v-2l20-2h42Z"/><path fill="#000F01" d="M1020 99h14a34627 34627 0 0 1 122 0l3 5 1 3 1 4h2l4 6 1 2 2 7 3 1a109 109 0 0 1 7 12l1 2 7 12 1 4h2l2 5 57-1 2-4h2l1-2 6-12h2v-2l4-9 2-4 2-2h2l1-3 5-9 6-10 3-5h20a8157 8157 0 0 0 24 0h19a29039 29039 0 0 1 155 0c-1 4-1 6-4 9l-1 2-1 2-1-2 2-4 1-2 1-2a30955 30955 0 0 0-208-1l-6 1c-3 3-4 7-6 11l-7 13-12 21h-2l-1 2-4 9-2 4-1 2h-2l-2 4a912 912 0 0 1-32 1c-22 1-22 1-27-2-4-4-5-8-7-13l-2-4-2-5h-2l-1-2a3231 3231 0 0 0-17-29l-5-13H939l13 22 1 4h-2l-2-3-2-3-1-2-8-14v-5l82-1Z"/><path fill="#159815" d="m8 307 2 1v12c0 14 5 26 14 36 7 6 14 11 23 14 8 3 12 6 16 14a148 148 0 0 1 5 11l1 3-1 2-2-2c-12-11-28-25-44-27-4 0-4 0-6 2-1 11 4 20 10 29 11 12 27 18 43 23h2l4 1c5 1 8 2 11 6a189 189 0 0 1 5 8l5 8-11-5c-8-5-16-8-25-11l-3-1-12-1h-8l-1 2-1-3 4-4h9l11 1-3-1c-17-6-33-16-41-33-3-6-4-13-3-20 2-3 3-3 6-5 7-1 14 2 20 5l3 2 1-2-3-1c-12-4-23-16-29-28-4-9-7-21-4-31l2-5Z"/><path fill="#F0F8F2" d="M1197 169h50l-8 14a817 817 0 0 0-16 26l-4-1a63 63 0 0 1-6-10l-1-2-4-7-1-1-1-2-3-7h-2c-4-7-4-7-4-10Z"/><path fill="#08621D" d="m198 511 21 2v2h10l14 1c19 2 38 2 58 2h14a16878 16878 0 0 0 185 0h4a1244300 1244300 0 0 1 189 1h2a471136 471136 0 0 1 490 0v-4l4 1 1 3-10 1h-9a8986 8986 0 0 0-18 0h-14a37930 37930 0 0 1-351 0 305475 305475 0 0 0-295 0h-4a95166 95166 0 0 0-255-2c-7 0-15-1-22-3h-6c-4 0-5-1-8-3v-1Z"/><path fill="#20AC20" d="M159 149h1c1 9-3 15-8 22h2c13 1 13 1 16 3 2 3 3 5 3 8-2 8-10 13-17 17-14 8-29 13-45 15-3 0-5 1-7 3h-3l1 2 2-1 4-1 3-2c7-3 14-3 22-2 3 2 3 3 5 6 0 8-4 14-9 20-14 13-34 20-52 26l-1 8 2-2c9-8 9-8 15-11l2 1-10 9-14 13v-12l1-2c0-3 1-6 4-8l4-2 3-1h3c17-6 37-14 46-30l2-9-1-2c-16-1-27 4-40 12l-2 1 1-2 2-6c2-5 3-8 7-11l20-4c17-2 35-9 47-22v-7c-11-4-22-2-33 2l-3 1-6 2 7-5c13-6 19-12 24-26l2-3Z"/><path fill="#8DCF9B" d="M1476 276c2 3 4 5 5 9v2l1 3 1 3 2 9h2c5 28 5 54 0 82h-2l-1 3a1255 1255 0 0 1-4 17c-2 8-6 15-10 23l-2 3c-2 5-5 8-9 12-2 2-4 4-5 8-1 3-3 5-6 7l-2 2-3 1-1 2c-2 3-4 6-8 7l-3 3-4 3c-4 1-6 4-8 7l-7 4c-2 0-3 1-5 3h-2v2l-2 1h-3l-3 1-8 3-14 5-3 1-24 6-4 1h-9v2h-6l-4 1-9 1-25 2a2022 2022 0 0 0-13 1l-2 1h-16l1-2h4l3-1h3a8648 8648 0 0 0 60-6h2a286 286 0 0 0 48-13h2l4-1v-2l3-1 4-1 2-1c4-1 6-3 9-6l6-1c3-1 3-3 4-5l4-2 13-8 5-3 1-2c1-3 4-5 6-7l2-2 3-1 1-2 4-6 4-7 1-2h2l2-1 1-2 7-15c3-5 5-9 6-15h2v-3l3-12 4-21v-3c3-22 1-45-5-67l-2-12h-2l-1-8Z"/><path d="M263 523h268a1299689 1299689 0 0 1 228 0h2a1164953 1164953 0 0 0 130 0h2a288326 288326 0 0 1 61 0h4a67360 67360 0 0 0 224 0h3c3 0 3 0 5 2l1 2-1 2-2-2c-3-3-4-3-8-3h-9a2229 2229 0 0 1-18 0h-14a8453 8453 0 0 0-210 0h-41a194878 194878 0 0 0-130 0h-2a236178 236178 0 0 1-229 0H263v-1Z"/><path fill="#69DCA9" d="M227 469a208 208 0 0 1 42 3v2h846v1H869a895049 895049 0 0 1-116 0h-4a204417 204417 0 0 0-268 0h-3a44842 44842 0 0 0-183 1c-23 0-45-2-68-6v-1Z"/><path fill="#D2F4E5" d="m1410 261 2 3 2 2 1 4 2 1 5 5 1 6 3 1c3 6 4 12 5 18l3 10c5 15 6 33 3 49v4c0 10-2 19-6 28h-2l-1 2v3l-1 3-3 6h-2v2c-1 4-3 6-5 9l-2 3-2 2h-2l-1 2c-4 8-12 13-19 18h-2v2l-2 1-2 1-3 2-6 3-8 3-3 3c-3 2-6 2-10 3h-6v2l-3 1a375176200 375176200 0 0 1-33 7v3h-2a3600 3600 0 0 0-15 2l-4 1h-3l-7 3c1-4 2-5 5-7h8v-2h3l4-1h4l5-2 8-1h8v-2l15-4c11-2 20-5 30-10l3-2a91 91 0 0 0 19-12l13-12 4-5c4-4 5-8 7-12l3-6 4-10 3-9 5-20h2v-38h-2l-1-4a12930 12930 0 0 0-6-22l-1-4c-2-9-9-17-14-25-2-2-2-4-2-7l1-1Z"/><path fill="#000D03" d="M1476 260c11 10 14 30 17 44v2a176 176 0 0 1-29 142c-6 8-13 16-21 22l-2 2c-6 6-12 11-19 15l-14 7-10 5-7 3h-6 2v-2h2v-2l3-1c7-1 12-3 17-8l4-1v-2l2-1 9-5 5-3c4-1 6-3 8-6l4-1v-2h2v-2l2-2c4-3 4-5 6-9h3v-4l2-1c4-2 5-5 7-8l1-2h2l1-2 3-5 4-7c0-3 1-4 3-6 5-6 7-14 8-22h2c6-35 8-69 1-104l-1-6h-2l-5-17-3-5-1-6Z"/><path fill="#033A0D" d="M984 166v3h-6l-1-3H255v-1h211a1644513 1644513 0 0 1 99-1h4a377839 377839 0 0 0 229 0h4a83125 83125 0 0 0 168 0h10l4 2Z"/><path fill="#518456" d="m1430 215 3 1v2h4c3 3 5 4 6 8l2 1c3 1 4 3 6 6l2 2 2 4 3 2c5 4 8 11 11 17l5 8c2 3 2 6 2 10l-8-12-1-2-1-2-1-2-1-4-1-2-2-1c-3-1-3-1-4-4l-1-2-6-8-1-3-2-1c-3-1-4-3-6-6l-2-2-2-1v-2h-3l-2 4h-2l-1 3-5 9-10 18c-2 3-3 6-6 8l-3-3c0-14 18-34 25-46Z"/><path fill="#000A00" d="M1297 99h11a16314 16314 0 0 0 24 0h19a58078 58078 0 0 1 155 0c-1 4-1 6-4 9l-1 2-1 2-1-2 2-4 1-2 1-2a30955 30955 0 0 0-208-1l-6 1c-3 3-4 5-5 9h-2l4-11c3-2 7-1 11-1Z"/><path fill="#4E8856" d="m1281 470 1 2 3 2-1 2a1789 1789 0 0 0-23 40l41-2 2-1c9 0 9 0 17-2a193 193 0 0 1 11 0h3v-2c7-2 13-2 20-2v2l-12 3h-3l-8 1-3 1-41 4h-2l-27 1v-4l-3-1 16-28 6-11h2l1-5Z"/><path fill="#23AD23" d="M114 271v6c-10 19-28 32-46 42v6l1 5 1-2 10-11 2-1c4-5 9-8 15-10 3 0 4 1 6 3h-2c-16 5-24 16-32 29l-3 5h-1l-1-8-1-8 1-10c4-4 10-7 15-10 14-8 25-19 33-33l2-3Z"/><path fill="#94E4C1" d="m1410 261 2 3 2 2 1 4 2 1 5 5 1 6 3 1c3 6 4 12 5 18l3 10a129 129 0 0 1-8 88c-2 4-4 6-8 9l3-7 4-10 2-7c3-7 5-14 6-22h2v-38h-2l-1-4a12930 12930 0 0 0-6-22l-1-4c-2-9-9-17-14-25-2-2-2-4-2-7l1-1Z"/><path fill="#000F03" d="M1362 509h5c-2 2-4 3-7 3l-3 1-3 1h-4a1296 1296 0 0 1-11 3l-25 3a1658 1658 0 0 0-35 3l-2 1h-10c-7 0-7 0-12 3l-4 7-2 3-2 5-4 4c1-5 4-9 6-14l2-2 3-5 1-2c2-2 2-2 5-2h21v-2h3a537 537 0 0 0 69-9l9-1Z"/><path fill="#F1FAF2" d="m110 286-1 2-1 7c-2 8-2 8-5 11l-8 2c-12 5-19 13-26 23-2-3-3-6-2-10 0-3 2-4 5-6a11438933551 11438933551 0 0 1 8-5c9-5 17-12 24-20 4-4 4-4 6-4Z"/><path fill="#FAFDFC" d="m454 255 4 7 2 2a493 493 0 0 1 7 17l-10 4a16609 16609 0 0 1-8-13l-1-3-2-3-3-6c8-5 8-5 11-5ZM472 250l10 13 1 1 5 11-11 5-2-4-3-5-1-2-6-10-2-5 9-4Z"/><path fill="#B3EDD3" d="m186 459 17 5v2a369 369 0 0 0 49 7l24 2 17 2v2a277 277 0 0 1-43-2l-27-4v-2h-4l-5-1h-2c-5-1-9-1-13-3v-2h-3l-8-2-1 2-1-6Z"/><path fill="#001101" d="m1281 111 3 1-1 2-12 21-2 3-2 3-1 2-2 4h-2l-1 2-4 9-2 4-1 2h-2l-2 4h-57l-1-3h2a2732 2732 0 0 0 43 0h10l5-3 3-8c2-4 3-8 6-11h2v-2l4-9 2-4 2-2h2l1-2c1-5 4-9 7-13Z"/><path fill="#508254" d="m984 167 7 10 2 4 2 3 4 6 1 3 5 8 2 5h-5l-1 2-3-6-2-3-2-5h-2l-2-4-2-4-1-2-6-10-2-5h5v-2Z"/><path fill="#8CCE9A" d="m268 169-3 3a70 70 0 0 1-13 1h-2c-15 1-30 2-44 5h-3l-31 7 1-4 4-1 2-1h6v-2h2l8-1 3-1 16-2c18-3 36-4 54-4Z"/><path fill="#F1FAF2" d="m148 441 5 3-2 9v25l-1-1-2-2-2-2-6-4 3-12 3-12 2-4Z"/><path fill="#149A15" d="M189 502v5l12 3-2 2 3 1 13 7 3 2a997 997 0 0 1 23 11l3 5v2l-58-31v-6l3-1Z"/><path fill="#034110" d="M1453 234c6 3 9 6 12 12v2l2 1 6 7v2h2v2l4 14 3 7c0 3 1 5 3 8 2 4 1 8 1 13-2-2-3-3-3-6l-1-3-1-3-2-5v-3l-3-6-1-4-1-2v-4l-1-2-3-1-4-9c-2-6-7-11-12-15l-1-5Z"/><path fill="#0D880D" d="m159 137 4 6-2 10c-2-2-3-2-3-5v-7l-4-1c-10 0-21 4-28 11l-5 7-1 2h-4l-1 3v-17h1l1 10 3-4c8-10 18-15 30-17 4 0 6 0 9 2Z"/><path fill="#199B19" d="M159 149h1c1 9-3 15-8 22h2c11 1 11 1 16 3v4l-4-1c-11-2-20-1-31 3l-3 1-6 2 7-5c13-6 19-12 24-26l2-3Z"/><path fill="#9FD7AB" d="M1367 502h-2v2c-10 3-20 5-30 5v2h-6l-4 1-9 1-25 2a2022 2022 0 0 0-13 1l-2 1h-16l1-2h4l3-1h3a8648 8648 0 0 0 60-6h2l25-6h9Z"/><path fill="#92E6C1" d="M1345 461c-7 7-22 8-32 9v3h-2l-11 2h-4l-4 1h-3l-7 3c1-4 2-5 5-7h8v-2h3l4-1h4l5-2 8-1h8v-2c6-2 11-3 18-3Z"/><path fill="#012809" d="m1443 205 1 2-2 3 1 6 5 4 7 8 4 4c3 4 6 7 8 12l2 2 7 11-1 3v-2h-2l-2-4-5-6-4-6-10-9v-2h-2l-1-2-4-6-2-2v-3h-2v-2l-3-1c1-4 2-7 5-10Z"/><path fill="#012208" d="m1391 497-2 1v2h-2v2h-2v2c-8 3-16 6-25 6l-9 1 4-2v-3l2-1 8-2 2-1 12-4 12-1Z"/><path fill="#74DEAF" d="m1417 408 1 2c-3 6-6 11-11 15l-2 2-8 7-3 3-3 2-3 2c-11 8-11 8-15 8 1-4 3-5 6-7l3-1 5-2 2-1v-2c1-3 2-3 4-5l2-2 4-1 1-2 7-8h2l1-2c1-2 2-3 5-4l2-4Z"/><path fill="#8CCD9A" d="m1436 218 4 3 1 1 2 2v2l2 1c3 1 4 3 6 6l2 2 2 4 3 2c5 4 8 11 11 17l5 8c2 3 2 6 2 10l-8-12-1-2-1-2-1-2-1-4-1-2-2-1c-3-1-3-1-4-4l-1-2-6-8-1-3-2-1c-3-1-4-3-6-6l-2-2-2-1v-2l-3-1 2-3Z"/><path fill="#ABE6CC" d="M227 215v2h-2l-9 2-4 1-17 5-4 1c-11 2-22 8-32 13l-4 1c1-3 2-4 5-6l6-1 3-2c3-3 5-3 9-5l7-3 5-1 2-1h7v-2h6v-2l22-2Z"/><path fill="#0D611F" d="M228 169a185516151 185516151 0 0 0 23 0v1h-3a438 438 0 0 0-63 7v2c-4 2-8 2-12 2l2-1v-2l10-2v-2a150 150 0 0 1 27-4h3l4-1h9Z"/><path fill="#538758" d="m1166 477 6 9 2 3a5411 5411 0 0 1 14 25l-3 1-1 3-2-3-2-5-1-2-9-15-3-7h-2l-3-7h4v-2Z"/><path fill="#25AE25" d="M105 256c5 0 7 0 11 2 3 4 2 6 1 11-2 3-2 3-5 4l1-4v-9c-7 0-13 0-19 3l-1-2-18 13 1-9a1587 1587 0 0 1 14-6l15-3Z"/><path fill="#012809" d="M1362 509h5c-2 2-4 3-7 3l-3 1-3 1h-4a2597 2597 0 0 1-17 4h-2l-3 1h-12a1794 1794 0 0 1-21 0v-1h3a417 417 0 0 0 55-8l9-1Z"/><path fill="#4DAA61" d="M1355 507v2l-8 3h-5l-3 1a2369 2369 0 0 1-30 3h-3a134 134 0 0 1-27 1h-10v-1h3a5776 5776 0 0 0 57-5h6v-2c7-2 13-2 20-2Z"/><path fill="#1CAA1C" d="M114 271v6c-9 16-27 34-44 40 1-6 5-7 9-10 14-9 25-20 33-34l2-2Z"/><path fill="#478F56" d="M1195 167a12823 12823 0 0 1 41 0h10l4 1-1 4h-2v2l-1 2-3 1 3-7-49-1 4 8v2h2l3 4 1 3 1 4c-4-1-4-3-7-6l-1-3-4-8-1-1v-5Z"/><path fill="#065F19" d="M1489 366h1v15l-3 17h-2l-1 2v4l-1 3-3 7h-2v2l-5 8-1-2 2-4c3-5 4-10 6-16l5-18h2l2-18Z"/><path fill="#D0F3E4" d="m1430 298 1 2h2c6 15 7 28 7 44v2l-1 18h-2l-1 4v-11c3-16 1-34-4-50l-2-9Z"/><path fill="#81CB91" d="m1419 478 2 1c-3 4-6 5-11 7l-3 3h-2v2l-2 1h-3l-3 1-8 3-11 4-3 1-2 1-2 1-6-1h2v-2l9-3 2-1 3-1h2l4-1v-2c7-3 7-3 11-3 7-2 13-6 19-10l2-1Z"/><path fill="#17A517" d="M110 140h4l1 6v3l1 2v9l3-1-1 7v2l-1 3v2c-1 3-4 5-6 7v-3a5852 5852 0 0 0 0-26v-2l-1-9Z"/><path fill="#25AE25" d="m82 367 2 1-2 3 3-2-3 12h2l-1 13h-2l-4-9-1-2-1-3-1-2-1-4 5-4 2-2 2-1Z"/><path fill="#064A14" d="m1256 155 2 1-4 8h-2l-2 4h-57l-1-3h2a1490 1490 0 0 0 46 0c7 0 7 0 12-3l4-7Z"/><path fill="#84DCB4" d="M191 226h-2v2l-10 2v2l-3 1-5 2-2 1-10 6h-3l-3 1-1 2c-1 3-4 3-7 5-4 2-8 6-11 10l-6 4c7-18 36-29 52-36l2-1c3-2 6-3 9-1Z"/><path fill="#1D9B1D" d="M81 171h2v3c0 8 1 16 4 24v10l-6 4v-2l1-2 1-2-1-8c-2-6-2-11-2-17v-3l1-7Z"/><path fill="#06611B" d="M1341 512v1c-29 5-58 7-88 7l3-5h3v4a8909 8909 0 0 0 82-7Z"/><path fill="#C8F0DF" d="m1410 261 2 3 2 2 1 4 2 1 5 5 1 6 3 1 2 5 1 3v7l-1-2-2-4-5-7-10-16c-2-2-2-4-2-7l1-1Z"/><path fill="#F5FBF5" d="m114 402 3 3-2 3c-5 8-6 18-7 27-6-6-6-6-7-10l4-7a1689 1689 0 0 0 6-12l3-4Z"/><path fill="#03400F" d="M1483 404c1 4 1 5-1 9l-1 3-4 6h-2v2c-2 6-4 11-9 16h-2l-1 2-4 7h-2l1-2 2-4c4-8 8-15 14-21l4-8h2l3-10Z"/><path fill="#1CAA1D" d="m170 177 3 4c-3 9-9 14-17 18l-2 1c-4 3-8 4-12 5l1-4 8-4c7-3 14-7 18-14v-5l1-1Z"/><path fill="#011B06" d="M204 514c7 0 15 1 22 3l15 1v3h-14c-9 0-16-1-23-6v-1Z"/><path fill="#93D0A0" d="M1488 354h1v13l-1 3v7l-1 7h-2l-1 3-7 23h-1l1-8h2v-3l3-11 4-25v-3l1-3 1-3Z"/><path fill="#91D09F" d="m189 503 1 3h2l30 5 11 1 4 2c-38-1-38-1-48-7v-4Z"/><path fill="#41A756" d="m1467 256 4 2v4l2 1 4 3 1 3 1 3 1 3 1 6 1 2 3 6 1 8v5c-2-2-3-3-3-6l-1-3-1-3-2-5v-3l-3-6a67 67 0 0 1-2-10l-1-2-3-1c-3-4-3-4-3-7Z"/><path fill="#7AC088" d="M1488 314h1c2 20 2 38 0 58h-1v-58Z"/><path fill="#76DFB1" d="M227 469a208 208 0 0 1 42 3v2h14v1c-19 1-37-2-56-5v-1Z"/><path fill="#001304" d="m1443 205 1 2-2 3 1 6 5 4 7 8 8 8-1 2-7-4v-4h-2l-2-3-5-3-3-3v-3h-2v-2l-3-1c1-4 2-7 5-10Z"/><path fill="#CDF0E1" d="M187 223h6c-3 3-6 3-9 5l-21 9-8 3c1-3 2-4 5-6l6-1 3-2c3-3 5-3 9-5l9-3Z"/><path fill="#0D7F0D" d="m132 143 2 1-7 6-7 10h-4l-1 3v-17h1l1 10 1-2c9-11 9-11 14-11Z"/><path fill="#C1EEDA" d="M1305 471h8v2h-2l-11 2h-4l-4 1h-3l-7 3c1-4 2-5 5-7l18-1Z"/><path fill="#BFF0DA" d="m186 459 17 5v2l4 1h5l2 1h5l4 3-9-1h-2c-5-1-9-1-13-3v-2h-3l-8-2-1 2-1-6Z"/><path fill="#21AC22" d="m114 394 2 1-7 18-1 2-3 5-4 1 6-14 4-9 3-4Z"/><path fill="#10A612" d="M101 306c3 0 5 0 8 2l3 5-1 4v2l-2 15h-3v-3l1-12v-8c-2-2-4-2-7-3l1-2Z"/><path fill="#8EE4BE" d="M1407 422c0 4-1 5-4 8l-6 4-3 3-3 2-3 2c-11 8-11 8-15 8 1-3 3-5 6-6l2-2 3-1c9-5 16-11 23-18Z"/><path fill="#85CB94" d="m1477 408 1 4-4 7-1 2-3 6-2 3-6 8c2-10 8-19 13-28h2v-2Z"/><path fill="#E2F4E2" d="m99 258-2 1c-8 4-15 9-21 15-1-4-1-6 1-10l9-4 3-1c7-2 7-2 10-1Z"/><path fill="#309345" d="M1355 507v2c-4 3-8 3-13 3a248707806 248707806 0 0 1-7-1v-2c7-2 13-2 20-2Z"/><path fill="#84E2B8" d="M201 463c6 0 12 0 18 2l6 1v2l2 1c-9 0-16-1-24-3v-2l-2-1Z"/><path fill="#3E7B52" d="M1212 196c3 2 4 5 6 8l1 2 1 2c3 0 4-1 5-3l1-2 2-3v5l-5 10h-3l-4-7-1-2-1-2-1-2-1-6Z"/><path fill="#000100" d="M1189 157h2l2 5 57-1 2-4h2l-2 6a3687 3687 0 0 1-54 0h-3c-3 0-3 0-5-2l-1-4Z"/><path fill="#1B8231" d="M1387 498h-2v2l-8 3-2 1-2 1h-2c-4 2-7 2-11 2h-5c2-2 4-3 7-3l18-6h7Z"/><path fill="#A6E6CA" d="m117 278 1 2-3 4c-4 7-6 14-8 22h-6l2-1c3-4 3-6 4-11l2-6h2l1-3c1-3 2-5 5-7Z"/><path fill="#88CE97" d="M1367 502h-2v2c-10 3-20 5-30 5v2h-6c2-3 4-3 8-4l2-1h3c7-1 13-2 19-5l6 1Z"/><path fill="#44AC5A" d="m1419 478 2 1c-3 4-6 5-11 7l-3 3h-2v2l-5 1-3 1-8 2 12-7 16-9 2-1Z"/><path fill="#1A7B2F" d="M237 169a3051 3051 0 0 0 14 0v1a6104 6104 0 0 1-24 2l-4 1h-12l-2-2c9-2 18-2 28-2Z"/><path fill="#052108" d="m1281 111 3 1-17 29-1-3 3-5 5-10 7-12Z"/><path fill="#88E0B9" d="M1426 292c4 2 5 9 7 13 2 7 2 13 1 19l-4-12-3-11-1-9Z"/><path fill="#177A2C" d="M1461 438v4l-5 9h-2v4l-3 1-1 3-5 3h-2v-2l5-4 2-2 1-2h2l1-2c1-5 4-8 7-12Z"/><path fill="#D1F2E3" d="m155 241-2 1a255 255 0 0 0-22 16c1-5 4-7 7-9l2-2 7-3v-2c3-2 5-2 8-1Z"/><path fill="#034F14" d="m1413 488-3 1-3 1-1 3c-6 4-12 4-19 4l8-4 3-1 7-1v-2c3-2 5-2 8-1Z"/><path fill="#DBF1DC" d="M131 212v1h-2c-7 0-13 1-20 4l-9 3c1-4 3-4 6-6s6-2 10-3h2c5-1 8-1 13 1Z"/><path fill="#15A815" d="M122 213c9-1 9-1 13 1 3 3 3 5 3 9l-3 5h-2v-2l1-2v-3l-1-4-7-2h-5l1-2Z"/><path fill="#000B00" d="m1470 159 1 2c-7 16-7 16-12 19v2l-5 8-2 1 5-10 9-17 4-5Z"/><path fill="#E0F3E1" d="M48 375c6 2 8 3 11 8l1 3-1 2a332 332 0 0 1-9-6c-2-2-2-2-2-5v-2Z"/><path fill="#87CC96" d="m1436 218 4 3 1 1 2 2v2l2 1 4 3v4c-4-2-6-4-8-7l-2-2-2-1v-2l-3-1 2-3Z"/><path fill="#6BBE7C" d="M185 177h10l-6 2v2l-17 4 1-4 4-1 2-1h6v-2Z"/><path fill="#0D750D" d="M83 158h3l-1 5v3l-3 4c-2 3-2 6-2 9v7h-1c-1-10 0-18 4-28Z"/><path fill="#3EA653" d="M1485 384h1c1 9-2 16-6 24h-2l7-24Z"/><path fill="#055A17" d="M1476 264c4 4 5 8 7 13v2l3 13c-7-7-8-19-10-28Z"/><path fill="#9FE4C5" d="M129 258h2l-1 2-2 5c-3 6-6 9-10 13 2-8 5-14 11-20Z"/><path fill="#6FD7A9" d="m143 250 2 1-1 1-7 7-3 2-11 13c0-7 8-13 12-17l8-7Z"/><path fill="#000B00" d="m954 129 7 9 8 14 3 7c-4-1-4-3-6-6l-1-2-10-17-1-5Z"/><path fill="#187D2E" d="M201 175v1l-16 1v2c-4 2-8 2-12 2l2-1v-2c9-3 17-3 26-3Z"/><path fill="#6A8F6D" d="m1242 177 1 4-3 1v3c-1 4-3 6-5 9l-2 4-2 2h-2l7-14 1-2 5-7Z"/><path fill="#CEF3E3" d="M1343 464h-2v2c-9 3-18 5-28 5 3-3 6-3 10-3l13-4h7Z"/><path fill="#DAF0DC" d="M69 429c11 1 11 1 13 5l4 5-11-5-4-2-2-1v-2Z"/><path fill="#16792B" d="M1437 218c6 1 10 4 13 9v4h2l1 3c-4-2-5-4-8-7a210 210 0 0 0-8-7v-2Z"/><path fill="#96D3A3" d="m1464 254 7 9 2 2c2 2 3 4 3 8v3l-8-12-1-2-1-2-1-2-1-4Z"/><path fill="#0F6D24" d="M1453 234c6 3 10 6 12 12l-1 4-1-2-2-2-2-3-5-4-1-5Z"/><path fill="#16762A" d="m198 511 21 2v3h-10c-4-1-7-1-11-4v-1Z"/><path fill="#044D0F" d="m1434 208 3 8h4v2h2l-1 2-9-2v-2h-2l3-8Z"/><path fill="#139013" d="M159 149h1c0 6 0 10-3 15h-4c3-11 3-11 6-15Z"/><path fill="#000802" d="M1439 470h3c-1 4-4 6-7 8l-2 2-5 3-3-1h2l1-2 6-6 2-2 2-1 1-1Z"/><path fill="#A9DBB4" d="M1484 384c2 4-1 8-2 12l-1 3v2l-1 3-4 6 1-8h2v-3c2-12 2-12 5-15Z"/><path fill="#1DAC21" d="m107 333 2 1c-3 10-3 10-6 13l-3 1 5-14 2-1Z"/><path fill="#86CD93" d="m189 503 1 3h3l4 1h2l6 1 2 3c-13-1-13-1-18-4v-4Z"/><path fill="#000D03" d="M1465 242c6 3 9 9 11 15l-1 3v-2h-2l-2-4-6-6v-6Z"/><path fill="#2DB12D" d="m143 203-1 3-6 2h-3l-3 1-1-2 3-3 3-1 3-1 5 1Z"/><path fill="#B6E1BF" d="m1417 476 2 1c-5 5-11 9-17 12l-3-1c3-3 6-5 10-6s4-1 5-3l1-2 2-1Z"/><path fill="#012809" d="m1427 478 2 1-2 3h-2l-1 2-3 3h-3l-3 1h-2v-2l2-1 12-7Z"/><path fill="#1E8834" d="m1425 474 4 1-1 1-2 1-2 2-3 4-4 2-2 1h-6l4-2 2-1 4-1 2-4h2l2-4Z"/><path fill="#A5E5C8" d="m1410 261 2 3 2 2 3 7v3l1 2c-4-4-9-8-9-14l1-3Z"/><path fill="#0B890B" d="m25 242 2 1-2 6-2 3-3 4h-2l1-4 1-3c2-6 2-6 5-7Z"/><path fill="#638867" d="M1197 172c3 2 3 4 4 7h2l3 4 1 3 1 4c-4-1-4-3-7-6l-1-3-3-9Z"/><path fill="#012A0A" d="M174 175h11c-3 3-6 3-10 3v2l-3 1-2-5 4-1Z"/><path fill="#0A800A" d="M244 538h1l1 9-6 5h-2l4-7 2-7Z"/><path fill="#000B02" d="M1476 260c5 5 8 11 9 18h-2l-1-2-1-3-2-3-3-6v-4Z"/><path fill="#126421" d="M1256 515h3v4h22v1h-28l3-5Z"/><path fill="#000B02" d="M1367 509c-3 3-5 3-9 4h-4l-7 1v-2c7-2 13-3 20-3Z"/><path fill="#AADCB4" d="m1463 432 1 3-5 7-1 2-4 4-2-1 2-3 4-7 1-2 4-1v-2Z"/><path fill="#1F7531" d="M1489 366h1l-1 24h-3l3-24Z"/><path fill="#DCF2DC" d="M84 369v5l-1 3-1 3-1 2h-2l-2-7 7-6Z"/><path fill="#1B7D30" d="m1467 256 4 2v4l2 1 4 3 1 8-4-7-1-3-3-1c-3-4-3-4-3-7Z"/><path fill="#074513" d="M1261 519h4a407247851 407247851 0 0 1 16 1v1l-28 1-1 3h-2l2-5 9-1Z"/><path fill="#8FE5BF" d="m1373 449-9 6-3 1h-6 2v-2l5-2 3-2 8-1Z"/><path fill="#9FE8C8" d="M1407 422c0 4-1 5-4 8l-6 5-2 1-4 3-2-1 2-2 16-14Z"/><path fill="#98E2C1" d="m145 247 2 1-2 2-16 14c0-4 1-5 4-8l6-5 2-1 4-3Z"/><path fill="#012E0A" d="M213 169h8l-12 3h-8v-2l12-1Z"/><path fill="#8DE0BB" d="M109 292h1c0 5-1 9-3 14h-6l2-1c3-4 4-8 6-13Z"/><path fill="#ABDCB6" d="M1476 276c3 3 4 7 5 11l1 4v6l-1-4-1-3-1-6h-2l-1-8Z"/><path fill="#81C890" d="m237 171-2 1v2l-16-1v-1l18-1Z"/><path fill="#CAF0D9" d="m114 402 3 3a259 259 0 0 1-4 6l-1 2h-3l1-4 1-3 3-4Z"/><path fill="#CFF2E3" d="M1415 270c3 1 5 3 7 6l1 6c-4-3-6-5-8-10v-2Z"/><path fill="#000902" d="M1334 515h7c-3 3-5 2-9 3h-7v-2c3-2 6-1 9-1Z"/><path fill="#02320A" d="M204 514h6l4 1 7 2h-10l-1 2-6-4v-1Z"/><path fill="#2CB02C" d="m122 214 5 1h4v1h-6l-4 1-8 1 1-4h8Z"/><path fill="#94D2A1" d="M1347 507c-4 2-8 2-12 2v2h-6c2-3 5-4 8-4l3-1 7 1Z"/><path fill="#177B2C" d="M1471 424h1c0 4 0 5-2 8s-2 3-5 4c1-5 3-8 6-12Z"/><path fill="#54B569" d="m1403 487 2 1-4 2v2l-4 2h-8l7-4 2-1 5-2Z"/><path fill="#9EE8C7" d="m1417 408 1 2-3 5-1 3-6 4a487 487 0 0 0 9-14Z"/><path fill="#5D8963" d="M1212 196c3 2 4 5 6 8l1 3 1 2h-3l-2-4-2-3-1-6Z"/><path fill="#000A00" d="M1271 126h2l-5 11-2 3-1 2h-2l5-11 2-3 1-2Z"/><path fill="#B4EED4" d="M1359 457c-3 3-6 3-10 3v2l-6 1 2-1v-2c5-2 9-3 14-3Z"/><path fill="#106D25" d="m1464 436 1 4-3 5-1 2-2 2h-2l1-2 2-4 1-2 1-2 2-3Z"/><path fill="#03320C" d="m42 314 4 3-1 7-5-5 2-1v-4Z"/><path fill="#000A00" d="m1242 546 1 2-3 7-1 1-3 5h-2c2-5 4-11 8-15Z"/><path fill="#48A65C" d="M1461 438v4c-1 4-4 6-7 8l4-8 2-2 1-2Z"/><path fill="#1F8535" d="M1478 408h2c-1 7-3 11-7 16l-1-2 2-5 4-9Z"/><path fill="#001705" d="M1421 487c-5 3-8 4-14 4 4-3 9-6 14-4Z"/><path fill="#8DDEBA" d="M191 226h-2v2l-5 2h-9l6-3 3-1h7Z"/><path fill="#066C06" d="m129 143 2 1-11 11c0-4 2-6 5-9l4-3Z"/><path fill="#000B00" d="M1191 529c4 4 7 8 9 13l-1 2c-3-4-8-10-8-15Z"/><path fill="#B0DEB9" d="m1399 490-5 3-2 1h-7 2v-2l4-2h8Z"/><path fill="#023104" d="M114 481v2h-8l-1-1h-7v-1h16Z"/><path fill="#024610" d="M1459 448v3l-4 1v4h-2l-2 4-2-1 2-4h3v-4l5-3Z"/><path fill="#9EE8C7" d="M1425 394v6l-1 2-2 2-4 4 7-14Z"/><path fill="#9AE4C3" d="M1418 278c4 3 6 5 8 10l-1 4-7-14Z"/><path fill="#06220B" d="m1158 110 5 1 2 9-7-10Z"/><path fill="#044611" d="M1355 507h10l-6 3-2 1-6-1 4-1v-2Z"/><path fill="#9BD5A7" d="m1428 470-2 6c-3 2-5 3-9 3 3-4 7-6 11-9Z"/><path fill="#012B09" d="m1482 276 1 2h3v10c-3-3-3-5-4-8v-4Z"/><path fill="#D2F1E0" d="m121 270-2 6-5 1 1-5 6-2Z"/><path fill="#127427" d="M1465 250c4 1 5 3 7 7v5l-1-2-3-4c-2-2-3-3-3-6Z"/><path fill="#3C814C" d="m1281 470 1 2 3 2-3 4h-3l2-8Z"/><path fill="#035114" d="m1449 226 4 2v2h2l1 5-4-2v-2h-2l-1-5Z"/><path fill="#91D39B" d="M111 214c-3 3-6 5-11 6 1-3 1-4 4-5l2-1h5Z"/><path fill="#86CD95" d="M173 181h10c-2 2-3 2-7 3l-2 1h-2l1-4Z"/><path fill="#77C788" d="M1377 499c-3 3-5 3-8 4l-4-1h2v-2c3-2 6-1 10-1Z"/><path fill="#16802D" d="m1398 494-3 3h-8c3-3 6-5 11-3Z"/><path fill="#93E4BC" d="m148 438 5 3v2h2l-1 5-1-2c-1-3-3-3-6-4l1-4Z"/><path fill="#69D6A6" d="M113 286h1c0 5-1 8-3 12h-1c0-5 1-8 3-12Z"/><path fill="#000D00" d="m1443 205 1 2-2 3v6l-4-1c1-4 2-7 5-10Z"/><path fill="#0B7F0B" d="m55 187 2 1-9 7c3-8 3-8 7-8Z"/><path fill="#2F7E44" d="M1163 472c3 4 3 4 3 7l-5-1-1-3h3v-3Z"/><path fill="#76DFB0" d="m189 459 10 1v2l2 1-12-3v-1Z"/><path fill="#35753B" d="M984 167c2 2 2 2 2 5h-6l-1-3h5v-2Z"/><path fill="#000F03" d="M211 517h10v2l-9 1-1-3Z"/><path fill="#056615" d="m114 481 7 2v2l-9-1 2-1v-2Z"/><path fill="#63BC75" d="M1485 384h1c0 5-1 8-3 12v-8l1-2 1-2Z"/><path fill="#044511" d="M1491 373v8l-1 3v2h-1v-12l2-1Z"/><path fill="#63BC75" d="m1482 290 3 3 1 9c-3-3-3-5-4-8v-4Z"/><path fill="#098309" d="m55 259 4 1-1 5-4 2 1-8Z"/><path fill="#CDF1E1" d="M129 258h2c-1 3-3 6-6 8l-1-2 5-6Z"/><path fill="#2C9341" d="M1453 234c4 1 5 4 7 8l1 2c-7-4-7-4-8-8v-2Z"/><path fill="#0D7223" d="M1351 507h4v2c-3 2-4 2-7 2l-3-1v-1h6v-2Z"/><path fill="#034B12" d="m1448 460-1 5-4 1 1-5 4-1Z"/><path fill="#012408" d="M1464 440h2l-1 6-5 2 4-8Z"/><path fill="#03450B" d="m59 425 6 2 1 3-9-2 2-3Z"/><path fill="#13A815" d="M124 399h6v2l-8 3 2-5Z"/><path fill="#327941" d="M1002 206h6l1 4-7-1v-3Z"/><path fill="#167C2C" d="m1442 462 1 4-6 2c1-3 2-4 5-6Z"/><path fill="#DCF7EB" d="m1367 455-6 4-4-1h2v-2l8-1Z"/><path fill="#74DEAF" d="M1357 455c-3 3-6 4-10 4v-2c4-2 6-2 10-2Z"/><path fill="#79C584" d="m48 375 4 2v5l-4-2v-5Z"/><path fill="#D9F3E8" d="M179 228h-2v2l-8 1c3-3 6-5 10-3Z"/><path fill="#22AD22" d="m134 227 1 4-6 3 5-7Z"/><path fill="#3B793F" d="m1430 215 3 1v2l3 1-4 2-2-2v-4Z"/><path fill="#0A2F12" d="m1265 141 1 2-2 4h-2l-1 3-1-3c2-5 2-5 5-6Z"/><path fill="#092F10" d="M1176 139c3 1 3 1 5 4l1 3-1 2-1-3h-2l-2-6Z"/><path fill="#38A24E" d="m1433 468 4 1-6 5-2-1 4-5Z"/><path fill="#097E09" d="m8 303 3 1-5 7 2-8Z"/><path fill="#088708" d="M83 158h3l-1 5-4 2 2-7Z"/><path fill="#034B12" d="m1442 466 1 2h-2v2l-4 2-1-3 6-3Z"/><path fill="#DFF8EC" d="M1357 460c-5 3-5 3-8 3l-2-1h2v-2h8Z"/><path fill="#7CC78B" d="m1477 408 1 4-3 4v-6h2v-2Z"/><path fill="#81DAAA" d="M107 300v6h-6l4-4h2v-2Z"/><path fill="#4FB164" d="m1467 256 4 2 1 6c-3-3-4-4-5-8Z"/><path fill="#156821" d="M1432 211v2l3 3 2 1-4 1v-2h-2l1-5Z"/></svg>